G04*
G04 #@! TF.GenerationSoftware,Altium Limited,Altium Designer,21.0.8 (223)*
G04*
G04 Layer_Color=8388736*
%FSLAX24Y24*%
%MOIN*%
G70*
G04*
G04 #@! TF.SameCoordinates,BD5FB969-D095-4558-B3B7-B1EEFE242F9F*
G04*
G04*
G04 #@! TF.FilePolarity,Negative*
G04*
G01*
G75*
%ADD14R,0.0374X0.0276*%
%ADD15R,0.0533X0.0493*%
%ADD16R,0.0592X0.0297*%
%ADD17R,0.0336X0.0493*%
%ADD18R,0.0493X0.0336*%
%ADD19R,0.0395X0.0454*%
%ADD20R,0.0415X0.0356*%
%ADD21R,0.0592X0.0533*%
%ADD22C,0.0080*%
%ADD23R,0.0780X0.0780*%
%ADD24C,0.0780*%
%ADD25C,0.0420*%
D14*
X9425Y12900D02*
D03*
X10075D02*
D03*
X15625Y1800D02*
D03*
X16275D02*
D03*
X15675Y550D02*
D03*
X16325D02*
D03*
X10025Y11650D02*
D03*
X9375D02*
D03*
D15*
X12715Y15350D02*
D03*
X13385D02*
D03*
X10865Y8650D02*
D03*
X11535D02*
D03*
X10235Y9700D02*
D03*
X9565D02*
D03*
X5869Y14600D02*
D03*
X5200D02*
D03*
D16*
X13424Y14017D02*
D03*
Y13643D02*
D03*
Y13269D02*
D03*
X12479D02*
D03*
Y13643D02*
D03*
Y14017D02*
D03*
D17*
X1615Y2600D02*
D03*
X2285D02*
D03*
X1565Y800D02*
D03*
X2235D02*
D03*
X12715Y12200D02*
D03*
X13385D02*
D03*
D18*
X11300Y13085D02*
D03*
Y12415D02*
D03*
X11350Y14265D02*
D03*
Y14935D02*
D03*
D19*
X5101Y12642D02*
D03*
X5593D02*
D03*
X1604Y13650D02*
D03*
X2096D02*
D03*
X5204Y13600D02*
D03*
X5696D02*
D03*
D20*
X2050Y16696D02*
D03*
Y16204D02*
D03*
X4242Y16639D02*
D03*
Y16147D02*
D03*
D21*
X1100Y15807D02*
D03*
Y16693D02*
D03*
X3350Y15757D02*
D03*
Y16643D02*
D03*
D22*
X15100Y6000D02*
D03*
X3000D02*
D03*
D23*
X8350Y9600D02*
D03*
X17350Y11750D02*
D03*
X6650Y650D02*
D03*
D24*
X8350Y8600D02*
D03*
Y7600D02*
D03*
Y6600D02*
D03*
Y5600D02*
D03*
Y4600D02*
D03*
X17350Y9600D02*
D03*
Y8600D02*
D03*
Y7600D02*
D03*
Y6600D02*
D03*
Y5600D02*
D03*
Y4600D02*
D03*
X8350Y3600D02*
D03*
Y2600D02*
D03*
Y1600D02*
D03*
Y600D02*
D03*
X17350Y3600D02*
D03*
Y2600D02*
D03*
Y1600D02*
D03*
Y600D02*
D03*
X8350Y16750D02*
D03*
Y15750D02*
D03*
Y14750D02*
D03*
Y13750D02*
D03*
Y12750D02*
D03*
Y11750D02*
D03*
X17350Y16750D02*
D03*
Y15750D02*
D03*
Y14750D02*
D03*
Y13750D02*
D03*
Y12750D02*
D03*
X650Y13650D02*
D03*
Y12650D02*
D03*
Y11650D02*
D03*
Y10650D02*
D03*
Y9650D02*
D03*
Y8650D02*
D03*
Y7650D02*
D03*
Y6650D02*
D03*
Y5650D02*
D03*
Y4650D02*
D03*
Y3650D02*
D03*
Y2650D02*
D03*
Y1650D02*
D03*
Y650D02*
D03*
X6650Y13650D02*
D03*
Y12650D02*
D03*
Y11650D02*
D03*
Y10650D02*
D03*
Y9650D02*
D03*
Y8650D02*
D03*
Y7650D02*
D03*
Y6650D02*
D03*
Y5650D02*
D03*
Y4650D02*
D03*
Y3650D02*
D03*
Y2650D02*
D03*
Y1650D02*
D03*
D25*
X7120Y14590D02*
D03*
X4950Y13233D02*
D03*
X10431Y8687D02*
D03*
X12400Y10850D02*
D03*
X12450Y8700D02*
D03*
X10800Y11150D02*
D03*
X10350Y550D02*
D03*
X12000Y2000D02*
D03*
X14150Y9650D02*
D03*
Y11500D02*
D03*
X14950Y8500D02*
D03*
X15150Y12750D02*
D03*
X4870Y17110D02*
D03*
X15850Y16500D02*
D03*
Y13700D02*
D03*
X8050Y10300D02*
D03*
X16650Y10100D02*
D03*
X7400Y10550D02*
D03*
X10300Y10840D02*
D03*
X16300Y10500D02*
D03*
X5750Y2000D02*
D03*
X5300Y700D02*
D03*
X4750Y14650D02*
D03*
X2100Y10200D02*
D03*
X2050Y13100D02*
D03*
X12000Y12700D02*
D03*
Y16200D02*
D03*
X10650Y17200D02*
D03*
X10550Y14200D02*
D03*
Y11650D02*
D03*
X3500Y10650D02*
D03*
Y13700D02*
D03*
X4150Y14650D02*
D03*
Y11650D02*
D03*
X3850Y12700D02*
D03*
Y15050D02*
D03*
M02*
