G04*
G04 #@! TF.GenerationSoftware,Altium Limited,Altium Designer,21.0.8 (223)*
G04*
G04 Layer_Physical_Order=1*
G04 Layer_Color=255*
%FSLAX24Y24*%
%MOIN*%
G70*
G04*
G04 #@! TF.SameCoordinates,BD5FB969-D095-4558-B3B7-B1EEFE242F9F*
G04*
G04*
G04 #@! TF.FilePolarity,Positive*
G04*
G01*
G75*
%ADD14R,0.0374X0.0276*%
%ADD26R,0.0453X0.0413*%
%ADD27R,0.0512X0.0217*%
%ADD28R,0.0256X0.0413*%
%ADD29R,0.0413X0.0256*%
%ADD30R,0.0315X0.0374*%
%ADD31R,0.0335X0.0276*%
%ADD32R,0.0512X0.0453*%
%ADD33C,0.0080*%
%ADD34C,0.0200*%
%ADD35R,0.0374X0.0472*%
%ADD36R,0.0700X0.0700*%
%ADD37C,0.0700*%
%ADD38C,0.0340*%
G36*
X3305Y17541D02*
X3320Y17491D01*
X3313Y17487D01*
X2790Y16963D01*
X2764Y16924D01*
X2755Y16877D01*
Y16678D01*
X2403Y16326D01*
X2297D01*
Y16422D01*
X1803D01*
Y15986D01*
X2297D01*
Y16082D01*
X2454D01*
X2501Y16091D01*
X2540Y16117D01*
X2963Y16540D01*
X2964Y16541D01*
X3014Y16526D01*
Y16337D01*
X3686D01*
Y16516D01*
X3960D01*
X3995Y16481D01*
X3995Y16426D01*
X3975Y16384D01*
X3975Y16379D01*
Y16197D01*
X4510D01*
Y16379D01*
X4510Y16384D01*
X4490Y16426D01*
X4490Y16434D01*
Y16856D01*
X3995D01*
Y16761D01*
X3686D01*
Y16949D01*
X3188D01*
X3169Y16995D01*
X3451Y17278D01*
X4628D01*
X4652Y17234D01*
X4635Y17208D01*
X4615Y17110D01*
X4635Y17012D01*
X4690Y16930D01*
X4772Y16875D01*
X4870Y16855D01*
X4968Y16875D01*
X5050Y16930D01*
X5089Y16988D01*
X7525D01*
X7572Y16997D01*
X7612Y17023D01*
X7686Y17098D01*
X7987D01*
X8011Y17048D01*
X7957Y16977D01*
X7912Y16867D01*
X7903Y16800D01*
X8350D01*
X8797D01*
X8788Y16867D01*
X8743Y16977D01*
X8689Y17048D01*
X8713Y17098D01*
X10169D01*
X10853Y16413D01*
X10885Y16392D01*
X10882Y16356D01*
X10877Y16342D01*
X8640D01*
X8623Y16392D01*
X8671Y16429D01*
X8743Y16523D01*
X8788Y16633D01*
X8797Y16700D01*
X8350D01*
X7903D01*
X7912Y16633D01*
X7957Y16523D01*
X8029Y16429D01*
X8077Y16392D01*
X8060Y16342D01*
X6287D01*
X6240Y16333D01*
X6200Y16307D01*
X5773Y15879D01*
X4547D01*
X4510Y15909D01*
X4510Y15929D01*
Y16097D01*
X3975D01*
Y15929D01*
X3975Y15909D01*
X3937Y15879D01*
X3686D01*
Y16063D01*
X3014D01*
Y15451D01*
X3686D01*
Y15635D01*
X5824D01*
X5871Y15644D01*
X5910Y15671D01*
X6337Y16098D01*
X8022D01*
X8036Y16048D01*
X7974Y15967D01*
X7935Y15872D01*
X7550D01*
X7503Y15863D01*
X7463Y15837D01*
X7009Y15382D01*
X4060D01*
X4013Y15373D01*
X3973Y15347D01*
X3918Y15291D01*
X3850Y15305D01*
X3752Y15286D01*
X3670Y15230D01*
X3614Y15148D01*
X3595Y15050D01*
X3614Y14952D01*
X3670Y14870D01*
X3752Y14814D01*
X3850Y14795D01*
X3892Y14803D01*
X3922Y14758D01*
X3914Y14748D01*
X3895Y14650D01*
X3914Y14552D01*
X3970Y14470D01*
X4052Y14414D01*
X4150Y14395D01*
X4248Y14414D01*
X4330Y14470D01*
X4385Y14552D01*
X4405Y14650D01*
X4391Y14718D01*
X4522Y14849D01*
X4561Y14818D01*
X4552Y14803D01*
X4514Y14748D01*
X4495Y14650D01*
X4514Y14552D01*
X4570Y14470D01*
X4652Y14414D01*
X4750Y14395D01*
X4844Y14414D01*
X4855Y14413D01*
X4894Y14392D01*
Y14313D01*
X5506D01*
Y14887D01*
X4894D01*
X4894Y14887D01*
X4844Y14886D01*
X4750Y14905D01*
X4652Y14885D01*
X4597Y14849D01*
X4582Y14839D01*
X4551Y14878D01*
X4651Y14978D01*
X7926D01*
X7960Y14932D01*
X7931Y14862D01*
X7916Y14750D01*
X7931Y14638D01*
X7974Y14533D01*
X8043Y14443D01*
X8133Y14374D01*
X8238Y14331D01*
X8350Y14316D01*
X8462Y14331D01*
X8567Y14374D01*
X8657Y14443D01*
X8726Y14533D01*
X8769Y14638D01*
X8784Y14750D01*
X8769Y14862D01*
X8726Y14967D01*
X8657Y15057D01*
X8567Y15126D01*
X8462Y15169D01*
X8350Y15184D01*
X8238Y15169D01*
X8143Y15130D01*
X8087Y15187D01*
X8047Y15213D01*
X8000Y15222D01*
X7261D01*
X7242Y15269D01*
X7601Y15628D01*
X7935D01*
X7974Y15533D01*
X8043Y15443D01*
X8133Y15374D01*
X8238Y15331D01*
X8350Y15316D01*
X8462Y15331D01*
X8567Y15374D01*
X8657Y15443D01*
X8726Y15533D01*
X8769Y15638D01*
X8784Y15750D01*
X8769Y15862D01*
X8726Y15967D01*
X8664Y16048D01*
X8678Y16098D01*
X11768D01*
X11820Y16020D01*
X11902Y15964D01*
X12000Y15945D01*
X12098Y15964D01*
X12180Y16020D01*
X12235Y16102D01*
X12255Y16200D01*
X12235Y16298D01*
X12211Y16334D01*
X12235Y16378D01*
X15631D01*
X15670Y16320D01*
X15752Y16264D01*
X15850Y16245D01*
X15948Y16264D01*
X16030Y16320D01*
X16085Y16402D01*
X16105Y16500D01*
X16085Y16598D01*
X16030Y16680D01*
X15948Y16736D01*
X15850Y16755D01*
X15752Y16736D01*
X15670Y16680D01*
X15631Y16622D01*
X10991D01*
X10702Y16911D01*
X10717Y16958D01*
X10748Y16964D01*
X10830Y17020D01*
X10885Y17102D01*
X10905Y17200D01*
X10885Y17298D01*
X10830Y17380D01*
X10748Y17435D01*
X10650Y17455D01*
X10590Y17443D01*
X10559Y17477D01*
X10577Y17521D01*
X18000Y17500D01*
Y100D01*
X18004Y96D01*
X17985Y50D01*
X50D01*
Y17515D01*
X85Y17550D01*
X3305Y17541D01*
D02*
G37*
%LPC*%
G36*
X17400Y17197D02*
Y16800D01*
X17797D01*
X17788Y16867D01*
X17743Y16977D01*
X17671Y17071D01*
X17577Y17143D01*
X17467Y17188D01*
X17400Y17197D01*
D02*
G37*
G36*
X17300D02*
X17233Y17188D01*
X17123Y17143D01*
X17029Y17071D01*
X16957Y16977D01*
X16912Y16867D01*
X16903Y16800D01*
X17300D01*
Y17197D01*
D02*
G37*
G36*
X1436Y16999D02*
X764D01*
Y16387D01*
X1436D01*
Y16574D01*
X1803D01*
Y16478D01*
X2297D01*
Y16914D01*
X1803D01*
Y16818D01*
X1436D01*
Y16999D01*
D02*
G37*
G36*
X17797Y16700D02*
X17400D01*
Y16303D01*
X17467Y16312D01*
X17577Y16357D01*
X17671Y16429D01*
X17743Y16523D01*
X17788Y16633D01*
X17797Y16700D01*
D02*
G37*
G36*
X17300D02*
X16903D01*
X16912Y16633D01*
X16957Y16523D01*
X17029Y16429D01*
X17123Y16357D01*
X17233Y16312D01*
X17300Y16303D01*
Y16700D01*
D02*
G37*
G36*
X1456Y16133D02*
X1150D01*
Y15857D01*
X1456D01*
Y16133D01*
D02*
G37*
G36*
X1050D02*
X744D01*
Y15857D01*
X1050D01*
Y16133D01*
D02*
G37*
G36*
X1456Y15757D02*
X1150D01*
Y15481D01*
X1456D01*
Y15757D01*
D02*
G37*
G36*
X1050D02*
X744D01*
Y15481D01*
X1050D01*
Y15757D01*
D02*
G37*
G36*
X17350Y16184D02*
X17238Y16169D01*
X17133Y16126D01*
X17043Y16057D01*
X16974Y15967D01*
X16931Y15862D01*
X16916Y15750D01*
X16931Y15638D01*
X16974Y15533D01*
X17043Y15443D01*
X17133Y15374D01*
X17238Y15331D01*
X17350Y15316D01*
X17462Y15331D01*
X17567Y15374D01*
X17657Y15443D01*
X17726Y15533D01*
X17769Y15638D01*
X17784Y15750D01*
X17769Y15862D01*
X17726Y15967D01*
X17657Y16057D01*
X17567Y16126D01*
X17462Y16169D01*
X17350Y16184D01*
D02*
G37*
G36*
X11657Y15163D02*
X11400D01*
Y14985D01*
X11657D01*
Y15163D01*
D02*
G37*
G36*
X11300D02*
X11043D01*
Y14985D01*
X11300D01*
Y15163D01*
D02*
G37*
G36*
X11657Y14885D02*
X11400D01*
Y14707D01*
X11657D01*
Y14885D01*
D02*
G37*
G36*
X11300D02*
X11043D01*
Y14707D01*
X11300D01*
Y14885D01*
D02*
G37*
G36*
X6176Y14887D02*
X5563D01*
Y14313D01*
X6176D01*
Y14478D01*
X6894D01*
X6940Y14410D01*
X7022Y14354D01*
X7120Y14335D01*
X7218Y14354D01*
X7300Y14410D01*
X7355Y14492D01*
X7375Y14590D01*
X7355Y14688D01*
X7300Y14770D01*
X7218Y14826D01*
X7120Y14845D01*
X7022Y14826D01*
X6940Y14770D01*
X6908Y14722D01*
X6176D01*
Y14887D01*
D02*
G37*
G36*
X17350Y15184D02*
X17238Y15169D01*
X17133Y15126D01*
X17043Y15057D01*
X16974Y14967D01*
X16931Y14862D01*
X16916Y14750D01*
X16931Y14638D01*
X16974Y14533D01*
X17043Y14443D01*
X17133Y14374D01*
X17238Y14331D01*
X17350Y14316D01*
X17462Y14331D01*
X17567Y14374D01*
X17657Y14443D01*
X17726Y14533D01*
X17769Y14638D01*
X17784Y14750D01*
X17769Y14862D01*
X17726Y14967D01*
X17657Y15057D01*
X17567Y15126D01*
X17462Y15169D01*
X17350Y15184D01*
D02*
G37*
G36*
X13022Y15637D02*
X12409D01*
Y15217D01*
X12392Y15200D01*
X12366Y15160D01*
X12356Y15113D01*
Y14205D01*
X12143D01*
Y14200D01*
X11753D01*
X11637Y14317D01*
Y14473D01*
X11063D01*
Y14449D01*
X10653D01*
X10617Y14442D01*
X10550Y14455D01*
X10452Y14435D01*
X10370Y14380D01*
X10315Y14298D01*
X10295Y14200D01*
X10315Y14102D01*
X10370Y14020D01*
X10452Y13965D01*
X10550Y13945D01*
X10648Y13965D01*
X10730Y14020D01*
X10772Y14082D01*
X11063D01*
Y14057D01*
X11377D01*
X11548Y13887D01*
X11607Y13847D01*
X11677Y13833D01*
X11808D01*
X11823Y13783D01*
X11807Y13772D01*
X11327Y13293D01*
X11013D01*
Y12877D01*
X11327D01*
X11514Y12689D01*
X11495Y12643D01*
X11350D01*
Y12465D01*
X11607D01*
Y12537D01*
X11657Y12564D01*
X11666Y12557D01*
X11737Y12543D01*
X11804D01*
X11820Y12520D01*
X11902Y12464D01*
X12000Y12445D01*
X12098Y12464D01*
X12180Y12520D01*
X12235Y12602D01*
X12255Y12700D01*
X12235Y12798D01*
X12180Y12880D01*
X12098Y12936D01*
X12000Y12955D01*
X11902Y12936D01*
X11865Y12910D01*
X11813D01*
X11638Y13085D01*
X12013Y13459D01*
X12143D01*
Y13080D01*
X12356D01*
Y12515D01*
X12366Y12468D01*
X12392Y12429D01*
X12507Y12314D01*
Y11913D01*
X12923D01*
Y12487D01*
X12680D01*
X12601Y12566D01*
Y13080D01*
X12815D01*
Y13454D01*
Y13828D01*
Y14205D01*
X12601D01*
Y15063D01*
X12602Y15063D01*
X13022D01*
Y15637D01*
D02*
G37*
G36*
X17350Y14184D02*
X17238Y14169D01*
X17133Y14126D01*
X17043Y14057D01*
X16974Y13967D01*
X16931Y13862D01*
X16929Y13847D01*
X16052D01*
X16030Y13880D01*
X15948Y13936D01*
X15850Y13955D01*
X15752Y13936D01*
X15670Y13880D01*
X15615Y13798D01*
X15595Y13700D01*
X15615Y13602D01*
X15670Y13520D01*
X15752Y13464D01*
X15850Y13445D01*
X15948Y13464D01*
X16030Y13520D01*
X16085Y13602D01*
X16086Y13603D01*
X16946D01*
X16974Y13533D01*
X17043Y13443D01*
X17133Y13374D01*
X17238Y13331D01*
X17350Y13316D01*
X17462Y13331D01*
X17567Y13374D01*
X17657Y13443D01*
X17726Y13533D01*
X17769Y13638D01*
X17784Y13750D01*
X17769Y13862D01*
X17726Y13967D01*
X17657Y14057D01*
X17567Y14126D01*
X17462Y14169D01*
X17350Y14184D01*
D02*
G37*
G36*
X13691Y15637D02*
X13078D01*
Y15063D01*
X13262D01*
Y14205D01*
X13088D01*
Y13851D01*
X13068D01*
Y13693D01*
X13424D01*
X13780D01*
Y13851D01*
X13760D01*
Y14205D01*
X13507D01*
Y15063D01*
X13691D01*
Y15637D01*
D02*
G37*
G36*
X7185Y14242D02*
X3920D01*
X3873Y14233D01*
X3833Y14207D01*
X3568Y13941D01*
X3500Y13955D01*
X3402Y13936D01*
X3320Y13880D01*
X3264Y13798D01*
X3245Y13700D01*
X3264Y13602D01*
X3320Y13520D01*
X3402Y13464D01*
X3500Y13445D01*
X3598Y13464D01*
X3680Y13520D01*
X3735Y13602D01*
X3755Y13700D01*
X3741Y13768D01*
X3971Y13998D01*
X6322D01*
X6336Y13948D01*
X6274Y13867D01*
X6235Y13772D01*
X5934D01*
Y13867D01*
X5491D01*
X5459Y13867D01*
X5409Y13867D01*
X4966D01*
Y13506D01*
X4948Y13488D01*
X4852Y13469D01*
X4770Y13413D01*
X4714Y13331D01*
X4695Y13233D01*
X4714Y13135D01*
X4770Y13053D01*
X4852Y12998D01*
X4950Y12978D01*
X5047Y12998D01*
X5130Y13053D01*
X5185Y13135D01*
X5205Y13233D01*
X5195Y13283D01*
X5236Y13333D01*
X5409D01*
X5441Y13333D01*
X5491Y13333D01*
X5934D01*
Y13528D01*
X6235D01*
X6274Y13433D01*
X6343Y13343D01*
X6433Y13274D01*
X6538Y13231D01*
X6650Y13216D01*
X6762Y13231D01*
X6867Y13274D01*
X6957Y13343D01*
X7026Y13433D01*
X7069Y13538D01*
X7084Y13650D01*
X7069Y13762D01*
X7026Y13867D01*
X6964Y13948D01*
X6978Y13998D01*
X7135D01*
X7169Y13963D01*
X7208Y13937D01*
X7255Y13928D01*
X7904D01*
X7938Y13879D01*
X7931Y13862D01*
X7916Y13750D01*
X7931Y13638D01*
X7974Y13533D01*
X8043Y13443D01*
X8133Y13374D01*
X8238Y13331D01*
X8350Y13316D01*
X8462Y13331D01*
X8567Y13374D01*
X8657Y13443D01*
X8726Y13533D01*
X8769Y13638D01*
X8784Y13750D01*
X8769Y13862D01*
X8726Y13967D01*
X8657Y14057D01*
X8567Y14126D01*
X8462Y14169D01*
X8350Y14184D01*
X8238Y14169D01*
X8133Y14126D01*
X8105Y14104D01*
X8072Y14137D01*
X8032Y14163D01*
X7985Y14172D01*
X7306D01*
X7272Y14207D01*
X7232Y14233D01*
X7185Y14242D01*
D02*
G37*
G36*
X9612Y13218D02*
X9238D01*
X9207Y13212D01*
X9181Y13194D01*
X9163Y13167D01*
X9157Y13136D01*
Y13084D01*
X8635D01*
X8624Y13081D01*
X8567Y13126D01*
X8462Y13169D01*
X8350Y13184D01*
X8238Y13169D01*
X8133Y13126D01*
X8043Y13057D01*
X7974Y12967D01*
X7931Y12862D01*
X7916Y12750D01*
X7931Y12638D01*
X7974Y12533D01*
X8043Y12443D01*
X8133Y12374D01*
X8238Y12331D01*
X8350Y12316D01*
X8462Y12331D01*
X8567Y12374D01*
X8657Y12443D01*
X8726Y12533D01*
X8769Y12638D01*
X8779Y12716D01*
X9157D01*
Y12664D01*
X9163Y12633D01*
X9181Y12606D01*
X9207Y12588D01*
X9238Y12582D01*
X9612D01*
X9643Y12588D01*
X9670Y12606D01*
X9688Y12633D01*
X9694Y12664D01*
Y13136D01*
X9688Y13167D01*
X9670Y13194D01*
X9643Y13212D01*
X9612Y13218D01*
D02*
G37*
G36*
X17350Y13184D02*
X17238Y13169D01*
X17133Y13126D01*
X17043Y13057D01*
X16974Y12967D01*
X16935Y12872D01*
X15369D01*
X15330Y12930D01*
X15248Y12986D01*
X15150Y13005D01*
X15052Y12986D01*
X14970Y12930D01*
X14914Y12848D01*
X14895Y12750D01*
X14914Y12652D01*
X14970Y12570D01*
X15052Y12514D01*
X15150Y12495D01*
X15248Y12514D01*
X15330Y12570D01*
X15369Y12628D01*
X16935D01*
X16974Y12533D01*
X17043Y12443D01*
X17133Y12374D01*
X17238Y12331D01*
X17350Y12316D01*
X17462Y12331D01*
X17567Y12374D01*
X17657Y12443D01*
X17726Y12533D01*
X17769Y12638D01*
X17784Y12750D01*
X17769Y12862D01*
X17726Y12967D01*
X17657Y13057D01*
X17567Y13126D01*
X17462Y13169D01*
X17350Y13184D01*
D02*
G37*
G36*
X650Y14084D02*
X538Y14069D01*
X433Y14026D01*
X343Y13957D01*
X274Y13867D01*
X231Y13762D01*
X216Y13650D01*
X231Y13538D01*
X274Y13433D01*
X343Y13343D01*
X433Y13274D01*
X538Y13231D01*
X650Y13216D01*
X762Y13231D01*
X867Y13274D01*
X957Y13343D01*
X1026Y13433D01*
X1065Y13528D01*
X1366D01*
Y13383D01*
X1809D01*
X1841Y13383D01*
X1918Y13383D01*
X1949Y13337D01*
X1949Y13333D01*
X1870Y13280D01*
X1815Y13198D01*
X1795Y13100D01*
X1815Y13002D01*
X1870Y12920D01*
X1952Y12865D01*
X2014Y12852D01*
X2039Y12847D01*
X2034Y12797D01*
X1054D01*
X1026Y12867D01*
X957Y12957D01*
X867Y13026D01*
X762Y13069D01*
X650Y13084D01*
X538Y13069D01*
X433Y13026D01*
X343Y12957D01*
X274Y12867D01*
X231Y12762D01*
X216Y12650D01*
X231Y12538D01*
X274Y12433D01*
X343Y12343D01*
X433Y12274D01*
X538Y12231D01*
X650Y12216D01*
X762Y12231D01*
X867Y12274D01*
X957Y12343D01*
X1026Y12433D01*
X1069Y12538D01*
X1071Y12553D01*
X3648D01*
X3670Y12520D01*
X3752Y12464D01*
X3850Y12445D01*
X3948Y12464D01*
X4030Y12520D01*
X4085Y12602D01*
X4105Y12700D01*
X4085Y12798D01*
X4030Y12880D01*
X3948Y12936D01*
X3850Y12955D01*
X3752Y12936D01*
X3670Y12880D01*
X3614Y12798D01*
X3614Y12797D01*
X2066D01*
X2061Y12847D01*
X2086Y12852D01*
X2148Y12865D01*
X2230Y12920D01*
X2285Y13002D01*
X2305Y13100D01*
X2285Y13198D01*
X2230Y13280D01*
X2218Y13288D01*
Y13383D01*
X2334D01*
Y13917D01*
X1891D01*
X1859Y13917D01*
X1809Y13917D01*
X1366D01*
Y13772D01*
X1065D01*
X1026Y13867D01*
X957Y13957D01*
X867Y14026D01*
X762Y14069D01*
X650Y14084D01*
D02*
G37*
G36*
X11250Y12643D02*
X10993D01*
Y12465D01*
X11250D01*
Y12643D01*
D02*
G37*
G36*
X10262Y13218D02*
X9888D01*
X9857Y13212D01*
X9830Y13194D01*
X9812Y13167D01*
X9806Y13136D01*
Y12664D01*
X9812Y12633D01*
X9830Y12606D01*
X9857Y12588D01*
X9888Y12582D01*
X10182D01*
X11066Y11698D01*
Y11291D01*
X11016Y11276D01*
X10980Y11330D01*
X10898Y11386D01*
X10800Y11405D01*
X10702Y11386D01*
X10620Y11330D01*
X10581Y11272D01*
X8399D01*
X8396Y11322D01*
X8462Y11331D01*
X8567Y11374D01*
X8657Y11443D01*
X8703Y11504D01*
X9107D01*
Y11414D01*
X9113Y11383D01*
X9131Y11356D01*
X9157Y11338D01*
X9188Y11332D01*
X9562D01*
X9593Y11338D01*
X9620Y11356D01*
X9638Y11383D01*
X9644Y11414D01*
Y11886D01*
X9638Y11917D01*
X9620Y11944D01*
X9593Y11962D01*
X9562Y11968D01*
X9188D01*
X9157Y11962D01*
X9131Y11944D01*
X9113Y11917D01*
X9107Y11886D01*
Y11871D01*
X8765D01*
X8726Y11967D01*
X8657Y12057D01*
X8567Y12126D01*
X8462Y12169D01*
X8350Y12184D01*
X8238Y12169D01*
X8133Y12126D01*
X8043Y12057D01*
X7974Y11967D01*
X7931Y11862D01*
X7916Y11750D01*
X7931Y11638D01*
X7974Y11533D01*
X8043Y11443D01*
X8133Y11374D01*
X8238Y11331D01*
X8304Y11322D01*
X8301Y11272D01*
X6946D01*
X6929Y11322D01*
X6957Y11343D01*
X7026Y11433D01*
X7069Y11538D01*
X7084Y11650D01*
X7069Y11762D01*
X7026Y11867D01*
X6957Y11957D01*
X6867Y12026D01*
X6762Y12069D01*
X6650Y12084D01*
X6538Y12069D01*
X6433Y12026D01*
X6343Y11957D01*
X6274Y11867D01*
X6231Y11762D01*
X6216Y11650D01*
X6231Y11538D01*
X6274Y11433D01*
X6343Y11343D01*
X6371Y11322D01*
X6354Y11272D01*
X6001D01*
X5223Y12050D01*
Y12339D01*
X5258Y12375D01*
X5338Y12375D01*
X5388Y12375D01*
X5830D01*
Y12528D01*
X6235D01*
X6274Y12433D01*
X6343Y12343D01*
X6433Y12274D01*
X6538Y12231D01*
X6650Y12216D01*
X6762Y12231D01*
X6867Y12274D01*
X6957Y12343D01*
X7026Y12433D01*
X7069Y12538D01*
X7084Y12650D01*
X7069Y12762D01*
X7026Y12867D01*
X6957Y12957D01*
X6867Y13026D01*
X6762Y13069D01*
X6650Y13084D01*
X6538Y13069D01*
X6433Y13026D01*
X6343Y12957D01*
X6274Y12867D01*
X6235Y12772D01*
X5830D01*
Y12909D01*
X5388D01*
X5355Y12909D01*
X5305Y12909D01*
X4863D01*
Y12375D01*
X4978D01*
Y11999D01*
X4988Y11952D01*
X5014Y11913D01*
X5863Y11063D01*
X5903Y11037D01*
X5950Y11028D01*
X6354D01*
X6371Y10978D01*
X6343Y10957D01*
X6274Y10867D01*
X6231Y10762D01*
X6216Y10650D01*
X6231Y10538D01*
X6274Y10433D01*
X6336Y10352D01*
X6322Y10302D01*
X2332D01*
X2280Y10380D01*
X2198Y10436D01*
X2100Y10455D01*
X2002Y10436D01*
X1920Y10380D01*
X1865Y10298D01*
X1845Y10200D01*
X1865Y10102D01*
X1920Y10020D01*
X2002Y9965D01*
X2100Y9945D01*
X2198Y9965D01*
X2280Y10020D01*
X2306Y10058D01*
X6393D01*
X6410Y10008D01*
X6343Y9957D01*
X6274Y9867D01*
X6231Y9762D01*
X6216Y9650D01*
X6231Y9538D01*
X6274Y9433D01*
X6343Y9343D01*
X6410Y9292D01*
X6393Y9242D01*
X4465D01*
X3970Y9737D01*
X3931Y9763D01*
X3884Y9772D01*
X1065D01*
X1026Y9867D01*
X957Y9957D01*
X867Y10026D01*
X762Y10069D01*
X650Y10084D01*
X538Y10069D01*
X433Y10026D01*
X343Y9957D01*
X274Y9867D01*
X231Y9762D01*
X216Y9650D01*
X231Y9538D01*
X274Y9433D01*
X343Y9343D01*
X433Y9274D01*
X538Y9231D01*
X650Y9216D01*
X762Y9231D01*
X867Y9274D01*
X957Y9343D01*
X1026Y9433D01*
X1065Y9528D01*
X3833D01*
X4327Y9033D01*
X4367Y9007D01*
X4414Y8998D01*
X6322D01*
X6336Y8948D01*
X6274Y8867D01*
X6231Y8762D01*
X6216Y8650D01*
X6231Y8538D01*
X6274Y8433D01*
X6343Y8343D01*
X6410Y8292D01*
X6393Y8242D01*
X4105D01*
X3610Y8737D01*
X3571Y8763D01*
X3524Y8772D01*
X1065D01*
X1026Y8867D01*
X957Y8957D01*
X867Y9026D01*
X762Y9069D01*
X650Y9084D01*
X538Y9069D01*
X433Y9026D01*
X343Y8957D01*
X274Y8867D01*
X231Y8762D01*
X216Y8650D01*
X231Y8538D01*
X274Y8433D01*
X343Y8343D01*
X433Y8274D01*
X538Y8231D01*
X650Y8216D01*
X762Y8231D01*
X867Y8274D01*
X957Y8343D01*
X1026Y8433D01*
X1065Y8528D01*
X3473D01*
X3967Y8033D01*
X4007Y8007D01*
X4054Y7998D01*
X6322D01*
X6336Y7948D01*
X6274Y7867D01*
X6231Y7762D01*
X6216Y7650D01*
X6231Y7538D01*
X6274Y7433D01*
X6336Y7352D01*
X6322Y7302D01*
X1171D01*
X1030Y7443D01*
X1069Y7538D01*
X1084Y7650D01*
X1069Y7762D01*
X1026Y7867D01*
X957Y7957D01*
X867Y8026D01*
X762Y8069D01*
X650Y8084D01*
X538Y8069D01*
X433Y8026D01*
X343Y7957D01*
X274Y7867D01*
X231Y7762D01*
X216Y7650D01*
X231Y7538D01*
X274Y7433D01*
X343Y7343D01*
X433Y7274D01*
X538Y7231D01*
X650Y7216D01*
X762Y7231D01*
X857Y7270D01*
X1033Y7093D01*
X1073Y7067D01*
X1120Y7058D01*
X6393D01*
X6410Y7008D01*
X6343Y6957D01*
X6274Y6867D01*
X6231Y6762D01*
X6218Y6661D01*
X6172Y6636D01*
X5922Y6887D01*
X5882Y6913D01*
X5835Y6922D01*
X1200D01*
X1153Y6913D01*
X1113Y6887D01*
X1082Y6855D01*
X1028Y6862D01*
X1026Y6867D01*
X957Y6957D01*
X867Y7026D01*
X762Y7069D01*
X650Y7084D01*
X538Y7069D01*
X433Y7026D01*
X343Y6957D01*
X274Y6867D01*
X231Y6762D01*
X216Y6650D01*
X231Y6538D01*
X274Y6433D01*
X343Y6343D01*
X433Y6274D01*
X538Y6231D01*
X650Y6216D01*
X762Y6231D01*
X867Y6274D01*
X957Y6343D01*
X1026Y6433D01*
X1069Y6538D01*
X1077Y6598D01*
X1120D01*
X1167Y6607D01*
X1207Y6633D01*
X1251Y6678D01*
X5785D01*
X6399Y6063D01*
X6398Y6001D01*
X6396Y5997D01*
X6343Y5957D01*
X6274Y5867D01*
X6231Y5762D01*
X6216Y5650D01*
X6231Y5538D01*
X6274Y5433D01*
X6343Y5343D01*
X6371Y5322D01*
X6354Y5272D01*
X1201D01*
X1030Y5443D01*
X1069Y5538D01*
X1084Y5650D01*
X1069Y5762D01*
X1026Y5867D01*
X957Y5957D01*
X867Y6026D01*
X762Y6069D01*
X650Y6084D01*
X538Y6069D01*
X433Y6026D01*
X343Y5957D01*
X274Y5867D01*
X231Y5762D01*
X216Y5650D01*
X231Y5538D01*
X274Y5433D01*
X343Y5343D01*
X433Y5274D01*
X538Y5231D01*
X650Y5216D01*
X762Y5231D01*
X857Y5270D01*
X1063Y5063D01*
X1103Y5037D01*
X1150Y5028D01*
X6354D01*
X6371Y4978D01*
X6343Y4957D01*
X6274Y4867D01*
X6231Y4762D01*
X6218Y4661D01*
X6172Y4636D01*
X6072Y4737D01*
X6032Y4763D01*
X5985Y4772D01*
X1065D01*
X1026Y4867D01*
X957Y4957D01*
X867Y5026D01*
X762Y5069D01*
X650Y5084D01*
X538Y5069D01*
X433Y5026D01*
X343Y4957D01*
X274Y4867D01*
X231Y4762D01*
X216Y4650D01*
X231Y4538D01*
X274Y4433D01*
X343Y4343D01*
X433Y4274D01*
X538Y4231D01*
X650Y4216D01*
X762Y4231D01*
X867Y4274D01*
X957Y4343D01*
X1026Y4433D01*
X1065Y4528D01*
X5935D01*
X6399Y4063D01*
X6398Y4001D01*
X6396Y3997D01*
X6343Y3957D01*
X6274Y3867D01*
X6231Y3762D01*
X6218Y3661D01*
X6172Y3636D01*
X6072Y3737D01*
X6032Y3763D01*
X5985Y3772D01*
X1065D01*
X1026Y3867D01*
X957Y3957D01*
X867Y4026D01*
X762Y4069D01*
X650Y4084D01*
X538Y4069D01*
X433Y4026D01*
X343Y3957D01*
X274Y3867D01*
X231Y3762D01*
X216Y3650D01*
X231Y3538D01*
X274Y3433D01*
X343Y3343D01*
X433Y3274D01*
X538Y3231D01*
X650Y3216D01*
X762Y3231D01*
X867Y3274D01*
X957Y3343D01*
X1026Y3433D01*
X1065Y3528D01*
X5935D01*
X6399Y3063D01*
X6398Y3001D01*
X6396Y2997D01*
X6343Y2957D01*
X6274Y2867D01*
X6231Y2762D01*
X6216Y2650D01*
X6231Y2538D01*
X6274Y2433D01*
X6343Y2343D01*
X6433Y2274D01*
X6538Y2231D01*
X6650Y2216D01*
X6762Y2231D01*
X6867Y2274D01*
X6957Y2343D01*
X7026Y2433D01*
X7069Y2538D01*
X7084Y2650D01*
X7069Y2762D01*
X7026Y2867D01*
X6960Y2953D01*
X6966Y2983D01*
X6972Y3003D01*
X8086D01*
X8103Y2953D01*
X8043Y2907D01*
X7974Y2817D01*
X7931Y2712D01*
X7916Y2600D01*
X7931Y2488D01*
X7974Y2383D01*
X8043Y2293D01*
X8133Y2224D01*
X8238Y2181D01*
X8350Y2166D01*
X8462Y2181D01*
X8567Y2224D01*
X8657Y2293D01*
X8726Y2383D01*
X8769Y2488D01*
X8784Y2600D01*
X8769Y2712D01*
X8726Y2817D01*
X8657Y2907D01*
X8597Y2953D01*
X8614Y3003D01*
X16774D01*
X16970Y2807D01*
X16931Y2712D01*
X16916Y2600D01*
X16931Y2488D01*
X16974Y2383D01*
X17043Y2293D01*
X17133Y2224D01*
X17238Y2181D01*
X17350Y2166D01*
X17462Y2181D01*
X17567Y2224D01*
X17657Y2293D01*
X17726Y2383D01*
X17769Y2488D01*
X17784Y2600D01*
X17769Y2712D01*
X17726Y2817D01*
X17657Y2907D01*
X17567Y2976D01*
X17462Y3019D01*
X17350Y3034D01*
X17238Y3019D01*
X17143Y2980D01*
X16912Y3212D01*
X16872Y3238D01*
X16825Y3247D01*
X8672D01*
X8666Y3267D01*
X8660Y3297D01*
X8726Y3383D01*
X8769Y3488D01*
X8784Y3600D01*
X8769Y3712D01*
X8726Y3817D01*
X8657Y3907D01*
X8597Y3953D01*
X8614Y4003D01*
X16774D01*
X16970Y3807D01*
X16931Y3712D01*
X16916Y3600D01*
X16931Y3488D01*
X16974Y3383D01*
X17043Y3293D01*
X17133Y3224D01*
X17238Y3181D01*
X17350Y3166D01*
X17462Y3181D01*
X17567Y3224D01*
X17657Y3293D01*
X17726Y3383D01*
X17769Y3488D01*
X17784Y3600D01*
X17769Y3712D01*
X17726Y3817D01*
X17657Y3907D01*
X17567Y3976D01*
X17462Y4019D01*
X17350Y4034D01*
X17238Y4019D01*
X17143Y3980D01*
X16912Y4212D01*
X16872Y4238D01*
X16825Y4247D01*
X8672D01*
X8666Y4267D01*
X8660Y4297D01*
X8726Y4383D01*
X8769Y4488D01*
X8784Y4600D01*
X8769Y4712D01*
X8726Y4817D01*
X8657Y4907D01*
X8597Y4953D01*
X8614Y5003D01*
X16774D01*
X16970Y4807D01*
X16931Y4712D01*
X16916Y4600D01*
X16931Y4488D01*
X16974Y4383D01*
X17043Y4293D01*
X17133Y4224D01*
X17238Y4181D01*
X17350Y4166D01*
X17462Y4181D01*
X17567Y4224D01*
X17657Y4293D01*
X17726Y4383D01*
X17769Y4488D01*
X17784Y4600D01*
X17769Y4712D01*
X17726Y4817D01*
X17657Y4907D01*
X17567Y4976D01*
X17462Y5019D01*
X17350Y5034D01*
X17238Y5019D01*
X17143Y4980D01*
X16912Y5212D01*
X16872Y5238D01*
X16825Y5247D01*
X8672D01*
X8666Y5267D01*
X8660Y5297D01*
X8726Y5383D01*
X8769Y5488D01*
X8784Y5600D01*
X8769Y5712D01*
X8726Y5817D01*
X8657Y5907D01*
X8597Y5953D01*
X8614Y6003D01*
X13625D01*
X13672Y6012D01*
X13712Y6038D01*
X14151Y6478D01*
X14741D01*
X14757Y6430D01*
X14708Y6392D01*
X14620Y6277D01*
X14564Y6144D01*
X14552Y6050D01*
X15648D01*
X15636Y6144D01*
X15580Y6277D01*
X15492Y6392D01*
X15443Y6430D01*
X15459Y6478D01*
X16299D01*
X16970Y5807D01*
X16931Y5712D01*
X16916Y5600D01*
X16931Y5488D01*
X16974Y5383D01*
X17043Y5293D01*
X17133Y5224D01*
X17238Y5181D01*
X17350Y5166D01*
X17462Y5181D01*
X17567Y5224D01*
X17657Y5293D01*
X17726Y5383D01*
X17769Y5488D01*
X17784Y5600D01*
X17769Y5712D01*
X17726Y5817D01*
X17657Y5907D01*
X17567Y5976D01*
X17462Y6019D01*
X17350Y6034D01*
X17238Y6019D01*
X17143Y5980D01*
X16437Y6687D01*
X16397Y6713D01*
X16350Y6722D01*
X14100D01*
X14053Y6713D01*
X14013Y6687D01*
X13574Y6247D01*
X8672D01*
X8666Y6267D01*
X8660Y6297D01*
X8726Y6383D01*
X8769Y6488D01*
X8784Y6600D01*
X8769Y6712D01*
X8726Y6817D01*
X8664Y6898D01*
X8678Y6948D01*
X16829D01*
X16970Y6807D01*
X16931Y6712D01*
X16916Y6600D01*
X16931Y6488D01*
X16974Y6383D01*
X17043Y6293D01*
X17133Y6224D01*
X17238Y6181D01*
X17350Y6166D01*
X17462Y6181D01*
X17567Y6224D01*
X17657Y6293D01*
X17726Y6383D01*
X17769Y6488D01*
X17784Y6600D01*
X17769Y6712D01*
X17726Y6817D01*
X17657Y6907D01*
X17567Y6976D01*
X17462Y7019D01*
X17350Y7034D01*
X17238Y7019D01*
X17143Y6980D01*
X16967Y7157D01*
X16927Y7183D01*
X16880Y7192D01*
X8607D01*
X8590Y7242D01*
X8657Y7293D01*
X8726Y7383D01*
X8769Y7488D01*
X8784Y7600D01*
X8769Y7712D01*
X8726Y7817D01*
X8657Y7907D01*
X8603Y7948D01*
X8620Y7998D01*
X16779D01*
X16970Y7807D01*
X16931Y7712D01*
X16916Y7600D01*
X16931Y7488D01*
X16974Y7383D01*
X17043Y7293D01*
X17133Y7224D01*
X17238Y7181D01*
X17350Y7166D01*
X17462Y7181D01*
X17567Y7224D01*
X17657Y7293D01*
X17726Y7383D01*
X17769Y7488D01*
X17784Y7600D01*
X17769Y7712D01*
X17726Y7817D01*
X17657Y7907D01*
X17567Y7976D01*
X17462Y8019D01*
X17350Y8034D01*
X17238Y8019D01*
X17143Y7980D01*
X16917Y8207D01*
X16877Y8233D01*
X16830Y8242D01*
X15104D01*
X15089Y8292D01*
X15130Y8320D01*
X15186Y8402D01*
X15205Y8500D01*
X15186Y8598D01*
X15130Y8680D01*
X15048Y8735D01*
X14950Y8755D01*
X14852Y8735D01*
X14770Y8680D01*
X14714Y8598D01*
X14695Y8500D01*
X14699Y8479D01*
X14666Y8446D01*
X12609D01*
X12594Y8496D01*
X12630Y8520D01*
X12686Y8602D01*
X12705Y8700D01*
X12686Y8798D01*
X12630Y8880D01*
X12548Y8935D01*
X12486Y8948D01*
X12491Y8998D01*
X16779D01*
X16970Y8807D01*
X16931Y8712D01*
X16916Y8600D01*
X16931Y8488D01*
X16974Y8383D01*
X17043Y8293D01*
X17133Y8224D01*
X17238Y8181D01*
X17350Y8166D01*
X17462Y8181D01*
X17567Y8224D01*
X17657Y8293D01*
X17726Y8383D01*
X17769Y8488D01*
X17784Y8600D01*
X17769Y8712D01*
X17726Y8817D01*
X17657Y8907D01*
X17567Y8976D01*
X17462Y9019D01*
X17350Y9034D01*
X17238Y9019D01*
X17143Y8980D01*
X16917Y9207D01*
X16877Y9233D01*
X16830Y9242D01*
X13983D01*
X13969Y9269D01*
X13965Y9292D01*
X14082Y9409D01*
X14150Y9395D01*
X14248Y9415D01*
X14330Y9470D01*
X14385Y9552D01*
X14405Y9650D01*
X14385Y9748D01*
X14330Y9830D01*
X14248Y9885D01*
X14150Y9905D01*
X14052Y9885D01*
X13970Y9830D01*
X13915Y9748D01*
X13895Y9650D01*
X13909Y9582D01*
X13823Y9496D01*
X10561D01*
Y9650D01*
X10235D01*
Y9700D01*
X10185D01*
Y10007D01*
X9908D01*
Y10007D01*
X9867Y9987D01*
X9259D01*
Y9722D01*
X8780D01*
Y10030D01*
X8186D01*
X8171Y10080D01*
X8230Y10120D01*
X8269Y10178D01*
X12284D01*
X12349Y10113D01*
X12388Y10087D01*
X12435Y10078D01*
X16400D01*
X16415Y10002D01*
X16470Y9920D01*
X16552Y9865D01*
X16650Y9845D01*
X16748Y9865D01*
X16830Y9920D01*
X16885Y10002D01*
X16905Y10100D01*
X16885Y10198D01*
X16830Y10280D01*
X16748Y10335D01*
X16650Y10355D01*
X16552Y10335D01*
X16550Y10334D01*
X16514Y10370D01*
X16536Y10402D01*
X16555Y10500D01*
X16536Y10598D01*
X16480Y10680D01*
X16398Y10735D01*
X16300Y10755D01*
X16202Y10735D01*
X16120Y10680D01*
X16081Y10622D01*
X12595D01*
X12588Y10646D01*
X12582Y10672D01*
X12636Y10752D01*
X12655Y10850D01*
X12636Y10948D01*
X12580Y11030D01*
X12498Y11085D01*
X12400Y11105D01*
X12302Y11085D01*
X12220Y11030D01*
X12181Y10972D01*
X11434D01*
Y11774D01*
X11420Y11844D01*
X11380Y11904D01*
X11142Y12141D01*
X11161Y12187D01*
X11250D01*
Y12365D01*
X10993D01*
Y12356D01*
X10947Y12336D01*
X10343Y12940D01*
Y13136D01*
X10337Y13167D01*
X10319Y13194D01*
X10293Y13212D01*
X10262Y13218D01*
D02*
G37*
G36*
X11607Y12365D02*
X11350D01*
Y12187D01*
X11607D01*
Y12365D01*
D02*
G37*
G36*
X13780Y13593D02*
X13424D01*
X13068D01*
Y13434D01*
X13088D01*
Y13080D01*
X13301D01*
Y12487D01*
X13177D01*
Y11913D01*
X13593D01*
Y12487D01*
X13546D01*
Y13080D01*
X13760D01*
Y13434D01*
X13780D01*
Y13593D01*
D02*
G37*
G36*
X17780Y12180D02*
X16920D01*
Y11872D01*
X14400D01*
X14353Y11863D01*
X14313Y11837D01*
X14218Y11741D01*
X14150Y11755D01*
X14052Y11736D01*
X13970Y11680D01*
X13915Y11598D01*
X13895Y11500D01*
X13915Y11402D01*
X13970Y11320D01*
X14052Y11264D01*
X14150Y11245D01*
X14248Y11264D01*
X14330Y11320D01*
X14385Y11402D01*
X14405Y11500D01*
X14391Y11568D01*
X14451Y11628D01*
X16920D01*
Y11320D01*
X17780D01*
Y12180D01*
D02*
G37*
G36*
X10212Y11968D02*
X9838D01*
X9807Y11962D01*
X9780Y11944D01*
X9762Y11917D01*
X9756Y11886D01*
Y11414D01*
X9762Y11383D01*
X9780Y11356D01*
X9807Y11338D01*
X9838Y11332D01*
X10212D01*
X10243Y11338D01*
X10269Y11356D01*
X10287Y11383D01*
X10293Y11414D01*
Y11466D01*
X10375D01*
X10452Y11415D01*
X10550Y11395D01*
X10648Y11415D01*
X10730Y11470D01*
X10785Y11552D01*
X10805Y11650D01*
X10785Y11748D01*
X10730Y11830D01*
X10648Y11885D01*
X10550Y11905D01*
X10452Y11885D01*
X10375Y11834D01*
X10293D01*
Y11886D01*
X10287Y11917D01*
X10269Y11944D01*
X10243Y11962D01*
X10212Y11968D01*
D02*
G37*
G36*
X650Y12084D02*
X538Y12069D01*
X433Y12026D01*
X343Y11957D01*
X274Y11867D01*
X231Y11762D01*
X216Y11650D01*
X231Y11538D01*
X274Y11433D01*
X343Y11343D01*
X433Y11274D01*
X538Y11231D01*
X650Y11216D01*
X762Y11231D01*
X867Y11274D01*
X957Y11343D01*
X1026Y11433D01*
X1065Y11528D01*
X3931D01*
X3970Y11470D01*
X4052Y11415D01*
X4150Y11395D01*
X4248Y11415D01*
X4330Y11470D01*
X4385Y11552D01*
X4405Y11650D01*
X4385Y11748D01*
X4330Y11830D01*
X4248Y11885D01*
X4150Y11905D01*
X4052Y11885D01*
X3970Y11830D01*
X3931Y11772D01*
X1065D01*
X1026Y11867D01*
X957Y11957D01*
X867Y12026D01*
X762Y12069D01*
X650Y12084D01*
D02*
G37*
G36*
Y11084D02*
X538Y11069D01*
X433Y11026D01*
X343Y10957D01*
X274Y10867D01*
X231Y10762D01*
X216Y10650D01*
X231Y10538D01*
X274Y10433D01*
X343Y10343D01*
X433Y10274D01*
X538Y10231D01*
X650Y10216D01*
X762Y10231D01*
X867Y10274D01*
X957Y10343D01*
X1026Y10433D01*
X1065Y10528D01*
X3281D01*
X3320Y10470D01*
X3402Y10415D01*
X3500Y10395D01*
X3598Y10415D01*
X3680Y10470D01*
X3735Y10552D01*
X3755Y10650D01*
X3735Y10748D01*
X3680Y10830D01*
X3598Y10885D01*
X3500Y10905D01*
X3402Y10885D01*
X3320Y10830D01*
X3281Y10772D01*
X1065D01*
X1026Y10867D01*
X957Y10957D01*
X867Y11026D01*
X762Y11069D01*
X650Y11084D01*
D02*
G37*
G36*
X10561Y10007D02*
X10285D01*
Y9750D01*
X10561D01*
Y10007D01*
D02*
G37*
G36*
X17400Y10047D02*
Y9650D01*
X17797D01*
X17788Y9717D01*
X17743Y9827D01*
X17671Y9921D01*
X17577Y9993D01*
X17467Y10038D01*
X17400Y10047D01*
D02*
G37*
G36*
X17300D02*
X17233Y10038D01*
X17123Y9993D01*
X17029Y9921D01*
X16957Y9827D01*
X16912Y9717D01*
X16903Y9650D01*
X17300D01*
Y10047D01*
D02*
G37*
G36*
X17797Y9550D02*
X17400D01*
Y9153D01*
X17467Y9162D01*
X17577Y9207D01*
X17671Y9279D01*
X17743Y9373D01*
X17788Y9483D01*
X17797Y9550D01*
D02*
G37*
G36*
X17300D02*
X16903D01*
X16912Y9483D01*
X16957Y9373D01*
X17029Y9279D01*
X17123Y9207D01*
X17233Y9162D01*
X17300Y9153D01*
Y9550D01*
D02*
G37*
G36*
X3050Y6548D02*
Y6050D01*
X3548D01*
X3536Y6144D01*
X3480Y6277D01*
X3392Y6392D01*
X3277Y6480D01*
X3144Y6536D01*
X3050Y6548D01*
D02*
G37*
G36*
X2950D02*
X2856Y6536D01*
X2723Y6480D01*
X2608Y6392D01*
X2520Y6277D01*
X2464Y6144D01*
X2452Y6050D01*
X2950D01*
Y6548D01*
D02*
G37*
G36*
X15648Y5950D02*
X15150D01*
Y5452D01*
X15244Y5464D01*
X15377Y5520D01*
X15492Y5608D01*
X15580Y5723D01*
X15636Y5856D01*
X15648Y5950D01*
D02*
G37*
G36*
X15050D02*
X14552D01*
X14564Y5856D01*
X14620Y5723D01*
X14708Y5608D01*
X14823Y5520D01*
X14956Y5464D01*
X15050Y5452D01*
Y5950D01*
D02*
G37*
G36*
X3548D02*
X3050D01*
Y5452D01*
X3144Y5464D01*
X3277Y5520D01*
X3392Y5608D01*
X3480Y5723D01*
X3536Y5856D01*
X3548Y5950D01*
D02*
G37*
G36*
X2950D02*
X2452D01*
X2464Y5856D01*
X2520Y5723D01*
X2608Y5608D01*
X2723Y5520D01*
X2856Y5464D01*
X2950Y5452D01*
Y5950D01*
D02*
G37*
G36*
X2513Y2907D02*
X2335D01*
Y2650D01*
X2513D01*
Y2907D01*
D02*
G37*
G36*
X2235D02*
X2057D01*
Y2650D01*
X2235D01*
Y2907D01*
D02*
G37*
G36*
X2513Y2550D02*
X2335D01*
Y2293D01*
X2513D01*
Y2550D01*
D02*
G37*
G36*
X650Y3084D02*
X538Y3069D01*
X433Y3026D01*
X343Y2957D01*
X274Y2867D01*
X231Y2762D01*
X216Y2650D01*
X231Y2538D01*
X274Y2433D01*
X343Y2343D01*
X433Y2274D01*
X538Y2231D01*
X650Y2216D01*
X762Y2231D01*
X867Y2274D01*
X957Y2343D01*
X1026Y2433D01*
X1029Y2441D01*
X1407D01*
Y2313D01*
X1564D01*
X2057Y1820D01*
X2116Y1780D01*
X2187Y1766D01*
X5650D01*
X5652Y1765D01*
X5750Y1745D01*
X5848Y1765D01*
X5930Y1820D01*
X5985Y1902D01*
X6005Y2000D01*
X5985Y2098D01*
X5930Y2180D01*
X5848Y2235D01*
X5750Y2255D01*
X5652Y2235D01*
X5570Y2180D01*
X5539Y2134D01*
X2263D01*
X2149Y2247D01*
X2168Y2293D01*
X2235D01*
Y2550D01*
X2057D01*
Y2405D01*
X2010Y2386D01*
X1823Y2573D01*
Y2887D01*
X1407D01*
Y2809D01*
X1050D01*
X1026Y2867D01*
X957Y2957D01*
X867Y3026D01*
X762Y3069D01*
X650Y3084D01*
D02*
G37*
G36*
X700Y2097D02*
Y1700D01*
X1097D01*
X1088Y1767D01*
X1043Y1877D01*
X971Y1971D01*
X877Y2043D01*
X767Y2088D01*
X700Y2097D01*
D02*
G37*
G36*
X600D02*
X533Y2088D01*
X423Y2043D01*
X329Y1971D01*
X257Y1877D01*
X212Y1767D01*
X203Y1700D01*
X600D01*
Y2097D01*
D02*
G37*
G36*
X12000Y2255D02*
X11902Y2235D01*
X11820Y2180D01*
X11765Y2098D01*
X11745Y2000D01*
X11765Y1902D01*
X11820Y1820D01*
X11902Y1765D01*
X12000Y1745D01*
X12028Y1751D01*
X12108Y1670D01*
X12168Y1630D01*
X12238Y1616D01*
X15357D01*
Y1564D01*
X15363Y1533D01*
X15381Y1506D01*
X15407Y1488D01*
X15438Y1482D01*
X15812D01*
X15843Y1488D01*
X15870Y1506D01*
X15888Y1533D01*
X15894Y1564D01*
Y2036D01*
X15888Y2067D01*
X15870Y2094D01*
X15843Y2112D01*
X15812Y2118D01*
X15438D01*
X15407Y2112D01*
X15381Y2094D01*
X15363Y2067D01*
X15357Y2036D01*
Y1984D01*
X12314D01*
X12244Y2053D01*
X12235Y2098D01*
X12180Y2180D01*
X12098Y2235D01*
X12000Y2255D01*
D02*
G37*
G36*
X6650Y2084D02*
X6538Y2069D01*
X6433Y2026D01*
X6343Y1957D01*
X6274Y1867D01*
X6231Y1762D01*
X6216Y1650D01*
X6231Y1538D01*
X6274Y1433D01*
X6343Y1343D01*
X6433Y1274D01*
X6538Y1231D01*
X6650Y1216D01*
X6762Y1231D01*
X6867Y1274D01*
X6957Y1343D01*
X7026Y1433D01*
X7069Y1538D01*
X7084Y1650D01*
X7069Y1762D01*
X7026Y1867D01*
X6957Y1957D01*
X6867Y2026D01*
X6762Y2069D01*
X6650Y2084D01*
D02*
G37*
G36*
X1097Y1600D02*
X700D01*
Y1203D01*
X767Y1212D01*
X877Y1257D01*
X971Y1329D01*
X1043Y1423D01*
X1088Y1533D01*
X1097Y1600D01*
D02*
G37*
G36*
X600D02*
X203D01*
X212Y1533D01*
X257Y1423D01*
X329Y1329D01*
X423Y1257D01*
X533Y1212D01*
X600Y1203D01*
Y1600D01*
D02*
G37*
G36*
X16462Y2118D02*
X16088D01*
X16057Y2112D01*
X16030Y2094D01*
X16012Y2067D01*
X16006Y2036D01*
Y1564D01*
X16012Y1533D01*
X16030Y1506D01*
X16057Y1488D01*
X16088Y1482D01*
X16462D01*
X16493Y1488D01*
X16519Y1506D01*
X16537Y1533D01*
X16543Y1564D01*
Y1616D01*
X16902D01*
X16916Y1600D01*
X16931Y1488D01*
X16974Y1383D01*
X17043Y1293D01*
X17133Y1224D01*
X17238Y1181D01*
X17350Y1166D01*
X17462Y1181D01*
X17567Y1224D01*
X17657Y1293D01*
X17726Y1383D01*
X17769Y1488D01*
X17784Y1600D01*
X17769Y1712D01*
X17726Y1817D01*
X17657Y1907D01*
X17567Y1976D01*
X17462Y2019D01*
X17350Y2034D01*
X17238Y2019D01*
X17133Y1976D01*
X17106Y1955D01*
X17085Y1970D01*
X17015Y1984D01*
X16543D01*
Y2036D01*
X16537Y2067D01*
X16519Y2094D01*
X16493Y2112D01*
X16462Y2118D01*
D02*
G37*
G36*
X8350Y2034D02*
X8238Y2019D01*
X8133Y1976D01*
X8043Y1907D01*
X7974Y1817D01*
X7931Y1712D01*
X7916Y1600D01*
X7931Y1488D01*
X7974Y1383D01*
X8043Y1293D01*
X8133Y1224D01*
X8238Y1181D01*
X8350Y1166D01*
X8462Y1181D01*
X8567Y1224D01*
X8657Y1293D01*
X8726Y1383D01*
X8769Y1488D01*
X8784Y1600D01*
X8769Y1712D01*
X8726Y1817D01*
X8657Y1907D01*
X8567Y1976D01*
X8462Y2019D01*
X8350Y2034D01*
D02*
G37*
G36*
X1773Y1087D02*
X1357D01*
Y909D01*
X994D01*
X957Y957D01*
X867Y1026D01*
X762Y1069D01*
X650Y1084D01*
X538Y1069D01*
X433Y1026D01*
X343Y957D01*
X274Y867D01*
X231Y762D01*
X216Y650D01*
X231Y538D01*
X274Y433D01*
X343Y343D01*
X433Y274D01*
X538Y231D01*
X650Y216D01*
X762Y231D01*
X867Y274D01*
X957Y343D01*
X1026Y433D01*
X1069Y538D01*
X1069Y541D01*
X1357D01*
Y513D01*
X1514D01*
X1744Y284D01*
X1803Y244D01*
X1873Y230D01*
X5013D01*
X5084Y244D01*
X5143Y284D01*
X5306Y446D01*
X5398Y465D01*
X5480Y520D01*
X5535Y602D01*
X5555Y700D01*
X5535Y798D01*
X5480Y880D01*
X5398Y935D01*
X5300Y955D01*
X5202Y935D01*
X5120Y880D01*
X5064Y798D01*
X5046Y706D01*
X4937Y597D01*
X2463D01*
Y750D01*
X2235D01*
X2007D01*
Y597D01*
X1949D01*
X1773Y773D01*
Y1087D01*
D02*
G37*
G36*
X2463Y1107D02*
X2285D01*
Y850D01*
X2463D01*
Y1107D01*
D02*
G37*
G36*
X2185D02*
X2007D01*
Y850D01*
X2185D01*
Y1107D01*
D02*
G37*
G36*
X17350Y1034D02*
X17238Y1019D01*
X17133Y976D01*
X17043Y907D01*
X16974Y817D01*
X16950Y759D01*
X16593D01*
Y786D01*
X16587Y817D01*
X16569Y844D01*
X16543Y862D01*
X16512Y868D01*
X16138D01*
X16107Y862D01*
X16080Y844D01*
X16062Y817D01*
X16056Y786D01*
Y314D01*
X16062Y283D01*
X16080Y256D01*
X16107Y238D01*
X16138Y232D01*
X16512D01*
X16543Y238D01*
X16569Y256D01*
X16587Y283D01*
X16593Y314D01*
Y391D01*
X16971D01*
X16974Y383D01*
X17043Y293D01*
X17133Y224D01*
X17238Y181D01*
X17350Y166D01*
X17462Y181D01*
X17567Y224D01*
X17657Y293D01*
X17726Y383D01*
X17769Y488D01*
X17784Y600D01*
X17769Y712D01*
X17726Y817D01*
X17657Y907D01*
X17567Y976D01*
X17462Y1019D01*
X17350Y1034D01*
D02*
G37*
G36*
X15862Y868D02*
X15488D01*
X15457Y862D01*
X15431Y844D01*
X15413Y817D01*
X15407Y786D01*
Y734D01*
X10525D01*
X10448Y785D01*
X10350Y805D01*
X10252Y785D01*
X10170Y730D01*
X10115Y648D01*
X10095Y550D01*
X10115Y452D01*
X10170Y370D01*
X10252Y315D01*
X10350Y295D01*
X10448Y315D01*
X10525Y366D01*
X15407D01*
Y314D01*
X15413Y283D01*
X15431Y256D01*
X15457Y238D01*
X15488Y232D01*
X15862D01*
X15893Y238D01*
X15920Y256D01*
X15938Y283D01*
X15944Y314D01*
Y786D01*
X15938Y817D01*
X15920Y844D01*
X15893Y862D01*
X15862Y868D01*
D02*
G37*
G36*
X7100Y1100D02*
X6700D01*
Y700D01*
X7100D01*
Y1100D01*
D02*
G37*
G36*
X6600D02*
X6200D01*
Y700D01*
X6600D01*
Y1100D01*
D02*
G37*
G36*
X8400Y1047D02*
Y650D01*
X8797D01*
X8788Y717D01*
X8743Y827D01*
X8671Y921D01*
X8577Y993D01*
X8467Y1038D01*
X8400Y1047D01*
D02*
G37*
G36*
X8300D02*
X8233Y1038D01*
X8123Y993D01*
X8029Y921D01*
X7957Y827D01*
X7912Y717D01*
X7903Y650D01*
X8300D01*
Y1047D01*
D02*
G37*
G36*
X7100Y600D02*
X6700D01*
Y200D01*
X7100D01*
Y600D01*
D02*
G37*
G36*
X6600D02*
X6200D01*
Y200D01*
X6600D01*
Y600D01*
D02*
G37*
G36*
X8797Y550D02*
X8400D01*
Y153D01*
X8467Y162D01*
X8577Y207D01*
X8671Y279D01*
X8743Y373D01*
X8788Y483D01*
X8797Y550D01*
D02*
G37*
G36*
X8300D02*
X7903D01*
X7912Y483D01*
X7957Y373D01*
X8029Y279D01*
X8123Y207D01*
X8233Y162D01*
X8300Y153D01*
Y550D01*
D02*
G37*
%LPD*%
G36*
X10091Y10978D02*
X10065Y10938D01*
X10045Y10840D01*
X10061Y10762D01*
X10029Y10712D01*
X7592D01*
X7580Y10730D01*
X7498Y10785D01*
X7400Y10805D01*
X7302Y10785D01*
X7220Y10730D01*
X7165Y10648D01*
X7145Y10550D01*
X7165Y10452D01*
X7220Y10370D01*
X7246Y10352D01*
X7231Y10302D01*
X6978D01*
X6964Y10352D01*
X7026Y10433D01*
X7069Y10538D01*
X7084Y10650D01*
X7069Y10762D01*
X7026Y10867D01*
X6957Y10957D01*
X6929Y10978D01*
X6946Y11028D01*
X10065D01*
X10091Y10978D01*
D02*
G37*
G36*
X7843Y9923D02*
X7874Y9903D01*
X7920Y9857D01*
Y9242D01*
X6907D01*
X6890Y9292D01*
X6957Y9343D01*
X7026Y9433D01*
X7069Y9538D01*
X7084Y9650D01*
X7069Y9762D01*
X7026Y9867D01*
X6957Y9957D01*
X6890Y10008D01*
X6907Y10058D01*
X7709D01*
X7843Y9923D01*
D02*
G37*
G36*
X12414Y8948D02*
X12352Y8935D01*
X12270Y8880D01*
X12214Y8798D01*
X12209Y8772D01*
X11841D01*
Y8937D01*
X11228D01*
Y8598D01*
X11178Y8571D01*
X11172Y8576D01*
Y8937D01*
X10559D01*
X10559Y8937D01*
X10509Y8927D01*
X10431Y8942D01*
X10334Y8923D01*
X10251Y8868D01*
X10210Y8806D01*
X10181Y8801D01*
X10141Y8774D01*
X10089Y8722D01*
X8765D01*
X8726Y8817D01*
X8657Y8907D01*
X8603Y8948D01*
X8620Y8998D01*
X12409D01*
X12414Y8948D01*
D02*
G37*
G36*
X10334Y8452D02*
X10431Y8433D01*
X10509Y8448D01*
X10559Y8416D01*
Y8363D01*
X10999D01*
X11073Y8289D01*
X11054Y8242D01*
X8668D01*
X8652Y8290D01*
X8657Y8293D01*
X8726Y8383D01*
X8765Y8478D01*
X10140D01*
X10187Y8487D01*
X10199Y8495D01*
X10251Y8507D01*
X10334Y8452D01*
D02*
G37*
G36*
X8097Y8948D02*
X8043Y8907D01*
X7974Y8817D01*
X7931Y8712D01*
X7916Y8600D01*
X7931Y8488D01*
X7974Y8383D01*
X8043Y8293D01*
X8048Y8290D01*
X8032Y8242D01*
X6907D01*
X6890Y8292D01*
X6957Y8343D01*
X7026Y8433D01*
X7069Y8538D01*
X7084Y8650D01*
X7069Y8762D01*
X7026Y8867D01*
X6964Y8948D01*
X6978Y8998D01*
X8080D01*
X8097Y8948D01*
D02*
G37*
G36*
Y7948D02*
X8043Y7907D01*
X7974Y7817D01*
X7931Y7712D01*
X7916Y7600D01*
X7931Y7488D01*
X7974Y7383D01*
X8043Y7293D01*
X8110Y7242D01*
X8093Y7192D01*
X7181D01*
X7107Y7267D01*
X7067Y7293D01*
X7020Y7302D01*
X6978D01*
X6964Y7352D01*
X7026Y7433D01*
X7069Y7538D01*
X7084Y7650D01*
X7069Y7762D01*
X7026Y7867D01*
X6964Y7948D01*
X6978Y7998D01*
X8080D01*
X8097Y7948D01*
D02*
G37*
G36*
X7043Y6983D02*
X7083Y6957D01*
X7130Y6948D01*
X8022D01*
X8036Y6898D01*
X7974Y6817D01*
X7931Y6712D01*
X7916Y6600D01*
X7931Y6488D01*
X7974Y6383D01*
X8040Y6297D01*
X8034Y6267D01*
X8028Y6247D01*
X6914D01*
X6897Y6297D01*
X6957Y6343D01*
X7026Y6433D01*
X7069Y6538D01*
X7084Y6650D01*
X7069Y6762D01*
X7026Y6867D01*
X6957Y6957D01*
X6890Y7008D01*
X6907Y7058D01*
X6969D01*
X7043Y6983D01*
D02*
G37*
G36*
X8103Y5953D02*
X8043Y5907D01*
X7974Y5817D01*
X7931Y5712D01*
X7916Y5600D01*
X7931Y5488D01*
X7974Y5383D01*
X8040Y5297D01*
X8034Y5267D01*
X8028Y5247D01*
X6914D01*
X6897Y5297D01*
X6957Y5343D01*
X7026Y5433D01*
X7069Y5538D01*
X7084Y5650D01*
X7069Y5762D01*
X7026Y5867D01*
X6960Y5953D01*
X6966Y5983D01*
X6972Y6003D01*
X8086D01*
X8103Y5953D01*
D02*
G37*
G36*
Y4953D02*
X8043Y4907D01*
X7974Y4817D01*
X7946Y4747D01*
X7071D01*
X7069Y4762D01*
X7026Y4867D01*
X6960Y4953D01*
X6966Y4983D01*
X6972Y5003D01*
X8086D01*
X8103Y4953D01*
D02*
G37*
G36*
X7931Y4488D02*
X7974Y4383D01*
X8040Y4297D01*
X8034Y4267D01*
X8028Y4247D01*
X6914D01*
X6897Y4297D01*
X6957Y4343D01*
X7026Y4433D01*
X7054Y4503D01*
X7929D01*
X7931Y4488D01*
D02*
G37*
G36*
X8103Y3953D02*
X8043Y3907D01*
X7974Y3817D01*
X7931Y3712D01*
X7916Y3600D01*
X7931Y3488D01*
X7974Y3383D01*
X8040Y3297D01*
X8034Y3267D01*
X8028Y3247D01*
X6914D01*
X6897Y3297D01*
X6957Y3343D01*
X7026Y3433D01*
X7069Y3538D01*
X7084Y3650D01*
X7069Y3762D01*
X7026Y3867D01*
X6960Y3953D01*
X6966Y3983D01*
X6972Y4003D01*
X8086D01*
X8103Y3953D01*
D02*
G37*
D14*
X9425Y12900D02*
D03*
X10075D02*
D03*
X15625Y1800D02*
D03*
X16275D02*
D03*
X15675Y550D02*
D03*
X16325D02*
D03*
X10025Y11650D02*
D03*
X9375D02*
D03*
D26*
X12715Y15350D02*
D03*
X13385D02*
D03*
X10865Y8650D02*
D03*
X11535D02*
D03*
X10235Y9700D02*
D03*
X9565D02*
D03*
X5869Y14600D02*
D03*
X5200D02*
D03*
D27*
X13424Y14017D02*
D03*
Y13643D02*
D03*
Y13269D02*
D03*
X12479D02*
D03*
Y13643D02*
D03*
Y14017D02*
D03*
D28*
X1615Y2600D02*
D03*
X2285D02*
D03*
X1565Y800D02*
D03*
X2235D02*
D03*
X12715Y12200D02*
D03*
X13385D02*
D03*
D29*
X11300Y13085D02*
D03*
Y12415D02*
D03*
X11350Y14265D02*
D03*
Y14935D02*
D03*
D30*
X5101Y12642D02*
D03*
X5593D02*
D03*
X1604Y13650D02*
D03*
X2096D02*
D03*
X5204Y13600D02*
D03*
X5696D02*
D03*
D31*
X2050Y16696D02*
D03*
Y16204D02*
D03*
X4242Y16639D02*
D03*
Y16147D02*
D03*
D32*
X1100Y15807D02*
D03*
Y16693D02*
D03*
X3350Y15757D02*
D03*
Y16643D02*
D03*
D33*
X5869Y14600D02*
X7110D01*
X7120Y14590D01*
X5000Y13283D02*
Y13366D01*
X10227Y8687D02*
X10481D01*
X10140Y8600D02*
X10227Y8687D01*
X10481D02*
X10519Y8650D01*
X11183Y10850D02*
X12400D01*
X11133Y10800D02*
X11183Y10850D01*
X12400Y8650D02*
X12450Y8700D01*
X11535Y8650D02*
X12400D01*
X650Y5650D02*
X1150Y5150D01*
X6485D02*
X6510Y5125D01*
X1150Y5150D02*
X6485D01*
X6510Y5125D02*
X16825D01*
X17350Y4600D01*
X14100Y6600D02*
X16350D01*
X17350Y5600D01*
X13625Y6125D02*
X14100Y6600D01*
X6510Y6125D02*
X13625D01*
X1200Y6800D02*
X5835D01*
X1120Y6720D02*
X1200Y6800D01*
X650Y6650D02*
X720Y6720D01*
X1120D01*
X5950Y11150D02*
X10800D01*
X10519Y8650D02*
X10865D01*
X9565Y9700D02*
X9585D01*
X9912Y9373D01*
X13873D01*
X14150Y9650D01*
Y11500D02*
X14400Y11750D01*
X17350D01*
X10865Y8650D02*
X10885D01*
X11212Y8323D01*
X14717D01*
X14893Y8500D01*
X14950D01*
X15150Y12750D02*
X17350D01*
X4870Y17110D02*
X7525D01*
X7635Y17220D01*
X10220D01*
X3400Y17400D02*
X10450D01*
X2877Y16877D02*
X3400Y17400D01*
X10450D02*
X10650Y17200D01*
X17275Y13725D02*
X17300Y13700D01*
X10220Y17220D02*
X10940Y16500D01*
X15850D01*
X15875Y13725D02*
X17275D01*
X15850Y13700D02*
X15875Y13725D01*
X17300Y13700D02*
X17350Y13750D01*
X8050Y10300D02*
X12335D01*
X7440Y10590D02*
X10140D01*
X7400Y10550D02*
X7440Y10590D01*
X10140D02*
X10230Y10500D01*
X12435Y10200D02*
X16600D01*
X10230Y10500D02*
X16300D01*
X12335Y10300D02*
X12435Y10200D01*
X4414Y9120D02*
X16830D01*
X17350Y8600D01*
X7930Y10010D02*
X7940D01*
X2120Y10180D02*
X7760D01*
X7940Y10010D02*
X8350Y9600D01*
X7760Y10180D02*
X7930Y10010D01*
X3884Y9650D02*
X4414Y9120D01*
X9465Y9600D02*
X9565Y9700D01*
X8350Y9600D02*
X9465D01*
X8350Y8600D02*
X10140D01*
X5101Y11999D02*
X5950Y11150D01*
X7985Y14050D02*
X8285Y13750D01*
X7255Y14050D02*
X7985D01*
X3500Y13700D02*
X3920Y14120D01*
X7185D01*
X7255Y14050D01*
X8285Y13750D02*
X8350D01*
X5204Y13570D02*
Y13600D01*
X5000Y13366D02*
X5204Y13570D01*
X5101Y11999D02*
Y12642D01*
X5150Y14650D02*
X5200Y14600D01*
X4750Y14650D02*
X5150D01*
X5746Y13650D02*
X6650D01*
X5696Y13600D02*
X5746Y13650D01*
X5593Y12642D02*
X5601Y12650D01*
X6650D01*
X2100Y10200D02*
X2120Y10180D01*
X650Y10650D02*
X3500D01*
X650Y11650D02*
X4150D01*
X650Y12650D02*
X675Y12675D01*
X3825D01*
X3850Y12700D01*
X2050Y13100D02*
X2096Y13146D01*
Y13650D01*
X650D02*
X1604D01*
X11300Y13085D02*
X11379D01*
X11980Y16220D02*
X12000Y16200D01*
X6287Y16220D02*
X11980D01*
X5824Y15757D02*
X6287Y16220D01*
X3350Y15757D02*
X5824D01*
X3350Y16643D02*
X3354Y16639D01*
X4242D01*
X2454Y16204D02*
X2877Y16627D01*
Y16877D01*
X2050Y16204D02*
X2454D01*
X12696Y15350D02*
X12715D01*
X12529Y15183D02*
X12696Y15350D01*
X12529Y15164D02*
Y15183D01*
X12479Y14017D02*
Y15113D01*
X12529Y15164D01*
X1100Y16693D02*
X1103Y16696D01*
X2050D01*
X8350Y12750D02*
X8402Y12802D01*
X9327D02*
X9425Y12900D01*
X8000Y15100D02*
X8350Y14750D01*
X4600Y15100D02*
X8000D01*
X7060Y15260D02*
X7550Y15750D01*
X3850Y15050D02*
X4060Y15260D01*
X7060D01*
X4150Y14650D02*
X4600Y15100D01*
X7550Y15750D02*
X8350D01*
X13424Y12239D02*
Y13269D01*
X13385Y12200D02*
X13424Y12239D01*
X12479Y12515D02*
Y13269D01*
Y12515D02*
X12715Y12279D01*
Y12200D02*
Y12279D01*
X13385Y14056D02*
Y15350D01*
Y14056D02*
X13424Y14017D01*
X6650Y4650D02*
X6675Y4625D01*
X8325D01*
X8350Y4600D01*
X16825Y3125D02*
X17350Y2600D01*
X5985Y3650D02*
X6510Y3125D01*
X650Y3650D02*
X5985D01*
X6510Y3125D02*
X16825D01*
X6510Y4125D02*
X16825D01*
X17350Y3600D01*
X5985Y4650D02*
X6510Y4125D01*
X650Y4650D02*
X5985D01*
X5835Y6800D02*
X6510Y6125D01*
X16880Y7070D02*
X17350Y6600D01*
X7130Y7070D02*
X16880D01*
X7020Y7180D02*
X7130Y7070D01*
X650Y7650D02*
X1120Y7180D01*
X7020D01*
X16830Y8120D02*
X17350Y7600D01*
X4054Y8120D02*
X16830D01*
X3524Y8650D02*
X4054Y8120D01*
X650Y8650D02*
X3524D01*
X650Y9650D02*
X3884D01*
D34*
X11183Y10850D02*
X11250Y10917D01*
X16325Y550D02*
X16350Y575D01*
X17325D01*
X17350Y600D01*
X16275Y1800D02*
X17015D01*
X17215Y1600D01*
X17350D01*
X10350Y550D02*
X15675D01*
X12238Y1800D02*
X15625D01*
X12038Y2000D02*
X12238Y1800D01*
X12000Y2000D02*
X12038D01*
X11379Y13085D02*
X11737Y12727D01*
X11973D01*
X12000Y12700D01*
X11250Y10917D02*
Y11774D01*
X10655Y10800D02*
X11133D01*
X10300Y10840D02*
X10327Y10813D01*
X10642D01*
X10655Y10800D01*
X10075Y12900D02*
X10124D01*
X11250Y11774D01*
X5700Y1950D02*
X5750Y2000D01*
X2187Y1950D02*
X5700D01*
X1615Y2521D02*
Y2600D01*
Y2521D02*
X2187Y1950D01*
X1565Y738D02*
Y800D01*
Y721D02*
Y738D01*
X5013Y413D02*
X5300Y700D01*
X1565Y721D02*
X1873Y413D01*
X5013D01*
X650Y2650D02*
X675Y2625D01*
X1590D01*
X650Y650D02*
X725Y725D01*
X1552D01*
X1565Y738D01*
X8350Y11750D02*
X8412Y11688D01*
X9337D02*
X9375Y11650D01*
X8412Y11688D02*
X9337D01*
X8635Y12900D02*
X9425D01*
X8485Y12750D02*
X8635Y12900D01*
X8350Y12750D02*
X8485D01*
X1590Y2625D02*
X1615Y2600D01*
X11379Y13085D02*
X11937Y13643D01*
X12479D01*
X11677Y14017D02*
X12479D01*
X11350Y14265D02*
X11429D01*
X11677Y14017D01*
X10653Y14265D02*
X11350D01*
X10588Y14200D02*
X10653Y14265D01*
X10550Y14200D02*
X10588D01*
X10025Y11650D02*
X10550D01*
D35*
X10075Y12900D02*
D03*
X9425D02*
D03*
X16275Y1800D02*
D03*
X15625D02*
D03*
X16325Y550D02*
D03*
X15675D02*
D03*
X9375Y11650D02*
D03*
X10025D02*
D03*
D36*
X8350Y9600D02*
D03*
X17350Y11750D02*
D03*
X6650Y650D02*
D03*
D37*
X8350Y8600D02*
D03*
Y7600D02*
D03*
Y6600D02*
D03*
Y5600D02*
D03*
Y4600D02*
D03*
X17350Y9600D02*
D03*
Y8600D02*
D03*
Y7600D02*
D03*
Y6600D02*
D03*
Y5600D02*
D03*
Y4600D02*
D03*
X8350Y3600D02*
D03*
Y2600D02*
D03*
Y1600D02*
D03*
Y600D02*
D03*
X17350Y3600D02*
D03*
Y2600D02*
D03*
Y1600D02*
D03*
Y600D02*
D03*
X8350Y16750D02*
D03*
Y15750D02*
D03*
Y14750D02*
D03*
Y13750D02*
D03*
Y12750D02*
D03*
Y11750D02*
D03*
X17350Y16750D02*
D03*
Y15750D02*
D03*
Y14750D02*
D03*
Y13750D02*
D03*
Y12750D02*
D03*
X650Y13650D02*
D03*
Y12650D02*
D03*
Y11650D02*
D03*
Y10650D02*
D03*
Y9650D02*
D03*
Y8650D02*
D03*
Y7650D02*
D03*
Y6650D02*
D03*
Y5650D02*
D03*
Y4650D02*
D03*
Y3650D02*
D03*
Y2650D02*
D03*
Y1650D02*
D03*
Y650D02*
D03*
X6650Y13650D02*
D03*
Y12650D02*
D03*
Y11650D02*
D03*
Y10650D02*
D03*
Y9650D02*
D03*
Y8650D02*
D03*
Y7650D02*
D03*
Y6650D02*
D03*
Y5650D02*
D03*
Y4650D02*
D03*
Y3650D02*
D03*
Y2650D02*
D03*
Y1650D02*
D03*
D38*
X7120Y14590D02*
D03*
X4950Y13233D02*
D03*
X10431Y8687D02*
D03*
X12400Y10850D02*
D03*
X12450Y8700D02*
D03*
X10800Y11150D02*
D03*
X10350Y550D02*
D03*
X12000Y2000D02*
D03*
X14150Y9650D02*
D03*
Y11500D02*
D03*
X14950Y8500D02*
D03*
X15150Y12750D02*
D03*
X4870Y17110D02*
D03*
X15850Y16500D02*
D03*
Y13700D02*
D03*
X8050Y10300D02*
D03*
X16650Y10100D02*
D03*
X7400Y10550D02*
D03*
X10300Y10840D02*
D03*
X16300Y10500D02*
D03*
X5750Y2000D02*
D03*
X5300Y700D02*
D03*
X4750Y14650D02*
D03*
X2100Y10200D02*
D03*
X2050Y13100D02*
D03*
X12000Y12700D02*
D03*
Y16200D02*
D03*
X10650Y17200D02*
D03*
X10550Y14200D02*
D03*
Y11650D02*
D03*
X3500Y10650D02*
D03*
Y13700D02*
D03*
X4150Y14650D02*
D03*
Y11650D02*
D03*
X3850Y12700D02*
D03*
Y15050D02*
D03*
M02*
