M48
;Layer_Color=9474304
;FILE_FORMAT=2:4
INCH,LZ
;TYPE=PLATED
T1F00S00C0.0160
T2F00S00C0.0350
T3F00S00C0.0900
%
T01
X0053Y0007
X00575Y002
X01035Y00055
X012Y002
X01245Y0087
X010431Y008687
X0103Y01084
X0108Y01115
X01055Y01165
X012Y0127
X0124Y01085
X01415Y0115
Y00965
X01495Y0085
X01515Y01275
X01055Y0142
X00712Y01459
X00475Y01465
X00415
X00385Y01505
X0035Y0137
X00385Y0127
X00415Y01165
X0035Y01065
X0021Y0102
X00205Y0131
X00495Y013233
X0074Y01055
X00805Y0103
X0163Y0105
X01665Y0101
X01585Y0137
Y0165
X012Y0162
X01065Y0172
X00487Y01711
T02
X00065Y00065
Y00165
Y00265
Y00365
Y00465
Y00565
Y00665
Y00765
Y00865
Y00965
Y01065
Y01165
Y01265
Y01365
X00665
Y01265
Y01165
Y01065
Y00965
Y00865
Y00765
Y00665
Y00565
Y00465
Y00365
Y00265
Y00165
Y00065
X00835Y0006
Y0016
Y0026
Y0036
Y0046
Y0056
Y0066
Y0076
Y0086
Y0096
Y01175
Y01275
Y01375
Y01475
X01735
Y01375
Y01275
Y01175
Y0096
Y0086
Y0076
Y0066
Y0056
Y0046
Y0036
Y0026
Y0016
Y0006
Y01575
Y01675
X00835
Y01575
T03
X003Y006
X0151
M30
