G04*
G04 #@! TF.GenerationSoftware,Altium Limited,Altium Designer,21.0.8 (223)*
G04*
G04 Layer_Color=32896*
%FSLAX24Y24*%
%MOIN*%
G70*
G04*
G04 #@! TF.SameCoordinates,BD5FB969-D095-4558-B3B7-B1EEFE242F9F*
G04*
G04*
G04 #@! TF.FilePolarity,Positive*
G04*
G01*
G75*
%ADD10C,0.0100*%
D10*
X13363Y2250D02*
X13763D01*
X13629Y2383D01*
X13763Y2517D01*
X13363D01*
X13629Y2717D02*
Y2850D01*
X13563Y2916D01*
X13363D01*
Y2717D01*
X13429Y2650D01*
X13496Y2717D01*
Y2916D01*
X13229Y3183D02*
Y3250D01*
X13296Y3316D01*
X13629D01*
Y3116D01*
X13563Y3050D01*
X13429D01*
X13363Y3116D01*
Y3316D01*
Y3450D02*
X13629D01*
Y3650D01*
X13563Y3716D01*
X13363D01*
Y4049D02*
Y3916D01*
X13429Y3849D01*
X13563D01*
X13629Y3916D01*
Y4049D01*
X13563Y4116D01*
X13496D01*
Y3849D01*
X13696Y4316D02*
X13629D01*
Y4249D01*
Y4383D01*
Y4316D01*
X13429D01*
X13363Y4383D01*
Y4583D02*
Y4716D01*
Y4649D01*
X13629D01*
Y4583D01*
Y5182D02*
Y4982D01*
X13563Y4916D01*
X13429D01*
X13363Y4982D01*
Y5182D01*
X13696Y5982D02*
X13763Y5915D01*
Y5782D01*
X13696Y5716D01*
X13429D01*
X13363Y5782D01*
Y5915D01*
X13429Y5982D01*
X13363Y6182D02*
Y6315D01*
X13429Y6382D01*
X13563D01*
X13629Y6315D01*
Y6182D01*
X13563Y6115D01*
X13429D01*
X13363Y6182D01*
Y6515D02*
X13629D01*
Y6715D01*
X13563Y6782D01*
X13363D01*
X13696Y6982D02*
X13629D01*
Y6915D01*
Y7048D01*
Y6982D01*
X13429D01*
X13363Y7048D01*
X13629Y7248D02*
X13363D01*
X13496D01*
X13563Y7315D01*
X13629Y7382D01*
Y7448D01*
X13363Y7715D02*
Y7848D01*
X13429Y7915D01*
X13563D01*
X13629Y7848D01*
Y7715D01*
X13563Y7648D01*
X13429D01*
X13363Y7715D01*
Y8048D02*
Y8181D01*
Y8115D01*
X13763D01*
Y8048D01*
X13363Y8381D02*
Y8515D01*
Y8448D01*
X13763D01*
Y8381D01*
X13363Y8915D02*
Y8781D01*
X13429Y8715D01*
X13563D01*
X13629Y8781D01*
Y8915D01*
X13563Y8981D01*
X13496D01*
Y8715D01*
X13629Y9114D02*
X13363D01*
X13496D01*
X13563Y9181D01*
X13629Y9248D01*
Y9314D01*
X13563Y9514D02*
Y9781D01*
X13363Y9914D02*
X13763D01*
Y10114D01*
X13696Y10181D01*
X13563D01*
X13496Y10114D01*
Y9914D01*
Y10047D02*
X13363Y10181D01*
Y10381D02*
Y10514D01*
X13429Y10581D01*
X13563D01*
X13629Y10514D01*
Y10381D01*
X13563Y10314D01*
X13429D01*
X13363Y10381D01*
Y10781D02*
Y10914D01*
X13429Y10981D01*
X13563D01*
X13629Y10914D01*
Y10781D01*
X13563Y10714D01*
X13429D01*
X13363Y10781D01*
X13696Y11180D02*
X13629D01*
Y11114D01*
Y11247D01*
Y11180D01*
X13429D01*
X13363Y11247D01*
X12510Y2250D02*
X12909D01*
X12510Y2517D01*
X12909D01*
X12510Y2650D02*
Y2783D01*
Y2717D01*
X12776D01*
Y2650D01*
Y3250D02*
Y3050D01*
X12709Y2983D01*
X12576D01*
X12510Y3050D01*
Y3250D01*
X12909Y3383D02*
X12510D01*
X12709D01*
X12776Y3450D01*
Y3583D01*
X12709Y3650D01*
X12510D01*
Y3849D02*
Y3983D01*
X12576Y4049D01*
X12709D01*
X12776Y3983D01*
Y3849D01*
X12709Y3783D01*
X12576D01*
X12510Y3849D01*
Y4183D02*
Y4316D01*
Y4249D01*
X12909D01*
Y4183D01*
X12776Y4583D02*
Y4716D01*
X12709Y4783D01*
X12510D01*
Y4583D01*
X12576Y4516D01*
X12643Y4583D01*
Y4783D01*
X12510Y4916D02*
Y5116D01*
X12576Y5182D01*
X12643Y5116D01*
Y4982D01*
X12709Y4916D01*
X12776Y4982D01*
Y5182D01*
X12909Y5716D02*
X12510D01*
Y5915D01*
X12576Y5982D01*
X12643D01*
X12709Y5915D01*
Y5716D01*
Y5915D01*
X12776Y5982D01*
X12843D01*
X12909Y5915D01*
Y5716D01*
X12510Y6315D02*
Y6182D01*
X12576Y6115D01*
X12709D01*
X12776Y6182D01*
Y6315D01*
X12709Y6382D01*
X12643D01*
Y6115D01*
X12510Y6515D02*
Y6649D01*
Y6582D01*
X12909D01*
Y6515D01*
X12510Y6849D02*
Y7048D01*
X12576Y7115D01*
X12643Y7048D01*
Y6915D01*
X12709Y6849D01*
X12776Y6915D01*
Y7115D01*
X12843Y7315D02*
X12776D01*
Y7248D01*
Y7382D01*
Y7315D01*
X12576D01*
X12510Y7382D01*
Y7782D02*
Y7648D01*
X12576Y7582D01*
X12709D01*
X12776Y7648D01*
Y7782D01*
X12709Y7848D01*
X12643D01*
Y7582D01*
X12510Y7981D02*
X12776D01*
Y8181D01*
X12709Y8248D01*
X12510D01*
X11790Y2250D02*
Y2383D01*
Y2317D01*
X12190D01*
X12123Y2250D01*
X11790Y2583D02*
X12056Y2850D01*
X11790Y2983D02*
Y3116D01*
Y3050D01*
X12190D01*
X12123Y2983D01*
Y3316D02*
X12190Y3383D01*
Y3516D01*
X12123Y3583D01*
X12056D01*
X11990Y3516D01*
X11923Y3583D01*
X11856D01*
X11790Y3516D01*
Y3383D01*
X11856Y3316D01*
X11923D01*
X11990Y3383D01*
X12056Y3316D01*
X12123D01*
X11990Y3383D02*
Y3516D01*
X11790Y3716D02*
X12056Y3983D01*
X11790Y4383D02*
Y4116D01*
X12056Y4383D01*
X12123D01*
X12190Y4316D01*
Y4183D01*
X12123Y4116D01*
Y4516D02*
X12190Y4583D01*
Y4716D01*
X12123Y4783D01*
X11856D01*
X11790Y4716D01*
Y4583D01*
X11856Y4516D01*
X12123D01*
X11790Y5182D02*
Y4916D01*
X12056Y5182D01*
X12123D01*
X12190Y5116D01*
Y4982D01*
X12123Y4916D01*
Y5316D02*
X12190Y5382D01*
Y5516D01*
X12123Y5582D01*
X11856D01*
X11790Y5516D01*
Y5382D01*
X11856Y5316D01*
X12123D01*
X11070Y2250D02*
X11470D01*
X11336Y2383D01*
X11470Y2517D01*
X11070D01*
X11470Y2650D02*
Y2783D01*
Y2717D01*
X11070D01*
Y2650D01*
Y2783D01*
X11470Y2983D02*
Y3250D01*
Y3116D01*
X11070D01*
X11403Y4049D02*
X11470Y3983D01*
Y3849D01*
X11403Y3783D01*
X11336D01*
X11270Y3849D01*
Y3983D01*
X11203Y4049D01*
X11136D01*
X11070Y3983D01*
Y3849D01*
X11136Y3783D01*
X11470Y4183D02*
Y4449D01*
Y4316D01*
X11070D01*
Y4583D02*
X11336D01*
X11470Y4716D01*
X11336Y4849D01*
X11070D01*
X11270D01*
Y4583D01*
X11070Y4982D02*
X11470D01*
Y5182D01*
X11403Y5249D01*
X11270D01*
X11203Y5182D01*
Y4982D01*
Y5116D02*
X11070Y5249D01*
X11470Y5382D02*
X11070D01*
Y5649D01*
X11336Y5849D02*
Y5982D01*
X11270Y6049D01*
X11070D01*
Y5849D01*
X11136Y5782D01*
X11203Y5849D01*
Y6049D01*
X11470Y6182D02*
X11070D01*
Y6382D01*
X11136Y6449D01*
X11203D01*
X11270D01*
X11336Y6382D01*
Y6182D01*
X10350Y2250D02*
X10750D01*
Y2450D01*
X10683Y2517D01*
X10550D01*
X10483Y2450D01*
Y2250D01*
Y2383D02*
X10350Y2517D01*
X10750Y2916D02*
Y2650D01*
X10350D01*
Y2916D01*
X10550Y2650D02*
Y2783D01*
X10750Y3050D02*
X10483D01*
X10350Y3183D01*
X10483Y3316D01*
X10750D01*
X10350Y3450D02*
X10417D01*
Y3516D01*
X10350D01*
Y3450D01*
X10750Y4183D02*
X10350D01*
Y4383D01*
X10417Y4449D01*
X10483D01*
X10550Y4383D01*
Y4183D01*
Y4383D01*
X10617Y4449D01*
X10683D01*
X10750Y4383D01*
Y4183D01*
M02*
