G04*
G04 #@! TF.GenerationSoftware,Altium Limited,Altium Designer,21.0.8 (223)*
G04*
G04 Layer_Physical_Order=2*
G04 Layer_Color=16711680*
%FSLAX24Y24*%
%MOIN*%
G70*
G04*
G04 #@! TF.SameCoordinates,BD5FB969-D095-4558-B3B7-B1EEFE242F9F*
G04*
G04*
G04 #@! TF.FilePolarity,Positive*
G04*
G01*
G75*
%ADD33C,0.0080*%
%ADD34C,0.0200*%
%ADD36R,0.0700X0.0700*%
%ADD37C,0.0700*%
%ADD38C,0.0340*%
G36*
X18000Y17500D02*
Y100D01*
Y50D01*
X50D01*
Y17515D01*
X85Y17550D01*
X18000Y17500D01*
D02*
G37*
%LPC*%
G36*
X17400Y17197D02*
Y16800D01*
X17797D01*
X17788Y16867D01*
X17743Y16977D01*
X17671Y17071D01*
X17577Y17143D01*
X17467Y17188D01*
X17400Y17197D01*
D02*
G37*
G36*
X8400D02*
Y16800D01*
X8797D01*
X8788Y16867D01*
X8743Y16977D01*
X8671Y17071D01*
X8577Y17143D01*
X8467Y17188D01*
X8400Y17197D01*
D02*
G37*
G36*
X17300D02*
X17233Y17188D01*
X17123Y17143D01*
X17029Y17071D01*
X16957Y16977D01*
X16912Y16867D01*
X16903Y16800D01*
X17300D01*
Y17197D01*
D02*
G37*
G36*
X8300D02*
X8233Y17188D01*
X8123Y17143D01*
X8029Y17071D01*
X7957Y16977D01*
X7912Y16867D01*
X7903Y16800D01*
X8300D01*
Y17197D01*
D02*
G37*
G36*
X17797Y16700D02*
X17400D01*
Y16303D01*
X17467Y16312D01*
X17577Y16357D01*
X17671Y16429D01*
X17743Y16523D01*
X17788Y16633D01*
X17797Y16700D01*
D02*
G37*
G36*
X8797D02*
X8400D01*
Y16303D01*
X8467Y16312D01*
X8577Y16357D01*
X8671Y16429D01*
X8743Y16523D01*
X8788Y16633D01*
X8797Y16700D01*
D02*
G37*
G36*
X17300D02*
X16903D01*
X16912Y16633D01*
X16957Y16523D01*
X17029Y16429D01*
X17123Y16357D01*
X17233Y16312D01*
X17300Y16303D01*
Y16700D01*
D02*
G37*
G36*
X8300D02*
X7903D01*
X7912Y16633D01*
X7957Y16523D01*
X8029Y16429D01*
X8123Y16357D01*
X8233Y16312D01*
X8300Y16303D01*
Y16700D01*
D02*
G37*
G36*
X17350Y16184D02*
X17238Y16169D01*
X17133Y16126D01*
X17043Y16057D01*
X16974Y15967D01*
X16931Y15862D01*
X16916Y15750D01*
X16931Y15638D01*
X16970Y15543D01*
X16213Y14787D01*
X16187Y14747D01*
X16178Y14700D01*
Y10719D01*
X16120Y10680D01*
X16064Y10598D01*
X16045Y10500D01*
X16064Y10402D01*
X16120Y10320D01*
X16202Y10265D01*
X16300Y10245D01*
X16398Y10265D01*
X16400Y10266D01*
X16436Y10230D01*
X16415Y10198D01*
X16395Y10100D01*
X16415Y10002D01*
X16470Y9920D01*
X16552Y9865D01*
X16650Y9845D01*
X16748Y9865D01*
X16830Y9920D01*
X16885Y10002D01*
X16905Y10100D01*
X16885Y10198D01*
X16830Y10280D01*
X16748Y10335D01*
X16722Y10341D01*
Y13949D01*
X17143Y14370D01*
X17238Y14331D01*
X17350Y14316D01*
X17462Y14331D01*
X17567Y14374D01*
X17657Y14443D01*
X17726Y14533D01*
X17769Y14638D01*
X17784Y14750D01*
X17769Y14862D01*
X17726Y14967D01*
X17657Y15057D01*
X17567Y15126D01*
X17462Y15169D01*
X17350Y15184D01*
X17238Y15169D01*
X17133Y15126D01*
X17043Y15057D01*
X16974Y14967D01*
X16931Y14862D01*
X16916Y14750D01*
X16931Y14638D01*
X16970Y14543D01*
X16513Y14087D01*
X16487Y14047D01*
X16478Y14000D01*
Y10787D01*
X16428Y10759D01*
X16422Y10762D01*
Y14649D01*
X17143Y15370D01*
X17238Y15331D01*
X17350Y15316D01*
X17462Y15331D01*
X17567Y15374D01*
X17657Y15443D01*
X17726Y15533D01*
X17769Y15638D01*
X17784Y15750D01*
X17769Y15862D01*
X17726Y15967D01*
X17657Y16057D01*
X17567Y16126D01*
X17462Y16169D01*
X17350Y16184D01*
D02*
G37*
G36*
X8350D02*
X8238Y16169D01*
X8133Y16126D01*
X8043Y16057D01*
X7974Y15967D01*
X7931Y15862D01*
X7916Y15750D01*
X7931Y15638D01*
X7974Y15533D01*
X8043Y15443D01*
X8133Y15374D01*
X8238Y15331D01*
X8350Y15316D01*
X8462Y15331D01*
X8567Y15374D01*
X8657Y15443D01*
X8726Y15533D01*
X8769Y15638D01*
X8784Y15750D01*
X8769Y15862D01*
X8726Y15967D01*
X8657Y16057D01*
X8567Y16126D01*
X8462Y16169D01*
X8350Y16184D01*
D02*
G37*
G36*
X10650Y17455D02*
X10552Y17435D01*
X10470Y17380D01*
X10415Y17298D01*
X10395Y17200D01*
X10415Y17102D01*
X10470Y17020D01*
X10528Y16981D01*
Y14450D01*
X10452Y14435D01*
X10370Y14380D01*
X10315Y14298D01*
X10295Y14200D01*
X10315Y14102D01*
X10366Y14025D01*
Y11825D01*
X10315Y11748D01*
X10296Y11656D01*
X9724Y11084D01*
X8522D01*
X8332Y11273D01*
X8359Y11317D01*
X8462Y11331D01*
X8567Y11374D01*
X8657Y11443D01*
X8726Y11533D01*
X8769Y11638D01*
X8784Y11750D01*
X8769Y11862D01*
X8726Y11967D01*
X8657Y12057D01*
X8567Y12126D01*
X8462Y12169D01*
X8350Y12184D01*
X8238Y12169D01*
X8133Y12126D01*
X8043Y12057D01*
X8014Y12018D01*
X7964Y12035D01*
Y12465D01*
X8014Y12482D01*
X8043Y12443D01*
X8133Y12374D01*
X8238Y12331D01*
X8350Y12316D01*
X8462Y12331D01*
X8567Y12374D01*
X8657Y12443D01*
X8726Y12533D01*
X8769Y12638D01*
X8784Y12750D01*
X8769Y12862D01*
X8726Y12967D01*
X8657Y13057D01*
X8567Y13126D01*
X8462Y13169D01*
X8350Y13184D01*
X8238Y13169D01*
X8133Y13126D01*
X8043Y13057D01*
X8014Y13018D01*
X7964Y13035D01*
Y13465D01*
X8014Y13482D01*
X8043Y13443D01*
X8133Y13374D01*
X8238Y13331D01*
X8350Y13316D01*
X8462Y13331D01*
X8567Y13374D01*
X8657Y13443D01*
X8726Y13533D01*
X8769Y13638D01*
X8784Y13750D01*
X8769Y13862D01*
X8726Y13967D01*
X8657Y14057D01*
X8567Y14126D01*
X8462Y14169D01*
X8350Y14184D01*
X8238Y14169D01*
X8133Y14126D01*
X8043Y14057D01*
X8014Y14018D01*
X7964Y14035D01*
Y14465D01*
X8014Y14482D01*
X8043Y14443D01*
X8133Y14374D01*
X8238Y14331D01*
X8350Y14316D01*
X8462Y14331D01*
X8567Y14374D01*
X8657Y14443D01*
X8726Y14533D01*
X8769Y14638D01*
X8784Y14750D01*
X8769Y14862D01*
X8726Y14967D01*
X8657Y15057D01*
X8567Y15126D01*
X8462Y15169D01*
X8350Y15184D01*
X8238Y15169D01*
X8133Y15126D01*
X8043Y15057D01*
X7974Y14967D01*
X7939Y14881D01*
X7892Y14867D01*
X7881Y14868D01*
X7620Y15130D01*
X7560Y15170D01*
X7490Y15184D01*
X6854D01*
X6784Y15170D01*
X6724Y15130D01*
X5220Y13626D01*
X5180Y13566D01*
X5166Y13496D01*
Y13442D01*
X5116Y13422D01*
X5047Y13469D01*
X4992Y13479D01*
Y14587D01*
X5005Y14650D01*
X4992Y14713D01*
Y16891D01*
X5050Y16930D01*
X5106Y17012D01*
X5125Y17110D01*
X5106Y17208D01*
X5050Y17290D01*
X4968Y17345D01*
X4870Y17365D01*
X4772Y17345D01*
X4690Y17290D01*
X4635Y17208D01*
X4615Y17110D01*
X4635Y17012D01*
X4690Y16930D01*
X4748Y16891D01*
Y14904D01*
X4652Y14885D01*
X4570Y14830D01*
X4514Y14748D01*
X4495Y14650D01*
X4514Y14552D01*
X4570Y14470D01*
X4652Y14414D01*
X4748Y14396D01*
Y13413D01*
X4753Y13388D01*
X4714Y13331D01*
X4695Y13233D01*
X4714Y13135D01*
X4770Y13053D01*
X4852Y12998D01*
X4950Y12978D01*
X5047Y12998D01*
X5116Y13044D01*
X5166Y13024D01*
Y911D01*
X5120Y880D01*
X5064Y798D01*
X5045Y700D01*
X5064Y602D01*
X5120Y520D01*
X5202Y465D01*
X5300Y445D01*
X5398Y465D01*
X5480Y520D01*
X5535Y602D01*
X5555Y700D01*
X5535Y798D01*
X5533Y801D01*
Y1791D01*
X5583Y1811D01*
X5652Y1765D01*
X5750Y1745D01*
X5848Y1765D01*
X5930Y1820D01*
X5985Y1902D01*
X6005Y2000D01*
X5985Y2098D01*
X5934Y2175D01*
Y2425D01*
X5980Y2444D01*
X6378Y2046D01*
X6382Y1987D01*
X6343Y1957D01*
X6274Y1867D01*
X6231Y1762D01*
X6216Y1650D01*
X6231Y1538D01*
X6274Y1433D01*
X6343Y1343D01*
X6433Y1274D01*
X6538Y1231D01*
X6650Y1216D01*
X6762Y1231D01*
X6857Y1270D01*
X6981Y1146D01*
X6962Y1100D01*
X6700D01*
Y700D01*
X7100D01*
Y977D01*
X7150Y1012D01*
X7170Y1008D01*
X8060D01*
X8077Y958D01*
X8029Y921D01*
X7957Y827D01*
X7912Y717D01*
X7903Y650D01*
X8797D01*
X8788Y717D01*
X8743Y827D01*
X8671Y921D01*
X8623Y958D01*
X8640Y1008D01*
X8730D01*
X8777Y1017D01*
X8817Y1043D01*
X9387Y1613D01*
X9413Y1653D01*
X9422Y1700D01*
Y6650D01*
X9413Y6697D01*
X9387Y6737D01*
X8730Y7393D01*
X8769Y7488D01*
X8784Y7600D01*
X8769Y7712D01*
X8726Y7817D01*
X8657Y7907D01*
X8567Y7976D01*
X8462Y8019D01*
X8350Y8034D01*
X8238Y8019D01*
X8133Y7976D01*
X8043Y7907D01*
X7974Y7817D01*
X7931Y7712D01*
X7916Y7600D01*
X7931Y7488D01*
X7974Y7383D01*
X8043Y7293D01*
X8133Y7224D01*
X8238Y7181D01*
X8350Y7166D01*
X8462Y7181D01*
X8557Y7220D01*
X9178Y6599D01*
Y6011D01*
X9131Y5992D01*
X8730Y6393D01*
X8769Y6488D01*
X8784Y6600D01*
X8769Y6712D01*
X8726Y6817D01*
X8657Y6907D01*
X8567Y6976D01*
X8462Y7019D01*
X8350Y7034D01*
X8238Y7019D01*
X8133Y6976D01*
X8043Y6907D01*
X7974Y6817D01*
X7931Y6712D01*
X7916Y6600D01*
X7931Y6488D01*
X7974Y6383D01*
X8043Y6293D01*
X8133Y6224D01*
X8238Y6181D01*
X8350Y6166D01*
X8462Y6181D01*
X8557Y6220D01*
X8978Y5799D01*
Y5211D01*
X8931Y5192D01*
X8730Y5393D01*
X8769Y5488D01*
X8784Y5600D01*
X8769Y5712D01*
X8726Y5817D01*
X8657Y5907D01*
X8567Y5976D01*
X8462Y6019D01*
X8350Y6034D01*
X8238Y6019D01*
X8133Y5976D01*
X8043Y5907D01*
X7974Y5817D01*
X7931Y5712D01*
X7916Y5600D01*
X7931Y5488D01*
X7974Y5383D01*
X8043Y5293D01*
X8133Y5224D01*
X8238Y5181D01*
X8350Y5166D01*
X8462Y5181D01*
X8557Y5220D01*
X8778Y4999D01*
Y4822D01*
X8728Y4812D01*
X8726Y4817D01*
X8657Y4907D01*
X8567Y4976D01*
X8462Y5019D01*
X8350Y5034D01*
X8238Y5019D01*
X8133Y4976D01*
X8043Y4907D01*
X7974Y4817D01*
X7931Y4712D01*
X7916Y4600D01*
X7931Y4488D01*
X7974Y4383D01*
X8043Y4293D01*
X8133Y4224D01*
X8238Y4181D01*
X8350Y4166D01*
X8462Y4181D01*
X8567Y4224D01*
X8657Y4293D01*
X8726Y4383D01*
X8728Y4388D01*
X8778Y4378D01*
Y3822D01*
X8728Y3812D01*
X8726Y3817D01*
X8657Y3907D01*
X8567Y3976D01*
X8462Y4019D01*
X8350Y4034D01*
X8238Y4019D01*
X8154Y3984D01*
X6892Y5245D01*
X6894Y5295D01*
X6957Y5343D01*
X7026Y5433D01*
X7069Y5538D01*
X7084Y5650D01*
X7069Y5762D01*
X7026Y5867D01*
X6957Y5957D01*
X6867Y6026D01*
X6762Y6069D01*
X6650Y6084D01*
X6538Y6069D01*
X6433Y6026D01*
X6352Y5964D01*
X6302Y5978D01*
Y6129D01*
X6443Y6270D01*
X6538Y6231D01*
X6650Y6216D01*
X6762Y6231D01*
X6867Y6274D01*
X6957Y6343D01*
X7026Y6433D01*
X7069Y6538D01*
X7084Y6650D01*
X7069Y6762D01*
X7026Y6867D01*
X6957Y6957D01*
X6867Y7026D01*
X6762Y7069D01*
X6650Y7084D01*
X6538Y7069D01*
X6433Y7026D01*
X6343Y6957D01*
X6274Y6867D01*
X6231Y6762D01*
X6216Y6650D01*
X6231Y6538D01*
X6270Y6443D01*
X6189Y6362D01*
X6142Y6381D01*
Y6969D01*
X6443Y7270D01*
X6538Y7231D01*
X6650Y7216D01*
X6762Y7231D01*
X6867Y7274D01*
X6957Y7343D01*
X7026Y7433D01*
X7069Y7538D01*
X7084Y7650D01*
X7069Y7762D01*
X7026Y7867D01*
X6957Y7957D01*
X6867Y8026D01*
X6762Y8069D01*
X6650Y8084D01*
X6538Y8069D01*
X6433Y8026D01*
X6343Y7957D01*
X6274Y7867D01*
X6231Y7762D01*
X6216Y7650D01*
X6231Y7538D01*
X6270Y7443D01*
X5980Y7153D01*
X5934Y7172D01*
Y13424D01*
X6172Y13662D01*
X6218Y13638D01*
X6231Y13538D01*
X6274Y13433D01*
X6343Y13343D01*
X6433Y13274D01*
X6538Y13231D01*
X6650Y13216D01*
X6762Y13231D01*
X6867Y13274D01*
X6957Y13343D01*
X7026Y13433D01*
X7069Y13538D01*
X7084Y13650D01*
X7069Y13762D01*
X7026Y13867D01*
X6965Y13946D01*
X6980Y13996D01*
X7264D01*
X7316Y13944D01*
Y11450D01*
X7330Y11380D01*
X7370Y11320D01*
X8093Y10597D01*
X8069Y10551D01*
X8050Y10555D01*
X7952Y10536D01*
X7870Y10480D01*
X7815Y10398D01*
X7795Y10300D01*
X7815Y10202D01*
X7853Y10145D01*
X6772Y9065D01*
X6762Y9069D01*
X6650Y9084D01*
X6538Y9069D01*
X6433Y9026D01*
X6343Y8957D01*
X6274Y8867D01*
X6231Y8762D01*
X6216Y8650D01*
X6231Y8538D01*
X6274Y8433D01*
X6343Y8343D01*
X6433Y8274D01*
X6538Y8231D01*
X6650Y8216D01*
X6762Y8231D01*
X6867Y8274D01*
X6957Y8343D01*
X7026Y8433D01*
X7069Y8538D01*
X7084Y8650D01*
X7069Y8762D01*
X7026Y8867D01*
X6980Y8927D01*
X7874Y9820D01*
X7920Y9801D01*
Y9170D01*
X8780D01*
Y10030D01*
X8186D01*
X8171Y10080D01*
X8230Y10120D01*
X8285Y10202D01*
X8305Y10300D01*
X8301Y10319D01*
X8347Y10343D01*
X8370Y10320D01*
X8430Y10280D01*
X8500Y10266D01*
X9950D01*
X10020Y10280D01*
X10080Y10320D01*
X10356Y10596D01*
X10398Y10604D01*
X10480Y10660D01*
X10536Y10742D01*
X10555Y10840D01*
X10536Y10938D01*
X10480Y11020D01*
X10398Y11076D01*
X10321Y11091D01*
X10302Y11142D01*
X10556Y11396D01*
X10648Y11415D01*
X10669Y11429D01*
X10675Y11427D01*
X10682Y11372D01*
X10620Y11330D01*
X10565Y11248D01*
X10545Y11150D01*
X10565Y11052D01*
X10620Y10970D01*
X10678Y10931D01*
Y9301D01*
X10395Y9018D01*
X10368Y8978D01*
X10359Y8931D01*
Y8928D01*
X10334Y8923D01*
X10251Y8868D01*
X10196Y8785D01*
X10177Y8687D01*
X10196Y8590D01*
X10251Y8507D01*
X10334Y8452D01*
X10398Y8439D01*
X10414Y8385D01*
X10220Y8191D01*
X10180Y8131D01*
X10166Y8061D01*
Y725D01*
X10115Y648D01*
X10095Y550D01*
X10115Y452D01*
X10170Y370D01*
X10252Y315D01*
X10350Y295D01*
X10448Y315D01*
X10530Y370D01*
X10586Y452D01*
X10605Y550D01*
X10586Y648D01*
X10534Y725D01*
Y7985D01*
X11330Y8781D01*
X11370Y8841D01*
X11384Y8911D01*
Y11245D01*
X11370Y11315D01*
X11330Y11375D01*
X10952Y11753D01*
X10892Y11793D01*
X10822Y11807D01*
X10746D01*
X10734Y11825D01*
Y14025D01*
X10785Y14102D01*
X10805Y14200D01*
X10785Y14298D01*
X10764Y14329D01*
X10772Y14370D01*
Y16981D01*
X10830Y17020D01*
X10885Y17102D01*
X10905Y17200D01*
X10885Y17298D01*
X10830Y17380D01*
X10748Y17435D01*
X10650Y17455D01*
D02*
G37*
G36*
X3850Y15305D02*
X3752Y15286D01*
X3670Y15230D01*
X3614Y15148D01*
X3595Y15050D01*
X3614Y14952D01*
X3670Y14870D01*
X3728Y14831D01*
Y13895D01*
X3704Y13888D01*
X3678Y13882D01*
X3598Y13936D01*
X3500Y13955D01*
X3402Y13936D01*
X3320Y13880D01*
X3264Y13798D01*
X3245Y13700D01*
X3264Y13602D01*
X3320Y13520D01*
X3378Y13481D01*
Y10869D01*
X3320Y10830D01*
X3264Y10748D01*
X3245Y10650D01*
X3264Y10552D01*
X3320Y10470D01*
X3402Y10415D01*
X3500Y10395D01*
X3598Y10415D01*
X3680Y10470D01*
X3735Y10552D01*
X3755Y10650D01*
X3735Y10748D01*
X3680Y10830D01*
X3622Y10869D01*
Y12505D01*
X3646Y12512D01*
X3672Y12518D01*
X3752Y12464D01*
X3850Y12445D01*
X3948Y12464D01*
X3984Y12489D01*
X4028Y12465D01*
Y11869D01*
X3970Y11830D01*
X3914Y11748D01*
X3895Y11650D01*
X3914Y11552D01*
X3970Y11470D01*
X4052Y11415D01*
X4150Y11395D01*
X4248Y11415D01*
X4330Y11470D01*
X4385Y11552D01*
X4405Y11650D01*
X4385Y11748D01*
X4330Y11830D01*
X4272Y11869D01*
Y14431D01*
X4330Y14470D01*
X4385Y14552D01*
X4405Y14650D01*
X4385Y14748D01*
X4330Y14830D01*
X4248Y14885D01*
X4150Y14905D01*
X4108Y14897D01*
X4078Y14942D01*
X4085Y14952D01*
X4105Y15050D01*
X4085Y15148D01*
X4030Y15230D01*
X3948Y15286D01*
X3850Y15305D01*
D02*
G37*
G36*
X15850Y16755D02*
X15752Y16736D01*
X15670Y16680D01*
X15615Y16598D01*
X15595Y16500D01*
X15615Y16402D01*
X15670Y16320D01*
X15728Y16281D01*
Y13919D01*
X15670Y13880D01*
X15615Y13798D01*
X15595Y13700D01*
X15615Y13602D01*
X15670Y13520D01*
X15752Y13464D01*
X15850Y13445D01*
X15948Y13464D01*
X16030Y13520D01*
X16085Y13602D01*
X16105Y13700D01*
X16085Y13798D01*
X16030Y13880D01*
X15972Y13919D01*
Y16281D01*
X16030Y16320D01*
X16085Y16402D01*
X16105Y16500D01*
X16085Y16598D01*
X16030Y16680D01*
X15948Y16736D01*
X15850Y16755D01*
D02*
G37*
G36*
X17350Y14184D02*
X17238Y14169D01*
X17133Y14126D01*
X17043Y14057D01*
X16974Y13967D01*
X16931Y13862D01*
X16916Y13750D01*
X16931Y13638D01*
X16974Y13533D01*
X17043Y13443D01*
X17133Y13374D01*
X17238Y13331D01*
X17350Y13316D01*
X17462Y13331D01*
X17567Y13374D01*
X17657Y13443D01*
X17726Y13533D01*
X17769Y13638D01*
X17784Y13750D01*
X17769Y13862D01*
X17726Y13967D01*
X17657Y14057D01*
X17567Y14126D01*
X17462Y14169D01*
X17350Y14184D01*
D02*
G37*
G36*
X650Y14084D02*
X538Y14069D01*
X433Y14026D01*
X343Y13957D01*
X274Y13867D01*
X231Y13762D01*
X216Y13650D01*
X231Y13538D01*
X274Y13433D01*
X343Y13343D01*
X433Y13274D01*
X538Y13231D01*
X650Y13216D01*
X762Y13231D01*
X867Y13274D01*
X957Y13343D01*
X1026Y13433D01*
X1069Y13538D01*
X1084Y13650D01*
X1069Y13762D01*
X1026Y13867D01*
X957Y13957D01*
X867Y14026D01*
X762Y14069D01*
X650Y14084D01*
D02*
G37*
G36*
X17350Y13184D02*
X17238Y13169D01*
X17133Y13126D01*
X17043Y13057D01*
X16974Y12967D01*
X16931Y12862D01*
X16916Y12750D01*
X16931Y12638D01*
X16974Y12533D01*
X17043Y12443D01*
X17133Y12374D01*
X17238Y12331D01*
X17350Y12316D01*
X17462Y12331D01*
X17567Y12374D01*
X17657Y12443D01*
X17726Y12533D01*
X17769Y12638D01*
X17784Y12750D01*
X17769Y12862D01*
X17726Y12967D01*
X17657Y13057D01*
X17567Y13126D01*
X17462Y13169D01*
X17350Y13184D01*
D02*
G37*
G36*
X6650Y13084D02*
X6538Y13069D01*
X6433Y13026D01*
X6343Y12957D01*
X6274Y12867D01*
X6231Y12762D01*
X6216Y12650D01*
X6231Y12538D01*
X6274Y12433D01*
X6343Y12343D01*
X6433Y12274D01*
X6538Y12231D01*
X6650Y12216D01*
X6762Y12231D01*
X6867Y12274D01*
X6957Y12343D01*
X7026Y12433D01*
X7069Y12538D01*
X7084Y12650D01*
X7069Y12762D01*
X7026Y12867D01*
X6957Y12957D01*
X6867Y13026D01*
X6762Y13069D01*
X6650Y13084D01*
D02*
G37*
G36*
X650D02*
X538Y13069D01*
X433Y13026D01*
X343Y12957D01*
X274Y12867D01*
X231Y12762D01*
X216Y12650D01*
X231Y12538D01*
X274Y12433D01*
X343Y12343D01*
X433Y12274D01*
X538Y12231D01*
X650Y12216D01*
X762Y12231D01*
X867Y12274D01*
X957Y12343D01*
X1026Y12433D01*
X1069Y12538D01*
X1084Y12650D01*
X1069Y12762D01*
X1026Y12867D01*
X957Y12957D01*
X867Y13026D01*
X762Y13069D01*
X650Y13084D01*
D02*
G37*
G36*
X17780Y12180D02*
X16920D01*
Y11320D01*
X17780D01*
Y12180D01*
D02*
G37*
G36*
X6650Y12084D02*
X6538Y12069D01*
X6433Y12026D01*
X6343Y11957D01*
X6274Y11867D01*
X6231Y11762D01*
X6216Y11650D01*
X6231Y11538D01*
X6274Y11433D01*
X6343Y11343D01*
X6433Y11274D01*
X6538Y11231D01*
X6650Y11216D01*
X6762Y11231D01*
X6867Y11274D01*
X6957Y11343D01*
X7026Y11433D01*
X7069Y11538D01*
X7084Y11650D01*
X7069Y11762D01*
X7026Y11867D01*
X6957Y11957D01*
X6867Y12026D01*
X6762Y12069D01*
X6650Y12084D01*
D02*
G37*
G36*
X650D02*
X538Y12069D01*
X433Y12026D01*
X343Y11957D01*
X274Y11867D01*
X231Y11762D01*
X216Y11650D01*
X231Y11538D01*
X274Y11433D01*
X343Y11343D01*
X433Y11274D01*
X538Y11231D01*
X650Y11216D01*
X762Y11231D01*
X867Y11274D01*
X957Y11343D01*
X1026Y11433D01*
X1069Y11538D01*
X1084Y11650D01*
X1069Y11762D01*
X1026Y11867D01*
X957Y11957D01*
X867Y12026D01*
X762Y12069D01*
X650Y12084D01*
D02*
G37*
G36*
X7400Y10805D02*
X7302Y10785D01*
X7220Y10730D01*
X7165Y10648D01*
X7145Y10550D01*
X7165Y10452D01*
X7179Y10431D01*
X6800Y10053D01*
X6762Y10069D01*
X6650Y10084D01*
X6538Y10069D01*
X6433Y10026D01*
X6343Y9957D01*
X6274Y9867D01*
X6231Y9762D01*
X6216Y9650D01*
X6231Y9538D01*
X6274Y9433D01*
X6343Y9343D01*
X6433Y9274D01*
X6538Y9231D01*
X6650Y9216D01*
X6762Y9231D01*
X6867Y9274D01*
X6957Y9343D01*
X7026Y9433D01*
X7069Y9538D01*
X7084Y9650D01*
X7069Y9762D01*
X7026Y9867D01*
X6997Y9904D01*
X7390Y10297D01*
X7400Y10295D01*
X7498Y10315D01*
X7580Y10370D01*
X7635Y10452D01*
X7655Y10550D01*
X7635Y10648D01*
X7580Y10730D01*
X7498Y10785D01*
X7400Y10805D01*
D02*
G37*
G36*
X6650Y11084D02*
X6538Y11069D01*
X6433Y11026D01*
X6343Y10957D01*
X6274Y10867D01*
X6231Y10762D01*
X6216Y10650D01*
X6231Y10538D01*
X6274Y10433D01*
X6343Y10343D01*
X6433Y10274D01*
X6538Y10231D01*
X6650Y10216D01*
X6762Y10231D01*
X6867Y10274D01*
X6957Y10343D01*
X7026Y10433D01*
X7069Y10538D01*
X7084Y10650D01*
X7069Y10762D01*
X7026Y10867D01*
X6957Y10957D01*
X6867Y11026D01*
X6762Y11069D01*
X6650Y11084D01*
D02*
G37*
G36*
X650D02*
X538Y11069D01*
X433Y11026D01*
X343Y10957D01*
X274Y10867D01*
X231Y10762D01*
X216Y10650D01*
X231Y10538D01*
X274Y10433D01*
X343Y10343D01*
X433Y10274D01*
X538Y10231D01*
X650Y10216D01*
X762Y10231D01*
X867Y10274D01*
X957Y10343D01*
X1026Y10433D01*
X1069Y10538D01*
X1084Y10650D01*
X1069Y10762D01*
X1026Y10867D01*
X957Y10957D01*
X867Y11026D01*
X762Y11069D01*
X650Y11084D01*
D02*
G37*
G36*
X2050Y13355D02*
X1952Y13335D01*
X1870Y13280D01*
X1815Y13198D01*
X1795Y13100D01*
X1815Y13002D01*
X1870Y12920D01*
X1928Y12881D01*
Y10386D01*
X1920Y10380D01*
X1865Y10298D01*
X1845Y10200D01*
X1865Y10102D01*
X1920Y10020D01*
X2002Y9965D01*
X2100Y9945D01*
X2198Y9965D01*
X2280Y10020D01*
X2335Y10102D01*
X2355Y10200D01*
X2335Y10298D01*
X2280Y10380D01*
X2198Y10436D01*
X2172Y10441D01*
Y12881D01*
X2230Y12920D01*
X2285Y13002D01*
X2305Y13100D01*
X2285Y13198D01*
X2230Y13280D01*
X2148Y13335D01*
X2050Y13355D01*
D02*
G37*
G36*
X17400Y10047D02*
Y9650D01*
X17797D01*
X17788Y9717D01*
X17743Y9827D01*
X17671Y9921D01*
X17577Y9993D01*
X17467Y10038D01*
X17400Y10047D01*
D02*
G37*
G36*
X17300D02*
X17233Y10038D01*
X17123Y9993D01*
X17029Y9921D01*
X16957Y9827D01*
X16912Y9717D01*
X16903Y9650D01*
X17300D01*
Y10047D01*
D02*
G37*
G36*
X14150Y11755D02*
X14052Y11736D01*
X13970Y11680D01*
X13915Y11598D01*
X13895Y11500D01*
X13915Y11402D01*
X13970Y11320D01*
X14028Y11281D01*
Y9869D01*
X13970Y9830D01*
X13915Y9748D01*
X13895Y9650D01*
X13915Y9552D01*
X13970Y9470D01*
X14052Y9415D01*
X14150Y9395D01*
X14248Y9415D01*
X14330Y9470D01*
X14385Y9552D01*
X14405Y9650D01*
X14385Y9748D01*
X14330Y9830D01*
X14272Y9869D01*
Y11281D01*
X14330Y11320D01*
X14385Y11402D01*
X14405Y11500D01*
X14385Y11598D01*
X14330Y11680D01*
X14248Y11736D01*
X14150Y11755D01*
D02*
G37*
G36*
X650Y10084D02*
X538Y10069D01*
X433Y10026D01*
X343Y9957D01*
X274Y9867D01*
X231Y9762D01*
X216Y9650D01*
X231Y9538D01*
X274Y9433D01*
X343Y9343D01*
X433Y9274D01*
X538Y9231D01*
X650Y9216D01*
X762Y9231D01*
X867Y9274D01*
X957Y9343D01*
X1026Y9433D01*
X1069Y9538D01*
X1084Y9650D01*
X1069Y9762D01*
X1026Y9867D01*
X957Y9957D01*
X867Y10026D01*
X762Y10069D01*
X650Y10084D01*
D02*
G37*
G36*
X17797Y9550D02*
X17400D01*
Y9153D01*
X17467Y9162D01*
X17577Y9207D01*
X17671Y9279D01*
X17743Y9373D01*
X17788Y9483D01*
X17797Y9550D01*
D02*
G37*
G36*
X17300D02*
X16903D01*
X16912Y9483D01*
X16957Y9373D01*
X17029Y9279D01*
X17123Y9207D01*
X17233Y9162D01*
X17300Y9153D01*
Y9550D01*
D02*
G37*
G36*
X15150Y13005D02*
X15052Y12986D01*
X14970Y12930D01*
X14914Y12848D01*
X14895Y12750D01*
X14914Y12652D01*
X14970Y12570D01*
X15028Y12531D01*
Y8790D01*
X14978Y8749D01*
X14950Y8755D01*
X14852Y8735D01*
X14770Y8680D01*
X14714Y8598D01*
X14695Y8500D01*
X14714Y8402D01*
X14770Y8320D01*
X14852Y8265D01*
X14950Y8245D01*
X15048Y8265D01*
X15130Y8320D01*
X15186Y8402D01*
X15205Y8500D01*
X15191Y8568D01*
X15237Y8613D01*
X15263Y8653D01*
X15272Y8700D01*
Y12531D01*
X15330Y12570D01*
X15386Y12652D01*
X15405Y12750D01*
X15386Y12848D01*
X15330Y12930D01*
X15248Y12986D01*
X15150Y13005D01*
D02*
G37*
G36*
X12000Y16455D02*
X11902Y16436D01*
X11820Y16380D01*
X11765Y16298D01*
X11745Y16200D01*
X11765Y16102D01*
X11820Y16020D01*
X11878Y15981D01*
Y12919D01*
X11820Y12880D01*
X11765Y12798D01*
X11745Y12700D01*
X11765Y12602D01*
X11816Y12525D01*
Y2175D01*
X11765Y2098D01*
X11745Y2000D01*
X11765Y1902D01*
X11820Y1820D01*
X11902Y1765D01*
X12000Y1745D01*
X12098Y1765D01*
X12180Y1820D01*
X12235Y1902D01*
X12255Y2000D01*
X12235Y2098D01*
X12184Y2175D01*
Y8559D01*
X12234Y8574D01*
X12270Y8520D01*
X12352Y8465D01*
X12450Y8445D01*
X12548Y8465D01*
X12630Y8520D01*
X12686Y8602D01*
X12705Y8700D01*
X12686Y8798D01*
X12630Y8880D01*
X12572Y8919D01*
Y10664D01*
X12580Y10670D01*
X12636Y10752D01*
X12655Y10850D01*
X12636Y10948D01*
X12580Y11030D01*
X12498Y11085D01*
X12400Y11105D01*
X12302Y11085D01*
X12234Y11039D01*
X12184Y11059D01*
Y12525D01*
X12235Y12602D01*
X12255Y12700D01*
X12235Y12798D01*
X12180Y12880D01*
X12122Y12919D01*
Y15981D01*
X12180Y16020D01*
X12235Y16102D01*
X12255Y16200D01*
X12235Y16298D01*
X12180Y16380D01*
X12098Y16436D01*
X12000Y16455D01*
D02*
G37*
G36*
X650Y9084D02*
X538Y9069D01*
X433Y9026D01*
X343Y8957D01*
X274Y8867D01*
X231Y8762D01*
X216Y8650D01*
X231Y8538D01*
X274Y8433D01*
X343Y8343D01*
X433Y8274D01*
X538Y8231D01*
X650Y8216D01*
X762Y8231D01*
X867Y8274D01*
X957Y8343D01*
X1026Y8433D01*
X1069Y8538D01*
X1084Y8650D01*
X1069Y8762D01*
X1026Y8867D01*
X957Y8957D01*
X867Y9026D01*
X762Y9069D01*
X650Y9084D01*
D02*
G37*
G36*
X17350Y9034D02*
X17238Y9019D01*
X17133Y8976D01*
X17043Y8907D01*
X16974Y8817D01*
X16931Y8712D01*
X16916Y8600D01*
X16931Y8488D01*
X16974Y8383D01*
X17043Y8293D01*
X17133Y8224D01*
X17238Y8181D01*
X17350Y8166D01*
X17462Y8181D01*
X17567Y8224D01*
X17657Y8293D01*
X17726Y8383D01*
X17769Y8488D01*
X17784Y8600D01*
X17769Y8712D01*
X17726Y8817D01*
X17657Y8907D01*
X17567Y8976D01*
X17462Y9019D01*
X17350Y9034D01*
D02*
G37*
G36*
X8350D02*
X8238Y9019D01*
X8133Y8976D01*
X8043Y8907D01*
X7974Y8817D01*
X7931Y8712D01*
X7916Y8600D01*
X7931Y8488D01*
X7974Y8383D01*
X8043Y8293D01*
X8133Y8224D01*
X8238Y8181D01*
X8350Y8166D01*
X8462Y8181D01*
X8567Y8224D01*
X8657Y8293D01*
X8726Y8383D01*
X8769Y8488D01*
X8784Y8600D01*
X8769Y8712D01*
X8726Y8817D01*
X8657Y8907D01*
X8567Y8976D01*
X8462Y9019D01*
X8350Y9034D01*
D02*
G37*
G36*
X650Y8084D02*
X538Y8069D01*
X433Y8026D01*
X343Y7957D01*
X274Y7867D01*
X231Y7762D01*
X216Y7650D01*
X231Y7538D01*
X274Y7433D01*
X343Y7343D01*
X433Y7274D01*
X538Y7231D01*
X650Y7216D01*
X762Y7231D01*
X867Y7274D01*
X957Y7343D01*
X1026Y7433D01*
X1069Y7538D01*
X1084Y7650D01*
X1069Y7762D01*
X1026Y7867D01*
X957Y7957D01*
X867Y8026D01*
X762Y8069D01*
X650Y8084D01*
D02*
G37*
G36*
X17350Y8034D02*
X17238Y8019D01*
X17133Y7976D01*
X17043Y7907D01*
X16974Y7817D01*
X16931Y7712D01*
X16916Y7600D01*
X16931Y7488D01*
X16974Y7383D01*
X17043Y7293D01*
X17133Y7224D01*
X17238Y7181D01*
X17350Y7166D01*
X17462Y7181D01*
X17567Y7224D01*
X17657Y7293D01*
X17726Y7383D01*
X17769Y7488D01*
X17784Y7600D01*
X17769Y7712D01*
X17726Y7817D01*
X17657Y7907D01*
X17567Y7976D01*
X17462Y8019D01*
X17350Y8034D01*
D02*
G37*
G36*
X650Y7084D02*
X538Y7069D01*
X433Y7026D01*
X343Y6957D01*
X274Y6867D01*
X231Y6762D01*
X216Y6650D01*
X231Y6538D01*
X274Y6433D01*
X343Y6343D01*
X433Y6274D01*
X538Y6231D01*
X650Y6216D01*
X762Y6231D01*
X867Y6274D01*
X957Y6343D01*
X1026Y6433D01*
X1069Y6538D01*
X1084Y6650D01*
X1069Y6762D01*
X1026Y6867D01*
X957Y6957D01*
X867Y7026D01*
X762Y7069D01*
X650Y7084D01*
D02*
G37*
G36*
X17350Y7034D02*
X17238Y7019D01*
X17133Y6976D01*
X17043Y6907D01*
X16974Y6817D01*
X16931Y6712D01*
X16916Y6600D01*
X16931Y6488D01*
X16974Y6383D01*
X17043Y6293D01*
X17133Y6224D01*
X17238Y6181D01*
X17350Y6166D01*
X17462Y6181D01*
X17567Y6224D01*
X17657Y6293D01*
X17726Y6383D01*
X17769Y6488D01*
X17784Y6600D01*
X17769Y6712D01*
X17726Y6817D01*
X17657Y6907D01*
X17567Y6976D01*
X17462Y7019D01*
X17350Y7034D01*
D02*
G37*
G36*
X15150Y6548D02*
Y6050D01*
X15648D01*
X15636Y6144D01*
X15580Y6277D01*
X15492Y6392D01*
X15377Y6480D01*
X15244Y6536D01*
X15150Y6548D01*
D02*
G37*
G36*
X15050D02*
X14956Y6536D01*
X14823Y6480D01*
X14708Y6392D01*
X14620Y6277D01*
X14564Y6144D01*
X14552Y6050D01*
X15050D01*
Y6548D01*
D02*
G37*
G36*
X3050D02*
Y6050D01*
X3548D01*
X3536Y6144D01*
X3480Y6277D01*
X3392Y6392D01*
X3277Y6480D01*
X3144Y6536D01*
X3050Y6548D01*
D02*
G37*
G36*
X2950D02*
X2856Y6536D01*
X2723Y6480D01*
X2608Y6392D01*
X2520Y6277D01*
X2464Y6144D01*
X2452Y6050D01*
X2950D01*
Y6548D01*
D02*
G37*
G36*
X15648Y5950D02*
X15150D01*
Y5452D01*
X15244Y5464D01*
X15377Y5520D01*
X15492Y5608D01*
X15580Y5723D01*
X15636Y5856D01*
X15648Y5950D01*
D02*
G37*
G36*
X15050D02*
X14552D01*
X14564Y5856D01*
X14620Y5723D01*
X14708Y5608D01*
X14823Y5520D01*
X14956Y5464D01*
X15050Y5452D01*
Y5950D01*
D02*
G37*
G36*
X3548D02*
X3050D01*
Y5452D01*
X3144Y5464D01*
X3277Y5520D01*
X3392Y5608D01*
X3480Y5723D01*
X3536Y5856D01*
X3548Y5950D01*
D02*
G37*
G36*
X2950D02*
X2452D01*
X2464Y5856D01*
X2520Y5723D01*
X2608Y5608D01*
X2723Y5520D01*
X2856Y5464D01*
X2950Y5452D01*
Y5950D01*
D02*
G37*
G36*
X650Y6084D02*
X538Y6069D01*
X433Y6026D01*
X343Y5957D01*
X274Y5867D01*
X231Y5762D01*
X216Y5650D01*
X231Y5538D01*
X274Y5433D01*
X343Y5343D01*
X433Y5274D01*
X538Y5231D01*
X650Y5216D01*
X762Y5231D01*
X867Y5274D01*
X957Y5343D01*
X1026Y5433D01*
X1069Y5538D01*
X1084Y5650D01*
X1069Y5762D01*
X1026Y5867D01*
X957Y5957D01*
X867Y6026D01*
X762Y6069D01*
X650Y6084D01*
D02*
G37*
G36*
X17350Y6034D02*
X17238Y6019D01*
X17133Y5976D01*
X17043Y5907D01*
X16974Y5817D01*
X16931Y5712D01*
X16916Y5600D01*
X16931Y5488D01*
X16974Y5383D01*
X17043Y5293D01*
X17133Y5224D01*
X17238Y5181D01*
X17350Y5166D01*
X17462Y5181D01*
X17567Y5224D01*
X17657Y5293D01*
X17726Y5383D01*
X17769Y5488D01*
X17784Y5600D01*
X17769Y5712D01*
X17726Y5817D01*
X17657Y5907D01*
X17567Y5976D01*
X17462Y6019D01*
X17350Y6034D01*
D02*
G37*
G36*
X650Y5084D02*
X538Y5069D01*
X433Y5026D01*
X343Y4957D01*
X274Y4867D01*
X231Y4762D01*
X216Y4650D01*
X231Y4538D01*
X274Y4433D01*
X343Y4343D01*
X433Y4274D01*
X538Y4231D01*
X650Y4216D01*
X762Y4231D01*
X867Y4274D01*
X957Y4343D01*
X1026Y4433D01*
X1069Y4538D01*
X1084Y4650D01*
X1069Y4762D01*
X1026Y4867D01*
X957Y4957D01*
X867Y5026D01*
X762Y5069D01*
X650Y5084D01*
D02*
G37*
G36*
X17350Y5034D02*
X17238Y5019D01*
X17133Y4976D01*
X17043Y4907D01*
X16974Y4817D01*
X16931Y4712D01*
X16916Y4600D01*
X16931Y4488D01*
X16974Y4383D01*
X17043Y4293D01*
X17133Y4224D01*
X17238Y4181D01*
X17350Y4166D01*
X17462Y4181D01*
X17567Y4224D01*
X17657Y4293D01*
X17726Y4383D01*
X17769Y4488D01*
X17784Y4600D01*
X17769Y4712D01*
X17726Y4817D01*
X17657Y4907D01*
X17567Y4976D01*
X17462Y5019D01*
X17350Y5034D01*
D02*
G37*
G36*
X650Y4084D02*
X538Y4069D01*
X433Y4026D01*
X343Y3957D01*
X274Y3867D01*
X231Y3762D01*
X216Y3650D01*
X231Y3538D01*
X274Y3433D01*
X343Y3343D01*
X433Y3274D01*
X538Y3231D01*
X650Y3216D01*
X762Y3231D01*
X867Y3274D01*
X957Y3343D01*
X1026Y3433D01*
X1069Y3538D01*
X1084Y3650D01*
X1069Y3762D01*
X1026Y3867D01*
X957Y3957D01*
X867Y4026D01*
X762Y4069D01*
X650Y4084D01*
D02*
G37*
G36*
X17350Y4034D02*
X17238Y4019D01*
X17133Y3976D01*
X17043Y3907D01*
X16974Y3817D01*
X16931Y3712D01*
X16916Y3600D01*
X16931Y3488D01*
X16974Y3383D01*
X17043Y3293D01*
X17133Y3224D01*
X17238Y3181D01*
X17350Y3166D01*
X17462Y3181D01*
X17567Y3224D01*
X17657Y3293D01*
X17726Y3383D01*
X17769Y3488D01*
X17784Y3600D01*
X17769Y3712D01*
X17726Y3817D01*
X17657Y3907D01*
X17567Y3976D01*
X17462Y4019D01*
X17350Y4034D01*
D02*
G37*
G36*
X650Y3084D02*
X538Y3069D01*
X433Y3026D01*
X343Y2957D01*
X274Y2867D01*
X231Y2762D01*
X216Y2650D01*
X231Y2538D01*
X274Y2433D01*
X343Y2343D01*
X433Y2274D01*
X538Y2231D01*
X650Y2216D01*
X762Y2231D01*
X867Y2274D01*
X957Y2343D01*
X1026Y2433D01*
X1069Y2538D01*
X1084Y2650D01*
X1069Y2762D01*
X1026Y2867D01*
X957Y2957D01*
X867Y3026D01*
X762Y3069D01*
X650Y3084D01*
D02*
G37*
G36*
X17350Y3034D02*
X17238Y3019D01*
X17133Y2976D01*
X17043Y2907D01*
X16974Y2817D01*
X16931Y2712D01*
X16916Y2600D01*
X16931Y2488D01*
X16974Y2383D01*
X17043Y2293D01*
X17133Y2224D01*
X17238Y2181D01*
X17350Y2166D01*
X17462Y2181D01*
X17567Y2224D01*
X17657Y2293D01*
X17726Y2383D01*
X17769Y2488D01*
X17784Y2600D01*
X17769Y2712D01*
X17726Y2817D01*
X17657Y2907D01*
X17567Y2976D01*
X17462Y3019D01*
X17350Y3034D01*
D02*
G37*
G36*
X700Y2097D02*
Y1700D01*
X1097D01*
X1088Y1767D01*
X1043Y1877D01*
X971Y1971D01*
X877Y2043D01*
X767Y2088D01*
X700Y2097D01*
D02*
G37*
G36*
X600D02*
X533Y2088D01*
X423Y2043D01*
X329Y1971D01*
X257Y1877D01*
X212Y1767D01*
X203Y1700D01*
X600D01*
Y2097D01*
D02*
G37*
G36*
X1097Y1600D02*
X700D01*
Y1203D01*
X767Y1212D01*
X877Y1257D01*
X971Y1329D01*
X1043Y1423D01*
X1088Y1533D01*
X1097Y1600D01*
D02*
G37*
G36*
X600D02*
X203D01*
X212Y1533D01*
X257Y1423D01*
X329Y1329D01*
X423Y1257D01*
X533Y1212D01*
X600Y1203D01*
Y1600D01*
D02*
G37*
G36*
X17350Y2034D02*
X17238Y2019D01*
X17133Y1976D01*
X17043Y1907D01*
X16974Y1817D01*
X16931Y1712D01*
X16916Y1600D01*
X16931Y1488D01*
X16974Y1383D01*
X17043Y1293D01*
X17133Y1224D01*
X17238Y1181D01*
X17350Y1166D01*
X17462Y1181D01*
X17567Y1224D01*
X17657Y1293D01*
X17726Y1383D01*
X17769Y1488D01*
X17784Y1600D01*
X17769Y1712D01*
X17726Y1817D01*
X17657Y1907D01*
X17567Y1976D01*
X17462Y2019D01*
X17350Y2034D01*
D02*
G37*
G36*
X6600Y1100D02*
X6200D01*
Y700D01*
X6600D01*
Y1100D01*
D02*
G37*
G36*
X650Y1084D02*
X538Y1069D01*
X433Y1026D01*
X343Y957D01*
X274Y867D01*
X231Y762D01*
X216Y650D01*
X231Y538D01*
X274Y433D01*
X343Y343D01*
X433Y274D01*
X538Y231D01*
X650Y216D01*
X762Y231D01*
X867Y274D01*
X957Y343D01*
X1026Y433D01*
X1069Y538D01*
X1084Y650D01*
X1069Y762D01*
X1026Y867D01*
X957Y957D01*
X867Y1026D01*
X762Y1069D01*
X650Y1084D01*
D02*
G37*
G36*
X7100Y600D02*
X6700D01*
Y200D01*
X7100D01*
Y600D01*
D02*
G37*
G36*
X6600D02*
X6200D01*
Y200D01*
X6600D01*
Y600D01*
D02*
G37*
G36*
X17350Y1034D02*
X17238Y1019D01*
X17133Y976D01*
X17043Y907D01*
X16974Y817D01*
X16931Y712D01*
X16916Y600D01*
X16931Y488D01*
X16974Y383D01*
X17043Y293D01*
X17133Y224D01*
X17238Y181D01*
X17350Y166D01*
X17462Y181D01*
X17567Y224D01*
X17657Y293D01*
X17726Y383D01*
X17769Y488D01*
X17784Y600D01*
X17769Y712D01*
X17726Y817D01*
X17657Y907D01*
X17567Y976D01*
X17462Y1019D01*
X17350Y1034D01*
D02*
G37*
G36*
X8797Y550D02*
X8400D01*
Y153D01*
X8467Y162D01*
X8577Y207D01*
X8671Y279D01*
X8743Y373D01*
X8788Y483D01*
X8797Y550D01*
D02*
G37*
G36*
X8300D02*
X7903D01*
X7912Y483D01*
X7957Y373D01*
X8029Y279D01*
X8123Y207D01*
X8233Y162D01*
X8300Y153D01*
Y550D01*
D02*
G37*
%LPD*%
G36*
X11016Y10941D02*
Y8987D01*
X10734Y8705D01*
X10680Y8721D01*
X10667Y8785D01*
X10612Y8868D01*
X10635Y8912D01*
X10887Y9163D01*
X10913Y9203D01*
X10922Y9250D01*
Y10931D01*
X10966Y10961D01*
X11016Y10941D01*
D02*
G37*
G36*
X7975Y3817D02*
X7974Y3817D01*
X7931Y3712D01*
X7916Y3600D01*
X7931Y3488D01*
X7974Y3383D01*
X8036Y3302D01*
X8022Y3252D01*
X7221D01*
X7030Y3443D01*
X7069Y3538D01*
X7084Y3650D01*
X7069Y3762D01*
X7026Y3867D01*
X6957Y3957D01*
X6867Y4026D01*
X6762Y4069D01*
X6650Y4084D01*
X6538Y4069D01*
X6433Y4026D01*
X6352Y3964D01*
X6302Y3978D01*
Y4322D01*
X6352Y4336D01*
X6433Y4274D01*
X6538Y4231D01*
X6650Y4216D01*
X6762Y4231D01*
X6867Y4274D01*
X6957Y4343D01*
X7026Y4433D01*
X7069Y4538D01*
X7082Y4639D01*
X7128Y4664D01*
X7975Y3817D01*
D02*
G37*
G36*
X7483Y2043D02*
X7523Y2017D01*
X7570Y2008D01*
X8093D01*
X8110Y1958D01*
X8043Y1907D01*
X7974Y1817D01*
X7935Y1722D01*
X7415D01*
X6931Y2207D01*
X6891Y2233D01*
X6891Y2233D01*
X6882Y2286D01*
X6957Y2343D01*
X7026Y2433D01*
X7028Y2438D01*
X7082Y2445D01*
X7483Y2043D01*
D02*
G37*
G36*
X9178Y2339D02*
Y1751D01*
X8718Y1291D01*
X8680Y1324D01*
X8726Y1383D01*
X8769Y1488D01*
X8784Y1600D01*
X8769Y1712D01*
X8726Y1817D01*
X8657Y1907D01*
X8590Y1958D01*
X8607Y2008D01*
X8730D01*
X8777Y2017D01*
X8817Y2043D01*
X9131Y2358D01*
X9178Y2339D01*
D02*
G37*
G36*
X12302Y10615D02*
X12328Y10609D01*
Y8919D01*
X12270Y8880D01*
X12234Y8826D01*
X12184Y8841D01*
Y10641D01*
X12234Y10661D01*
X12302Y10615D01*
D02*
G37*
D33*
X7340Y14180D02*
Y14370D01*
X7120Y14590D02*
X7340Y14370D01*
X4870Y13413D02*
Y17110D01*
Y13413D02*
X5000Y13283D01*
X10481Y8687D02*
Y8931D01*
X10800Y9250D01*
X12400Y10850D02*
X12403D01*
X12450Y10803D01*
Y8700D02*
Y10803D01*
X10800Y9250D02*
Y11150D01*
X14150Y9650D02*
Y11500D01*
X14950Y8500D02*
X15150Y8700D01*
Y12750D01*
X16600Y14000D02*
X17350Y14750D01*
X16600Y10200D02*
X16600Y10200D01*
X16300Y10500D02*
Y14700D01*
X16600Y10200D02*
Y14000D01*
X17318Y14750D02*
X17350D01*
X16300Y14700D02*
X17350Y15750D01*
X15850Y13700D02*
Y16500D01*
X8050Y10170D02*
Y10300D01*
X6650Y8770D02*
X8050Y10170D01*
X6650Y8650D02*
Y8770D01*
X7400Y10480D02*
Y10550D01*
X6720Y9800D02*
X7400Y10480D01*
X6650Y9800D02*
X6720D01*
X6650Y9650D02*
Y9800D01*
X2050Y10250D02*
X2100Y10200D01*
X2050Y10250D02*
Y13100D01*
X12000Y12700D02*
Y16200D01*
X10650Y14370D02*
Y17200D01*
X10550Y14270D02*
X10650Y14370D01*
X10550Y14200D02*
Y14270D01*
X3500Y10650D02*
Y13700D01*
X4150Y11650D02*
Y14650D01*
X3850Y12700D02*
Y15050D01*
X7170Y1130D02*
X8730D01*
X9300Y1700D01*
Y6650D01*
X7170Y3130D02*
X8730D01*
X8900Y3300D02*
Y5050D01*
X8730Y3130D02*
X8900Y3300D01*
X7570Y2130D02*
X8730D01*
X9100Y2500D02*
Y5850D01*
X8730Y2130D02*
X9100Y2500D01*
X8350Y7600D02*
X9300Y6650D01*
X8350Y6600D02*
X9100Y5850D01*
X8350Y5600D02*
X8900Y5050D01*
X6020Y2577D02*
X6477Y2120D01*
X6020Y7020D02*
X6650Y7650D01*
X6477Y2120D02*
X6845D01*
X6020Y2577D02*
Y7020D01*
X7365Y1600D02*
X8350D01*
X6845Y2120D02*
X7365Y1600D01*
X6510Y3125D02*
X6925D01*
X6180Y3455D02*
Y6180D01*
X6650Y6650D01*
X6180Y3455D02*
X6510Y3125D01*
X6925D02*
X7450Y2600D01*
X8350D01*
X6650Y3650D02*
X7170Y3130D01*
X8350Y3600D02*
Y3615D01*
X6769Y5196D02*
X8350Y3615D01*
X6769Y5196D02*
Y5531D01*
X6650Y5650D02*
X6769Y5531D01*
X8325Y4625D02*
X8350Y4600D01*
X6650Y4650D02*
X6675Y4625D01*
X7120Y2580D02*
X7570Y2130D01*
X6650Y2650D02*
X6720Y2580D01*
X7120D01*
X6650Y1650D02*
X7170Y1130D01*
D34*
X6854Y15000D02*
X7490D01*
X7780Y14710D01*
X5350Y13496D02*
X6854Y15000D01*
X7780Y11566D02*
Y14710D01*
X5350Y750D02*
Y13496D01*
X5300Y700D02*
X5350Y750D01*
X11200Y8911D02*
Y11245D01*
X10350Y8061D02*
X11200Y8911D01*
X10350Y550D02*
Y8061D01*
X12000Y2000D02*
Y12700D01*
X10550Y11650D02*
X10577Y11623D01*
X10822D01*
X11200Y11245D01*
X10300Y10800D02*
Y10840D01*
X9800Y10900D02*
X10550Y11650D01*
X7780Y11566D02*
X8446Y10900D01*
X8500Y10450D02*
X9950D01*
X10300Y10800D01*
X8446Y10900D02*
X9800D01*
X7500Y11450D02*
X8500Y10450D01*
X7500Y11450D02*
Y14020D01*
X7340Y14180D02*
X7500Y14020D01*
X6430Y14180D02*
X7340D01*
X5750Y13500D02*
X6430Y14180D01*
X5750Y2000D02*
Y13500D01*
X10550Y11650D02*
Y14200D01*
D36*
X8350Y9600D02*
D03*
X17350Y11750D02*
D03*
X6650Y650D02*
D03*
D37*
X8350Y8600D02*
D03*
Y7600D02*
D03*
Y6600D02*
D03*
Y5600D02*
D03*
Y4600D02*
D03*
X17350Y9600D02*
D03*
Y8600D02*
D03*
Y7600D02*
D03*
Y6600D02*
D03*
Y5600D02*
D03*
Y4600D02*
D03*
X8350Y3600D02*
D03*
Y2600D02*
D03*
Y1600D02*
D03*
Y600D02*
D03*
X17350Y3600D02*
D03*
Y2600D02*
D03*
Y1600D02*
D03*
Y600D02*
D03*
X8350Y16750D02*
D03*
Y15750D02*
D03*
Y14750D02*
D03*
Y13750D02*
D03*
Y12750D02*
D03*
Y11750D02*
D03*
X17350Y16750D02*
D03*
Y15750D02*
D03*
Y14750D02*
D03*
Y13750D02*
D03*
Y12750D02*
D03*
X650Y13650D02*
D03*
Y12650D02*
D03*
Y11650D02*
D03*
Y10650D02*
D03*
Y9650D02*
D03*
Y8650D02*
D03*
Y7650D02*
D03*
Y6650D02*
D03*
Y5650D02*
D03*
Y4650D02*
D03*
Y3650D02*
D03*
Y2650D02*
D03*
Y1650D02*
D03*
Y650D02*
D03*
X6650Y13650D02*
D03*
Y12650D02*
D03*
Y11650D02*
D03*
Y10650D02*
D03*
Y9650D02*
D03*
Y8650D02*
D03*
Y7650D02*
D03*
Y6650D02*
D03*
Y5650D02*
D03*
Y4650D02*
D03*
Y3650D02*
D03*
Y2650D02*
D03*
Y1650D02*
D03*
D38*
X7120Y14590D02*
D03*
X4950Y13233D02*
D03*
X10431Y8687D02*
D03*
X12400Y10850D02*
D03*
X12450Y8700D02*
D03*
X10800Y11150D02*
D03*
X10350Y550D02*
D03*
X12000Y2000D02*
D03*
X14150Y9650D02*
D03*
Y11500D02*
D03*
X14950Y8500D02*
D03*
X15150Y12750D02*
D03*
X4870Y17110D02*
D03*
X15850Y16500D02*
D03*
Y13700D02*
D03*
X8050Y10300D02*
D03*
X16650Y10100D02*
D03*
X7400Y10550D02*
D03*
X10300Y10840D02*
D03*
X16300Y10500D02*
D03*
X5750Y2000D02*
D03*
X5300Y700D02*
D03*
X4750Y14650D02*
D03*
X2100Y10200D02*
D03*
X2050Y13100D02*
D03*
X12000Y12700D02*
D03*
Y16200D02*
D03*
X10650Y17200D02*
D03*
X10550Y14200D02*
D03*
Y11650D02*
D03*
X3500Y10650D02*
D03*
Y13700D02*
D03*
X4150Y14650D02*
D03*
Y11650D02*
D03*
X3850Y12700D02*
D03*
Y15050D02*
D03*
M02*
