G04*
G04 #@! TF.GenerationSoftware,Altium Limited,Altium Designer,21.0.8 (223)*
G04*
G04 Layer_Color=16711935*
%FSLAX25Y25*%
%MOIN*%
G70*
G04*
G04 #@! TF.SameCoordinates,84E36BB9-B4DE-43A9-923A-922111DECC7A*
G04*
G04*
G04 #@! TF.FilePolarity,Negative*
G04*
G01*
G75*
%ADD33C,0.07600*%
%ADD34R,0.06899X0.06899*%
%ADD35C,0.06899*%
%ADD36R,0.07600X0.07600*%
%ADD37O,0.08474X0.16348*%
%ADD38O,0.16348X0.08474*%
%ADD39C,0.04200*%
%ADD67R,0.02600X0.03600*%
G36*
X27900Y102600D02*
X22300D01*
Y106400D01*
X27900D01*
Y102600D01*
D02*
G37*
G36*
X35800Y102500D02*
X30200D01*
Y106300D01*
X35800D01*
Y102500D01*
D02*
G37*
G36*
X35700Y92600D02*
X30100D01*
Y96400D01*
X35700D01*
Y92600D01*
D02*
G37*
G36*
X27900D02*
X22300D01*
Y96400D01*
X27900D01*
Y92600D01*
D02*
G37*
G36*
X75400Y42100D02*
X69800D01*
Y45900D01*
X75400D01*
Y42100D01*
D02*
G37*
G36*
X65200D02*
X59600D01*
Y45900D01*
X65200D01*
Y42100D01*
D02*
G37*
G36*
X75400Y35600D02*
X69800D01*
Y39400D01*
X75400D01*
Y35600D01*
D02*
G37*
G36*
X65200D02*
X59600D01*
Y39400D01*
X65200D01*
Y35600D01*
D02*
G37*
G36*
X75400Y28600D02*
X69800D01*
Y32400D01*
X75400D01*
Y28600D01*
D02*
G37*
G36*
X65200D02*
X59600D01*
Y32400D01*
X65200D01*
Y28600D01*
D02*
G37*
G36*
X35700Y152600D02*
X30100D01*
Y156400D01*
X35700D01*
Y152600D01*
D02*
G37*
G36*
X27900D02*
X22300D01*
Y156400D01*
X27900D01*
Y152600D01*
D02*
G37*
G36*
Y142600D02*
X22300D01*
Y146400D01*
X27900D01*
Y142600D01*
D02*
G37*
G36*
X35800Y142500D02*
X30200D01*
Y146300D01*
X35800D01*
Y142500D01*
D02*
G37*
G36*
X35700Y132600D02*
X30100D01*
Y136400D01*
X35700D01*
Y132600D01*
D02*
G37*
G36*
X27900D02*
X22300D01*
Y136400D01*
X27900D01*
Y132600D01*
D02*
G37*
G36*
X35700Y122600D02*
X30100D01*
Y126400D01*
X35700D01*
Y122600D01*
D02*
G37*
G36*
X27900D02*
X22300D01*
Y126400D01*
X27900D01*
Y122600D01*
D02*
G37*
G36*
X35700Y112600D02*
X30100D01*
Y116400D01*
X35700D01*
Y112600D01*
D02*
G37*
G36*
X27900D02*
X22300D01*
Y116400D01*
X27900D01*
Y112600D01*
D02*
G37*
D33*
X95000Y84500D02*
D03*
X105000D02*
D03*
X5000Y164500D02*
D03*
Y154500D02*
D03*
Y144500D02*
D03*
Y134500D02*
D03*
Y124500D02*
D03*
X95000Y174500D02*
D03*
Y164500D02*
D03*
Y154500D02*
D03*
Y144500D02*
D03*
Y134500D02*
D03*
Y124500D02*
D03*
X5000Y114500D02*
D03*
Y104500D02*
D03*
Y94500D02*
D03*
Y84500D02*
D03*
X95000Y114500D02*
D03*
Y104500D02*
D03*
Y94500D02*
D03*
X15000Y164500D02*
D03*
Y154500D02*
D03*
Y144500D02*
D03*
Y134500D02*
D03*
Y124500D02*
D03*
X105000Y174500D02*
D03*
Y164500D02*
D03*
Y154500D02*
D03*
Y144500D02*
D03*
Y134500D02*
D03*
Y124500D02*
D03*
X15000Y114500D02*
D03*
Y104500D02*
D03*
Y94500D02*
D03*
Y84500D02*
D03*
X105000Y114500D02*
D03*
Y104500D02*
D03*
Y94500D02*
D03*
D34*
X61158Y23400D02*
D03*
X14157Y17000D02*
D03*
D35*
X80843Y23400D02*
D03*
X33843Y17000D02*
D03*
D36*
X5000Y174500D02*
D03*
X15000D02*
D03*
D37*
X89472Y54094D02*
D03*
D38*
X69000Y10000D02*
D03*
Y63937D02*
D03*
D39*
X76900Y84100D02*
D03*
X71600Y83700D02*
D03*
X64200Y82800D02*
D03*
X60005Y68457D02*
D03*
X66185Y105600D02*
D03*
X69046Y101961D02*
D03*
X61385Y105600D02*
D03*
X88000Y41390D02*
D03*
X56152Y63523D02*
D03*
X96964Y61800D02*
D03*
X48500Y103400D02*
D03*
X48835Y109400D02*
D03*
X57016Y120340D02*
D03*
X57100Y111785D02*
D03*
X18500Y51000D02*
D03*
X97800Y28900D02*
D03*
X41400Y103300D02*
D03*
X34444Y129190D02*
D03*
X53403Y67500D02*
D03*
X39000Y65400D02*
D03*
X43907Y107293D02*
D03*
X51000Y113530D02*
D03*
X82500Y95450D02*
D03*
X72400Y98800D02*
D03*
X99555Y89945D02*
D03*
X39700Y82700D02*
D03*
X43000Y41500D02*
D03*
X53400Y23004D02*
D03*
X46700Y84200D02*
D03*
X44400Y62200D02*
D03*
X48000Y67500D02*
D03*
X51500Y60589D02*
D03*
X75450Y117750D02*
D03*
X48800Y117891D02*
D03*
X52400Y123800D02*
D03*
X56200Y102300D02*
D03*
X12400Y52400D02*
D03*
X20000Y90400D02*
D03*
X78500Y145366D02*
D03*
X82957Y40500D02*
D03*
X40900Y147917D02*
D03*
X36614Y149943D02*
D03*
X48871Y144129D02*
D03*
X38896Y156845D02*
D03*
X39024Y165267D02*
D03*
X53000Y128500D02*
D03*
X89002Y158499D02*
D03*
X75000Y111600D02*
D03*
X71500Y120500D02*
D03*
X86000Y129416D02*
D03*
X67500Y49500D02*
D03*
X41500Y14500D02*
D03*
X58000Y48000D02*
D03*
X55470Y52530D02*
D03*
X54760Y57261D02*
D03*
X10500Y159500D02*
D03*
X10000Y79500D02*
D03*
X62000Y159500D02*
D03*
X53900Y172500D02*
D03*
X68000Y175500D02*
D03*
X62000Y174500D02*
D03*
X51870Y152616D02*
D03*
X46000Y150500D02*
D03*
X69000Y141000D02*
D03*
X37500Y144500D02*
D03*
X38000Y137500D02*
D03*
X26500Y140000D02*
D03*
X72094Y128963D02*
D03*
D67*
X71000Y44000D02*
D03*
X74000D02*
D03*
X23500Y94500D02*
D03*
X26500D02*
D03*
X23500Y104500D02*
D03*
X26500D02*
D03*
X23500Y114500D02*
D03*
X26500D02*
D03*
X23500Y124500D02*
D03*
X26500D02*
D03*
X23500Y134500D02*
D03*
X26500D02*
D03*
X23500Y144500D02*
D03*
X26500D02*
D03*
X23500Y154500D02*
D03*
X26500D02*
D03*
X71000Y30500D02*
D03*
X74000D02*
D03*
X64000D02*
D03*
X61000D02*
D03*
X71000Y37500D02*
D03*
X74000D02*
D03*
X64000D02*
D03*
X61000D02*
D03*
X64000Y44000D02*
D03*
X61000D02*
D03*
X34500Y94500D02*
D03*
X31500D02*
D03*
X34600Y104400D02*
D03*
X31600D02*
D03*
X34500Y114500D02*
D03*
X31500D02*
D03*
X34500Y124500D02*
D03*
X31500D02*
D03*
X34500Y134500D02*
D03*
X31500D02*
D03*
X34600Y144400D02*
D03*
X31600D02*
D03*
X34500Y154500D02*
D03*
X31500D02*
D03*
M02*
