G04*
G04 #@! TF.GenerationSoftware,Altium Limited,Altium Designer,21.0.8 (223)*
G04*
G04 Layer_Physical_Order=2*
G04 Layer_Color=16711680*
%FSLAX25Y25*%
%MOIN*%
G70*
G04*
G04 #@! TF.SameCoordinates,84E36BB9-B4DE-43A9-923A-922111DECC7A*
G04*
G04*
G04 #@! TF.FilePolarity,Positive*
G04*
G01*
G75*
%ADD12C,0.00800*%
%ADD57C,0.01500*%
%ADD59C,0.07000*%
%ADD60R,0.06299X0.06299*%
%ADD61C,0.06299*%
%ADD62R,0.07000X0.07000*%
%ADD63O,0.07874X0.15748*%
%ADD64O,0.15748X0.07874*%
%ADD65C,0.03600*%
%ADD66R,0.02000X0.03000*%
G36*
X109000Y179589D02*
X109500Y179089D01*
Y176702D01*
X109000Y176602D01*
X108931Y176769D01*
X108209Y177709D01*
X107269Y178431D01*
X106175Y178884D01*
X105500Y178973D01*
Y174500D01*
Y170027D01*
X106175Y170116D01*
X107269Y170569D01*
X108209Y171291D01*
X108931Y172231D01*
X109000Y172398D01*
X109500Y172298D01*
Y166179D01*
X109000Y166080D01*
X108756Y166669D01*
X108067Y167567D01*
X107169Y168256D01*
X106123Y168689D01*
X105000Y168837D01*
X103877Y168689D01*
X102831Y168256D01*
X101933Y167567D01*
X101244Y166669D01*
X100811Y165622D01*
X100663Y164500D01*
X100811Y163377D01*
X101244Y162331D01*
X101933Y161433D01*
X102831Y160744D01*
X103877Y160311D01*
X105000Y160163D01*
X106123Y160311D01*
X107169Y160744D01*
X108067Y161433D01*
X108756Y162331D01*
X109000Y162920D01*
X109500Y162821D01*
Y156179D01*
X109000Y156080D01*
X108756Y156669D01*
X108067Y157567D01*
X107169Y158256D01*
X106123Y158689D01*
X105000Y158837D01*
X103877Y158689D01*
X102831Y158256D01*
X101933Y157567D01*
X101244Y156669D01*
X100811Y155622D01*
X100663Y154500D01*
X100811Y153377D01*
X101244Y152331D01*
X101933Y151433D01*
X102831Y150744D01*
X103877Y150311D01*
X105000Y150163D01*
X106123Y150311D01*
X107169Y150744D01*
X108067Y151433D01*
X108756Y152331D01*
X109000Y152920D01*
X109500Y152821D01*
Y146179D01*
X109000Y146080D01*
X108756Y146669D01*
X108067Y147567D01*
X107169Y148256D01*
X106123Y148689D01*
X105000Y148837D01*
X103877Y148689D01*
X102831Y148256D01*
X101933Y147567D01*
X101244Y146669D01*
X100811Y145623D01*
X100663Y144500D01*
X100811Y143377D01*
X101244Y142331D01*
X101933Y141433D01*
X102831Y140744D01*
X103877Y140311D01*
X105000Y140163D01*
X106123Y140311D01*
X107169Y140744D01*
X108067Y141433D01*
X108756Y142331D01*
X109000Y142920D01*
X109500Y142821D01*
Y136179D01*
X109000Y136080D01*
X108756Y136669D01*
X108067Y137567D01*
X107169Y138256D01*
X106123Y138689D01*
X105000Y138837D01*
X103877Y138689D01*
X102831Y138256D01*
X101933Y137567D01*
X101244Y136669D01*
X100811Y135623D01*
X100663Y134500D01*
X100811Y133378D01*
X101244Y132331D01*
X101933Y131433D01*
X102831Y130744D01*
X103877Y130311D01*
X105000Y130163D01*
X106123Y130311D01*
X107169Y130744D01*
X108067Y131433D01*
X108756Y132331D01*
X109000Y132920D01*
X109500Y132821D01*
Y126179D01*
X109000Y126080D01*
X108756Y126669D01*
X108067Y127567D01*
X107169Y128256D01*
X106123Y128689D01*
X105000Y128837D01*
X103877Y128689D01*
X102831Y128256D01*
X101933Y127567D01*
X101244Y126669D01*
X100811Y125622D01*
X100663Y124500D01*
X100811Y123378D01*
X101244Y122331D01*
X101933Y121433D01*
X102831Y120744D01*
X103877Y120311D01*
X105000Y120163D01*
X106123Y120311D01*
X107169Y120744D01*
X108067Y121433D01*
X108756Y122331D01*
X109000Y122920D01*
X109500Y122821D01*
Y116179D01*
X109000Y116080D01*
X108756Y116669D01*
X108067Y117567D01*
X107169Y118256D01*
X106123Y118689D01*
X105000Y118837D01*
X103877Y118689D01*
X102831Y118256D01*
X101933Y117567D01*
X101244Y116669D01*
X100811Y115622D01*
X100663Y114500D01*
X100811Y113377D01*
X101244Y112331D01*
X101933Y111433D01*
X102831Y110744D01*
X103877Y110311D01*
X105000Y110163D01*
X106123Y110311D01*
X107169Y110744D01*
X108067Y111433D01*
X108756Y112331D01*
X109000Y112920D01*
X109500Y112821D01*
Y106179D01*
X109000Y106080D01*
X108756Y106669D01*
X108067Y107567D01*
X107169Y108256D01*
X106123Y108689D01*
X105000Y108837D01*
X103877Y108689D01*
X102831Y108256D01*
X101933Y107567D01*
X101244Y106669D01*
X100811Y105622D01*
X100663Y104500D01*
X100811Y103377D01*
X101244Y102331D01*
X101933Y101433D01*
X102831Y100744D01*
X103877Y100311D01*
X105000Y100163D01*
X106123Y100311D01*
X107169Y100744D01*
X108067Y101433D01*
X108756Y102331D01*
X109000Y102920D01*
X109500Y102821D01*
Y96179D01*
X109000Y96080D01*
X108756Y96669D01*
X108067Y97567D01*
X107169Y98256D01*
X106123Y98689D01*
X105000Y98837D01*
X103877Y98689D01*
X102831Y98256D01*
X101933Y97567D01*
X101244Y96669D01*
X100811Y95622D01*
X100663Y94500D01*
X100811Y93378D01*
X101001Y92918D01*
X100618Y92535D01*
X100286Y92673D01*
X99555Y92769D01*
X99397Y92748D01*
X99093Y93145D01*
X99189Y93378D01*
X99337Y94500D01*
X99189Y95622D01*
X98756Y96669D01*
X98067Y97567D01*
X97169Y98256D01*
X96122Y98689D01*
X95000Y98837D01*
X93878Y98689D01*
X92831Y98256D01*
X91933Y97567D01*
X91244Y96669D01*
X90811Y95622D01*
X90663Y94500D01*
X90811Y93378D01*
X91244Y92331D01*
X91933Y91433D01*
X92831Y90744D01*
X93878Y90311D01*
X95000Y90163D01*
X96122Y90311D01*
X96355Y90407D01*
X96752Y90103D01*
X96731Y89945D01*
X96827Y89214D01*
X96965Y88882D01*
X96582Y88499D01*
X96122Y88689D01*
X95000Y88837D01*
X93878Y88689D01*
X92831Y88256D01*
X91933Y87567D01*
X91244Y86669D01*
X91088Y86291D01*
X83444D01*
X80580Y89155D01*
Y92828D01*
X81029Y93050D01*
X81088Y93004D01*
X81769Y92722D01*
X82000Y92692D01*
Y95450D01*
Y98208D01*
X81769Y98178D01*
X81088Y97896D01*
X81029Y97850D01*
X80580Y98072D01*
Y143438D01*
X80522Y143730D01*
X80771Y144055D01*
X81033Y144687D01*
X81122Y145366D01*
X81033Y146045D01*
X80771Y146677D01*
X80354Y147221D01*
X79811Y147637D01*
X79179Y147899D01*
X78500Y147989D01*
X77821Y147899D01*
X77189Y147637D01*
X76646Y147221D01*
X76229Y146677D01*
X75967Y146045D01*
X75878Y145366D01*
X75967Y144687D01*
X76229Y144055D01*
X76646Y143512D01*
X77189Y143095D01*
X77420Y142999D01*
Y120146D01*
X76920Y119899D01*
X76761Y120021D01*
X76129Y120283D01*
X75450Y120372D01*
X74800Y120287D01*
X74718Y120289D01*
X74307Y120632D01*
X74228Y121231D01*
X73946Y121912D01*
X73497Y122497D01*
X72912Y122946D01*
X72231Y123228D01*
X72000Y123258D01*
Y120500D01*
Y117742D01*
X72231Y117772D01*
X72371Y117830D01*
X72861Y117492D01*
X72917Y117071D01*
X72953Y116983D01*
X70135Y114165D01*
X69870Y113768D01*
X69776Y113300D01*
Y105022D01*
X69439Y104684D01*
X68905Y104793D01*
X68735Y105047D01*
X68808Y105600D01*
X68718Y106279D01*
X68456Y106911D01*
X68040Y107454D01*
X67497Y107871D01*
X66864Y108133D01*
X66415Y108192D01*
X66228Y108712D01*
X66365Y108850D01*
X66630Y109247D01*
X66724Y109715D01*
Y138874D01*
X66932Y139008D01*
X67224Y139086D01*
X67689Y138729D01*
X68321Y138467D01*
X69000Y138378D01*
X69679Y138467D01*
X70311Y138729D01*
X70854Y139146D01*
X70870Y139166D01*
X71370Y138997D01*
Y131477D01*
X70783Y131234D01*
X70240Y130817D01*
X69823Y130274D01*
X69561Y129641D01*
X69471Y128963D01*
X69561Y128284D01*
X69823Y127651D01*
X70240Y127108D01*
X70783Y126691D01*
X71415Y126429D01*
X72094Y126340D01*
X72773Y126429D01*
X73405Y126691D01*
X73948Y127108D01*
X74365Y127651D01*
X74627Y128284D01*
X74716Y128963D01*
X74627Y129641D01*
X74365Y130274D01*
X73948Y130817D01*
X73817Y130917D01*
Y170406D01*
X73724Y170874D01*
X73459Y171271D01*
X70350Y174380D01*
X70533Y174821D01*
X70622Y175500D01*
X70533Y176179D01*
X70271Y176811D01*
X69854Y177354D01*
X69311Y177771D01*
X68679Y178033D01*
X68000Y178122D01*
X67321Y178033D01*
X66689Y177771D01*
X66146Y177354D01*
X65729Y176811D01*
X65467Y176179D01*
X65378Y175500D01*
X65467Y174821D01*
X65729Y174189D01*
X66146Y173646D01*
X66689Y173229D01*
X67321Y172967D01*
X68000Y172878D01*
X68347Y172923D01*
X71370Y169899D01*
Y143003D01*
X70870Y142833D01*
X70854Y142854D01*
X70311Y143271D01*
X70223Y143307D01*
Y167500D01*
X70130Y167968D01*
X69865Y168365D01*
X64497Y173733D01*
X64533Y173821D01*
X64622Y174500D01*
X64533Y175179D01*
X64271Y175811D01*
X63854Y176354D01*
X63311Y176771D01*
X62679Y177033D01*
X62000Y177122D01*
X61321Y177033D01*
X60689Y176771D01*
X60146Y176354D01*
X59729Y175811D01*
X59467Y175179D01*
X59378Y174500D01*
X59467Y173821D01*
X59729Y173189D01*
X60146Y172646D01*
X60689Y172229D01*
X61321Y171967D01*
X62000Y171878D01*
X62679Y171967D01*
X62766Y172003D01*
X67777Y166993D01*
Y143307D01*
X67689Y143271D01*
X67224Y142914D01*
X66932Y142992D01*
X66724Y143125D01*
Y160500D01*
X66630Y160968D01*
X66365Y161365D01*
X60765Y166965D01*
X60368Y167230D01*
X59900Y167324D01*
X55124D01*
Y170193D01*
X55211Y170229D01*
X55754Y170646D01*
X56171Y171189D01*
X56433Y171821D01*
X56522Y172500D01*
X56433Y173179D01*
X56171Y173811D01*
X55754Y174354D01*
X55211Y174771D01*
X54579Y175033D01*
X53900Y175122D01*
X53221Y175033D01*
X52589Y174771D01*
X52046Y174354D01*
X51629Y173811D01*
X51367Y173179D01*
X51278Y172500D01*
X51367Y171821D01*
X51629Y171189D01*
X52046Y170646D01*
X52589Y170229D01*
X52676Y170193D01*
Y166569D01*
X52770Y166100D01*
X53035Y165703D01*
X53504Y165235D01*
X53900Y164970D01*
X54369Y164876D01*
X59393D01*
X61685Y162585D01*
X61505Y162057D01*
X61321Y162033D01*
X60689Y161771D01*
X60146Y161354D01*
X59729Y160811D01*
X59467Y160179D01*
X59378Y159500D01*
X59467Y158821D01*
X59729Y158189D01*
X60146Y157646D01*
X60689Y157229D01*
X60777Y157193D01*
Y129007D01*
X57135Y125365D01*
X56870Y124968D01*
X56776Y124500D01*
Y123007D01*
X56688Y122919D01*
X56338Y122873D01*
X55705Y122611D01*
X55162Y122194D01*
X54868Y121810D01*
X54821Y121801D01*
X54365Y121889D01*
X54328Y122041D01*
X54671Y122489D01*
X54933Y123121D01*
X55022Y123800D01*
X54933Y124479D01*
X54671Y125111D01*
X54375Y125497D01*
X54405Y125954D01*
X54483Y126109D01*
X54997Y126503D01*
X55446Y127088D01*
X55728Y127769D01*
X55758Y128000D01*
X53000D01*
Y128500D01*
X52500D01*
Y131258D01*
X52269Y131228D01*
X51588Y130946D01*
X51123Y130589D01*
X50624Y130763D01*
Y139893D01*
X52737Y142006D01*
X53002Y142403D01*
X53095Y142871D01*
Y145371D01*
X53002Y145840D01*
X52737Y146237D01*
X52223Y146749D01*
Y150040D01*
X52549Y150083D01*
X53181Y150345D01*
X53724Y150762D01*
X54141Y151305D01*
X54403Y151938D01*
X54492Y152616D01*
X54403Y153295D01*
X54141Y153928D01*
X53724Y154471D01*
X53181Y154887D01*
X52549Y155149D01*
X51870Y155239D01*
X51191Y155149D01*
X50559Y154887D01*
X50016Y154471D01*
X49599Y153928D01*
X49497Y153683D01*
X48908Y153565D01*
X40723Y161749D01*
Y163294D01*
X40879Y163413D01*
X41296Y163956D01*
X41558Y164588D01*
X41647Y165267D01*
X41558Y165946D01*
X41296Y166578D01*
X40879Y167122D01*
X40336Y167538D01*
X39703Y167800D01*
X39024Y167890D01*
X38346Y167800D01*
X37713Y167538D01*
X37170Y167122D01*
X36753Y166578D01*
X36491Y165946D01*
X36402Y165267D01*
X36491Y164588D01*
X36753Y163956D01*
X37170Y163413D01*
X37713Y162996D01*
X38276Y162763D01*
Y161243D01*
X38370Y160774D01*
X38635Y160378D01*
X38854Y160158D01*
X38667Y159639D01*
X38165Y159573D01*
X37484Y159290D01*
X36899Y158842D01*
X36450Y158257D01*
X36168Y157576D01*
X36072Y156845D01*
X36033Y156800D01*
X29700D01*
Y152200D01*
X30327D01*
Y146700D01*
X29800D01*
Y142100D01*
X30327D01*
Y136800D01*
X29700D01*
Y132200D01*
X30277D01*
Y132134D01*
X30370Y131666D01*
X30635Y131269D01*
X31947Y129957D01*
X31910Y129869D01*
X31821Y129190D01*
X31910Y128512D01*
X31947Y128424D01*
X31235Y127712D01*
X30970Y127315D01*
X30876Y126847D01*
Y126800D01*
X29700D01*
Y122200D01*
X30277D01*
Y116800D01*
X29700D01*
Y112200D01*
X30327D01*
Y106700D01*
X29800D01*
Y102100D01*
X30327D01*
Y96800D01*
X29700D01*
Y92200D01*
X36300D01*
Y95070D01*
X41985Y100755D01*
X42079Y100767D01*
X42711Y101029D01*
X43254Y101446D01*
X43671Y101989D01*
X43933Y102621D01*
X44022Y103300D01*
X43933Y103979D01*
X43851Y104177D01*
X43859Y104243D01*
X44173Y104705D01*
X44586Y104760D01*
X45219Y105022D01*
X45615Y105326D01*
X46229Y104712D01*
X46229Y104711D01*
X45967Y104079D01*
X45878Y103400D01*
X45967Y102721D01*
X46229Y102089D01*
X46646Y101546D01*
X47189Y101129D01*
X47821Y100867D01*
X48500Y100778D01*
X49179Y100867D01*
X49811Y101129D01*
X49828Y101142D01*
X50276Y100921D01*
Y93207D01*
X48835Y91765D01*
X48570Y91368D01*
X48476Y90900D01*
Y86679D01*
X48028Y86458D01*
X48011Y86471D01*
X47379Y86733D01*
X46700Y86822D01*
X46021Y86733D01*
X45389Y86471D01*
X44846Y86054D01*
X44429Y85511D01*
X44167Y84879D01*
X44078Y84200D01*
X44167Y83521D01*
X44203Y83434D01*
X43535Y82765D01*
X43270Y82368D01*
X43176Y81900D01*
Y65744D01*
X42715Y65553D01*
X42538Y65729D01*
X42141Y65995D01*
X41673Y66088D01*
X41529D01*
X41271Y66711D01*
X40854Y67254D01*
X40311Y67671D01*
X39679Y67933D01*
X39000Y68022D01*
X38321Y67933D01*
X37689Y67671D01*
X37672Y67658D01*
X37224Y67879D01*
Y78493D01*
X38934Y80203D01*
X39021Y80167D01*
X39700Y80078D01*
X40379Y80167D01*
X41011Y80429D01*
X41554Y80846D01*
X41971Y81389D01*
X42233Y82021D01*
X42322Y82700D01*
X42233Y83379D01*
X41971Y84011D01*
X41554Y84554D01*
X41011Y84971D01*
X40379Y85233D01*
X39700Y85322D01*
X39021Y85233D01*
X38389Y84971D01*
X37846Y84554D01*
X37429Y84011D01*
X37167Y83379D01*
X37078Y82700D01*
X37167Y82021D01*
X37203Y81934D01*
X35135Y79865D01*
X34870Y79468D01*
X34776Y79000D01*
Y59943D01*
X34870Y59474D01*
X35135Y59078D01*
X37661Y56551D01*
X37470Y56090D01*
X23500D01*
X20446Y53036D01*
X19912Y53446D01*
X19231Y53728D01*
X19000Y53758D01*
Y51000D01*
X18000D01*
Y53758D01*
X17769Y53728D01*
X17088Y53446D01*
X16503Y52997D01*
X16054Y52412D01*
X15772Y51731D01*
X15688Y51090D01*
X15121D01*
X14844Y51505D01*
X14933Y51721D01*
X15022Y52400D01*
X14933Y53079D01*
X14671Y53711D01*
X14254Y54254D01*
X13711Y54671D01*
X13623Y54707D01*
Y67272D01*
X20865Y74514D01*
X21130Y74911D01*
X21224Y75379D01*
Y88093D01*
X21311Y88129D01*
X21854Y88546D01*
X22271Y89089D01*
X22533Y89721D01*
X22622Y90400D01*
X22533Y91079D01*
X22271Y91711D01*
X22240Y91752D01*
X22461Y92200D01*
X28300D01*
Y96800D01*
X27724D01*
Y102200D01*
X28300D01*
Y106800D01*
X27724D01*
Y112200D01*
X28300D01*
Y116800D01*
X27724D01*
Y122200D01*
X28300D01*
Y126800D01*
X27724D01*
Y132200D01*
X28300D01*
Y136800D01*
X27724D01*
Y137693D01*
X27811Y137729D01*
X28354Y138146D01*
X28771Y138689D01*
X29033Y139321D01*
X29122Y140000D01*
X29033Y140679D01*
X28771Y141311D01*
X28431Y141754D01*
X28300Y142200D01*
X28300Y142200D01*
X28300D01*
X28300Y142200D01*
Y146800D01*
X27724D01*
Y152200D01*
X28300D01*
Y156800D01*
X21700D01*
Y155724D01*
X19148D01*
X18756Y156669D01*
X18067Y157567D01*
X17168Y158256D01*
X16123Y158689D01*
X15000Y158837D01*
X13878Y158689D01*
X13445Y158510D01*
X13184Y158708D01*
X13041Y158884D01*
X13122Y159500D01*
X13041Y160116D01*
X13184Y160292D01*
X13445Y160490D01*
X13878Y160311D01*
X15000Y160163D01*
X16123Y160311D01*
X17168Y160744D01*
X18067Y161433D01*
X18756Y162331D01*
X19189Y163377D01*
X19337Y164500D01*
X19189Y165622D01*
X18756Y166669D01*
X18067Y167567D01*
X17168Y168256D01*
X16123Y168689D01*
X15000Y168837D01*
X13878Y168689D01*
X12832Y168256D01*
X11933Y167567D01*
X11244Y166669D01*
X10811Y165622D01*
X10663Y164500D01*
X10811Y163377D01*
X11157Y162540D01*
X10855Y162092D01*
X10834Y162078D01*
X10500Y162122D01*
X9821Y162033D01*
X9189Y161771D01*
X8646Y161354D01*
X8229Y160811D01*
X7967Y160179D01*
X7878Y159500D01*
X7967Y158821D01*
X8229Y158189D01*
X8462Y157885D01*
X8459Y157873D01*
X8384Y157815D01*
X7897Y157697D01*
X7169Y158256D01*
X6123Y158689D01*
X5000Y158837D01*
X3878Y158689D01*
X2831Y158256D01*
X1933Y157567D01*
X1244Y156669D01*
X811Y155622D01*
X663Y154500D01*
X811Y153377D01*
X1244Y152331D01*
X1933Y151433D01*
X2831Y150744D01*
X3878Y150311D01*
X5000Y150163D01*
X6123Y150311D01*
X7169Y150744D01*
X8067Y151433D01*
X8276Y151707D01*
X8777Y151537D01*
Y147463D01*
X8276Y147293D01*
X8067Y147567D01*
X7169Y148256D01*
X6123Y148689D01*
X5000Y148837D01*
X3878Y148689D01*
X2831Y148256D01*
X1933Y147567D01*
X1244Y146669D01*
X811Y145623D01*
X663Y144500D01*
X811Y143377D01*
X1244Y142331D01*
X1933Y141433D01*
X2831Y140744D01*
X3878Y140311D01*
X5000Y140163D01*
X6123Y140311D01*
X7169Y140744D01*
X8067Y141433D01*
X8276Y141707D01*
X8777Y141537D01*
Y137463D01*
X8276Y137294D01*
X8067Y137567D01*
X7169Y138256D01*
X6123Y138689D01*
X5000Y138837D01*
X3878Y138689D01*
X2831Y138256D01*
X1933Y137567D01*
X1244Y136669D01*
X811Y135623D01*
X663Y134500D01*
X811Y133378D01*
X1244Y132331D01*
X1933Y131433D01*
X2831Y130744D01*
X3878Y130311D01*
X5000Y130163D01*
X6123Y130311D01*
X7169Y130744D01*
X8067Y131433D01*
X8276Y131707D01*
X8777Y131537D01*
Y127463D01*
X8276Y127294D01*
X8067Y127567D01*
X7169Y128256D01*
X6123Y128689D01*
X5000Y128837D01*
X3878Y128689D01*
X2831Y128256D01*
X1933Y127567D01*
X1244Y126669D01*
X811Y125622D01*
X663Y124500D01*
X811Y123378D01*
X1244Y122331D01*
X1933Y121433D01*
X2831Y120744D01*
X3878Y120311D01*
X5000Y120163D01*
X6123Y120311D01*
X7169Y120744D01*
X8067Y121433D01*
X8276Y121706D01*
X8777Y121537D01*
Y117463D01*
X8276Y117294D01*
X8067Y117567D01*
X7169Y118256D01*
X6123Y118689D01*
X5000Y118837D01*
X3878Y118689D01*
X2831Y118256D01*
X1933Y117567D01*
X1244Y116669D01*
X811Y115622D01*
X663Y114500D01*
X811Y113377D01*
X1244Y112331D01*
X1933Y111433D01*
X2831Y110744D01*
X3878Y110311D01*
X5000Y110163D01*
X6123Y110311D01*
X7169Y110744D01*
X8067Y111433D01*
X8276Y111706D01*
X8777Y111537D01*
Y107463D01*
X8276Y107293D01*
X8067Y107567D01*
X7169Y108256D01*
X6123Y108689D01*
X5000Y108837D01*
X3878Y108689D01*
X2831Y108256D01*
X1933Y107567D01*
X1244Y106669D01*
X811Y105622D01*
X663Y104500D01*
X811Y103377D01*
X1244Y102331D01*
X1933Y101433D01*
X2831Y100744D01*
X3878Y100311D01*
X5000Y100163D01*
X6123Y100311D01*
X7169Y100744D01*
X8067Y101433D01*
X8276Y101707D01*
X8777Y101537D01*
Y97463D01*
X8276Y97294D01*
X8067Y97567D01*
X7169Y98256D01*
X6123Y98689D01*
X5000Y98837D01*
X3878Y98689D01*
X2831Y98256D01*
X1933Y97567D01*
X1244Y96669D01*
X811Y95622D01*
X663Y94500D01*
X811Y93378D01*
X1244Y92331D01*
X1933Y91433D01*
X2831Y90744D01*
X3878Y90311D01*
X5000Y90163D01*
X6123Y90311D01*
X7169Y90744D01*
X8067Y91433D01*
X8276Y91707D01*
X8777Y91537D01*
Y87748D01*
X8303Y87587D01*
X8209Y87709D01*
X7269Y88431D01*
X6175Y88884D01*
X5500Y88973D01*
Y84500D01*
Y80027D01*
X6175Y80116D01*
X7050Y80478D01*
X7295Y80302D01*
X7457Y80106D01*
X7378Y79500D01*
X7467Y78821D01*
X7729Y78189D01*
X8146Y77646D01*
X8689Y77229D01*
X9321Y76967D01*
X10000Y76878D01*
X10679Y76967D01*
X11311Y77229D01*
X11854Y77646D01*
X12271Y78189D01*
X12533Y78821D01*
X12622Y79500D01*
X12543Y80106D01*
X12705Y80302D01*
X12950Y80478D01*
X13825Y80116D01*
X14500Y80027D01*
Y84500D01*
X15500D01*
Y80027D01*
X16175Y80116D01*
X17269Y80569D01*
X18209Y81291D01*
X18303Y81413D01*
X18777Y81252D01*
Y75886D01*
X11535Y68644D01*
X11270Y68247D01*
X11176Y67779D01*
Y54707D01*
X11089Y54671D01*
X10546Y54254D01*
X10129Y53711D01*
X9867Y53079D01*
X9778Y52400D01*
X9867Y51721D01*
X9956Y51505D01*
X9679Y51090D01*
X0D01*
Y84172D01*
X500Y84205D01*
X616Y83325D01*
X1069Y82231D01*
X1791Y81291D01*
X2731Y80569D01*
X3825Y80116D01*
X4500Y80027D01*
Y84500D01*
Y88973D01*
X3825Y88884D01*
X2731Y88431D01*
X1791Y87709D01*
X1069Y86769D01*
X616Y85675D01*
X500Y84795D01*
X0Y84828D01*
Y179735D01*
X354Y180088D01*
X109000Y179589D01*
D02*
G37*
G36*
X39396Y154086D02*
X39627Y154117D01*
X40308Y154399D01*
X40893Y154848D01*
X41342Y155432D01*
X41624Y156114D01*
X41690Y156615D01*
X42210Y156803D01*
X45503Y153509D01*
X45342Y153036D01*
X45321Y153033D01*
X44689Y152771D01*
X44146Y152354D01*
X43729Y151811D01*
X43467Y151179D01*
X43378Y150500D01*
X43433Y150075D01*
X43275Y149883D01*
X42754Y149771D01*
X42211Y150188D01*
X41579Y150450D01*
X40900Y150539D01*
X40221Y150450D01*
X39703Y150235D01*
X39342Y150365D01*
X39165Y150493D01*
X39147Y150622D01*
X38885Y151255D01*
X38469Y151798D01*
X37926Y152215D01*
X37293Y152477D01*
X36614Y152566D01*
X36300Y152842D01*
Y154807D01*
X36800Y154977D01*
X36899Y154848D01*
X37484Y154399D01*
X38165Y154117D01*
X38396Y154086D01*
Y156845D01*
X39396D01*
Y154086D01*
D02*
G37*
G36*
X21700Y152200D02*
X25276D01*
Y146800D01*
X21700D01*
Y145723D01*
X19148D01*
X18756Y146669D01*
X18067Y147567D01*
X17168Y148256D01*
X16123Y148689D01*
X15000Y148837D01*
X13878Y148689D01*
X12832Y148256D01*
X11933Y147567D01*
X11723Y147293D01*
X11224Y147463D01*
Y151537D01*
X11723Y151707D01*
X11933Y151433D01*
X12832Y150744D01*
X13878Y150311D01*
X15000Y150163D01*
X16123Y150311D01*
X17168Y150744D01*
X18067Y151433D01*
X18756Y152331D01*
X19148Y153277D01*
X21700D01*
Y152200D01*
D02*
G37*
G36*
Y142200D02*
X24320D01*
X24527Y141700D01*
X24229Y141311D01*
X23967Y140679D01*
X23878Y140000D01*
X23967Y139321D01*
X24229Y138689D01*
X24646Y138146D01*
X25189Y137729D01*
X25276Y137693D01*
Y136800D01*
X21700D01*
Y135723D01*
X19148D01*
X18756Y136669D01*
X18067Y137567D01*
X17168Y138256D01*
X16123Y138689D01*
X15000Y138837D01*
X13878Y138689D01*
X12832Y138256D01*
X11933Y137567D01*
X11723Y137294D01*
X11224Y137463D01*
Y141537D01*
X11723Y141707D01*
X11933Y141433D01*
X12832Y140744D01*
X13878Y140311D01*
X15000Y140163D01*
X16123Y140311D01*
X17168Y140744D01*
X18067Y141433D01*
X18756Y142331D01*
X19148Y143277D01*
X21700D01*
Y142200D01*
D02*
G37*
G36*
Y132200D02*
X25276D01*
Y126800D01*
X21700D01*
Y125724D01*
X19148D01*
X18756Y126669D01*
X18067Y127567D01*
X17168Y128256D01*
X16123Y128689D01*
X15000Y128837D01*
X13878Y128689D01*
X12832Y128256D01*
X11933Y127567D01*
X11723Y127294D01*
X11224Y127463D01*
Y131537D01*
X11723Y131707D01*
X11933Y131433D01*
X12832Y130744D01*
X13878Y130311D01*
X15000Y130163D01*
X16123Y130311D01*
X17168Y130744D01*
X18067Y131433D01*
X18756Y132331D01*
X19148Y133276D01*
X21700D01*
Y132200D01*
D02*
G37*
G36*
Y122200D02*
X25276D01*
Y116800D01*
X21700D01*
Y115724D01*
X19148D01*
X18756Y116669D01*
X18067Y117567D01*
X17168Y118256D01*
X16123Y118689D01*
X15000Y118837D01*
X13878Y118689D01*
X12832Y118256D01*
X11933Y117567D01*
X11723Y117294D01*
X11224Y117463D01*
Y121537D01*
X11723Y121706D01*
X11933Y121433D01*
X12832Y120744D01*
X13878Y120311D01*
X15000Y120163D01*
X16123Y120311D01*
X17168Y120744D01*
X18067Y121433D01*
X18756Y122331D01*
X19148Y123276D01*
X21700D01*
Y122200D01*
D02*
G37*
G36*
X42676Y131214D02*
Y124907D01*
X34570Y116800D01*
X32724D01*
Y122200D01*
X36300D01*
Y125070D01*
X41865Y130635D01*
X42130Y131032D01*
X42176Y131264D01*
X42676Y131214D01*
D02*
G37*
G36*
X21700Y112200D02*
X25276D01*
Y106800D01*
X21700D01*
Y105724D01*
X19148D01*
X18756Y106669D01*
X18067Y107567D01*
X17168Y108256D01*
X16123Y108689D01*
X15000Y108837D01*
X13878Y108689D01*
X12832Y108256D01*
X11933Y107567D01*
X11723Y107293D01*
X11224Y107463D01*
Y111537D01*
X11723Y111706D01*
X11933Y111433D01*
X12832Y110744D01*
X13878Y110311D01*
X15000Y110163D01*
X16123Y110311D01*
X17168Y110744D01*
X18067Y111433D01*
X18756Y112331D01*
X19148Y113277D01*
X21700D01*
Y112200D01*
D02*
G37*
G36*
X47489Y115619D02*
X48121Y115357D01*
X48460Y115313D01*
X48623Y115026D01*
X48702Y114777D01*
X48467Y114209D01*
X48378Y113530D01*
X48467Y112852D01*
X48614Y112498D01*
X48344Y111970D01*
X48322Y111955D01*
X48156Y111933D01*
X47524Y111671D01*
X46981Y111254D01*
X46564Y110711D01*
X46302Y110079D01*
X46212Y109400D01*
X46216Y109377D01*
X45830Y109181D01*
X45739Y109164D01*
X45219Y109564D01*
X44586Y109826D01*
X43907Y109915D01*
X43229Y109826D01*
X42596Y109564D01*
X42053Y109147D01*
X41636Y108604D01*
X41374Y107971D01*
X41285Y107293D01*
X41374Y106614D01*
X41456Y106416D01*
X41449Y106350D01*
X41134Y105887D01*
X40721Y105833D01*
X40089Y105571D01*
X39546Y105154D01*
X39129Y104611D01*
X38867Y103979D01*
X38778Y103300D01*
X38867Y102621D01*
X39129Y101989D01*
X39402Y101633D01*
X34570Y96800D01*
X32774D01*
Y102100D01*
X36400D01*
Y104970D01*
X46365Y114935D01*
X46630Y115332D01*
X46685Y115606D01*
X47112Y115818D01*
X47223Y115823D01*
X47489Y115619D01*
D02*
G37*
G36*
X64068Y157508D02*
X64276Y157375D01*
Y110222D01*
X62152Y108097D01*
X62064Y108133D01*
X61385Y108222D01*
X60707Y108133D01*
X60074Y107871D01*
X59531Y107454D01*
X59114Y106911D01*
X58852Y106279D01*
X58763Y105600D01*
X58852Y104921D01*
X59114Y104289D01*
X59531Y103746D01*
X60074Y103329D01*
X60707Y103067D01*
X61156Y103008D01*
X61343Y102488D01*
X59935Y101080D01*
X59670Y100683D01*
X59576Y100215D01*
Y72364D01*
X59535Y72322D01*
X59270Y71925D01*
X59176Y71457D01*
Y70928D01*
X58694Y70728D01*
X58151Y70311D01*
X58126Y70280D01*
X57626Y70450D01*
Y100117D01*
X58054Y100446D01*
X58471Y100989D01*
X58733Y101621D01*
X58822Y102300D01*
X58733Y102979D01*
X58471Y103611D01*
X58054Y104154D01*
X57511Y104571D01*
X56879Y104833D01*
X56200Y104922D01*
X55823Y104873D01*
X55323Y105252D01*
Y109306D01*
X55772Y109527D01*
X55789Y109514D01*
X56421Y109252D01*
X57100Y109162D01*
X57779Y109252D01*
X58411Y109514D01*
X58954Y109931D01*
X59371Y110474D01*
X59633Y111106D01*
X59722Y111785D01*
X59633Y112464D01*
X59371Y113096D01*
X58954Y113639D01*
X58411Y114056D01*
X57779Y114318D01*
X57100Y114407D01*
X57034Y114465D01*
Y117719D01*
X57695Y117806D01*
X58328Y118069D01*
X58871Y118485D01*
X59288Y119028D01*
X59550Y119661D01*
X59639Y120340D01*
X59550Y121018D01*
X59288Y121651D01*
X59067Y121938D01*
X59130Y122032D01*
X59224Y122500D01*
Y123993D01*
X62865Y127635D01*
X63130Y128032D01*
X63223Y128500D01*
Y157193D01*
X63311Y157229D01*
X63776Y157586D01*
X64068Y157508D01*
D02*
G37*
G36*
X75500Y108842D02*
X75731Y108872D01*
X76412Y109154D01*
X76920Y109544D01*
X77420Y109411D01*
Y88500D01*
X77540Y87895D01*
X77882Y87383D01*
X78083Y87182D01*
X77800Y86758D01*
X77631Y86828D01*
X77400Y86858D01*
Y84600D01*
X79658D01*
X79628Y84831D01*
X79558Y85000D01*
X79982Y85283D01*
X81672Y83593D01*
X82184Y83251D01*
X82789Y83131D01*
X90913D01*
X91244Y82331D01*
X91933Y81433D01*
X92831Y80744D01*
X93878Y80311D01*
X95000Y80163D01*
X96122Y80311D01*
X97169Y80744D01*
X98067Y81433D01*
X98756Y82331D01*
X99189Y83377D01*
X99337Y84500D01*
X99189Y85623D01*
X98756Y86669D01*
X98690Y86755D01*
X98702Y86795D01*
X98981Y87196D01*
X99055Y87186D01*
Y89945D01*
X99555D01*
Y90445D01*
X102314D01*
X102304Y90518D01*
X102705Y90798D01*
X102745Y90810D01*
X102831Y90744D01*
X103877Y90311D01*
X105000Y90163D01*
X106123Y90311D01*
X107169Y90744D01*
X108067Y91433D01*
X108756Y92331D01*
X109000Y92920D01*
X109500Y92821D01*
Y86179D01*
X109000Y86080D01*
X108756Y86669D01*
X108067Y87567D01*
X107169Y88256D01*
X106123Y88689D01*
X105000Y88837D01*
X103877Y88689D01*
X102831Y88256D01*
X101933Y87567D01*
X101244Y86669D01*
X100811Y85623D01*
X100663Y84500D01*
X100811Y83377D01*
X101244Y82331D01*
X101933Y81433D01*
X102831Y80744D01*
X103877Y80311D01*
X105000Y80163D01*
X106123Y80311D01*
X107169Y80744D01*
X108067Y81433D01*
X108756Y82331D01*
X109000Y82920D01*
X109500Y82821D01*
Y1089D01*
X59000D01*
Y19450D01*
X65107D01*
Y27350D01*
X59209D01*
X59065Y27756D01*
X59338Y28200D01*
X62000D01*
Y28000D01*
X63500D01*
Y30500D01*
Y33000D01*
X62224D01*
Y33303D01*
X62130Y33771D01*
X61865Y34168D01*
X61295Y34738D01*
X61487Y35200D01*
X62000D01*
Y35000D01*
X63500D01*
Y37500D01*
X64500D01*
Y35000D01*
X66000D01*
Y35185D01*
X66500Y35337D01*
X66635Y35135D01*
X68635Y33135D01*
X69000Y32891D01*
Y31000D01*
X71000D01*
Y30500D01*
X71500D01*
Y28000D01*
X73000D01*
Y28200D01*
X75800D01*
Y32800D01*
X74507D01*
X74265Y33162D01*
X72927Y34500D01*
X73000Y35000D01*
X73417Y35200D01*
X75800D01*
Y36277D01*
X80000D01*
X80468Y36370D01*
X80865Y36635D01*
X82221Y37991D01*
X82279Y37967D01*
X82957Y37878D01*
X83636Y37967D01*
X84269Y38229D01*
X84812Y38646D01*
X85229Y39189D01*
X85422Y39657D01*
X85865Y39766D01*
X85982Y39749D01*
X86146Y39536D01*
X86689Y39119D01*
X87321Y38857D01*
X88000Y38768D01*
X88679Y38857D01*
X89311Y39119D01*
X89854Y39536D01*
X90271Y40079D01*
X90533Y40711D01*
X90622Y41390D01*
X90533Y42069D01*
X90271Y42701D01*
X89854Y43244D01*
X89311Y43661D01*
X88679Y43923D01*
X88000Y44012D01*
X87321Y43923D01*
X86817Y43714D01*
X86167Y44365D01*
X85770Y44630D01*
X85302Y44723D01*
X75800D01*
Y46300D01*
X73000D01*
Y46500D01*
X71500D01*
Y44000D01*
Y41500D01*
X73000D01*
Y41700D01*
X75800D01*
Y42276D01*
X80478D01*
X80699Y41828D01*
X80686Y41811D01*
X80424Y41179D01*
X80335Y40500D01*
X80424Y39821D01*
X80473Y39703D01*
X79493Y38723D01*
X75800D01*
Y39800D01*
X73000D01*
Y40000D01*
X71500D01*
Y37500D01*
X70500D01*
Y40000D01*
X69000D01*
X68723Y40385D01*
Y41115D01*
X69000Y41500D01*
X70500D01*
Y44000D01*
Y46500D01*
X69000D01*
X68835Y46731D01*
X68811Y47229D01*
X69354Y47646D01*
X69771Y48189D01*
X70033Y48821D01*
X70122Y49500D01*
X70033Y50179D01*
X69771Y50811D01*
X69354Y51354D01*
X68811Y51771D01*
X68179Y52033D01*
X67500Y52122D01*
X66821Y52033D01*
X66189Y51771D01*
X65646Y51354D01*
X65229Y50811D01*
X64967Y50179D01*
X64878Y49500D01*
X64967Y48821D01*
X65229Y48189D01*
X65646Y47646D01*
X66189Y47229D01*
X66165Y46731D01*
X66000Y46500D01*
X65776Y46500D01*
X64500D01*
Y44000D01*
X63500D01*
Y46500D01*
X62000D01*
Y46300D01*
X60930D01*
X60350Y46880D01*
X60533Y47321D01*
X60622Y48000D01*
X60533Y48679D01*
X60271Y49311D01*
X59854Y49854D01*
X59311Y50271D01*
X59000Y50400D01*
Y60589D01*
X57170D01*
X57071Y61089D01*
X57463Y61252D01*
X58007Y61669D01*
X58423Y62212D01*
X58685Y62844D01*
X58775Y63523D01*
X58685Y64202D01*
X58423Y64834D01*
X58007Y65377D01*
X57626Y65669D01*
Y66464D01*
X58126Y66634D01*
X58151Y66602D01*
X58694Y66186D01*
X59326Y65924D01*
X60005Y65834D01*
X60190Y65859D01*
X60542Y65401D01*
X60448Y65174D01*
X60285Y63937D01*
X60448Y62700D01*
X60925Y61548D01*
X61685Y60558D01*
X62674Y59799D01*
X63826Y59322D01*
X65063Y59159D01*
X72937D01*
X74174Y59322D01*
X75326Y59799D01*
X76315Y60558D01*
X77075Y61548D01*
X77552Y62700D01*
X77715Y63937D01*
X77552Y65174D01*
X77075Y66326D01*
X76315Y67316D01*
X75326Y68075D01*
X74174Y68552D01*
X72937Y68715D01*
X65063D01*
X63826Y68552D01*
X63105Y68253D01*
X62919Y68333D01*
X62610Y68589D01*
X62538Y69135D01*
X62276Y69768D01*
X61859Y70311D01*
X61659Y70465D01*
X61639Y70966D01*
X61665Y70992D01*
X61930Y71389D01*
X62024Y71857D01*
Y80580D01*
X62524Y80809D01*
X62889Y80529D01*
X63521Y80267D01*
X64200Y80178D01*
X64879Y80267D01*
X65511Y80529D01*
X66054Y80946D01*
X66471Y81489D01*
X66733Y82121D01*
X66822Y82800D01*
X66733Y83479D01*
X66471Y84111D01*
X66054Y84654D01*
X65511Y85071D01*
X65424Y85107D01*
Y97208D01*
X67856Y99640D01*
X68368Y99428D01*
X69046Y99339D01*
X69349Y99379D01*
X69795Y98935D01*
X69778Y98800D01*
X69867Y98121D01*
X70129Y97489D01*
X70420Y97110D01*
Y86025D01*
X70289Y85971D01*
X69746Y85554D01*
X69329Y85011D01*
X69067Y84379D01*
X68978Y83700D01*
X69067Y83021D01*
X69329Y82389D01*
X69746Y81846D01*
X70289Y81429D01*
X70921Y81167D01*
X71600Y81078D01*
X72279Y81167D01*
X72911Y81429D01*
X73454Y81846D01*
X73871Y82389D01*
X73954Y82589D01*
X74219Y82641D01*
X74507Y82618D01*
X74903Y82103D01*
X75488Y81654D01*
X76169Y81372D01*
X76400Y81342D01*
Y84100D01*
Y86858D01*
X76169Y86828D01*
X75488Y86546D01*
X74903Y86097D01*
X74454Y85512D01*
X74395Y85370D01*
X73866Y85277D01*
X73580Y85575D01*
Y96475D01*
X73711Y96529D01*
X74254Y96946D01*
X74671Y97489D01*
X74933Y98121D01*
X75022Y98800D01*
X74933Y99479D01*
X74671Y100111D01*
X74254Y100654D01*
X73711Y101071D01*
X73079Y101333D01*
X72400Y101422D01*
X72097Y101383D01*
X71651Y101826D01*
X71669Y101961D01*
X71579Y102640D01*
X71367Y103152D01*
X71865Y103650D01*
X72130Y104047D01*
X72224Y104515D01*
Y109798D01*
X72724Y109967D01*
X73003Y109603D01*
X73588Y109154D01*
X74269Y108872D01*
X74500Y108842D01*
Y111600D01*
X75500D01*
Y108842D01*
D02*
G37*
G36*
X44276Y122393D02*
Y116307D01*
X34670Y106700D01*
X32774D01*
Y112200D01*
X36300D01*
Y115070D01*
X43815Y122584D01*
X44276Y122393D01*
D02*
G37*
G36*
X21700Y102200D02*
X25276D01*
Y96800D01*
X21700D01*
Y95723D01*
X19148D01*
X18756Y96669D01*
X18067Y97567D01*
X17168Y98256D01*
X16123Y98689D01*
X15000Y98837D01*
X13878Y98689D01*
X12832Y98256D01*
X11933Y97567D01*
X11723Y97294D01*
X11224Y97463D01*
Y101537D01*
X11723Y101707D01*
X11933Y101433D01*
X12832Y100744D01*
X13878Y100311D01*
X15000Y100163D01*
X16123Y100311D01*
X17168Y100744D01*
X18067Y101433D01*
X18756Y102331D01*
X19148Y103277D01*
X21700D01*
Y102200D01*
D02*
G37*
G36*
X48476Y81721D02*
Y70464D01*
X48119Y70107D01*
X48000Y70122D01*
X47321Y70033D01*
X46689Y69771D01*
X46146Y69354D01*
X46123Y69326D01*
X45623Y69495D01*
Y81360D01*
X46008Y81673D01*
X46021Y81667D01*
X46700Y81578D01*
X47379Y81667D01*
X48011Y81929D01*
X48028Y81942D01*
X48476Y81721D01*
D02*
G37*
G36*
X55179Y99784D02*
Y69979D01*
X54756Y69771D01*
X54324Y69994D01*
Y99804D01*
X54743Y100027D01*
X55179Y99784D01*
D02*
G37*
G36*
X46146Y65646D02*
X46689Y65229D01*
X47321Y64967D01*
X47976Y64881D01*
Y62889D01*
X48070Y62421D01*
X48335Y62024D01*
X49003Y61356D01*
X48967Y61268D01*
X48878Y60589D01*
X48967Y59911D01*
X49229Y59278D01*
X49646Y58735D01*
X47000Y56090D01*
X41583D01*
X37224Y60449D01*
Y62921D01*
X37672Y63142D01*
X37689Y63129D01*
X38321Y62867D01*
X39000Y62778D01*
X39679Y62867D01*
X40311Y63129D01*
X40854Y63546D01*
X41355Y63452D01*
X41885Y62922D01*
X41867Y62879D01*
X41778Y62200D01*
X41867Y61521D01*
X42129Y60889D01*
X42546Y60346D01*
X43089Y59929D01*
X43721Y59667D01*
X44400Y59578D01*
X45079Y59667D01*
X45711Y59929D01*
X46254Y60346D01*
X46671Y60889D01*
X46933Y61521D01*
X47022Y62200D01*
X46933Y62879D01*
X46671Y63511D01*
X46254Y64054D01*
X45711Y64471D01*
X45623Y64507D01*
Y65505D01*
X46123Y65675D01*
X46146Y65646D01*
D02*
G37*
%LPC*%
G36*
X104500Y178973D02*
X103825Y178884D01*
X102731Y178431D01*
X101791Y177709D01*
X101069Y176769D01*
X100616Y175675D01*
X100527Y175000D01*
X104500D01*
Y178973D01*
D02*
G37*
G36*
X95500D02*
Y175000D01*
X99473D01*
X99384Y175675D01*
X98931Y176769D01*
X98209Y177709D01*
X97269Y178431D01*
X96175Y178884D01*
X95500Y178973D01*
D02*
G37*
G36*
X94500D02*
X93825Y178884D01*
X92731Y178431D01*
X91791Y177709D01*
X91069Y176769D01*
X90616Y175675D01*
X90527Y175000D01*
X94500D01*
Y178973D01*
D02*
G37*
G36*
X19300Y178800D02*
X10700D01*
Y170200D01*
X19300D01*
Y178800D01*
D02*
G37*
G36*
X9300D02*
X700D01*
Y170200D01*
X9300D01*
Y178800D01*
D02*
G37*
G36*
X104500Y174000D02*
X100527D01*
X100616Y173325D01*
X101069Y172231D01*
X101791Y171291D01*
X102731Y170569D01*
X103825Y170116D01*
X104500Y170027D01*
Y174000D01*
D02*
G37*
G36*
X99473D02*
X95500D01*
Y170027D01*
X96175Y170116D01*
X97269Y170569D01*
X98209Y171291D01*
X98931Y172231D01*
X99384Y173325D01*
X99473Y174000D01*
D02*
G37*
G36*
X94500D02*
X90527D01*
X90616Y173325D01*
X91069Y172231D01*
X91791Y171291D01*
X92731Y170569D01*
X93825Y170116D01*
X94500Y170027D01*
Y174000D01*
D02*
G37*
G36*
X95000Y168837D02*
X93878Y168689D01*
X92831Y168256D01*
X91933Y167567D01*
X91244Y166669D01*
X90811Y165622D01*
X90663Y164500D01*
X90811Y163377D01*
X91244Y162331D01*
X91933Y161433D01*
X92831Y160744D01*
X93878Y160311D01*
X95000Y160163D01*
X96122Y160311D01*
X97169Y160744D01*
X98067Y161433D01*
X98756Y162331D01*
X99189Y163377D01*
X99337Y164500D01*
X99189Y165622D01*
X98756Y166669D01*
X98067Y167567D01*
X97169Y168256D01*
X96122Y168689D01*
X95000Y168837D01*
D02*
G37*
G36*
X5000D02*
X3878Y168689D01*
X2831Y168256D01*
X1933Y167567D01*
X1244Y166669D01*
X811Y165622D01*
X663Y164500D01*
X811Y163377D01*
X1244Y162331D01*
X1933Y161433D01*
X2831Y160744D01*
X3878Y160311D01*
X5000Y160163D01*
X6123Y160311D01*
X7169Y160744D01*
X8067Y161433D01*
X8756Y162331D01*
X9189Y163377D01*
X9337Y164500D01*
X9189Y165622D01*
X8756Y166669D01*
X8067Y167567D01*
X7169Y168256D01*
X6123Y168689D01*
X5000Y168837D01*
D02*
G37*
G36*
X89502Y161257D02*
Y158999D01*
X91760D01*
X91729Y159229D01*
X91447Y159911D01*
X90999Y160495D01*
X90414Y160944D01*
X89732Y161226D01*
X89502Y161257D01*
D02*
G37*
G36*
X88502D02*
X88271Y161226D01*
X87590Y160944D01*
X87005Y160495D01*
X86556Y159911D01*
X86274Y159229D01*
X86243Y158999D01*
X88502D01*
Y161257D01*
D02*
G37*
G36*
X95000Y158837D02*
X93878Y158689D01*
X92831Y158256D01*
X92238Y157801D01*
X91896Y157999D01*
X89502D01*
Y155740D01*
X89732Y155771D01*
X90414Y156053D01*
X90464Y156091D01*
X90874Y155776D01*
X90811Y155622D01*
X90663Y154500D01*
X90811Y153377D01*
X91244Y152331D01*
X91933Y151433D01*
X92831Y150744D01*
X93878Y150311D01*
X95000Y150163D01*
X96122Y150311D01*
X97169Y150744D01*
X98067Y151433D01*
X98756Y152331D01*
X99189Y153377D01*
X99337Y154500D01*
X99189Y155622D01*
X98756Y156669D01*
X98067Y157567D01*
X97169Y158256D01*
X96122Y158689D01*
X95000Y158837D01*
D02*
G37*
G36*
X88502Y157999D02*
X86243D01*
X86274Y157767D01*
X86556Y157086D01*
X87005Y156501D01*
X87590Y156053D01*
X88271Y155771D01*
X88502Y155740D01*
Y157999D01*
D02*
G37*
G36*
X95000Y148837D02*
X93878Y148689D01*
X92831Y148256D01*
X91933Y147567D01*
X91244Y146669D01*
X90811Y145623D01*
X90663Y144500D01*
X90811Y143377D01*
X91244Y142331D01*
X91933Y141433D01*
X92831Y140744D01*
X93878Y140311D01*
X95000Y140163D01*
X96122Y140311D01*
X97169Y140744D01*
X98067Y141433D01*
X98756Y142331D01*
X99189Y143377D01*
X99337Y144500D01*
X99189Y145623D01*
X98756Y146669D01*
X98067Y147567D01*
X97169Y148256D01*
X96122Y148689D01*
X95000Y148837D01*
D02*
G37*
G36*
Y138837D02*
X93878Y138689D01*
X92831Y138256D01*
X91933Y137567D01*
X91244Y136669D01*
X90811Y135623D01*
X90663Y134500D01*
X90811Y133378D01*
X91244Y132331D01*
X91933Y131433D01*
X92831Y130744D01*
X93878Y130311D01*
X95000Y130163D01*
X96122Y130311D01*
X97169Y130744D01*
X98067Y131433D01*
X98756Y132331D01*
X99189Y133378D01*
X99337Y134500D01*
X99189Y135623D01*
X98756Y136669D01*
X98067Y137567D01*
X97169Y138256D01*
X96122Y138689D01*
X95000Y138837D01*
D02*
G37*
G36*
X86500Y132175D02*
Y129916D01*
X88758D01*
X88728Y130147D01*
X88446Y130828D01*
X87997Y131413D01*
X87412Y131862D01*
X86731Y132144D01*
X86500Y132175D01*
D02*
G37*
G36*
X85500D02*
X85269Y132144D01*
X84588Y131862D01*
X84003Y131413D01*
X83554Y130828D01*
X83272Y130147D01*
X83242Y129916D01*
X85500D01*
Y132175D01*
D02*
G37*
G36*
X53500Y131258D02*
Y129000D01*
X55758D01*
X55728Y129231D01*
X55446Y129912D01*
X54997Y130497D01*
X54412Y130946D01*
X53731Y131228D01*
X53500Y131258D01*
D02*
G37*
G36*
X88758Y128916D02*
X86500D01*
Y126658D01*
X86731Y126688D01*
X87412Y126971D01*
X87997Y127419D01*
X88446Y128004D01*
X88728Y128685D01*
X88758Y128916D01*
D02*
G37*
G36*
X85500D02*
X83242D01*
X83272Y128685D01*
X83554Y128004D01*
X84003Y127419D01*
X84588Y126971D01*
X85269Y126688D01*
X85500Y126658D01*
Y128916D01*
D02*
G37*
G36*
X71000Y123258D02*
X70769Y123228D01*
X70088Y122946D01*
X69503Y122497D01*
X69054Y121912D01*
X68772Y121231D01*
X68742Y121000D01*
X71000D01*
Y123258D01*
D02*
G37*
G36*
X95000Y128837D02*
X93878Y128689D01*
X92831Y128256D01*
X91933Y127567D01*
X91244Y126669D01*
X90811Y125622D01*
X90663Y124500D01*
X90811Y123378D01*
X91244Y122331D01*
X91933Y121433D01*
X92831Y120744D01*
X93878Y120311D01*
X95000Y120163D01*
X96122Y120311D01*
X97169Y120744D01*
X98067Y121433D01*
X98756Y122331D01*
X99189Y123378D01*
X99337Y124500D01*
X99189Y125622D01*
X98756Y126669D01*
X98067Y127567D01*
X97169Y128256D01*
X96122Y128689D01*
X95000Y128837D01*
D02*
G37*
G36*
X71000Y120000D02*
X68742D01*
X68772Y119769D01*
X69054Y119088D01*
X69503Y118503D01*
X70088Y118054D01*
X70769Y117772D01*
X71000Y117742D01*
Y120000D01*
D02*
G37*
G36*
X95000Y118837D02*
X93878Y118689D01*
X92831Y118256D01*
X91933Y117567D01*
X91244Y116669D01*
X90811Y115622D01*
X90663Y114500D01*
X90811Y113377D01*
X91244Y112331D01*
X91933Y111433D01*
X92831Y110744D01*
X93878Y110311D01*
X95000Y110163D01*
X96122Y110311D01*
X97169Y110744D01*
X98067Y111433D01*
X98756Y112331D01*
X99189Y113377D01*
X99337Y114500D01*
X99189Y115622D01*
X98756Y116669D01*
X98067Y117567D01*
X97169Y118256D01*
X96122Y118689D01*
X95000Y118837D01*
D02*
G37*
G36*
Y108837D02*
X93878Y108689D01*
X92831Y108256D01*
X91933Y107567D01*
X91244Y106669D01*
X90811Y105622D01*
X90663Y104500D01*
X90811Y103377D01*
X91244Y102331D01*
X91933Y101433D01*
X92831Y100744D01*
X93878Y100311D01*
X95000Y100163D01*
X96122Y100311D01*
X97169Y100744D01*
X98067Y101433D01*
X98756Y102331D01*
X99189Y103377D01*
X99337Y104500D01*
X99189Y105622D01*
X98756Y106669D01*
X98067Y107567D01*
X97169Y108256D01*
X96122Y108689D01*
X95000Y108837D01*
D02*
G37*
G36*
X83000Y98208D02*
Y95950D01*
X85258D01*
X85228Y96181D01*
X84946Y96862D01*
X84497Y97447D01*
X83912Y97896D01*
X83231Y98178D01*
X83000Y98208D01*
D02*
G37*
G36*
X85258Y94950D02*
X83000D01*
Y92692D01*
X83231Y92722D01*
X83912Y93004D01*
X84497Y93453D01*
X84946Y94038D01*
X85228Y94719D01*
X85258Y94950D01*
D02*
G37*
G36*
X102314Y89445D02*
X100055D01*
Y87186D01*
X100286Y87217D01*
X100967Y87499D01*
X101552Y87948D01*
X102001Y88533D01*
X102283Y89214D01*
X102314Y89445D01*
D02*
G37*
G36*
X79658Y83600D02*
X77400D01*
Y81342D01*
X77631Y81372D01*
X78312Y81654D01*
X78897Y82103D01*
X79346Y82688D01*
X79628Y83369D01*
X79658Y83600D01*
D02*
G37*
G36*
X89472Y62809D02*
X88236Y62647D01*
X87084Y62169D01*
X86094Y61410D01*
X85335Y60420D01*
X84857Y59268D01*
X84695Y58031D01*
Y50157D01*
X84857Y48921D01*
X85335Y47769D01*
X86094Y46779D01*
X87084Y46020D01*
X88236Y45542D01*
X89472Y45380D01*
X90709Y45542D01*
X91861Y46020D01*
X92851Y46779D01*
X93610Y47769D01*
X94087Y48921D01*
X94250Y50157D01*
Y58031D01*
X94087Y59268D01*
X93610Y60420D01*
X92851Y61410D01*
X91861Y62169D01*
X90709Y62647D01*
X89472Y62809D01*
D02*
G37*
G36*
X66000Y33000D02*
X64500D01*
Y31000D01*
X66000D01*
Y33000D01*
D02*
G37*
G36*
X70500Y30000D02*
X69000D01*
Y28000D01*
X70500D01*
Y30000D01*
D02*
G37*
G36*
X66000D02*
X64500D01*
Y28000D01*
X66000D01*
Y30000D01*
D02*
G37*
G36*
X96964Y64422D02*
X96285Y64333D01*
X95652Y64071D01*
X95109Y63654D01*
X94692Y63111D01*
X94430Y62479D01*
X94341Y61800D01*
X94430Y61121D01*
X94692Y60489D01*
X95109Y59946D01*
X95652Y59529D01*
X96158Y59319D01*
Y30918D01*
X95946Y30754D01*
X95529Y30211D01*
X95267Y29579D01*
X95178Y28900D01*
X95267Y28221D01*
X95529Y27589D01*
X95946Y27046D01*
X96489Y26629D01*
X97121Y26367D01*
X97800Y26278D01*
X98479Y26367D01*
X99111Y26629D01*
X99654Y27046D01*
X100071Y27589D01*
X100333Y28221D01*
X100422Y28900D01*
X100333Y29579D01*
X100071Y30211D01*
X99654Y30754D01*
X99111Y31171D01*
X98605Y31381D01*
Y59782D01*
X98818Y59946D01*
X99235Y60489D01*
X99497Y61121D01*
X99586Y61800D01*
X99497Y62479D01*
X99235Y63111D01*
X98818Y63654D01*
X98275Y64071D01*
X97642Y64333D01*
X96964Y64422D01*
D02*
G37*
G36*
X81343Y27520D02*
Y23900D01*
X84962D01*
X84885Y24483D01*
X84467Y25493D01*
X83802Y26360D01*
X82935Y27025D01*
X81926Y27443D01*
X81343Y27520D01*
D02*
G37*
G36*
X80343D02*
X79759Y27443D01*
X78750Y27025D01*
X77883Y26360D01*
X77218Y25493D01*
X76800Y24483D01*
X76723Y23900D01*
X80343D01*
Y27520D01*
D02*
G37*
G36*
X84962Y22900D02*
X81343D01*
Y19280D01*
X81926Y19357D01*
X82935Y19775D01*
X83802Y20440D01*
X84467Y21307D01*
X84885Y22317D01*
X84962Y22900D01*
D02*
G37*
G36*
X80343D02*
X76723D01*
X76800Y22317D01*
X77218Y21307D01*
X77883Y20440D01*
X78750Y19775D01*
X79759Y19357D01*
X80343Y19280D01*
Y22900D01*
D02*
G37*
G36*
X72937Y14980D02*
X69500D01*
Y10500D01*
X77851D01*
X77747Y11289D01*
X77249Y12490D01*
X76458Y13521D01*
X75427Y14312D01*
X74226Y14810D01*
X72937Y14980D01*
D02*
G37*
G36*
X68500D02*
X65063D01*
X63774Y14810D01*
X62573Y14312D01*
X61542Y13521D01*
X60751Y12490D01*
X60253Y11289D01*
X60149Y10500D01*
X68500D01*
Y14980D01*
D02*
G37*
G36*
X77851Y9500D02*
X69500D01*
Y5020D01*
X72937D01*
X74226Y5190D01*
X75427Y5688D01*
X76458Y6479D01*
X77249Y7510D01*
X77747Y8711D01*
X77851Y9500D01*
D02*
G37*
G36*
X68500D02*
X60149D01*
X60253Y8711D01*
X60751Y7510D01*
X61542Y6479D01*
X62573Y5688D01*
X63774Y5190D01*
X65063Y5020D01*
X68500D01*
Y9500D01*
D02*
G37*
%LPD*%
D12*
X64200Y97715D02*
X71000Y104515D01*
X49232Y27171D02*
Y46711D01*
X36000Y59943D02*
Y79000D01*
Y59943D02*
X49232Y46711D01*
X71000Y113300D02*
X75450Y117750D01*
X71000Y104515D02*
Y113300D01*
X64200Y82800D02*
Y97715D01*
X60005Y68457D02*
X60400Y68852D01*
Y71457D02*
X60800Y71857D01*
Y100215D01*
X60400Y68852D02*
Y71457D01*
X60800Y100215D02*
X66185Y105600D01*
X41500Y102000D02*
Y103400D01*
X65500Y109715D02*
Y160500D01*
X61385Y105600D02*
X65500Y109715D01*
X74500Y43500D02*
X85302D01*
X87411Y41390D02*
X88000D01*
X85302Y43500D02*
X87411Y41390D01*
X56403Y64174D02*
Y102097D01*
X55952Y63723D02*
X56403Y64174D01*
X96964Y61800D02*
X97382Y61382D01*
Y29318D02*
Y61382D01*
Y29318D02*
X97800Y28900D01*
X52000Y113526D02*
Y114258D01*
X50796Y113526D02*
X52000D01*
X49100Y117590D02*
Y118253D01*
X72594Y128963D02*
Y170406D01*
X31550Y134550D02*
Y154450D01*
Y94550D02*
Y114450D01*
X56326Y120826D02*
X58000Y122500D01*
X56326Y120205D02*
Y120600D01*
X48536Y68164D02*
X49200Y67500D01*
X48835Y109400D02*
X48935Y109300D01*
Y109135D02*
Y109300D01*
X50700Y113430D02*
X50796Y113526D01*
X56326Y120600D02*
X56756D01*
X56100D02*
X56326D01*
Y120826D01*
X54100Y104443D02*
Y119637D01*
X56756Y120600D02*
X57016Y120340D01*
X52936Y120801D02*
X54100Y119637D01*
X56458Y111785D02*
X57100D01*
X53100Y103443D02*
X54100Y104443D01*
X55811Y119689D02*
X56326Y120205D01*
X31500Y124500D02*
X32100Y125100D01*
Y126847D01*
X34444Y129190D01*
X69000Y63937D02*
X69269D01*
X72537Y60669D01*
X31500Y94500D02*
X31550Y94550D01*
X34500Y95000D02*
X41500Y102000D01*
X31500Y132134D02*
Y134500D01*
Y132134D02*
X34444Y129190D01*
X31500Y114500D02*
X31550Y114450D01*
X31500Y114500D02*
Y124500D01*
Y154500D02*
X31550Y154450D01*
X31500Y134500D02*
X31550Y134550D01*
X53100Y67803D02*
Y103443D01*
Y67803D02*
X53403Y67500D01*
X56200Y102300D02*
X56403Y102097D01*
X44337Y62200D02*
X44400D01*
X39536Y64864D02*
X41673D01*
X44337Y62200D01*
X39000Y65400D02*
X39536Y64864D01*
X43907Y107293D02*
X43907D01*
X44000Y107200D01*
X48500Y103400D02*
Y103563D01*
X36000Y79000D02*
X39700Y82700D01*
X49232Y27171D02*
X53400Y23004D01*
X49700Y90900D02*
X51500Y92700D01*
X48536Y68164D02*
Y68793D01*
X49700Y69958D01*
Y90900D01*
X44400Y81900D02*
X46700Y84200D01*
X44400Y62200D02*
Y81900D01*
X49200Y62889D02*
Y67200D01*
X48300D02*
X49200D01*
X48000Y67500D02*
X48300Y67200D01*
X49200Y62889D02*
X51500Y60589D01*
X52100Y104705D02*
Y105970D01*
X51500Y104105D02*
X52100Y104705D01*
X51500Y92700D02*
Y104105D01*
X45471Y107200D02*
X48804Y103867D01*
X48500Y103563D02*
X48804Y103867D01*
X48935Y109135D02*
X52100Y105970D01*
X44000Y107200D02*
X45471D01*
X52000Y114258D02*
X52100Y114358D01*
X55811Y112432D02*
X56458Y111785D01*
X49400Y122074D02*
X52100Y119374D01*
Y114358D02*
Y119374D01*
X49100Y118253D02*
X49319Y118473D01*
X52936Y120801D02*
Y123264D01*
X47800Y119992D02*
X49319Y118473D01*
X52400Y123800D02*
X52936Y123264D01*
X55811Y112432D02*
Y119689D01*
X58000Y122500D02*
Y124500D01*
X47800Y141063D02*
X48336Y141598D01*
X49400Y140400D02*
X51871Y142871D01*
X47800Y119992D02*
Y141063D01*
X49400Y122074D02*
Y140400D01*
X48336Y143593D02*
X48871Y144129D01*
X48336Y141598D02*
Y143593D01*
X12400Y67779D02*
X20000Y75379D01*
X12400Y52400D02*
Y67779D01*
X20000Y75379D02*
Y90400D01*
X15000Y94500D02*
X23500D01*
X82957Y40457D02*
Y40500D01*
X80000Y37500D02*
X82957Y40457D01*
X15000Y144500D02*
X23500D01*
X15000Y114500D02*
X23500D01*
X15000Y154500D02*
X23500D01*
X15000Y124500D02*
X23500D01*
X15000Y134500D02*
X23500D01*
X15000Y104500D02*
X23500D01*
X34500Y152058D02*
Y154500D01*
Y152058D02*
X36614Y149943D01*
X46000Y150500D02*
Y150500D01*
X41000Y131500D02*
Y147817D01*
X40900Y147917D02*
X41000Y147817D01*
X43900Y148400D02*
X46000Y150500D01*
X43900Y124400D02*
Y148400D01*
X45500Y145000D02*
X49000Y148500D01*
Y151743D01*
X51871Y142871D02*
Y145371D01*
X45500Y115800D02*
Y145000D01*
X51000Y146243D02*
X51871Y145371D01*
X51401Y152148D02*
X51870Y152616D01*
X34600Y104900D02*
X45500Y115800D01*
X51000Y146243D02*
Y152148D01*
X51401D01*
X39024Y165267D02*
X39500Y164792D01*
Y161243D02*
Y164792D01*
X58000Y124500D02*
X62000Y128500D01*
X67500Y36000D02*
Y49500D01*
Y36000D02*
X69500Y34000D01*
X71697D01*
X73400Y32297D01*
Y31100D02*
X74000Y30500D01*
X73400Y31100D02*
Y32297D01*
X74000Y44000D02*
X74500Y43500D01*
X74000Y37500D02*
X80000D01*
X41500Y14500D02*
X43000Y16000D01*
Y41500D01*
X55000Y44000D02*
Y52060D01*
Y44000D02*
X61000Y38000D01*
X58000Y47500D02*
Y48000D01*
X61000Y44000D02*
Y44500D01*
X58000Y47500D02*
X61000Y44500D01*
Y37500D02*
Y38000D01*
X55000Y52060D02*
X55470Y52530D01*
X52470Y41833D02*
Y54308D01*
X61000Y30500D02*
Y33303D01*
X52470Y41833D02*
X61000Y33303D01*
X52470Y54308D02*
X54260Y56099D01*
Y56761D01*
X10000Y79500D02*
Y159031D01*
X10469Y159500D01*
X10500D01*
X34500Y94500D02*
Y95000D01*
X59900Y166100D02*
X65500Y160500D01*
X53900Y166569D02*
Y172500D01*
Y166569D02*
X54369Y166100D01*
X59900D01*
X62000Y128500D02*
Y159500D01*
X68000Y175000D02*
Y175500D01*
X39500Y161243D02*
X49000Y151743D01*
X34500Y115000D02*
X43900Y124400D01*
X34600Y104400D02*
Y104900D01*
X34500Y114500D02*
Y115000D01*
Y125000D02*
X41000Y131500D01*
X34500Y124500D02*
Y125000D01*
X34700Y144500D02*
X37500D01*
X34500Y134500D02*
Y135000D01*
X36464Y136964D01*
X37464D01*
X38000Y137500D01*
X34600Y144400D02*
X34700Y144500D01*
X26500Y94500D02*
Y104500D01*
Y114500D01*
Y124500D01*
Y134500D01*
Y140000D01*
Y144500D02*
Y154500D01*
Y140000D02*
Y144500D01*
X69000Y141000D02*
Y167500D01*
X62000Y174500D02*
X69000Y167500D01*
X68000Y175000D02*
X72594Y170406D01*
D57*
X82789Y84711D02*
X94789D01*
X95000Y84500D01*
X79000Y88500D02*
X82789Y84711D01*
X72000Y98400D02*
X72400Y98800D01*
X72000Y84100D02*
Y98400D01*
X71600Y83700D02*
X72000Y84100D01*
X78500Y145366D02*
X78902Y144964D01*
Y143536D02*
Y144964D01*
Y143536D02*
X79000Y143438D01*
Y88500D02*
Y143438D01*
D59*
X95000Y84500D02*
D03*
X105000D02*
D03*
X5000Y164500D02*
D03*
Y154500D02*
D03*
Y144500D02*
D03*
Y134500D02*
D03*
Y124500D02*
D03*
X95000Y174500D02*
D03*
Y164500D02*
D03*
Y154500D02*
D03*
Y144500D02*
D03*
Y134500D02*
D03*
Y124500D02*
D03*
X5000Y114500D02*
D03*
Y104500D02*
D03*
Y94500D02*
D03*
Y84500D02*
D03*
X95000Y114500D02*
D03*
Y104500D02*
D03*
Y94500D02*
D03*
X15000Y164500D02*
D03*
Y154500D02*
D03*
Y144500D02*
D03*
Y134500D02*
D03*
Y124500D02*
D03*
X105000Y174500D02*
D03*
Y164500D02*
D03*
Y154500D02*
D03*
Y144500D02*
D03*
Y134500D02*
D03*
Y124500D02*
D03*
X15000Y114500D02*
D03*
Y104500D02*
D03*
Y94500D02*
D03*
Y84500D02*
D03*
X105000Y114500D02*
D03*
Y104500D02*
D03*
Y94500D02*
D03*
D60*
X61158Y23400D02*
D03*
X14157Y17000D02*
D03*
D61*
X80843Y23400D02*
D03*
X33843Y17000D02*
D03*
D62*
X5000Y174500D02*
D03*
X15000D02*
D03*
D63*
X89472Y54094D02*
D03*
D64*
X69000Y10000D02*
D03*
Y63937D02*
D03*
D65*
X76900Y84100D02*
D03*
X71600Y83700D02*
D03*
X64200Y82800D02*
D03*
X60005Y68457D02*
D03*
X66185Y105600D02*
D03*
X69046Y101961D02*
D03*
X61385Y105600D02*
D03*
X88000Y41390D02*
D03*
X56152Y63523D02*
D03*
X96964Y61800D02*
D03*
X48500Y103400D02*
D03*
X48835Y109400D02*
D03*
X57016Y120340D02*
D03*
X57100Y111785D02*
D03*
X18500Y51000D02*
D03*
X97800Y28900D02*
D03*
X41400Y103300D02*
D03*
X34444Y129190D02*
D03*
X53403Y67500D02*
D03*
X39000Y65400D02*
D03*
X43907Y107293D02*
D03*
X51000Y113530D02*
D03*
X82500Y95450D02*
D03*
X72400Y98800D02*
D03*
X99555Y89945D02*
D03*
X39700Y82700D02*
D03*
X43000Y41500D02*
D03*
X53400Y23004D02*
D03*
X46700Y84200D02*
D03*
X44400Y62200D02*
D03*
X48000Y67500D02*
D03*
X51500Y60589D02*
D03*
X75450Y117750D02*
D03*
X48800Y117891D02*
D03*
X52400Y123800D02*
D03*
X56200Y102300D02*
D03*
X12400Y52400D02*
D03*
X20000Y90400D02*
D03*
X78500Y145366D02*
D03*
X82957Y40500D02*
D03*
X40900Y147917D02*
D03*
X36614Y149943D02*
D03*
X48871Y144129D02*
D03*
X38896Y156845D02*
D03*
X39024Y165267D02*
D03*
X53000Y128500D02*
D03*
X89002Y158499D02*
D03*
X75000Y111600D02*
D03*
X71500Y120500D02*
D03*
X86000Y129416D02*
D03*
X67500Y49500D02*
D03*
X41500Y14500D02*
D03*
X58000Y48000D02*
D03*
X55470Y52530D02*
D03*
X54760Y57261D02*
D03*
X10500Y159500D02*
D03*
X10000Y79500D02*
D03*
X62000Y159500D02*
D03*
X53900Y172500D02*
D03*
X68000Y175500D02*
D03*
X62000Y174500D02*
D03*
X51870Y152616D02*
D03*
X46000Y150500D02*
D03*
X69000Y141000D02*
D03*
X37500Y144500D02*
D03*
X38000Y137500D02*
D03*
X26500Y140000D02*
D03*
X72094Y128963D02*
D03*
D66*
X71000Y44000D02*
D03*
X74000D02*
D03*
X23500Y94500D02*
D03*
X26500D02*
D03*
X23500Y104500D02*
D03*
X26500D02*
D03*
X23500Y114500D02*
D03*
X26500D02*
D03*
X23500Y124500D02*
D03*
X26500D02*
D03*
X23500Y134500D02*
D03*
X26500D02*
D03*
X23500Y144500D02*
D03*
X26500D02*
D03*
X23500Y154500D02*
D03*
X26500D02*
D03*
X71000Y30500D02*
D03*
X74000D02*
D03*
X64000D02*
D03*
X61000D02*
D03*
X71000Y37500D02*
D03*
X74000D02*
D03*
X64000D02*
D03*
X61000D02*
D03*
X64000Y44000D02*
D03*
X61000D02*
D03*
X34500Y94500D02*
D03*
X31500D02*
D03*
X34600Y104400D02*
D03*
X31600D02*
D03*
X34500Y114500D02*
D03*
X31500D02*
D03*
X34500Y124500D02*
D03*
X31500D02*
D03*
X34500Y134500D02*
D03*
X31500D02*
D03*
X34600Y144400D02*
D03*
X31600D02*
D03*
X34500Y154500D02*
D03*
X31500D02*
D03*
M02*
