M48
;Layer_Color=9474304
;FILE_FORMAT=2:4
INCH,LZ
;TYPE=PLATED
T1F00S00C0.0200
T2F00S00C0.0350
T4F00S00C0.0433
%
T01
X00415Y00145
X00534Y0023
X0043Y00415
X0058Y0048
X005547Y005253
X005476Y005726
X00515Y006059
X005615Y006352
X00534Y00675
X0048
X00444Y00622
X0039Y00654
X00397Y00827
X00467Y00842
X00642Y00828
X00716Y00837
X00769Y00841
X00825Y009545
X00724Y00988
X006905Y010196
X006619Y01056
X006139
X00562Y01023
X00485Y01034
X004883Y01094
X0051Y011353
X00488Y011789
X00524Y01238
X0053Y01285
X005702Y012034
X00571Y011178
X004391Y010729
X00414Y01033
X003444Y012919
X0038Y01375
X00375Y01445
X003661Y014994
X00409Y014792
X0046Y01505
X005187Y015262
X004887Y014413
X0069Y0141
X00785Y014537
X007209Y012896
X00715Y01205
X007545Y011775
X0075Y01116
X0086Y012942
X009956Y008994
X009696Y00618
X0088Y004139
X008296Y00405
X00675Y00495
X006Y006846
X00185Y0051
X00124Y00524
X001Y00795
X002Y00904
X00265Y014
X00978Y00289
X0089Y01585
X0062Y01595
Y01745
X0068Y01755
X00539Y01725
X003902Y016527
X00389Y015684
X00105Y01595
T02
X0005Y00845
Y00945
Y01045
Y01145
Y01245
Y01345
Y01445
Y01545
X0015
Y01445
Y01345
Y01245
Y01145
Y01045
Y00945
Y00845
X0095
X0105
Y00945
X0095
Y01045
Y01145
Y01245
Y01345
Y01445
Y01545
X0105
Y01445
Y01345
Y01245
Y01145
Y01045
Y01645
X0095
Y01745
X0105
X0015
X0005
Y01645
X0015
T04
X001416Y0017
X003384
X006116Y00234
X008084
M30
