G04*
G04 #@! TF.GenerationSoftware,Altium Limited,Altium Designer,21.0.8 (223)*
G04*
G04 Layer_Color=8388736*
%FSLAX25Y25*%
%MOIN*%
G70*
G04*
G04 #@! TF.SameCoordinates,84E36BB9-B4DE-43A9-923A-922111DECC7A*
G04*
G04*
G04 #@! TF.FilePolarity,Negative*
G04*
G01*
G75*
%ADD15R,0.03356X0.04143*%
%ADD16R,0.03356X0.03947*%
%ADD17R,0.03080X0.03868*%
G04:AMPARAMS|DCode=18|XSize=29.62mil|YSize=63.09mil|CornerRadius=5.01mil|HoleSize=0mil|Usage=FLASHONLY|Rotation=0.000|XOffset=0mil|YOffset=0mil|HoleType=Round|Shape=RoundedRectangle|*
%AMROUNDEDRECTD18*
21,1,0.02962,0.05307,0,0,0.0*
21,1,0.01961,0.06309,0,0,0.0*
1,1,0.01002,0.00980,-0.02653*
1,1,0.01002,-0.00980,-0.02653*
1,1,0.01002,-0.00980,0.02653*
1,1,0.01002,0.00980,0.02653*
%
%ADD18ROUNDEDRECTD18*%
%ADD19R,0.03553X0.03947*%
%ADD20R,0.04340X0.04734*%
%ADD21R,0.03750X0.04143*%
%ADD22R,0.04143X0.04537*%
%ADD23R,0.03159X0.04734*%
%ADD24R,0.04331X0.02362*%
%ADD25R,0.04734X0.04340*%
%ADD26O,0.03900X0.01500*%
%ADD27R,0.04537X0.04143*%
%ADD28R,0.03947X0.03553*%
%ADD29O,0.04100X0.01800*%
%ADD30R,0.04100X0.01800*%
%ADD31R,0.04143X0.06702*%
%ADD32R,0.04931X0.03159*%
%ADD33C,0.07600*%
%ADD34R,0.06899X0.06899*%
%ADD35C,0.06899*%
%ADD36R,0.07600X0.07600*%
%ADD37O,0.08474X0.16348*%
%ADD38O,0.16348X0.08474*%
%ADD39C,0.04200*%
D15*
X75248Y103632D02*
D03*
X80760D02*
D03*
X83656Y71100D02*
D03*
X78144D02*
D03*
D16*
X102664Y5200D02*
D03*
X98136D02*
D03*
X29268Y63345D02*
D03*
X33795D02*
D03*
X52658Y136075D02*
D03*
X48131D02*
D03*
X25412Y128671D02*
D03*
X29939D02*
D03*
X40988Y112431D02*
D03*
X45909D02*
D03*
D17*
X23310Y118100D02*
D03*
X32090D02*
D03*
X23610Y105600D02*
D03*
X32390D02*
D03*
D18*
X66286Y96270D02*
D03*
X61286D02*
D03*
X56286D02*
D03*
X51286D02*
D03*
X46286D02*
D03*
X41286D02*
D03*
X36286D02*
D03*
X66286Y74814D02*
D03*
X61286D02*
D03*
X56286D02*
D03*
X51286D02*
D03*
X46286D02*
D03*
X41286D02*
D03*
X36286D02*
D03*
D19*
X23741Y73100D02*
D03*
X28859D02*
D03*
X45608Y122831D02*
D03*
X40489D02*
D03*
D20*
X29054Y85100D02*
D03*
X23346D02*
D03*
X10854Y68400D02*
D03*
X5146D02*
D03*
X73146Y78800D02*
D03*
X78854D02*
D03*
D21*
X102362Y17100D02*
D03*
X97638D02*
D03*
D22*
X73843Y159500D02*
D03*
X79158D02*
D03*
X73843Y167000D02*
D03*
X79158D02*
D03*
X60343Y112000D02*
D03*
X65658D02*
D03*
D23*
X73154Y151500D02*
D03*
X79847D02*
D03*
X60154Y121000D02*
D03*
X66847D02*
D03*
D24*
X66815Y155260D02*
D03*
X56185D02*
D03*
X66815Y162740D02*
D03*
X56185Y159000D02*
D03*
Y162740D02*
D03*
D25*
X86000Y85146D02*
D03*
Y90854D02*
D03*
X89400Y74154D02*
D03*
Y68446D02*
D03*
D26*
X25000Y56970D02*
D03*
Y58940D02*
D03*
Y55000D02*
D03*
Y53030D02*
D03*
X41500Y58940D02*
D03*
Y56970D02*
D03*
Y55000D02*
D03*
Y53030D02*
D03*
D27*
X17500Y61257D02*
D03*
Y55942D02*
D03*
X46500Y163657D02*
D03*
Y158343D02*
D03*
X4300Y55443D02*
D03*
Y60757D02*
D03*
D28*
X99500Y68641D02*
D03*
Y73759D02*
D03*
D29*
X25000Y49090D02*
D03*
Y45150D02*
D03*
X41500Y49090D02*
D03*
D30*
Y45150D02*
D03*
D31*
X16716Y41500D02*
D03*
X6284D02*
D03*
D32*
X58276Y136240D02*
D03*
Y132500D02*
D03*
Y128760D02*
D03*
X67724D02*
D03*
Y132500D02*
D03*
Y136240D02*
D03*
D33*
X95000Y84500D02*
D03*
X105000D02*
D03*
X5000Y164500D02*
D03*
Y154500D02*
D03*
Y144500D02*
D03*
Y134500D02*
D03*
Y124500D02*
D03*
X95000Y174500D02*
D03*
Y164500D02*
D03*
Y154500D02*
D03*
Y144500D02*
D03*
Y134500D02*
D03*
Y124500D02*
D03*
X5000Y114500D02*
D03*
Y104500D02*
D03*
Y94500D02*
D03*
Y84500D02*
D03*
X95000Y114500D02*
D03*
Y104500D02*
D03*
Y94500D02*
D03*
X15000Y164500D02*
D03*
Y154500D02*
D03*
Y144500D02*
D03*
Y134500D02*
D03*
Y124500D02*
D03*
X105000Y174500D02*
D03*
Y164500D02*
D03*
Y154500D02*
D03*
Y144500D02*
D03*
Y134500D02*
D03*
Y124500D02*
D03*
X15000Y114500D02*
D03*
Y104500D02*
D03*
Y94500D02*
D03*
Y84500D02*
D03*
X105000Y114500D02*
D03*
Y104500D02*
D03*
Y94500D02*
D03*
D34*
X61158Y23400D02*
D03*
X14157Y17000D02*
D03*
D35*
X80843Y23400D02*
D03*
X33843Y17000D02*
D03*
D36*
X5000Y174500D02*
D03*
X15000D02*
D03*
D37*
X89472Y54094D02*
D03*
D38*
X69000Y10000D02*
D03*
Y63937D02*
D03*
D39*
X76900Y84100D02*
D03*
X71600Y83700D02*
D03*
X64200Y82800D02*
D03*
X60005Y68457D02*
D03*
X66185Y105600D02*
D03*
X69046Y101961D02*
D03*
X61385Y105600D02*
D03*
X88000Y41390D02*
D03*
X56152Y63523D02*
D03*
X96964Y61800D02*
D03*
X48500Y103400D02*
D03*
X48835Y109400D02*
D03*
X57016Y120340D02*
D03*
X57100Y111785D02*
D03*
X18500Y51000D02*
D03*
X97800Y28900D02*
D03*
X41400Y103300D02*
D03*
X34444Y129190D02*
D03*
X53403Y67500D02*
D03*
X39000Y65400D02*
D03*
X43907Y107293D02*
D03*
X51000Y113530D02*
D03*
X82500Y95450D02*
D03*
X72400Y98800D02*
D03*
X99555Y89945D02*
D03*
X39700Y82700D02*
D03*
X43000Y41500D02*
D03*
X53400Y23004D02*
D03*
X46700Y84200D02*
D03*
X44400Y62200D02*
D03*
X48000Y67500D02*
D03*
X51500Y60589D02*
D03*
X75450Y117750D02*
D03*
X48800Y117891D02*
D03*
X52400Y123800D02*
D03*
X56200Y102300D02*
D03*
X12400Y52400D02*
D03*
X20000Y90400D02*
D03*
X78500Y145366D02*
D03*
X82957Y40500D02*
D03*
X40900Y147917D02*
D03*
X36614Y149943D02*
D03*
X48871Y144129D02*
D03*
X38896Y156845D02*
D03*
X39024Y165267D02*
D03*
X53000Y128500D02*
D03*
X89002Y158499D02*
D03*
X75000Y111600D02*
D03*
X71500Y120500D02*
D03*
X86000Y129416D02*
D03*
X67500Y49500D02*
D03*
X41500Y14500D02*
D03*
X58000Y48000D02*
D03*
X55470Y52530D02*
D03*
X54760Y57261D02*
D03*
X10500Y159500D02*
D03*
X10000Y79500D02*
D03*
X62000Y159500D02*
D03*
X53900Y172500D02*
D03*
X68000Y175500D02*
D03*
X62000Y174500D02*
D03*
X51870Y152616D02*
D03*
X46000Y150500D02*
D03*
X69000Y141000D02*
D03*
X37500Y144500D02*
D03*
X38000Y137500D02*
D03*
X26500Y140000D02*
D03*
X72094Y128963D02*
D03*
M02*
