G04*
G04 #@! TF.GenerationSoftware,Altium Limited,Altium Designer,21.0.8 (223)*
G04*
G04 Layer_Physical_Order=1*
G04 Layer_Color=255*
%FSLAX25Y25*%
%MOIN*%
G70*
G04*
G04 #@! TF.SameCoordinates,84E36BB9-B4DE-43A9-923A-922111DECC7A*
G04*
G04*
G04 #@! TF.FilePolarity,Positive*
G04*
G01*
G75*
%ADD12C,0.00800*%
%ADD14C,0.01000*%
%ADD24R,0.04331X0.02362*%
%ADD40R,0.02756X0.03543*%
%ADD41R,0.02756X0.03347*%
%ADD42R,0.02480X0.03268*%
G04:AMPARAMS|DCode=43|XSize=23.62mil|YSize=57.09mil|CornerRadius=2.01mil|HoleSize=0mil|Usage=FLASHONLY|Rotation=0.000|XOffset=0mil|YOffset=0mil|HoleType=Round|Shape=RoundedRectangle|*
%AMROUNDEDRECTD43*
21,1,0.02362,0.05307,0,0,0.0*
21,1,0.01961,0.05709,0,0,0.0*
1,1,0.00402,0.00980,-0.02653*
1,1,0.00402,-0.00980,-0.02653*
1,1,0.00402,-0.00980,0.02653*
1,1,0.00402,0.00980,0.02653*
%
%ADD43ROUNDEDRECTD43*%
%ADD44R,0.02953X0.03347*%
%ADD45R,0.03740X0.04134*%
%ADD46R,0.03150X0.03543*%
%ADD47R,0.03543X0.03937*%
%ADD48R,0.02559X0.04134*%
%ADD49R,0.04134X0.03740*%
%ADD50O,0.03500X0.01100*%
%ADD51R,0.03937X0.03543*%
%ADD52R,0.03347X0.02953*%
%ADD53O,0.03500X0.01200*%
%ADD54R,0.03500X0.01200*%
%ADD55R,0.03543X0.06102*%
%ADD56R,0.04331X0.02559*%
%ADD57C,0.01500*%
%ADD58C,0.08000*%
%ADD59C,0.07000*%
%ADD60R,0.06299X0.06299*%
%ADD61C,0.06299*%
%ADD62R,0.07000X0.07000*%
%ADD63O,0.07874X0.15748*%
%ADD64O,0.15748X0.07874*%
%ADD65C,0.03600*%
G36*
X65519Y179700D02*
X65726Y179199D01*
X64135Y177608D01*
X63870Y177211D01*
X63828Y177004D01*
X63311Y176771D01*
X62679Y177033D01*
X62000Y177122D01*
X61321Y177033D01*
X60689Y176771D01*
X60548Y176663D01*
X60242Y176724D01*
X37121D01*
X36653Y176630D01*
X36256Y176365D01*
X35614Y175724D01*
X19300D01*
Y178800D01*
X10700D01*
Y175826D01*
X9300D01*
Y178800D01*
X700D01*
Y170200D01*
X9300D01*
Y173175D01*
X10700D01*
Y170200D01*
X19300D01*
Y173276D01*
X36121D01*
X36590Y173370D01*
X36987Y173635D01*
X37628Y174276D01*
X51421D01*
X51642Y173828D01*
X51629Y173811D01*
X51367Y173179D01*
X51278Y172500D01*
X51367Y171821D01*
X51629Y171189D01*
X52046Y170646D01*
X52589Y170229D01*
X53221Y169967D01*
X53122Y169491D01*
X18767D01*
X18299Y169397D01*
X17902Y169132D01*
X17068Y168298D01*
X16123Y168689D01*
X15000Y168837D01*
X13878Y168689D01*
X12832Y168256D01*
X11933Y167567D01*
X11244Y166669D01*
X10895Y165825D01*
X9105D01*
X8756Y166669D01*
X8067Y167567D01*
X7169Y168256D01*
X6123Y168689D01*
X5000Y168837D01*
X3878Y168689D01*
X2831Y168256D01*
X1933Y167567D01*
X1244Y166669D01*
X811Y165622D01*
X663Y164500D01*
X811Y163377D01*
X1244Y162331D01*
X1933Y161433D01*
X2831Y160744D01*
X3878Y160311D01*
X5000Y160163D01*
X6123Y160311D01*
X7169Y160744D01*
X8067Y161433D01*
X8756Y162331D01*
X9105Y163174D01*
X10895D01*
X11157Y162540D01*
X10855Y162092D01*
X10834Y162078D01*
X10500Y162122D01*
X9821Y162033D01*
X9189Y161771D01*
X8646Y161354D01*
X8229Y160811D01*
X7967Y160179D01*
X7878Y159500D01*
X7967Y158821D01*
X8229Y158189D01*
X8646Y157646D01*
X9189Y157229D01*
X9821Y156967D01*
X10500Y156878D01*
X10834Y156922D01*
X10855Y156908D01*
X11157Y156460D01*
X10895Y155825D01*
X9105D01*
X8756Y156669D01*
X8067Y157567D01*
X7169Y158256D01*
X6123Y158689D01*
X5000Y158837D01*
X3878Y158689D01*
X2831Y158256D01*
X1933Y157567D01*
X1244Y156669D01*
X811Y155622D01*
X663Y154500D01*
X811Y153377D01*
X1244Y152331D01*
X1933Y151433D01*
X2831Y150744D01*
X3878Y150311D01*
X5000Y150163D01*
X6123Y150311D01*
X7169Y150744D01*
X8067Y151433D01*
X8756Y152331D01*
X9105Y153174D01*
X10895D01*
X11244Y152331D01*
X11933Y151433D01*
X12832Y150744D01*
X13878Y150311D01*
X15000Y150163D01*
X16123Y150311D01*
X17168Y150744D01*
X18067Y151433D01*
X18756Y152331D01*
X19189Y153377D01*
X19337Y154500D01*
X19189Y155622D01*
X18756Y156669D01*
X18067Y157567D01*
X17794Y157776D01*
X17963Y158276D01*
X35917D01*
X36251Y157776D01*
X36168Y157576D01*
X36138Y157345D01*
X41654D01*
X41624Y157576D01*
X41342Y158257D01*
X40893Y158842D01*
X40308Y159290D01*
X39898Y159460D01*
X39765Y160035D01*
X41678Y161948D01*
X43731D01*
Y161114D01*
X43532D01*
Y158843D01*
X46500D01*
Y158343D01*
X47000D01*
Y155571D01*
X49468D01*
Y156762D01*
X53220D01*
Y155413D01*
X52720Y155078D01*
X52549Y155149D01*
X51870Y155239D01*
X51191Y155149D01*
X50559Y154887D01*
X50016Y154471D01*
X49993Y154441D01*
X49711Y154630D01*
X49242Y154724D01*
X41428D01*
X41181Y155224D01*
X41342Y155432D01*
X41624Y156114D01*
X41654Y156345D01*
X36138D01*
X36168Y156114D01*
X36450Y155432D01*
X36899Y154848D01*
X37484Y154399D01*
X38165Y154117D01*
X38896Y154020D01*
X39111Y154049D01*
X39345Y153575D01*
X37959Y152189D01*
X37926Y152215D01*
X37293Y152477D01*
X36614Y152566D01*
X35936Y152477D01*
X35303Y152215D01*
X34760Y151798D01*
X34343Y151255D01*
X34081Y150622D01*
X33992Y149943D01*
X34081Y149265D01*
X34343Y148632D01*
X34760Y148089D01*
X35303Y147672D01*
X35936Y147410D01*
X36307Y147361D01*
X36375Y146848D01*
X36189Y146771D01*
X35646Y146354D01*
X35229Y145811D01*
X34967Y145179D01*
X34878Y144500D01*
X34967Y143821D01*
X35229Y143189D01*
X35646Y142646D01*
X36189Y142229D01*
X36202Y142224D01*
X36102Y141724D01*
X28455D01*
X28354Y141854D01*
X27811Y142271D01*
X27179Y142533D01*
X26500Y142622D01*
X25821Y142533D01*
X25189Y142271D01*
X24646Y141854D01*
X24229Y141311D01*
X23967Y140679D01*
X23878Y140000D01*
X23967Y139321D01*
X24229Y138689D01*
X24646Y138146D01*
X25189Y137729D01*
X25821Y137467D01*
X26500Y137378D01*
X27179Y137467D01*
X27811Y137729D01*
X28354Y138146D01*
X28771Y138689D01*
X29015Y139277D01*
X35521D01*
X35742Y138828D01*
X35729Y138811D01*
X35467Y138179D01*
X35378Y137500D01*
X35467Y136821D01*
X35729Y136189D01*
X36146Y135646D01*
X36689Y135229D01*
X37321Y134967D01*
X38000Y134878D01*
X38679Y134967D01*
X39311Y135229D01*
X39854Y135646D01*
X40271Y136189D01*
X40533Y136821D01*
X40622Y137500D01*
X40865Y137777D01*
X45953D01*
Y133602D01*
X46907D01*
Y129769D01*
X47000Y129301D01*
X47265Y128904D01*
X48777Y127393D01*
Y126200D01*
X48870Y125732D01*
X49135Y125335D01*
X49903Y124566D01*
X49867Y124479D01*
X49778Y123800D01*
X49781Y123771D01*
X49308Y123537D01*
X49149Y123696D01*
X48752Y123961D01*
X48284Y124054D01*
X47884D01*
Y125304D01*
X43331D01*
Y120358D01*
X46923D01*
X47092Y119858D01*
X46946Y119745D01*
X46529Y119202D01*
X46267Y118569D01*
X46178Y117891D01*
X46267Y117212D01*
X46529Y116579D01*
X46946Y116036D01*
X47489Y115619D01*
X48009Y115404D01*
X47910Y114904D01*
X43731D01*
Y112306D01*
X43231Y112039D01*
X43166Y112083D01*
Y114904D01*
X41713D01*
Y120358D01*
X42766D01*
Y125304D01*
X38667D01*
Y130456D01*
X38574Y130925D01*
X38309Y131322D01*
X34965Y134665D01*
X34568Y134930D01*
X34100Y135023D01*
X30245D01*
X29777Y134930D01*
X29380Y134665D01*
X25860Y131144D01*
X23234D01*
Y126198D01*
X27261D01*
X27590Y126198D01*
Y126198D01*
X27762D01*
Y126198D01*
X28728D01*
X28809Y125792D01*
X29074Y125395D01*
X30866Y123603D01*
Y120534D01*
X30050D01*
Y115666D01*
X30866D01*
Y108034D01*
X30350D01*
Y103166D01*
X34430D01*
Y108034D01*
X33495D01*
X33313Y108306D01*
Y115666D01*
X34130D01*
Y120534D01*
X33313D01*
Y124110D01*
X33220Y124578D01*
X32955Y124975D01*
X32005Y125926D01*
X32117Y126198D01*
X32117D01*
Y127129D01*
X32490Y127293D01*
X32617Y127314D01*
X33132Y126919D01*
X33765Y126657D01*
X34444Y126568D01*
X35122Y126657D01*
X35755Y126919D01*
X35772Y126932D01*
X36220Y126711D01*
Y117557D01*
X36135Y117472D01*
X35870Y117075D01*
X35776Y116606D01*
Y99944D01*
X35305D01*
X34915Y99867D01*
X34584Y99645D01*
X34363Y99314D01*
X34285Y98924D01*
Y93617D01*
X34363Y93226D01*
X34584Y92895D01*
X34915Y92674D01*
X35062Y92645D01*
Y90914D01*
X35155Y90446D01*
X35421Y90049D01*
X35684Y89785D01*
X35493Y89324D01*
X34207D01*
X32265Y91265D01*
X31868Y91530D01*
X31400Y91624D01*
X22307D01*
X22271Y91711D01*
X21854Y92254D01*
X21311Y92671D01*
X20679Y92933D01*
X20000Y93022D01*
X19559Y92964D01*
X19189Y93378D01*
X19337Y94500D01*
X19189Y95622D01*
X18756Y96669D01*
X18067Y97567D01*
X17168Y98256D01*
X16123Y98689D01*
X15000Y98837D01*
X13878Y98689D01*
X12832Y98256D01*
X11933Y97567D01*
X11244Y96669D01*
X10895Y95825D01*
X9105D01*
X8756Y96669D01*
X8067Y97567D01*
X7169Y98256D01*
X6123Y98689D01*
X5000Y98837D01*
X3878Y98689D01*
X2831Y98256D01*
X1933Y97567D01*
X1244Y96669D01*
X811Y95622D01*
X663Y94500D01*
X811Y93378D01*
X1244Y92331D01*
X1933Y91433D01*
X2831Y90744D01*
X3878Y90311D01*
X5000Y90163D01*
X6123Y90311D01*
X7169Y90744D01*
X8067Y91433D01*
X8756Y92331D01*
X9105Y93174D01*
X10895D01*
X11244Y92331D01*
X11933Y91433D01*
X12832Y90744D01*
X13878Y90311D01*
X15000Y90163D01*
X16123Y90311D01*
X16904Y90634D01*
X17145Y90515D01*
X17389Y90311D01*
X17467Y89721D01*
X17729Y89089D01*
X18146Y88546D01*
X18689Y88129D01*
X19321Y87867D01*
X20000Y87778D01*
X20100Y87791D01*
X20476Y87461D01*
Y85600D01*
X23346D01*
Y85100D01*
X23846D01*
Y82033D01*
X26216D01*
Y82033D01*
X26384Y82233D01*
X27831D01*
Y75573D01*
X26583D01*
Y72976D01*
X26083Y72708D01*
X26017Y72752D01*
Y75573D01*
X21465D01*
Y70627D01*
X24287D01*
X24828Y70086D01*
X24637Y69624D01*
X13524D01*
Y71267D01*
X11224D01*
Y77193D01*
X11311Y77229D01*
X11854Y77646D01*
X12271Y78189D01*
X12533Y78821D01*
X12622Y79500D01*
X12543Y80106D01*
X12705Y80302D01*
X12950Y80478D01*
X13825Y80116D01*
X14500Y80027D01*
Y84500D01*
Y88973D01*
X13825Y88884D01*
X12731Y88431D01*
X11791Y87709D01*
X11069Y86769D01*
X10678Y85826D01*
X9322D01*
X8931Y86769D01*
X8209Y87709D01*
X7269Y88431D01*
X6175Y88884D01*
X5500Y88973D01*
Y84500D01*
Y80027D01*
X6175Y80116D01*
X7050Y80478D01*
X7295Y80302D01*
X7457Y80106D01*
X7378Y79500D01*
X7467Y78821D01*
X7729Y78189D01*
X8146Y77646D01*
X8689Y77229D01*
X8777Y77193D01*
Y71610D01*
X8711Y71545D01*
X8276Y71342D01*
X8016Y71467D01*
X7767Y71467D01*
X5646D01*
Y68400D01*
Y65333D01*
X8016D01*
X8433Y65533D01*
X12204D01*
X12395Y65071D01*
X7730Y60406D01*
X7269Y60598D01*
Y63529D01*
X4800D01*
Y60757D01*
X4300D01*
Y60258D01*
X1331D01*
Y57986D01*
X1531D01*
Y52871D01*
X7068D01*
Y56284D01*
X14232Y63447D01*
X14731Y63240D01*
Y61816D01*
X11535Y58619D01*
X11270Y58223D01*
X11176Y57754D01*
Y54707D01*
X11089Y54671D01*
X10546Y54254D01*
X10129Y53711D01*
X9867Y53079D01*
X9778Y52400D01*
X9867Y51721D01*
X9959Y51500D01*
X9624Y51000D01*
X0D01*
Y84172D01*
X500Y84205D01*
X616Y83325D01*
X1069Y82231D01*
X1791Y81291D01*
X2731Y80569D01*
X3825Y80116D01*
X4500Y80027D01*
Y84500D01*
Y88973D01*
X3825Y88884D01*
X2731Y88431D01*
X1791Y87709D01*
X1069Y86769D01*
X616Y85675D01*
X500Y84795D01*
X0Y84828D01*
Y179646D01*
X354Y179998D01*
X65519Y179700D01*
D02*
G37*
G36*
X104818Y179519D02*
X104850Y179019D01*
X103825Y178884D01*
X102731Y178431D01*
X101791Y177709D01*
X101069Y176769D01*
X100678Y175826D01*
X99322D01*
X98931Y176769D01*
X98209Y177709D01*
X97269Y178431D01*
X96175Y178884D01*
X95500Y178973D01*
Y174500D01*
Y170027D01*
X96175Y170116D01*
X97269Y170569D01*
X98209Y171291D01*
X98931Y172231D01*
X99322Y173175D01*
X100678D01*
X101069Y172231D01*
X101791Y171291D01*
X102731Y170569D01*
X103825Y170116D01*
X104500Y170027D01*
Y174500D01*
X105500D01*
Y170027D01*
X106175Y170116D01*
X107269Y170569D01*
X108209Y171291D01*
X108931Y172231D01*
X109000Y172398D01*
X109500Y172298D01*
Y166179D01*
X109000Y166080D01*
X108756Y166669D01*
X108067Y167567D01*
X107169Y168256D01*
X106123Y168689D01*
X105000Y168837D01*
X103877Y168689D01*
X102831Y168256D01*
X101933Y167567D01*
X101244Y166669D01*
X100895Y165825D01*
X99105D01*
X98756Y166669D01*
X98067Y167567D01*
X97169Y168256D01*
X96122Y168689D01*
X95000Y168837D01*
X93878Y168689D01*
X92932Y168298D01*
X87865Y173365D01*
X87468Y173630D01*
X87336Y173657D01*
X86497Y174496D01*
X86497Y174496D01*
X81869Y179124D01*
X82077Y179623D01*
X104818Y179519D01*
D02*
G37*
G36*
X84766Y172766D02*
X84766Y172766D01*
X85898Y171635D01*
X86295Y171370D01*
X86426Y171343D01*
X91202Y166568D01*
X91002Y166085D01*
X90438Y166029D01*
X90438Y166030D01*
X85434Y171034D01*
X85037Y171299D01*
X84569Y171392D01*
X71574D01*
X71106Y171299D01*
X70709Y171034D01*
X67566Y167891D01*
X64280D01*
X64088Y168353D01*
X68329Y172594D01*
X68569Y172952D01*
X68679Y172967D01*
X69311Y173229D01*
X69854Y173646D01*
X70271Y174189D01*
X70533Y174821D01*
X70622Y175500D01*
X70533Y176179D01*
X70271Y176811D01*
X70258Y176828D01*
X70479Y177277D01*
X80256D01*
X84766Y172766D01*
D02*
G37*
G36*
X88349Y164658D02*
Y163281D01*
X88442Y162812D01*
X88707Y162416D01*
X89341Y161782D01*
X89107Y161309D01*
X89002Y161323D01*
X88271Y161226D01*
X87590Y160944D01*
X87005Y160495D01*
X86556Y159911D01*
X86274Y159229D01*
X86243Y158999D01*
X89002D01*
Y158499D01*
X89502D01*
Y155740D01*
X89732Y155771D01*
X90414Y156053D01*
X90464Y156091D01*
X90874Y155776D01*
X90811Y155622D01*
X90663Y154500D01*
X90811Y153377D01*
X91244Y152331D01*
X91933Y151433D01*
X92831Y150744D01*
X93878Y150311D01*
X95000Y150163D01*
X96122Y150311D01*
X97169Y150744D01*
X98067Y151433D01*
X98756Y152331D01*
X99105Y153174D01*
X100895D01*
X101244Y152331D01*
X101933Y151433D01*
X102831Y150744D01*
X103877Y150311D01*
X105000Y150163D01*
X106123Y150311D01*
X107169Y150744D01*
X108067Y151433D01*
X108756Y152331D01*
X109000Y152920D01*
X109500Y152821D01*
Y146179D01*
X109000Y146080D01*
X108756Y146669D01*
X108067Y147567D01*
X107169Y148256D01*
X106123Y148689D01*
X105000Y148837D01*
X103877Y148689D01*
X102831Y148256D01*
X101933Y147567D01*
X101244Y146669D01*
X100895Y145826D01*
X99105D01*
X98756Y146669D01*
X98067Y147567D01*
X97169Y148256D01*
X96122Y148689D01*
X95000Y148837D01*
X93878Y148689D01*
X92831Y148256D01*
X91933Y147567D01*
X91244Y146669D01*
X90852Y145723D01*
X86357D01*
X85888Y145630D01*
X85492Y145365D01*
X83716Y143590D01*
X80979D01*
X80758Y144038D01*
X80771Y144055D01*
X81033Y144687D01*
X81122Y145366D01*
X81033Y146045D01*
X80771Y146677D01*
X80354Y147221D01*
X79811Y147637D01*
X79179Y147899D01*
X78922Y147933D01*
X78954Y148433D01*
X79347D01*
Y151000D01*
X77567D01*
Y149188D01*
X77105Y148996D01*
X75233Y150868D01*
Y154367D01*
X72777D01*
X72624Y154397D01*
X71879D01*
X71672Y154897D01*
X73506Y156731D01*
X76386D01*
Y156532D01*
X78658D01*
Y159500D01*
Y162469D01*
X76386D01*
Y162268D01*
X71271D01*
Y158967D01*
X69576Y157271D01*
X67246D01*
X67093Y157241D01*
X64148D01*
X64027Y157407D01*
X63928Y157741D01*
X64271Y158189D01*
X64533Y158821D01*
X64622Y159500D01*
X64587Y159766D01*
X65580Y160759D01*
X69780D01*
Y163403D01*
X69804Y163521D01*
Y163999D01*
X70809Y165004D01*
X71271Y164813D01*
Y164232D01*
X76386D01*
Y164032D01*
X78658D01*
Y167000D01*
X79158D01*
Y167500D01*
X81929D01*
Y168945D01*
X84062D01*
X88349Y164658D01*
D02*
G37*
G36*
X67143Y164944D02*
X67019Y164721D01*
X63850D01*
Y162489D01*
X63184Y161824D01*
X62679Y162033D01*
X62000Y162122D01*
X61321Y162033D01*
X60689Y161771D01*
X60146Y161354D01*
X59850Y160970D01*
X59350Y161139D01*
Y161181D01*
X59150D01*
Y164721D01*
X55907D01*
X55754Y164752D01*
X49268D01*
Y165444D01*
X66850D01*
X67143Y164944D01*
D02*
G37*
G36*
X36766Y166595D02*
X36753Y166578D01*
X36491Y165946D01*
X36402Y165267D01*
X36491Y164588D01*
X36753Y163956D01*
X37170Y163413D01*
X37713Y162996D01*
X38346Y162734D01*
X38367Y162731D01*
X38528Y162258D01*
X36993Y160723D01*
X17963D01*
X17794Y161223D01*
X18067Y161433D01*
X18756Y162331D01*
X19189Y163377D01*
X19337Y164500D01*
X19189Y165622D01*
X18798Y166568D01*
X19274Y167044D01*
X36545D01*
X36766Y166595D01*
D02*
G37*
G36*
X101244Y162331D02*
X101933Y161433D01*
X102831Y160744D01*
X103877Y160311D01*
X105000Y160163D01*
X106123Y160311D01*
X107169Y160744D01*
X108067Y161433D01*
X108756Y162331D01*
X109000Y162920D01*
X109500Y162821D01*
Y156179D01*
X109000Y156080D01*
X108756Y156669D01*
X108067Y157567D01*
X107169Y158256D01*
X106123Y158689D01*
X105000Y158837D01*
X103877Y158689D01*
X102831Y158256D01*
X101933Y157567D01*
X101244Y156669D01*
X100895Y155825D01*
X99105D01*
X98756Y156669D01*
X98067Y157567D01*
X97169Y158256D01*
X96122Y158689D01*
X95037Y158832D01*
Y159039D01*
X94944Y159508D01*
X94828Y159681D01*
X94911Y159914D01*
X95099Y160176D01*
X96122Y160311D01*
X97169Y160744D01*
X98067Y161433D01*
X98756Y162331D01*
X99105Y163174D01*
X100895D01*
X101244Y162331D01*
D02*
G37*
G36*
X63850Y153279D02*
X67545D01*
X69125Y151699D01*
X69637Y151357D01*
X70242Y151237D01*
X71074D01*
Y150072D01*
X70612Y149881D01*
X70528Y149965D01*
X70131Y150230D01*
X69663Y150323D01*
X53974D01*
X53829Y150578D01*
X53772Y150823D01*
X54141Y151305D01*
X54403Y151938D01*
X54492Y152616D01*
X54455Y152903D01*
X54784Y153279D01*
X59150D01*
Y153680D01*
X63850D01*
Y153279D01*
D02*
G37*
G36*
X91244Y142331D02*
X91933Y141433D01*
X92831Y140744D01*
X93878Y140311D01*
X95000Y140163D01*
X96122Y140311D01*
X97169Y140744D01*
X98067Y141433D01*
X98756Y142331D01*
X99105Y143175D01*
X100895D01*
X101244Y142331D01*
X101933Y141433D01*
X102831Y140744D01*
X103877Y140311D01*
X105000Y140163D01*
X106123Y140311D01*
X107169Y140744D01*
X108067Y141433D01*
X108756Y142331D01*
X109000Y142920D01*
X109500Y142821D01*
Y136179D01*
X109000Y136080D01*
X108756Y136669D01*
X108067Y137567D01*
X107169Y138256D01*
X106123Y138689D01*
X105000Y138837D01*
X103877Y138689D01*
X102831Y138256D01*
X101933Y137567D01*
X101244Y136669D01*
X100895Y135826D01*
X99105D01*
X98756Y136669D01*
X98067Y137567D01*
X97169Y138256D01*
X96122Y138689D01*
X95000Y138837D01*
X93878Y138689D01*
X92831Y138256D01*
X91933Y137567D01*
X91244Y136669D01*
X90852Y135723D01*
X82507D01*
X77550Y140681D01*
X77741Y141143D01*
X84223D01*
X84691Y141236D01*
X85088Y141501D01*
X86863Y143277D01*
X90852D01*
X91244Y142331D01*
D02*
G37*
G36*
X81135Y133635D02*
X81532Y133370D01*
X82000Y133276D01*
X90852D01*
X91244Y132331D01*
X91933Y131433D01*
X92831Y130744D01*
X93878Y130311D01*
X95000Y130163D01*
X96122Y130311D01*
X97169Y130744D01*
X98067Y131433D01*
X98756Y132331D01*
X99105Y133175D01*
X100895D01*
X101244Y132331D01*
X101933Y131433D01*
X102831Y130744D01*
X103877Y130311D01*
X105000Y130163D01*
X106123Y130311D01*
X107169Y130744D01*
X108067Y131433D01*
X108756Y132331D01*
X109000Y132920D01*
X109500Y132821D01*
Y126179D01*
X109000Y126080D01*
X108756Y126669D01*
X108067Y127567D01*
X107169Y128256D01*
X106123Y128689D01*
X105000Y128837D01*
X103877Y128689D01*
X102831Y128256D01*
X101933Y127567D01*
X101244Y126669D01*
X100895Y125826D01*
X99105D01*
X98756Y126669D01*
X98067Y127567D01*
X97169Y128256D01*
X96122Y128689D01*
X95000Y128837D01*
X93878Y128689D01*
X92831Y128256D01*
X91933Y127567D01*
X91244Y126669D01*
X90852Y125724D01*
X66507D01*
X66012Y126218D01*
X66203Y126680D01*
X70690D01*
X70690Y126680D01*
X71134Y126546D01*
X71415Y126429D01*
X72094Y126340D01*
X72773Y126429D01*
X73405Y126691D01*
X73948Y127108D01*
X74365Y127651D01*
X74627Y128284D01*
X74716Y128963D01*
X74627Y129641D01*
X74365Y130274D01*
X73948Y130817D01*
X73405Y131234D01*
X72773Y131496D01*
X72094Y131585D01*
X71415Y131496D01*
X71190Y131402D01*
X70690Y131736D01*
Y132597D01*
X70855Y132630D01*
X71252Y132896D01*
X71955Y133598D01*
X72220Y133995D01*
X72313Y134464D01*
Y138847D01*
X72220Y139315D01*
X71955Y139712D01*
X71478Y140189D01*
X71533Y140321D01*
X71622Y141000D01*
X71533Y141679D01*
X71271Y142311D01*
X70854Y142854D01*
X70311Y143271D01*
X69679Y143533D01*
X69000Y143622D01*
X68321Y143533D01*
X67689Y143271D01*
X67146Y142854D01*
X66729Y142311D01*
X66467Y141679D01*
X66378Y141000D01*
X66467Y140321D01*
X66729Y139689D01*
X67146Y139146D01*
X67571Y138820D01*
X67431Y138320D01*
X64759D01*
X64464Y138680D01*
X64371Y139148D01*
X64106Y139545D01*
X61657Y141994D01*
X61260Y142259D01*
X60792Y142352D01*
X51351D01*
X51130Y142801D01*
X51142Y142817D01*
X51404Y143450D01*
X51494Y144129D01*
X51404Y144807D01*
X51142Y145440D01*
X50884Y145776D01*
X51131Y146276D01*
X68493D01*
X81135Y133635D01*
D02*
G37*
G36*
X91244Y122331D02*
X91933Y121433D01*
X92831Y120744D01*
X93878Y120311D01*
X95000Y120163D01*
X96122Y120311D01*
X97169Y120744D01*
X98067Y121433D01*
X98756Y122331D01*
X99105Y123175D01*
X100895D01*
X101244Y122331D01*
X101933Y121433D01*
X102831Y120744D01*
X103877Y120311D01*
X105000Y120163D01*
X106123Y120311D01*
X107169Y120744D01*
X108067Y121433D01*
X108756Y122331D01*
X109000Y122920D01*
X109500Y122821D01*
Y116179D01*
X109000Y116080D01*
X108756Y116669D01*
X108067Y117567D01*
X107169Y118256D01*
X106123Y118689D01*
X105000Y118837D01*
X103877Y118689D01*
X102831Y118256D01*
X101933Y117567D01*
X101244Y116669D01*
X100895Y115825D01*
X99105D01*
X98756Y116669D01*
X98067Y117567D01*
X97169Y118256D01*
X96122Y118689D01*
X95000Y118837D01*
X93878Y118689D01*
X92831Y118256D01*
X91933Y117567D01*
X91244Y116669D01*
X90894Y115823D01*
X77879D01*
X77633Y116323D01*
X77721Y116439D01*
X77983Y117071D01*
X78072Y117750D01*
X77983Y118429D01*
X77721Y119061D01*
X77304Y119604D01*
X76761Y120021D01*
X76129Y120283D01*
X75450Y120372D01*
X74800Y120287D01*
X74718Y120289D01*
X74307Y120632D01*
X74228Y121231D01*
X73946Y121912D01*
X73497Y122497D01*
X73133Y122776D01*
X73302Y123276D01*
X90852D01*
X91244Y122331D01*
D02*
G37*
G36*
Y112331D02*
X91933Y111433D01*
X92831Y110744D01*
X93878Y110311D01*
X95000Y110163D01*
X96122Y110311D01*
X97169Y110744D01*
X98067Y111433D01*
X98756Y112331D01*
X99105Y113174D01*
X100895D01*
X101244Y112331D01*
X101933Y111433D01*
X102831Y110744D01*
X103877Y110311D01*
X105000Y110163D01*
X106123Y110311D01*
X107169Y110744D01*
X108067Y111433D01*
X108756Y112331D01*
X109000Y112920D01*
X109500Y112821D01*
Y106179D01*
X109000Y106080D01*
X108756Y106669D01*
X108067Y107567D01*
X107169Y108256D01*
X106123Y108689D01*
X105000Y108837D01*
X103877Y108689D01*
X102831Y108256D01*
X101933Y107567D01*
X101244Y106669D01*
X100895Y105825D01*
X99105D01*
X98756Y106669D01*
X98067Y107567D01*
X97169Y108256D01*
X96122Y108689D01*
X95000Y108837D01*
X93878Y108689D01*
X92831Y108256D01*
X92290Y107841D01*
X90665Y109465D01*
X90268Y109730D01*
X89800Y109824D01*
X77735D01*
X77502Y110324D01*
X77728Y110869D01*
X77758Y111100D01*
X75000D01*
Y112100D01*
X77758D01*
X77728Y112331D01*
X77502Y112876D01*
X77735Y113376D01*
X90811D01*
X91244Y112331D01*
D02*
G37*
G36*
X90880Y105790D02*
X90811Y105622D01*
X90663Y104500D01*
X90811Y103377D01*
X91244Y102331D01*
X91933Y101433D01*
X92831Y100744D01*
X93878Y100311D01*
X95000Y100163D01*
X96122Y100311D01*
X97169Y100744D01*
X98067Y101433D01*
X98756Y102331D01*
X99105Y103174D01*
X100895D01*
X101244Y102331D01*
X101933Y101433D01*
X102831Y100744D01*
X103877Y100311D01*
X105000Y100163D01*
X106123Y100311D01*
X107169Y100744D01*
X108067Y101433D01*
X108756Y102331D01*
X109000Y102920D01*
X109500Y102821D01*
Y96179D01*
X109000Y96080D01*
X108756Y96669D01*
X108067Y97567D01*
X107169Y98256D01*
X106123Y98689D01*
X105000Y98837D01*
X103877Y98689D01*
X102831Y98256D01*
X101933Y97567D01*
X101244Y96669D01*
X100895Y95825D01*
X99105D01*
X98756Y96669D01*
X98067Y97567D01*
X97169Y98256D01*
X96122Y98689D01*
X95000Y98837D01*
X93878Y98689D01*
X93289Y98446D01*
X91817Y99918D01*
X91305Y100260D01*
X90700Y100380D01*
X74775D01*
X74640Y100560D01*
X74890Y101060D01*
X77426D01*
Y104922D01*
X77926Y105129D01*
X78582Y104473D01*
Y101060D01*
X82938D01*
Y106204D01*
X80312D01*
X79640Y106877D01*
X79847Y107377D01*
X89293D01*
X90880Y105790D01*
D02*
G37*
G36*
X64086Y104065D02*
X64331Y103746D01*
X64874Y103329D01*
X65507Y103067D01*
X66116Y102987D01*
X66269Y102853D01*
X66497Y102514D01*
X66424Y101961D01*
X66425Y101950D01*
X65421Y100945D01*
X65155Y100548D01*
X65062Y100080D01*
Y99896D01*
X64915Y99867D01*
X64584Y99645D01*
X64363Y99314D01*
X64285Y98924D01*
Y93617D01*
X64363Y93226D01*
X64584Y92895D01*
X64915Y92674D01*
X65305Y92596D01*
X67266D01*
X67656Y92674D01*
X67988Y92895D01*
X68209Y93226D01*
X68286Y93617D01*
Y98924D01*
X68282Y98944D01*
X68705Y99384D01*
X69046Y99339D01*
X69349Y99379D01*
X69795Y98935D01*
X69778Y98800D01*
X69867Y98121D01*
X70129Y97489D01*
X70546Y96946D01*
X71089Y96529D01*
X71721Y96267D01*
X72400Y96178D01*
X73079Y96267D01*
X73711Y96529D01*
X74254Y96946D01*
X74465Y97220D01*
X79759D01*
X79995Y96720D01*
X79772Y96181D01*
X79742Y95950D01*
X82500D01*
Y94950D01*
X79742D01*
X79772Y94719D01*
X80054Y94038D01*
X80503Y93453D01*
X81088Y93004D01*
X81769Y92722D01*
X82500Y92626D01*
X82557Y92633D01*
X82933Y92304D01*
Y91354D01*
X86000D01*
Y90354D01*
X82933D01*
Y87984D01*
X82933D01*
X83018Y87912D01*
X82994Y87644D01*
X82474Y87456D01*
X79665Y90265D01*
X79268Y90530D01*
X78800Y90623D01*
X53507D01*
X52509Y91621D01*
Y92645D01*
X52656Y92674D01*
X52987Y92895D01*
X53209Y93226D01*
X53286Y93617D01*
Y98924D01*
X53209Y99314D01*
X52987Y99645D01*
X52656Y99867D01*
X52266Y99944D01*
X51015D01*
X50090Y100869D01*
X50123Y101368D01*
X50354Y101546D01*
X50470Y101696D01*
X50840Y101770D01*
X51236Y102035D01*
X53259Y104057D01*
X53684Y104019D01*
X53916Y103581D01*
X53667Y102979D01*
X53578Y102300D01*
X53667Y101621D01*
X53929Y100989D01*
X54346Y100446D01*
X54595Y100254D01*
X54584Y99645D01*
X54363Y99314D01*
X54285Y98924D01*
Y93617D01*
X54363Y93226D01*
X54584Y92895D01*
X54915Y92674D01*
X55305Y92596D01*
X57266D01*
X57656Y92674D01*
X57987Y92895D01*
X58209Y93226D01*
X58286Y93617D01*
Y98924D01*
X58209Y99314D01*
X57987Y99645D01*
X57905Y99701D01*
X57861Y100297D01*
X58054Y100446D01*
X58471Y100989D01*
X58715Y101579D01*
X59066Y101745D01*
X59208Y101793D01*
X60062Y100939D01*
Y99896D01*
X59915Y99867D01*
X59584Y99645D01*
X59363Y99314D01*
X59285Y98924D01*
Y93617D01*
X59363Y93226D01*
X59584Y92895D01*
X59915Y92674D01*
X60305Y92596D01*
X62266D01*
X62656Y92674D01*
X62988Y92895D01*
X63209Y93226D01*
X63286Y93617D01*
Y98924D01*
X63209Y99314D01*
X62988Y99645D01*
X62656Y99867D01*
X62509Y99896D01*
Y101446D01*
X62416Y101914D01*
X62151Y102311D01*
X61872Y102589D01*
X62033Y103063D01*
X62064Y103067D01*
X62696Y103329D01*
X63240Y103746D01*
X63485Y104065D01*
X63506Y104076D01*
X64065D01*
X64086Y104065D01*
D02*
G37*
G36*
X39266Y114904D02*
X38810D01*
Y109958D01*
X41436D01*
X42065Y109328D01*
X42053Y109147D01*
X41636Y108604D01*
X41374Y107971D01*
X41285Y107293D01*
X41374Y106614D01*
X41456Y106416D01*
X41449Y106350D01*
X41134Y105887D01*
X40721Y105833D01*
X40089Y105571D01*
X39546Y105154D01*
X39129Y104611D01*
X38867Y103979D01*
X38778Y103300D01*
X38867Y102621D01*
X39129Y101989D01*
X39546Y101446D01*
X40089Y101029D01*
X40721Y100767D01*
X41400Y100678D01*
X42079Y100767D01*
X42127Y100787D01*
X42322Y100650D01*
X42518Y100408D01*
X42517Y100404D01*
X42266Y99944D01*
X40305D01*
X39915Y99867D01*
X39584Y99645D01*
X39363Y99314D01*
X39285Y98924D01*
Y93617D01*
X39363Y93226D01*
X39584Y92895D01*
X39688Y92826D01*
X39792Y92253D01*
X39779Y92209D01*
X38893Y91324D01*
X37607D01*
X37509Y91421D01*
Y92645D01*
X37656Y92674D01*
X37988Y92895D01*
X38209Y93226D01*
X38286Y93617D01*
Y98924D01*
X38223Y99240D01*
Y116100D01*
X38309Y116185D01*
X38574Y116582D01*
X38667Y117050D01*
Y120358D01*
X39266D01*
Y114904D01*
D02*
G37*
G36*
X49285Y98214D02*
Y93617D01*
X49363Y93226D01*
X49584Y92895D01*
X49915Y92674D01*
X50062Y92645D01*
Y91114D01*
X50155Y90646D01*
X50420Y90249D01*
X51384Y89285D01*
X51193Y88823D01*
X45857D01*
X45389Y88730D01*
X44992Y88465D01*
X42366Y85839D01*
X42101Y85442D01*
X42008Y84974D01*
Y84785D01*
X41704Y84630D01*
X41508Y84590D01*
X41137Y84874D01*
X41006Y85451D01*
X47151Y91595D01*
X47416Y91992D01*
X47509Y92460D01*
Y92645D01*
X47656Y92674D01*
X47987Y92895D01*
X48209Y93226D01*
X48286Y93617D01*
Y98505D01*
X48786Y98713D01*
X49285Y98214D01*
D02*
G37*
G36*
X69073Y84392D02*
X69067Y84379D01*
X68978Y83700D01*
X69067Y83021D01*
X69329Y82389D01*
X69746Y81846D01*
X70289Y81429D01*
X70476Y81352D01*
Y76037D01*
X68286D01*
Y77467D01*
X68209Y77858D01*
X67988Y78189D01*
X67656Y78410D01*
X67266Y78488D01*
X65305D01*
X64915Y78410D01*
X64584Y78189D01*
X64363Y77858D01*
X64285Y77467D01*
Y72579D01*
X63785Y72371D01*
X63286Y72870D01*
Y77467D01*
X63209Y77858D01*
X62988Y78189D01*
X62656Y78410D01*
X62315Y78478D01*
X62178Y78699D01*
X62076Y78946D01*
X63434Y80303D01*
X63521Y80267D01*
X64200Y80178D01*
X64879Y80267D01*
X65511Y80529D01*
X66054Y80946D01*
X66471Y81489D01*
X66733Y82121D01*
X66822Y82800D01*
X66733Y83479D01*
X66471Y84111D01*
X66344Y84276D01*
X66591Y84777D01*
X68760D01*
X69073Y84392D01*
D02*
G37*
G36*
X62056Y84276D02*
X61929Y84111D01*
X61667Y83479D01*
X61578Y82800D01*
X61667Y82121D01*
X61703Y82033D01*
X59761Y80092D01*
X54725D01*
X54257Y79998D01*
X53860Y79733D01*
X53009Y78882D01*
X52509Y79089D01*
Y80079D01*
X57207Y84777D01*
X61809D01*
X62056Y84276D01*
D02*
G37*
G36*
X91244Y82331D02*
X91933Y81433D01*
X92831Y80744D01*
X93878Y80311D01*
X95000Y80163D01*
X96122Y80311D01*
X97169Y80744D01*
X98067Y81433D01*
X98756Y82331D01*
X99105Y83175D01*
X100895D01*
X101244Y82331D01*
X101933Y81433D01*
X102831Y80744D01*
X103877Y80311D01*
X105000Y80163D01*
X106123Y80311D01*
X107169Y80744D01*
X108067Y81433D01*
X108756Y82331D01*
X109000Y82920D01*
X109500Y82821D01*
Y1000D01*
X59000D01*
Y15020D01*
X59462Y15211D01*
X60038Y14635D01*
X60435Y14370D01*
X60903Y14277D01*
X61749D01*
X61909Y13803D01*
X61542Y13521D01*
X60751Y12490D01*
X60253Y11289D01*
X60149Y10500D01*
X69000D01*
X77851D01*
X77747Y11289D01*
X77510Y11861D01*
X77788Y12276D01*
X99081D01*
X99550Y12370D01*
X99799Y12536D01*
X100118Y12148D01*
X98052Y10082D01*
X97787Y9686D01*
X97694Y9217D01*
Y7673D01*
X95958D01*
Y2727D01*
X100286D01*
Y2527D01*
X102164D01*
Y5200D01*
Y7873D01*
X100286D01*
X100141Y8313D01*
Y8710D01*
X102015Y10585D01*
X103609D01*
X104077Y10678D01*
X104474Y10943D01*
X106534Y13003D01*
X106799Y13400D01*
X106892Y13869D01*
Y18837D01*
X106799Y19305D01*
X106534Y19702D01*
X105171Y21065D01*
X104774Y21330D01*
X104306Y21423D01*
X100419D01*
X99950Y21330D01*
X99554Y21065D01*
X99323Y20835D01*
X98861Y21026D01*
Y26525D01*
X99111Y26629D01*
X99654Y27046D01*
X100071Y27589D01*
X100333Y28221D01*
X100422Y28900D01*
X100333Y29579D01*
X100071Y30211D01*
X99654Y30754D01*
X99111Y31171D01*
X98479Y31433D01*
X97800Y31522D01*
X97121Y31433D01*
X96489Y31171D01*
X95946Y30754D01*
X95529Y30211D01*
X95267Y29579D01*
X95178Y28900D01*
X95267Y28221D01*
X95529Y27589D01*
X95946Y27046D01*
X96414Y26686D01*
Y19672D01*
X95263D01*
Y18324D01*
X67964D01*
X65107Y21181D01*
Y27350D01*
X59000D01*
Y31776D01*
X79700D01*
X80168Y31870D01*
X80565Y32135D01*
X87297Y38867D01*
X87321Y38857D01*
X88000Y38768D01*
X88679Y38857D01*
X89311Y39119D01*
X89854Y39536D01*
X90271Y40079D01*
X90533Y40711D01*
X90622Y41390D01*
X90533Y42069D01*
X90271Y42701D01*
X89854Y43244D01*
X89311Y43661D01*
X88679Y43923D01*
X88000Y44012D01*
X87321Y43923D01*
X86689Y43661D01*
X86146Y43244D01*
X85729Y42701D01*
X85535Y42233D01*
X85092Y42124D01*
X84975Y42141D01*
X84812Y42354D01*
X84269Y42771D01*
X83636Y43033D01*
X82957Y43122D01*
X82279Y43033D01*
X81646Y42771D01*
X81103Y42354D01*
X80686Y41811D01*
X80424Y41179D01*
X80335Y40500D01*
X80424Y39821D01*
X80473Y39703D01*
X77593Y36823D01*
X59000D01*
Y43777D01*
X63000D01*
X63468Y43870D01*
X63865Y44135D01*
X66734Y47003D01*
X66821Y46967D01*
X67500Y46878D01*
X68179Y46967D01*
X68811Y47229D01*
X69354Y47646D01*
X69771Y48189D01*
X70033Y48821D01*
X70122Y49500D01*
X70033Y50179D01*
X69771Y50811D01*
X69354Y51354D01*
X68811Y51771D01*
X68179Y52033D01*
X67500Y52122D01*
X66821Y52033D01*
X66189Y51771D01*
X65646Y51354D01*
X65229Y50811D01*
X64967Y50179D01*
X64878Y49500D01*
X64967Y48821D01*
X65003Y48734D01*
X62493Y46224D01*
X60479D01*
X60258Y46672D01*
X60271Y46689D01*
X60533Y47321D01*
X60622Y48000D01*
X60533Y48679D01*
X60271Y49311D01*
X59854Y49854D01*
X59311Y50271D01*
X59000Y50400D01*
Y60500D01*
X56906D01*
X56831Y60990D01*
X57463Y61252D01*
X58007Y61669D01*
X58423Y62212D01*
X58685Y62844D01*
X58775Y63523D01*
X58685Y64202D01*
X58423Y64834D01*
X58007Y65377D01*
X57463Y65794D01*
X56831Y66056D01*
X56195Y66140D01*
X56135Y66172D01*
X55848Y66610D01*
X55936Y66821D01*
X56025Y67500D01*
X55936Y68179D01*
X55900Y68266D01*
X56770Y69137D01*
X57035Y69533D01*
X57128Y70002D01*
Y71140D01*
X57266D01*
X57656Y71217D01*
X57987Y71439D01*
X58209Y71770D01*
X58286Y72160D01*
Y77467D01*
X58432Y77644D01*
X59139D01*
X59285Y77467D01*
Y72160D01*
X59363Y71770D01*
X59529Y71521D01*
X59450Y71184D01*
X59351Y70993D01*
X59326Y70990D01*
X58694Y70728D01*
X58151Y70311D01*
X57734Y69768D01*
X57472Y69135D01*
X57382Y68457D01*
X57472Y67778D01*
X57734Y67146D01*
X58151Y66602D01*
X58694Y66186D01*
X59326Y65924D01*
X60005Y65834D01*
X60190Y65859D01*
X60542Y65401D01*
X60448Y65174D01*
X60285Y63937D01*
X60448Y62700D01*
X60925Y61548D01*
X61685Y60558D01*
X62674Y59799D01*
X63826Y59322D01*
X65063Y59159D01*
X72937D01*
X74174Y59322D01*
X75326Y59799D01*
X76315Y60558D01*
X77075Y61548D01*
X77377Y62277D01*
X86402D01*
X86572Y61777D01*
X86094Y61410D01*
X85335Y60420D01*
X84857Y59268D01*
X84695Y58031D01*
Y50157D01*
X84857Y48921D01*
X85335Y47769D01*
X86094Y46779D01*
X87084Y46020D01*
X88236Y45542D01*
X89472Y45380D01*
X90709Y45542D01*
X91861Y46020D01*
X92851Y46779D01*
X93610Y47769D01*
X94087Y48921D01*
X94250Y50157D01*
Y58031D01*
X94087Y59268D01*
X93610Y60420D01*
X92851Y61410D01*
X92373Y61777D01*
X92543Y62277D01*
X93999D01*
X94357Y61919D01*
X94341Y61800D01*
X94430Y61121D01*
X94692Y60489D01*
X95109Y59946D01*
X95652Y59529D01*
X96285Y59267D01*
X96964Y59178D01*
X97642Y59267D01*
X98275Y59529D01*
X98818Y59946D01*
X99235Y60489D01*
X99497Y61121D01*
X99586Y61800D01*
X99497Y62479D01*
X99235Y63111D01*
X98818Y63654D01*
X98275Y64071D01*
X97706Y64307D01*
X97603Y64537D01*
X97543Y64850D01*
X99057Y66365D01*
X101973D01*
Y70917D01*
X97027D01*
Y67795D01*
X95755Y66523D01*
X92467D01*
Y67946D01*
X89400D01*
Y68946D01*
X92467D01*
Y71316D01*
X92467D01*
X92267Y71484D01*
Y72236D01*
X97027D01*
Y71483D01*
X101973D01*
Y76035D01*
X97027D01*
Y74683D01*
X92267D01*
Y76824D01*
X88263D01*
X87538Y77549D01*
X87538Y77549D01*
X83353Y81735D01*
Y82476D01*
X88867D01*
Y83242D01*
X90867D01*
X91244Y82331D01*
D02*
G37*
G36*
X37442Y84028D02*
X37429Y84011D01*
X37167Y83379D01*
X37078Y82700D01*
X37167Y82021D01*
X37203Y81934D01*
X35421Y80151D01*
X35155Y79754D01*
X35062Y79286D01*
Y78439D01*
X34915Y78410D01*
X34584Y78189D01*
X34363Y77858D01*
X34285Y77467D01*
Y72160D01*
X34363Y71770D01*
X34393Y71724D01*
X34126Y71223D01*
X31135D01*
Y75573D01*
X30278D01*
Y82233D01*
X31724D01*
Y83877D01*
X34693D01*
X35162Y83970D01*
X35559Y84235D01*
X35800Y84477D01*
X37221D01*
X37442Y84028D01*
D02*
G37*
G36*
X81478Y73092D02*
Y68528D01*
X81976D01*
Y68200D01*
X82070Y67732D01*
X82335Y67335D01*
X84484Y65185D01*
X84293Y64723D01*
X77611D01*
X77552Y65174D01*
X77075Y66326D01*
X76315Y67316D01*
X75326Y68075D01*
X74174Y68552D01*
X73790Y68603D01*
X73823Y69103D01*
X75966D01*
Y68528D01*
X80322D01*
Y73590D01*
X80980D01*
X81478Y73092D01*
D02*
G37*
G36*
X27090Y64569D02*
X25945D01*
X25477Y64475D01*
X25080Y64210D01*
X24135Y63265D01*
X23870Y62868D01*
X23776Y62400D01*
Y60312D01*
X23273Y60212D01*
X22827Y59913D01*
X22528Y59467D01*
X22428Y58964D01*
X22329Y58898D01*
X21956Y58729D01*
X20268Y60416D01*
Y63829D01*
X17958D01*
X17697Y63881D01*
X17303D01*
X17042Y63829D01*
X15321D01*
X15114Y64329D01*
X16261Y65477D01*
X27090D01*
Y64569D01*
D02*
G37*
G36*
Y60872D02*
X31446D01*
Y60872D01*
X31618D01*
Y60872D01*
X35974D01*
Y61747D01*
X36474Y61954D01*
X36892Y61535D01*
X37289Y61270D01*
X37757Y61177D01*
X40243D01*
X40711Y61270D01*
X41108Y61535D01*
X41331Y61758D01*
X41859Y61579D01*
X41867Y61521D01*
X42129Y60889D01*
X42184Y60816D01*
X41938Y60316D01*
X40300D01*
X39773Y60212D01*
X39327Y59913D01*
X39028Y59467D01*
X38924Y58940D01*
X39028Y58413D01*
X39060Y58366D01*
X39319Y57955D01*
X39060Y57544D01*
X39028Y57497D01*
X38924Y56970D01*
X39017Y56500D01*
X38976Y56340D01*
X38794Y56000D01*
X30163D01*
X29968Y56130D01*
X29500Y56223D01*
X27880D01*
X27527Y56723D01*
X27576Y56970D01*
X27472Y57497D01*
X27440Y57544D01*
X27181Y57955D01*
X27440Y58366D01*
X27472Y58413D01*
X27576Y58940D01*
X27472Y59467D01*
X27173Y59913D01*
X26727Y60212D01*
X26223Y60312D01*
Y61893D01*
X26452Y62121D01*
X27090D01*
Y60872D01*
D02*
G37*
%LPC*%
G36*
X46000Y157843D02*
X43532D01*
Y155571D01*
X46000D01*
Y157843D01*
D02*
G37*
G36*
X15000Y148837D02*
X13878Y148689D01*
X12832Y148256D01*
X11933Y147567D01*
X11244Y146669D01*
X10895Y145826D01*
X9105D01*
X8756Y146669D01*
X8067Y147567D01*
X7169Y148256D01*
X6123Y148689D01*
X5000Y148837D01*
X3878Y148689D01*
X2831Y148256D01*
X1933Y147567D01*
X1244Y146669D01*
X811Y145623D01*
X663Y144500D01*
X811Y143377D01*
X1244Y142331D01*
X1933Y141433D01*
X2831Y140744D01*
X3878Y140311D01*
X5000Y140163D01*
X6123Y140311D01*
X7169Y140744D01*
X8067Y141433D01*
X8756Y142331D01*
X9105Y143175D01*
X10895D01*
X11244Y142331D01*
X11933Y141433D01*
X12832Y140744D01*
X13878Y140311D01*
X15000Y140163D01*
X16123Y140311D01*
X17168Y140744D01*
X18067Y141433D01*
X18756Y142331D01*
X19189Y143377D01*
X19337Y144500D01*
X19189Y145623D01*
X18756Y146669D01*
X18067Y147567D01*
X17168Y148256D01*
X16123Y148689D01*
X15000Y148837D01*
D02*
G37*
G36*
Y138837D02*
X13878Y138689D01*
X12832Y138256D01*
X11933Y137567D01*
X11244Y136669D01*
X10895Y135826D01*
X9105D01*
X8756Y136669D01*
X8067Y137567D01*
X7169Y138256D01*
X6123Y138689D01*
X5000Y138837D01*
X3878Y138689D01*
X2831Y138256D01*
X1933Y137567D01*
X1244Y136669D01*
X811Y135623D01*
X663Y134500D01*
X811Y133378D01*
X1244Y132331D01*
X1933Y131433D01*
X2831Y130744D01*
X3878Y130311D01*
X5000Y130163D01*
X6123Y130311D01*
X7169Y130744D01*
X8067Y131433D01*
X8756Y132331D01*
X9105Y133175D01*
X10895D01*
X11244Y132331D01*
X11933Y131433D01*
X12832Y130744D01*
X13878Y130311D01*
X15000Y130163D01*
X16123Y130311D01*
X17168Y130744D01*
X18067Y131433D01*
X18756Y132331D01*
X19189Y133378D01*
X19337Y134500D01*
X19189Y135623D01*
X18756Y136669D01*
X18067Y137567D01*
X17168Y138256D01*
X16123Y138689D01*
X15000Y138837D01*
D02*
G37*
G36*
Y128837D02*
X13878Y128689D01*
X12832Y128256D01*
X11933Y127567D01*
X11244Y126669D01*
X10895Y125826D01*
X9105D01*
X8756Y126669D01*
X8067Y127567D01*
X7169Y128256D01*
X6123Y128689D01*
X5000Y128837D01*
X3878Y128689D01*
X2831Y128256D01*
X1933Y127567D01*
X1244Y126669D01*
X811Y125622D01*
X663Y124500D01*
X811Y123378D01*
X1244Y122331D01*
X1933Y121433D01*
X2831Y120744D01*
X3878Y120311D01*
X5000Y120163D01*
X6123Y120311D01*
X7169Y120744D01*
X8067Y121433D01*
X8756Y122331D01*
X9105Y123175D01*
X10895D01*
X11244Y122331D01*
X11933Y121433D01*
X12832Y120744D01*
X13878Y120311D01*
X15000Y120163D01*
X16123Y120311D01*
X17168Y120744D01*
X18067Y121433D01*
X18756Y122331D01*
X19189Y123378D01*
X19337Y124500D01*
X19189Y125622D01*
X18756Y126669D01*
X18067Y127567D01*
X17168Y128256D01*
X16123Y128689D01*
X15000Y128837D01*
D02*
G37*
G36*
X25550Y120734D02*
X23810D01*
Y118600D01*
X25550D01*
Y120734D01*
D02*
G37*
G36*
X22810D02*
X21070D01*
Y118600D01*
X22810D01*
Y120734D01*
D02*
G37*
G36*
X15000Y118837D02*
X13878Y118689D01*
X12832Y118256D01*
X11933Y117567D01*
X11244Y116669D01*
X10895Y115825D01*
X9105D01*
X8756Y116669D01*
X8067Y117567D01*
X7169Y118256D01*
X6123Y118689D01*
X5000Y118837D01*
X3878Y118689D01*
X2831Y118256D01*
X1933Y117567D01*
X1244Y116669D01*
X811Y115622D01*
X663Y114500D01*
X811Y113377D01*
X1244Y112331D01*
X1933Y111433D01*
X2831Y110744D01*
X3878Y110311D01*
X5000Y110163D01*
X6123Y110311D01*
X7169Y110744D01*
X8067Y111433D01*
X8756Y112331D01*
X9105Y113174D01*
X10895D01*
X11244Y112331D01*
X11933Y111433D01*
X12832Y110744D01*
X13878Y110311D01*
X15000Y110163D01*
X16123Y110311D01*
X17168Y110744D01*
X18067Y111433D01*
X18756Y112331D01*
X19189Y113377D01*
X19337Y114500D01*
X19189Y115622D01*
X18756Y116669D01*
X18067Y117567D01*
X17168Y118256D01*
X16123Y118689D01*
X15000Y118837D01*
D02*
G37*
G36*
X25550Y117600D02*
X23810D01*
Y115466D01*
X25550D01*
Y117600D01*
D02*
G37*
G36*
X22810D02*
X21070D01*
Y115466D01*
X22810D01*
Y117600D01*
D02*
G37*
G36*
X25850Y108234D02*
X24110D01*
Y106100D01*
X25850D01*
Y108234D01*
D02*
G37*
G36*
X23110D02*
X21370D01*
Y106100D01*
X23110D01*
Y108234D01*
D02*
G37*
G36*
X15000Y108837D02*
X13878Y108689D01*
X12832Y108256D01*
X11933Y107567D01*
X11244Y106669D01*
X10895Y105825D01*
X9105D01*
X8756Y106669D01*
X8067Y107567D01*
X7169Y108256D01*
X6123Y108689D01*
X5000Y108837D01*
X3878Y108689D01*
X2831Y108256D01*
X1933Y107567D01*
X1244Y106669D01*
X811Y105622D01*
X663Y104500D01*
X811Y103377D01*
X1244Y102331D01*
X1933Y101433D01*
X2831Y100744D01*
X3878Y100311D01*
X5000Y100163D01*
X6123Y100311D01*
X7169Y100744D01*
X8067Y101433D01*
X8756Y102331D01*
X9105Y103174D01*
X10895D01*
X11244Y102331D01*
X11933Y101433D01*
X12832Y100744D01*
X13878Y100311D01*
X15000Y100163D01*
X16123Y100311D01*
X17168Y100744D01*
X18067Y101433D01*
X18756Y102331D01*
X19189Y103377D01*
X19337Y104500D01*
X19189Y105622D01*
X18756Y106669D01*
X18067Y107567D01*
X17168Y108256D01*
X16123Y108689D01*
X15000Y108837D01*
D02*
G37*
G36*
X25850Y105100D02*
X24110D01*
Y102966D01*
X25850D01*
Y105100D01*
D02*
G37*
G36*
X23110D02*
X21370D01*
Y102966D01*
X23110D01*
Y105100D01*
D02*
G37*
G36*
X15500Y88973D02*
Y85000D01*
X19473D01*
X19384Y85675D01*
X18931Y86769D01*
X18209Y87709D01*
X17269Y88431D01*
X16175Y88884D01*
X15500Y88973D01*
D02*
G37*
G36*
X22846Y84600D02*
X20476D01*
Y82033D01*
X22846D01*
Y84600D01*
D02*
G37*
G36*
X19473Y84000D02*
X15500D01*
Y80027D01*
X16175Y80116D01*
X17269Y80569D01*
X18209Y81291D01*
X18931Y82231D01*
X19384Y83325D01*
X19473Y84000D01*
D02*
G37*
G36*
X4646Y71467D02*
X2276D01*
Y68900D01*
X4646D01*
Y71467D01*
D02*
G37*
G36*
Y67900D02*
X2276D01*
Y65333D01*
X4646D01*
Y67900D01*
D02*
G37*
G36*
X3800Y63529D02*
X1331D01*
Y61257D01*
X3800D01*
Y63529D01*
D02*
G37*
G36*
X94500Y178973D02*
X93825Y178884D01*
X92731Y178431D01*
X91791Y177709D01*
X91069Y176769D01*
X90616Y175675D01*
X90527Y175000D01*
X94500D01*
Y178973D01*
D02*
G37*
G36*
Y174000D02*
X90527D01*
X90616Y173325D01*
X91069Y172231D01*
X91791Y171291D01*
X92731Y170569D01*
X93825Y170116D01*
X94500Y170027D01*
Y174000D01*
D02*
G37*
G36*
X81929Y166500D02*
X79658D01*
Y164032D01*
X81929D01*
Y166500D01*
D02*
G37*
G36*
Y162469D02*
X79658D01*
Y160000D01*
X81929D01*
Y162469D01*
D02*
G37*
G36*
Y159000D02*
X79658D01*
Y156532D01*
X81929D01*
Y159000D01*
D02*
G37*
G36*
X88502Y157999D02*
X86243D01*
X86274Y157767D01*
X86556Y157086D01*
X87005Y156501D01*
X87590Y156053D01*
X88271Y155771D01*
X88502Y155740D01*
Y157999D01*
D02*
G37*
G36*
X82126Y154567D02*
X80347D01*
Y152000D01*
X82126D01*
Y154567D01*
D02*
G37*
G36*
X79347D02*
X77567D01*
Y152000D01*
X79347D01*
Y154567D01*
D02*
G37*
G36*
X82126Y151000D02*
X80347D01*
Y148433D01*
X82126D01*
Y151000D01*
D02*
G37*
G36*
X86500Y132175D02*
Y129916D01*
X88758D01*
X88728Y130147D01*
X88446Y130828D01*
X87997Y131413D01*
X87412Y131862D01*
X86731Y132144D01*
X86500Y132175D01*
D02*
G37*
G36*
X85500D02*
X85269Y132144D01*
X84588Y131862D01*
X84003Y131413D01*
X83554Y130828D01*
X83272Y130147D01*
X83242Y129916D01*
X85500D01*
Y132175D01*
D02*
G37*
G36*
X88758Y128916D02*
X86500D01*
Y126658D01*
X86731Y126688D01*
X87412Y126971D01*
X87997Y127419D01*
X88446Y128004D01*
X88728Y128685D01*
X88758Y128916D01*
D02*
G37*
G36*
X85500D02*
X83242D01*
X83272Y128685D01*
X83554Y128004D01*
X84003Y127419D01*
X84588Y126971D01*
X85269Y126688D01*
X85500Y126658D01*
Y128916D01*
D02*
G37*
G36*
X81343Y27520D02*
Y23900D01*
X84962D01*
X84885Y24483D01*
X84467Y25493D01*
X83802Y26360D01*
X82935Y27025D01*
X81926Y27443D01*
X81343Y27520D01*
D02*
G37*
G36*
X80343D02*
X79759Y27443D01*
X78750Y27025D01*
X77883Y26360D01*
X77218Y25493D01*
X76800Y24483D01*
X76723Y23900D01*
X80343D01*
Y27520D01*
D02*
G37*
G36*
X84962Y22900D02*
X81343D01*
Y19280D01*
X81926Y19357D01*
X82935Y19775D01*
X83802Y20440D01*
X84467Y21307D01*
X84885Y22317D01*
X84962Y22900D01*
D02*
G37*
G36*
X80343D02*
X76723D01*
X76800Y22317D01*
X77218Y21307D01*
X77883Y20440D01*
X78750Y19775D01*
X79759Y19357D01*
X80343Y19280D01*
Y22900D01*
D02*
G37*
G36*
X103164Y7873D02*
Y5700D01*
X105042D01*
Y7873D01*
X103164D01*
D02*
G37*
G36*
X77851Y9500D02*
X69500D01*
Y5020D01*
X72937D01*
X74226Y5190D01*
X75427Y5688D01*
X76458Y6479D01*
X77249Y7510D01*
X77747Y8711D01*
X77851Y9500D01*
D02*
G37*
G36*
X68500D02*
X60149D01*
X60253Y8711D01*
X60751Y7510D01*
X61542Y6479D01*
X62573Y5688D01*
X63774Y5190D01*
X65063Y5020D01*
X68500D01*
Y9500D01*
D02*
G37*
G36*
X105042Y4700D02*
X103164D01*
Y2527D01*
X105042D01*
Y4700D01*
D02*
G37*
%LPD*%
D12*
X78384Y78070D02*
Y81858D01*
X53500Y128500D02*
Y129126D01*
X18500Y51000D02*
Y56142D01*
X17500Y57342D02*
X18600Y56243D01*
X41000Y75099D02*
X41286Y75385D01*
X100413Y14831D02*
Y14954D01*
X102362Y16903D01*
X97546Y5300D02*
X98917Y6672D01*
X100419Y20200D02*
X104306D01*
X105669Y18837D01*
X99587Y19369D02*
X100419Y20200D01*
X99587Y19246D02*
Y19369D01*
X68149Y102002D02*
X68644Y101559D01*
X74270Y102280D02*
X75248Y103258D01*
X68222Y101727D02*
X68247Y101752D01*
X67933Y101727D02*
X68222D01*
X68644Y101559D02*
X69046Y101961D01*
Y102280D02*
X74270D01*
X68149Y102002D02*
X68247Y101752D01*
X75150Y117574D02*
Y117950D01*
X66286Y96270D02*
Y100080D01*
X67933Y101727D01*
X17303Y62657D02*
X17697D01*
X12400Y57754D02*
X17303Y62657D01*
X17697Y61257D02*
X21984Y56970D01*
X24033D01*
X17500Y61257D02*
X17697D01*
X24033Y56970D02*
X24090Y57027D01*
X83200Y68200D02*
Y71100D01*
X99303Y68341D02*
X99500D01*
X82805Y71495D02*
X83200Y71100D01*
X81486Y74814D02*
X82805Y73495D01*
X66286Y74814D02*
X81486D01*
X82805Y71495D02*
Y73495D01*
X86673Y76684D02*
X89795Y73562D01*
Y73459D02*
X99500D01*
X82129Y81228D02*
X86673Y76684D01*
X82129Y81228D02*
Y83113D01*
X86673Y76684D02*
X86673D01*
X86100Y65300D02*
X96262D01*
X83200Y68200D02*
X86100Y65300D01*
X61286Y73140D02*
Y74814D01*
Y70116D02*
Y73140D01*
X64100Y70326D02*
X77370D01*
X78144Y71100D01*
X61286Y73140D02*
X64100Y70326D01*
X72676Y78070D02*
Y81867D01*
X77643Y87600D02*
X82129Y83113D01*
X45857Y87600D02*
X77643D01*
X76900Y83342D02*
Y84100D01*
X89795Y73459D02*
Y73562D01*
X76900Y83342D02*
X78384Y81858D01*
X71600Y82942D02*
Y83700D01*
X56700Y86000D02*
X69300D01*
X71600Y83700D01*
Y82942D02*
X72676Y81867D01*
X64200Y82800D02*
Y82800D01*
X54725Y78868D02*
X60268D01*
X64200Y82800D01*
X51286Y80586D02*
X56700Y86000D01*
X43231Y84974D02*
X45857Y87600D01*
X53000Y89400D02*
X78800D01*
X51286Y91114D02*
X53000Y89400D01*
X78800D02*
X83054Y85146D01*
X60005Y68457D02*
Y68836D01*
X61286Y70116D01*
X66654Y106604D02*
X77123D01*
X52109Y106900D02*
X58105D01*
X58870Y106136D01*
X60849D01*
X61385Y105600D01*
X77227Y106500D02*
X78286D01*
X77123Y106604D02*
X77227Y106500D01*
X80760Y103632D02*
Y104026D01*
X78286Y106500D02*
X80760Y104026D01*
X75248Y103258D02*
Y103632D01*
X79700Y33000D02*
X88000Y41300D01*
Y41390D01*
X55400Y64275D02*
Y64500D01*
Y64275D02*
X55952Y63723D01*
X46757Y64500D02*
X55400D01*
X96206Y61800D02*
X96964D01*
X69437Y63500D02*
X94506D01*
X96206Y61800D01*
X99500Y68341D02*
Y68641D01*
X69000Y63937D02*
X69437Y63500D01*
X96262Y65300D02*
X99303Y68341D01*
X89800Y108600D02*
X93900Y104500D01*
X55400Y108600D02*
X89800D01*
X93900Y104500D02*
X95000D01*
X67724Y128760D02*
X72391D01*
X98917Y6672D02*
Y9217D01*
X32090Y107447D02*
Y118100D01*
Y107447D02*
X32365Y107171D01*
X32090Y118100D02*
Y124110D01*
X29939Y126260D02*
X32090Y124110D01*
X29939Y126260D02*
Y128671D01*
X58276Y122165D02*
X59654Y120787D01*
X68580Y164506D02*
X71332Y167257D01*
X73585D02*
X73843Y167000D01*
X71332Y167257D02*
X73585D01*
X49743Y106400D02*
X49943Y106200D01*
X47257Y106400D02*
X49743D01*
X51409Y106200D02*
X52109Y106900D01*
X44257Y103400D02*
X47257Y106400D01*
X49943Y106200D02*
X51409D01*
X48500Y103400D02*
X49000Y102900D01*
X41171Y163171D02*
X48500D01*
X48645Y109400D02*
X48835D01*
X57016Y120340D02*
X59274D01*
X59654Y120719D02*
Y120787D01*
X57100Y111785D02*
X60128D01*
X59274Y120340D02*
X59654Y120719D01*
X41500Y103400D02*
X44257D01*
X52658Y136075D02*
X58111D01*
X58276Y136240D01*
X66847Y121000D02*
X67347Y120500D01*
X71500D01*
X18500Y56142D02*
X18600Y56243D01*
X97638Y17297D02*
Y28738D01*
Y17100D02*
Y17297D01*
Y28738D02*
X97800Y28900D01*
X10000Y69254D02*
X10854Y68400D01*
X10000Y69254D02*
Y79500D01*
X36286Y96270D02*
X37000Y96985D01*
X20000Y90400D02*
X31400D01*
X51286Y96270D02*
Y97944D01*
X48829Y100400D02*
X51286Y97944D01*
X46568Y100400D02*
X48829D01*
X43667Y92104D02*
Y100031D01*
X44135Y100500D01*
X46468D01*
X46568Y100400D01*
X39663Y88100D02*
X43667Y92104D01*
X46286Y92460D02*
Y96270D01*
X39525Y85700D02*
X46286Y92460D01*
X35293Y85700D02*
X39525D01*
X33700Y88100D02*
X39663D01*
X41286Y91986D02*
Y96270D01*
X37100Y90100D02*
X39400D01*
X41286Y91986D01*
X31400Y90400D02*
X33700Y88100D01*
X37000Y96985D02*
Y116606D01*
X34100Y133800D02*
X37444Y130456D01*
Y117050D02*
Y130456D01*
X37000Y116606D02*
X37444Y117050D01*
X33925Y128671D02*
X34444Y129190D01*
X29939Y128671D02*
X33925D01*
X30245Y133800D02*
X34100D01*
X25412Y128671D02*
Y128967D01*
X30245Y133800D01*
X27000Y140500D02*
X38737D01*
X39366Y141129D02*
X60792D01*
X26500Y140000D02*
X27000Y140500D01*
X38737D02*
X39366Y141129D01*
X32365Y107171D02*
Y107565D01*
X53700Y77843D02*
X54725Y78868D01*
X53700Y71613D02*
Y77843D01*
X45900Y70500D02*
X52341D01*
X52600Y70759D01*
X52846D01*
X53700Y71613D01*
X55905Y74433D02*
X56286Y74814D01*
X53403Y67500D02*
X55905Y70002D01*
Y74433D01*
X45400Y70000D02*
X45900Y70500D01*
X26644Y70000D02*
X45400D01*
X23741Y72903D02*
Y73100D01*
Y72903D02*
X26644Y70000D01*
X38511Y65889D02*
X39000Y65400D01*
X15754Y66700D02*
X35189D01*
X40243Y62400D02*
X43043Y65200D01*
X46057D01*
X35189Y66700D02*
X36000Y65889D01*
X10854Y68400D02*
X46342D01*
X47242Y67500D02*
X48000D01*
X37757Y62400D02*
X40243D01*
X46342Y68400D02*
X47242Y67500D01*
X36812Y63345D02*
X37757Y62400D01*
X33795Y63345D02*
X36812D01*
X36000Y65889D02*
X38511D01*
X50835Y113165D02*
Y113296D01*
X43446Y107754D02*
X43907Y107293D01*
X49000Y102900D02*
X50371D01*
X45909Y112135D02*
X48645Y109400D01*
X99111Y89500D02*
X99555Y89945D01*
X97638Y17297D02*
X99587Y19246D01*
X103609Y11809D02*
X105669Y13869D01*
Y18837D01*
X98917Y9217D02*
X101509Y11809D01*
X103609D01*
X39700Y82100D02*
X41286Y80514D01*
X39700Y82100D02*
Y82700D01*
X29054Y85100D02*
X34693D01*
X35293Y85700D01*
X41500Y43000D02*
X43000Y41500D01*
X53400Y23004D02*
X60903Y15500D01*
X76702Y13500D02*
X99081D01*
X74702Y15500D02*
X76702Y13500D01*
X60903Y15500D02*
X74702D01*
X61158Y23400D02*
X67457Y17100D01*
X97638D01*
X102362Y16903D02*
Y17100D01*
X99081Y13500D02*
X100413Y14831D01*
X29054Y73295D02*
Y85100D01*
X28859Y73100D02*
X29054Y73295D01*
X36286Y90914D02*
X37100Y90100D01*
X36286Y90914D02*
Y96270D01*
Y74814D02*
Y79286D01*
X39069Y82069D01*
X41286Y75385D02*
Y80514D01*
X41000Y75099D02*
X41286Y74814D01*
X51286Y91114D02*
Y96270D01*
X43231Y79541D02*
Y84974D01*
Y79541D02*
X46286Y76487D01*
Y74814D02*
Y76487D01*
X46700Y84200D02*
X50314Y80586D01*
X51286D01*
X41500Y58940D02*
X42619D01*
X43864Y60185D01*
Y61664D01*
X44400Y62200D01*
X46057Y65200D02*
X46757Y64500D01*
X4497Y55443D02*
X15754Y66700D01*
X4300Y55443D02*
X4497D01*
X41500Y56970D02*
X47881D01*
X51500Y60589D01*
X50371Y102900D02*
X52771Y105300D01*
X49100Y117590D02*
X49636Y117055D01*
X51797D02*
X53683Y115168D01*
X49636Y117055D02*
X51797D01*
X50835Y113165D02*
X55400Y108600D01*
X43446Y107754D02*
Y109677D01*
X45909Y112135D02*
Y112431D01*
X72800Y115168D02*
X73369Y114600D01*
X94900D02*
X95000Y114500D01*
X74681Y117105D02*
X75150Y117574D01*
X54010Y117105D02*
X74681D01*
X73369Y114600D02*
X94900D01*
X53683Y115168D02*
X72800D01*
X48284Y122831D02*
X54010Y117105D01*
X45608Y122831D02*
X48284D01*
X40489Y112929D02*
Y122831D01*
Y112929D02*
X40988Y112431D01*
Y112135D02*
Y112431D01*
Y112135D02*
X43446Y109677D01*
X52771Y105300D02*
X57443D01*
X59364Y103367D02*
X61286Y101446D01*
X59364Y103367D02*
Y103378D01*
X57443Y105300D02*
X59364Y103378D01*
X61286Y96270D02*
Y101446D01*
X51286Y74814D02*
Y80586D01*
X60128Y111785D02*
X60343Y112000D01*
X50000Y126200D02*
X52400Y123800D01*
X48131Y129769D02*
X50000Y127900D01*
Y126200D02*
Y127900D01*
X48131Y129769D02*
Y136075D01*
X56243Y96313D02*
X56286Y96270D01*
X56243Y96313D02*
Y102257D01*
X56200Y102300D02*
X56243Y102257D01*
X25945Y63345D02*
X29268D01*
X25000Y62400D02*
X25945Y63345D01*
X25000Y58940D02*
Y62400D01*
X12400Y52400D02*
Y57754D01*
X41500Y53030D02*
X55470D01*
X83054Y85146D02*
X86000D01*
X28410Y49090D02*
X44500Y33000D01*
X79700D01*
X82957Y40457D02*
Y40500D01*
X78100Y35600D02*
X82957Y40457D01*
X44657Y35600D02*
X78100D01*
X29567Y50690D02*
X44657Y35600D01*
X85631Y173631D02*
Y173631D01*
X86763Y172500D02*
X87000D01*
X85631Y173631D02*
X86763Y172500D01*
X15000Y174500D02*
X36121D01*
X93814Y155686D02*
X95000Y154500D01*
X66000Y124500D02*
X95000D01*
X15000Y164500D02*
X18767Y168267D01*
X86357Y144500D02*
X95000D01*
X82000Y134500D02*
X95000D01*
X87000Y172500D02*
X95000Y164500D01*
X58276Y122165D02*
Y128760D01*
X72391D02*
X72594Y128963D01*
X37614Y150844D02*
X37648Y150810D01*
X38310D01*
X41000Y153500D01*
X40900Y147917D02*
X41036Y147781D01*
X44476D01*
X60792Y141129D02*
X63241Y138680D01*
X48500Y144500D02*
X48871Y144129D01*
X37500Y144500D02*
X48500D01*
X10500Y159500D02*
X37500D01*
X39024Y165267D02*
X39233D01*
X39500Y165000D01*
X37500Y159500D02*
X41171Y163171D01*
X65658Y112000D02*
X66057Y111600D01*
X74400D01*
X74500Y111500D01*
X57390Y132500D02*
X58276D01*
X56129Y131239D02*
X57390Y132500D01*
X55613Y131239D02*
X56129D01*
X53500Y129126D02*
X55613Y131239D01*
X53500Y128500D02*
X54000D01*
X49242Y153500D02*
X50242Y152500D01*
X51754D02*
X51870Y152616D01*
X41000Y153500D02*
X49242D01*
X50242Y152500D02*
X51754D01*
X89002Y158357D02*
Y158499D01*
X93353Y89500D02*
X99111D01*
X86000Y90854D02*
X91999D01*
X93353Y89500D01*
X74500Y111500D02*
X74900D01*
X75000Y111600D01*
X71500Y120500D02*
Y121500D01*
X86000Y129416D02*
X86103Y129314D01*
X63000Y45000D02*
X67500Y49500D01*
X53000Y45000D02*
X63000D01*
X51000Y47000D02*
X53000Y45000D01*
X37500Y47000D02*
X51000D01*
X29500Y55000D02*
X37500Y47000D01*
X25000Y55000D02*
X29500D01*
X25000Y53030D02*
X26200D01*
X28540Y50690D01*
X29567D01*
X25000Y49090D02*
X28410D01*
X41500Y14500D02*
X42000Y14000D01*
Y11500D02*
Y14000D01*
X41500Y43000D02*
Y45150D01*
X19087D02*
X25000D01*
X16716Y42779D02*
X19087Y45150D01*
X16716Y41500D02*
Y42779D01*
X14157Y17000D02*
X23658Y7500D01*
X38000D01*
X42000Y11500D01*
X41500Y49090D02*
X56152D01*
X57242Y48000D01*
X58000D01*
X55470Y52530D02*
Y53030D01*
X52500Y55000D02*
X54260Y56761D01*
X41500Y55000D02*
X52500D01*
X10000Y79500D02*
X10017Y79517D01*
X62000Y159500D02*
Y159531D01*
X62469Y160000D01*
X63090D01*
X53900Y172500D02*
X54900Y171500D01*
X37121Y175500D02*
X60242D01*
X61242Y174500D02*
X62000D01*
X62273Y168267D02*
X67464Y173459D01*
X36121Y174500D02*
X37121Y175500D01*
X60242D02*
X61242Y174500D01*
X18767Y168267D02*
X62273D01*
X54900Y171500D02*
X63243D01*
X65000Y173257D02*
Y176743D01*
X67464Y174964D02*
X68000Y175500D01*
X63243Y171500D02*
X65000Y173257D01*
X67464Y173459D02*
Y174964D01*
X80763Y178500D02*
X85631Y173631D01*
X66757Y178500D02*
X80763D01*
X65000Y176743D02*
X66757Y178500D01*
X39500Y165000D02*
X40258D01*
X41925Y166667D02*
X68072D01*
X71574Y170168D01*
X40258Y165000D02*
X41925Y166667D01*
X89573Y163281D02*
Y165165D01*
X71574Y170168D02*
X84569D01*
X89573Y165165D01*
X65831Y162740D02*
X66815D01*
X63090Y160000D02*
X65831Y162740D01*
X68580Y163521D02*
Y164506D01*
X67799Y162740D02*
X68580Y163521D01*
X66815Y162740D02*
X67799D01*
X89573Y163281D02*
X93814Y159039D01*
Y155686D02*
Y159039D01*
X84223Y142366D02*
X86357Y144500D01*
X76397Y142366D02*
X84223D01*
X50157Y149100D02*
X69663D01*
X49000Y150257D02*
X50157Y149100D01*
X46243Y150257D02*
X49000D01*
X69663Y149100D02*
X76397Y142366D01*
X46000Y150500D02*
X46243Y150257D01*
X44476Y147781D02*
X44757Y147500D01*
X69000D02*
X82000Y134500D01*
X44757Y147500D02*
X69000D01*
Y140937D02*
Y141000D01*
Y140937D02*
X71090Y138847D01*
X38000Y137500D02*
X39500Y139000D01*
X60658D01*
X63241Y137358D02*
X64359Y136240D01*
X63241Y137358D02*
Y138680D01*
X60658Y139000D02*
X61641Y138017D01*
X64359Y136240D02*
X67724D01*
X61641Y128859D02*
X66000Y124500D01*
X61641Y128859D02*
Y138017D01*
X67724Y132500D02*
X68610D01*
X69871Y133761D01*
X70387D01*
X71090Y134464D01*
Y138847D01*
D14*
X95800Y84500D02*
X105000D01*
X95000D02*
X95800D01*
X5000Y174500D02*
X15000D01*
X5000Y164500D02*
X15000D01*
X5000Y154500D02*
X15000D01*
X5000Y144500D02*
X15000D01*
X5000Y134500D02*
X15000D01*
X5000Y124500D02*
X15000D01*
X5000Y114500D02*
X15000D01*
X5000Y104500D02*
X15000D01*
X5000Y94500D02*
X15000D01*
X5000Y84500D02*
X15000D01*
X95000Y174500D02*
X105000D01*
X95000Y164500D02*
X105000D01*
X95000Y154500D02*
X105000D01*
X95000Y144500D02*
X105000D01*
X95000Y134500D02*
X105000D01*
X95000Y124500D02*
X105000D01*
X95000Y114500D02*
X105000D01*
X95000Y104500D02*
X105000D01*
X95000Y94500D02*
X105000D01*
D24*
X66815Y155260D02*
D03*
X56185D02*
D03*
X66815Y162740D02*
D03*
X56185Y159000D02*
D03*
Y162740D02*
D03*
D40*
X75248Y103632D02*
D03*
X80760D02*
D03*
X83656Y71100D02*
D03*
X78144D02*
D03*
D41*
X102664Y5200D02*
D03*
X98136D02*
D03*
X29268Y63345D02*
D03*
X33795D02*
D03*
X52658Y136075D02*
D03*
X48131D02*
D03*
X25412Y128671D02*
D03*
X29939D02*
D03*
X40988Y112431D02*
D03*
X45909D02*
D03*
D42*
X23310Y118100D02*
D03*
X32090D02*
D03*
X23610Y105600D02*
D03*
X32390D02*
D03*
D43*
X66286Y96270D02*
D03*
X61286D02*
D03*
X56286D02*
D03*
X51286D02*
D03*
X46286D02*
D03*
X41286D02*
D03*
X36286D02*
D03*
X66286Y74814D02*
D03*
X61286D02*
D03*
X56286D02*
D03*
X51286D02*
D03*
X46286D02*
D03*
X41286D02*
D03*
X36286D02*
D03*
D44*
X23741Y73100D02*
D03*
X28859D02*
D03*
X45608Y122831D02*
D03*
X40489D02*
D03*
D45*
X29054Y85100D02*
D03*
X23346D02*
D03*
X10854Y68400D02*
D03*
X5146D02*
D03*
X73146Y78800D02*
D03*
X78854D02*
D03*
D46*
X102362Y17100D02*
D03*
X97638D02*
D03*
D47*
X73843Y159500D02*
D03*
X79158D02*
D03*
X73843Y167000D02*
D03*
X79158D02*
D03*
X60343Y112000D02*
D03*
X65658D02*
D03*
D48*
X73154Y151500D02*
D03*
X79847D02*
D03*
X60154Y121000D02*
D03*
X66847D02*
D03*
D49*
X86000Y85146D02*
D03*
Y90854D02*
D03*
X89400Y74154D02*
D03*
Y68446D02*
D03*
D50*
X25000Y56970D02*
D03*
Y58940D02*
D03*
Y55000D02*
D03*
Y53030D02*
D03*
X41500Y58940D02*
D03*
Y56970D02*
D03*
Y55000D02*
D03*
Y53030D02*
D03*
D51*
X17500Y61257D02*
D03*
Y55942D02*
D03*
X46500Y163657D02*
D03*
Y158343D02*
D03*
X4300Y55443D02*
D03*
Y60757D02*
D03*
D52*
X99500Y68641D02*
D03*
Y73759D02*
D03*
D53*
X25000Y49090D02*
D03*
Y45150D02*
D03*
X41500Y49090D02*
D03*
D54*
Y45150D02*
D03*
D55*
X16716Y41500D02*
D03*
X6284D02*
D03*
D56*
X58276Y136240D02*
D03*
Y132500D02*
D03*
Y128760D02*
D03*
X67724D02*
D03*
Y132500D02*
D03*
Y136240D02*
D03*
D57*
X86323Y84823D02*
X95477D01*
X90700Y98800D02*
X95000Y94500D01*
X72400Y98800D02*
X90700D01*
X86000Y85146D02*
X86323Y84823D01*
X95477D02*
X95800Y84500D01*
X73843Y159303D02*
Y159500D01*
X70230Y155691D02*
X73843Y159303D01*
X73154Y150713D02*
X78500Y145366D01*
X72624Y152817D02*
X73154Y152287D01*
Y150713D02*
Y151500D01*
X67246Y155691D02*
X70230D01*
X67799Y155260D02*
X70242Y152817D01*
X66815Y155260D02*
X67246Y155691D01*
X70242Y152817D02*
X72624D01*
X73154Y151500D02*
Y152287D01*
X66815Y155260D02*
X67799D01*
X56185D02*
X66815D01*
X48500Y163171D02*
X55754D01*
X46500Y158343D02*
X54543D01*
X55201Y159000D01*
X56185D01*
X55754Y163171D02*
X56185Y162740D01*
X16716Y40220D02*
Y41500D01*
D58*
X33843Y17000D02*
Y23095D01*
X16716Y40220D02*
X33843Y23095D01*
X6284Y24874D02*
Y41500D01*
Y24874D02*
X14157Y17000D01*
D59*
X95000Y84500D02*
D03*
X105000D02*
D03*
X5000Y164500D02*
D03*
Y154500D02*
D03*
Y144500D02*
D03*
Y134500D02*
D03*
Y124500D02*
D03*
X95000Y174500D02*
D03*
Y164500D02*
D03*
Y154500D02*
D03*
Y144500D02*
D03*
Y134500D02*
D03*
Y124500D02*
D03*
X5000Y114500D02*
D03*
Y104500D02*
D03*
Y94500D02*
D03*
Y84500D02*
D03*
X95000Y114500D02*
D03*
Y104500D02*
D03*
Y94500D02*
D03*
X15000Y164500D02*
D03*
Y154500D02*
D03*
Y144500D02*
D03*
Y134500D02*
D03*
Y124500D02*
D03*
X105000Y174500D02*
D03*
Y164500D02*
D03*
Y154500D02*
D03*
Y144500D02*
D03*
Y134500D02*
D03*
Y124500D02*
D03*
X15000Y114500D02*
D03*
Y104500D02*
D03*
Y94500D02*
D03*
Y84500D02*
D03*
X105000Y114500D02*
D03*
Y104500D02*
D03*
Y94500D02*
D03*
D60*
X61158Y23400D02*
D03*
X14157Y17000D02*
D03*
D61*
X80843Y23400D02*
D03*
X33843Y17000D02*
D03*
D62*
X5000Y174500D02*
D03*
X15000D02*
D03*
D63*
X89472Y54094D02*
D03*
D64*
X69000Y10000D02*
D03*
Y63937D02*
D03*
D65*
X76900Y84100D02*
D03*
X71600Y83700D02*
D03*
X64200Y82800D02*
D03*
X60005Y68457D02*
D03*
X66185Y105600D02*
D03*
X69046Y101961D02*
D03*
X61385Y105600D02*
D03*
X88000Y41390D02*
D03*
X56152Y63523D02*
D03*
X96964Y61800D02*
D03*
X48500Y103400D02*
D03*
X48835Y109400D02*
D03*
X57016Y120340D02*
D03*
X57100Y111785D02*
D03*
X18500Y51000D02*
D03*
X97800Y28900D02*
D03*
X41400Y103300D02*
D03*
X34444Y129190D02*
D03*
X53403Y67500D02*
D03*
X39000Y65400D02*
D03*
X43907Y107293D02*
D03*
X51000Y113530D02*
D03*
X82500Y95450D02*
D03*
X72400Y98800D02*
D03*
X99555Y89945D02*
D03*
X39700Y82700D02*
D03*
X43000Y41500D02*
D03*
X53400Y23004D02*
D03*
X46700Y84200D02*
D03*
X44400Y62200D02*
D03*
X48000Y67500D02*
D03*
X51500Y60589D02*
D03*
X75450Y117750D02*
D03*
X48800Y117891D02*
D03*
X52400Y123800D02*
D03*
X56200Y102300D02*
D03*
X12400Y52400D02*
D03*
X20000Y90400D02*
D03*
X78500Y145366D02*
D03*
X82957Y40500D02*
D03*
X40900Y147917D02*
D03*
X36614Y149943D02*
D03*
X48871Y144129D02*
D03*
X38896Y156845D02*
D03*
X39024Y165267D02*
D03*
X53000Y128500D02*
D03*
X89002Y158499D02*
D03*
X75000Y111600D02*
D03*
X71500Y120500D02*
D03*
X86000Y129416D02*
D03*
X67500Y49500D02*
D03*
X41500Y14500D02*
D03*
X58000Y48000D02*
D03*
X55470Y52530D02*
D03*
X54760Y57261D02*
D03*
X10500Y159500D02*
D03*
X10000Y79500D02*
D03*
X62000Y159500D02*
D03*
X53900Y172500D02*
D03*
X68000Y175500D02*
D03*
X62000Y174500D02*
D03*
X51870Y152616D02*
D03*
X46000Y150500D02*
D03*
X69000Y141000D02*
D03*
X37500Y144500D02*
D03*
X38000Y137500D02*
D03*
X26500Y140000D02*
D03*
X72094Y128963D02*
D03*
M02*
