G04*
G04 #@! TF.GenerationSoftware,Altium Limited,Altium Designer,20.1.12 (249)*
G04*
G04 Layer_Color=8388736*
%FSLAX25Y25*%
%MOIN*%
G70*
G04*
G04 #@! TF.SameCoordinates,D8CEFF92-047C-410D-934D-B173C227594B*
G04*
G04*
G04 #@! TF.FilePolarity,Negative*
G04*
G01*
G75*
%ADD14O,0.05912X0.01384*%
%ADD15R,0.05128X0.04734*%
%ADD16R,0.03159X0.04734*%
%ADD17R,0.04537X0.04931*%
%ADD18R,0.04931X0.04931*%
%ADD19R,0.03750X0.04537*%
%ADD20C,0.07600*%
%ADD21R,0.07600X0.07600*%
%ADD22R,0.06112X0.06112*%
%ADD23C,0.06112*%
%ADD24C,0.12805*%
%ADD25R,0.07600X0.07600*%
%ADD26C,0.04000*%
D14*
X29429Y150390D02*
D03*
Y148421D02*
D03*
Y146453D02*
D03*
Y144484D02*
D03*
Y142516D02*
D03*
Y140547D02*
D03*
Y138579D02*
D03*
Y136610D02*
D03*
X45571Y150390D02*
D03*
Y148421D02*
D03*
Y146453D02*
D03*
Y144484D02*
D03*
Y142516D02*
D03*
Y140547D02*
D03*
Y138579D02*
D03*
Y136610D02*
D03*
D15*
X76153Y174000D02*
D03*
X82846D02*
D03*
D16*
X95653Y106500D02*
D03*
X102347D02*
D03*
D17*
X95646Y91000D02*
D03*
X101354D02*
D03*
X40146Y158500D02*
D03*
X45854D02*
D03*
D18*
X13543Y93500D02*
D03*
X6457D02*
D03*
D19*
X7547Y107500D02*
D03*
X13453D02*
D03*
D20*
X95500Y125500D02*
D03*
Y135500D02*
D03*
Y145500D02*
D03*
Y155500D02*
D03*
Y165500D02*
D03*
Y175500D02*
D03*
X5500Y125500D02*
D03*
Y135500D02*
D03*
Y145500D02*
D03*
Y155500D02*
D03*
Y165500D02*
D03*
X105500Y125500D02*
D03*
Y135500D02*
D03*
Y145500D02*
D03*
Y155500D02*
D03*
Y165500D02*
D03*
Y175500D02*
D03*
X15500Y125500D02*
D03*
Y135500D02*
D03*
Y145500D02*
D03*
Y155500D02*
D03*
Y165500D02*
D03*
X74000D02*
D03*
X64000D02*
D03*
X84000Y125500D02*
D03*
X74000D02*
D03*
X64000D02*
D03*
D21*
X5500Y175500D02*
D03*
X15500D02*
D03*
D22*
X39500Y104591D02*
D03*
D23*
X74500Y114591D02*
D03*
X44500D02*
D03*
X69500Y104591D02*
D03*
X49500D02*
D03*
X64500Y114591D02*
D03*
X54500D02*
D03*
X59500Y104591D02*
D03*
D24*
X79500Y79590D02*
D03*
X34500D02*
D03*
D25*
X84000Y165500D02*
D03*
D26*
X22300Y150600D02*
D03*
X23272Y146272D02*
D03*
X29800Y88000D02*
D03*
X63200Y138900D02*
D03*
X13500Y80000D02*
D03*
X8500Y83000D02*
D03*
X41000Y164000D02*
D03*
X39000Y122376D02*
D03*
X5500Y119000D02*
D03*
X56949Y81449D02*
D03*
X40500Y127000D02*
D03*
X100500Y79000D02*
D03*
X50835Y89835D02*
D03*
X55167Y95167D02*
D03*
X64000Y89000D02*
D03*
X69000Y146500D02*
D03*
X54500Y144100D02*
D03*
X54000Y150000D02*
D03*
X90500Y112000D02*
D03*
X35200Y164500D02*
D03*
X60916Y134853D02*
D03*
X51000Y153500D02*
D03*
X40000Y154200D02*
D03*
X23854Y132823D02*
D03*
X21818Y138500D02*
D03*
X36000Y144500D02*
D03*
X10500Y151000D02*
D03*
X29457Y132457D02*
D03*
X23500Y100000D02*
D03*
X85000Y141000D02*
D03*
X38500Y140500D02*
D03*
M02*
