M48
;Layer_Color=9474304
;FILE_FORMAT=2:4
INCH,LZ
;TYPE=PLATED
T1F00S00C0.0160
T2F00S00C0.0350
T3F00S00C0.0354
;TYPE=NON_PLATED
T4F00S00C0.1220
%
T01
X00085Y0083
X00135Y008
X00298Y0088
X00235Y01
X002385Y013282
X002946Y013246
X002182Y01385
X002327Y014627
X00223Y01506
X00105Y0151
X0036Y01445
X00385Y01405
X004Y01542
X0051Y01535
X0054Y015
X00545Y01441
X00632Y01389
X006092Y013485
X0069Y01465
X0085Y0141
X00905Y0112
X01005Y0079
X005695Y008145
X005083Y008983
X005517Y009517
X0064Y0089
X0039Y012238
X00405Y0127
X00055Y0119
X00352Y01645
X0041Y0164
T02
X00055Y01255
Y01355
Y01455
Y01555
X00155
Y01455
Y01355
Y01255
X0064
X0074
X0084
X00955
Y01355
Y01455
Y01555
X01055
Y01455
Y01355
Y01255
Y01655
X00955
Y01755
X01055
X0084Y01655
X0074
X0064
X00155
X00055
Y01755
X00155
T03
X00395Y010459
X00495
X00595
X00695
X00745Y011459
X00645
X00545
X00445
T04
X00345Y007959
X00795
M30
