G04*
G04 #@! TF.GenerationSoftware,Altium Limited,Altium Designer,20.1.12 (249)*
G04*
G04 Layer_Physical_Order=1*
G04 Layer_Color=255*
%FSLAX25Y25*%
%MOIN*%
G70*
G04*
G04 #@! TF.SameCoordinates,D8CEFF92-047C-410D-934D-B173C227594B*
G04*
G04*
G04 #@! TF.FilePolarity,Positive*
G04*
G01*
G75*
%ADD10C,0.01000*%
%ADD27O,0.05512X0.00984*%
%ADD28R,0.04528X0.04134*%
%ADD29R,0.02559X0.04134*%
%ADD30R,0.03937X0.04331*%
%ADD31R,0.04331X0.04331*%
%ADD32R,0.03150X0.03937*%
%ADD33C,0.00800*%
%ADD34C,0.07000*%
%ADD35R,0.07000X0.07000*%
%ADD36R,0.05512X0.05512*%
%ADD37C,0.05512*%
%ADD38C,0.12205*%
%ADD39R,0.07000X0.07000*%
%ADD40C,0.03400*%
G36*
X92998Y179000D02*
X92433Y178567D01*
X91744Y177669D01*
X91311Y176622D01*
X91163Y175500D01*
X91311Y174378D01*
X91744Y173331D01*
X92433Y172433D01*
X93331Y171744D01*
X94377Y171311D01*
X95500Y171163D01*
X96623Y171311D01*
X97669Y171744D01*
X98567Y172433D01*
X99256Y173331D01*
X99589Y174135D01*
X101411D01*
X101744Y173331D01*
X102433Y172433D01*
X103331Y171744D01*
X104377Y171311D01*
X105500Y171163D01*
X106623Y171311D01*
X107669Y171744D01*
X108567Y172433D01*
X109256Y173331D01*
X109500Y173920D01*
X110000Y173821D01*
Y167179D01*
X109500Y167080D01*
X109256Y167669D01*
X108567Y168567D01*
X107669Y169256D01*
X106623Y169689D01*
X105500Y169837D01*
X104377Y169689D01*
X103331Y169256D01*
X102433Y168567D01*
X101744Y167669D01*
X101379Y166786D01*
X99621D01*
X99256Y167669D01*
X98567Y168567D01*
X97669Y169256D01*
X96623Y169689D01*
X95500Y169837D01*
X94377Y169689D01*
X93331Y169256D01*
X92433Y168567D01*
X91744Y167669D01*
X91311Y166622D01*
X91163Y165500D01*
X91311Y164377D01*
X91702Y163432D01*
X89493Y161223D01*
X88300D01*
Y169800D01*
X84070D01*
Y171133D01*
X85910D01*
Y176867D01*
X79783D01*
Y171133D01*
X81623D01*
Y169800D01*
X79700D01*
Y161223D01*
X76219D01*
X76119Y161723D01*
X76169Y161744D01*
X77067Y162433D01*
X77756Y163331D01*
X78189Y164377D01*
X78337Y165500D01*
X78189Y166622D01*
X77756Y167669D01*
X77067Y168567D01*
X76169Y169256D01*
X75122Y169689D01*
X74000Y169837D01*
X72878Y169689D01*
X71831Y169256D01*
X70933Y168567D01*
X70244Y167669D01*
X69811Y166622D01*
X69663Y165500D01*
X69811Y164377D01*
X70244Y163331D01*
X70933Y162433D01*
X71831Y161744D01*
X71881Y161723D01*
X71781Y161223D01*
X66219D01*
X66119Y161723D01*
X66169Y161744D01*
X67067Y162433D01*
X67756Y163331D01*
X68189Y164377D01*
X68337Y165500D01*
X68189Y166622D01*
X67798Y167568D01*
X72590Y172359D01*
X73090Y172152D01*
Y171133D01*
X79217D01*
Y176867D01*
X73090D01*
Y175224D01*
X72500D01*
X72032Y175130D01*
X71635Y174865D01*
X66068Y169298D01*
X65122Y169689D01*
X64000Y169837D01*
X62878Y169689D01*
X61831Y169256D01*
X60933Y168567D01*
X60244Y167669D01*
X59811Y166622D01*
X59663Y165500D01*
X59811Y164377D01*
X60244Y163331D01*
X60933Y162433D01*
X61831Y161744D01*
X61881Y161723D01*
X61781Y161223D01*
X55007D01*
X48365Y167865D01*
X47968Y168130D01*
X47500Y168224D01*
X39899D01*
X39431Y168130D01*
X39034Y167865D01*
X37551Y166382D01*
X37002Y166302D01*
X36176Y166855D01*
X35200Y167049D01*
X34225Y166855D01*
X33398Y166302D01*
X33011Y165724D01*
X27007D01*
X19800Y172930D01*
Y179500D01*
X92828D01*
X92998Y179000D01*
D02*
G37*
G36*
X53635Y159135D02*
X54032Y158870D01*
X54500Y158776D01*
X90000D01*
X90468Y158870D01*
X90865Y159135D01*
X93432Y161702D01*
X94377Y161311D01*
X95500Y161163D01*
X96623Y161311D01*
X97669Y161744D01*
X98567Y162433D01*
X99256Y163331D01*
X99589Y164136D01*
X101411D01*
X101744Y163331D01*
X102433Y162433D01*
X103331Y161744D01*
X104377Y161311D01*
X105500Y161163D01*
X106623Y161311D01*
X107669Y161744D01*
X108567Y162433D01*
X109256Y163331D01*
X109500Y163920D01*
X110000Y163821D01*
Y157179D01*
X109500Y157080D01*
X109256Y157669D01*
X108567Y158567D01*
X107669Y159256D01*
X106623Y159689D01*
X105500Y159837D01*
X104377Y159689D01*
X103331Y159256D01*
X102433Y158567D01*
X101744Y157669D01*
X101379Y156786D01*
X99621D01*
X99256Y157669D01*
X98567Y158567D01*
X97669Y159256D01*
X96623Y159689D01*
X95500Y159837D01*
X94377Y159689D01*
X93331Y159256D01*
X92433Y158567D01*
X91744Y157669D01*
X91352Y156723D01*
X55192D01*
X47050Y164865D01*
X46654Y165130D01*
X46185Y165224D01*
X43621D01*
X43590Y165277D01*
X43873Y165777D01*
X46993D01*
X53635Y159135D01*
D02*
G37*
G36*
X1200Y171200D02*
X9800D01*
Y174174D01*
X11200D01*
Y171200D01*
X18070D01*
X25635Y163635D01*
X26032Y163370D01*
X26500Y163277D01*
X33011D01*
X33398Y162698D01*
X34225Y162145D01*
X35200Y161951D01*
X36176Y162145D01*
X36651Y162463D01*
X36970Y162331D01*
X37235Y161934D01*
X37354Y161815D01*
Y160069D01*
X37377Y159950D01*
Y155535D01*
X37377D01*
X37617Y155035D01*
X37451Y154200D01*
X37645Y153225D01*
X38198Y152398D01*
X39024Y151845D01*
X40000Y151651D01*
X40975Y151845D01*
X41802Y152398D01*
X42355Y153225D01*
X42549Y154200D01*
X42383Y155035D01*
X42457Y155163D01*
X42886Y155335D01*
X42886Y155335D01*
X42886Y155335D01*
X45354D01*
Y158500D01*
X46354D01*
Y155335D01*
X48618D01*
X48909Y154870D01*
X48645Y154475D01*
X48451Y153500D01*
X48645Y152524D01*
X48824Y152257D01*
X48634Y151729D01*
X48339Y151607D01*
X47835Y151707D01*
X43307D01*
X42803Y151607D01*
X42375Y151321D01*
X42090Y150894D01*
X41990Y150390D01*
X42090Y149886D01*
X42375Y149458D01*
Y149353D01*
X42090Y148925D01*
X41990Y148421D01*
X42090Y147917D01*
X42258Y147665D01*
X42231Y147529D01*
X41901Y147035D01*
X41885Y146953D01*
X45571D01*
Y145953D01*
X41885D01*
X41901Y145871D01*
X42231Y145377D01*
X42258Y145241D01*
X42090Y144988D01*
X41990Y144484D01*
X42038Y144239D01*
X41695Y143739D01*
X40586D01*
X40117Y143646D01*
X39720Y143381D01*
X39241Y142902D01*
X38622Y143025D01*
X38329Y143486D01*
X38355Y143525D01*
X38549Y144500D01*
X38355Y145475D01*
X37802Y146302D01*
X36975Y146855D01*
X36000Y147049D01*
X35024Y146855D01*
X34198Y146302D01*
X33800Y145708D01*
X33305D01*
X32962Y146208D01*
X33010Y146453D01*
X32910Y146957D01*
X32625Y147384D01*
Y147490D01*
X32910Y147917D01*
X33010Y148421D01*
X32910Y148925D01*
X32625Y149353D01*
Y149458D01*
X32910Y149886D01*
X33010Y150390D01*
X32910Y150894D01*
X32625Y151321D01*
X32197Y151607D01*
X31693Y151707D01*
X28081D01*
X27995Y151835D01*
X25165Y154665D01*
X24768Y154930D01*
X24300Y155024D01*
X20901D01*
X20433Y154930D01*
X20250Y154808D01*
X19784Y155098D01*
X19837Y155500D01*
X19689Y156623D01*
X19256Y157669D01*
X18567Y158567D01*
X17669Y159256D01*
X16623Y159689D01*
X15500Y159837D01*
X14378Y159689D01*
X13331Y159256D01*
X12433Y158567D01*
X11744Y157669D01*
X11395Y156825D01*
X9605D01*
X9256Y157669D01*
X8567Y158567D01*
X7669Y159256D01*
X6622Y159689D01*
X5500Y159837D01*
X4377Y159689D01*
X3331Y159256D01*
X2433Y158567D01*
X1744Y157669D01*
X1311Y156623D01*
X1163Y155500D01*
X1311Y154377D01*
X1744Y153331D01*
X2433Y152433D01*
X3331Y151744D01*
X4377Y151311D01*
X5500Y151163D01*
X6622Y151311D01*
X7582Y151708D01*
X7846Y151570D01*
X8029Y151390D01*
X7951Y151000D01*
X8145Y150024D01*
X8698Y149198D01*
X9525Y148645D01*
X10500Y148451D01*
X11475Y148645D01*
X12302Y149198D01*
X12455Y149426D01*
X12711Y149410D01*
X12867Y148899D01*
X12433Y148567D01*
X11744Y147669D01*
X11395Y146826D01*
X9605D01*
X9256Y147669D01*
X8567Y148567D01*
X7669Y149256D01*
X6622Y149689D01*
X5500Y149837D01*
X4377Y149689D01*
X3331Y149256D01*
X2433Y148567D01*
X1744Y147669D01*
X1311Y146623D01*
X1163Y145500D01*
X1311Y144378D01*
X1744Y143331D01*
X2433Y142433D01*
X3331Y141744D01*
X4377Y141311D01*
X5500Y141163D01*
X6622Y141311D01*
X7669Y141744D01*
X8567Y142433D01*
X9256Y143331D01*
X9605Y144175D01*
X11395D01*
X11744Y143331D01*
X12433Y142433D01*
X13331Y141744D01*
X14378Y141311D01*
X15500Y141163D01*
X16623Y141311D01*
X17669Y141744D01*
X18567Y142433D01*
X19256Y143331D01*
X19689Y144378D01*
X19837Y145500D01*
X19689Y146623D01*
X19256Y147669D01*
X18567Y148567D01*
X17902Y149077D01*
X17902Y149247D01*
X18037Y149603D01*
X18369Y149670D01*
X18766Y149935D01*
X19273Y150441D01*
X19815Y150277D01*
X19945Y149625D01*
X20498Y148798D01*
X21120Y148382D01*
X21319Y148206D01*
X21252Y147750D01*
X20917Y147247D01*
X20723Y146272D01*
X20917Y145296D01*
X21469Y144469D01*
X22296Y143917D01*
X23272Y143723D01*
X24247Y143917D01*
X25074Y144469D01*
X25337Y144863D01*
X25421Y144849D01*
X25848Y144484D01*
X25897Y144239D01*
X25888Y144168D01*
X25612Y143731D01*
X25546Y143682D01*
X25366Y143646D01*
X24969Y143381D01*
X22501Y140913D01*
X21818Y141049D01*
X20843Y140855D01*
X20016Y140302D01*
X19464Y139476D01*
X19270Y138500D01*
X19277Y138463D01*
X18809Y138251D01*
X18567Y138567D01*
X17669Y139256D01*
X16623Y139689D01*
X15500Y139837D01*
X14378Y139689D01*
X13331Y139256D01*
X12433Y138567D01*
X11744Y137669D01*
X11395Y136826D01*
X9605D01*
X9256Y137669D01*
X8567Y138567D01*
X7669Y139256D01*
X6622Y139689D01*
X5500Y139837D01*
X4377Y139689D01*
X3331Y139256D01*
X2433Y138567D01*
X1744Y137669D01*
X1311Y136623D01*
X1163Y135500D01*
X1311Y134378D01*
X1744Y133331D01*
X2433Y132433D01*
X3331Y131744D01*
X4377Y131311D01*
X5500Y131163D01*
X6622Y131311D01*
X7669Y131744D01*
X8567Y132433D01*
X9256Y133331D01*
X9605Y134175D01*
X11395D01*
X11744Y133331D01*
X12433Y132433D01*
X13331Y131744D01*
X14378Y131311D01*
X15500Y131163D01*
X16623Y131311D01*
X17669Y131744D01*
X18567Y132433D01*
X19256Y133331D01*
X19689Y134378D01*
X19837Y135500D01*
X19733Y136290D01*
X20200Y136575D01*
X20843Y136145D01*
X21818Y135951D01*
X21890Y135965D01*
X22276Y135648D01*
Y134775D01*
X22051Y134625D01*
X21499Y133798D01*
X21305Y132823D01*
X21499Y131847D01*
X22051Y131020D01*
X22878Y130467D01*
X23854Y130273D01*
X24829Y130467D01*
X25656Y131020D01*
X26208Y131847D01*
X26403Y132823D01*
X26208Y133798D01*
X25656Y134625D01*
X24885Y135140D01*
X24833Y135467D01*
X24836Y135686D01*
X25408Y136258D01*
X25948Y136106D01*
X25954Y136097D01*
X26234Y135679D01*
X26661Y135393D01*
X27165Y135293D01*
X28233D01*
Y134646D01*
X27654Y134259D01*
X27102Y133432D01*
X26908Y132457D01*
X27102Y131481D01*
X27654Y130655D01*
X28481Y130102D01*
X29457Y129908D01*
X30432Y130102D01*
X31259Y130655D01*
X31812Y131481D01*
X32006Y132457D01*
X31812Y133432D01*
X31259Y134259D01*
X30680Y134646D01*
Y135293D01*
X31693D01*
X32197Y135393D01*
X32625Y135679D01*
X32910Y136106D01*
X33010Y136610D01*
X32910Y137114D01*
X32625Y137542D01*
Y137647D01*
X32910Y138075D01*
X33010Y138579D01*
X32966Y138800D01*
X33321Y139300D01*
X36295D01*
X36698Y138698D01*
X37525Y138145D01*
X38500Y137951D01*
X39183Y138087D01*
X41489Y135780D01*
X41886Y135515D01*
X42355Y135422D01*
X42760D01*
X42803Y135393D01*
X43307Y135293D01*
X47835D01*
X48339Y135393D01*
X48766Y135679D01*
X49052Y136106D01*
X49152Y136610D01*
X49103Y136855D01*
X49446Y137355D01*
X59261D01*
X59412Y136855D01*
X59114Y136656D01*
X58561Y135829D01*
X58367Y134853D01*
X58561Y133878D01*
X59114Y133051D01*
X59941Y132498D01*
X60916Y132304D01*
X61892Y132498D01*
X62719Y133051D01*
X63271Y133878D01*
X63286Y133953D01*
X91486D01*
X91744Y133331D01*
X92433Y132433D01*
X93331Y131744D01*
X94377Y131311D01*
X95500Y131163D01*
X96623Y131311D01*
X97669Y131744D01*
X98567Y132433D01*
X99256Y133331D01*
X99589Y134135D01*
X101411D01*
X101744Y133331D01*
X102433Y132433D01*
X103331Y131744D01*
X104377Y131311D01*
X105500Y131163D01*
X106623Y131311D01*
X107669Y131744D01*
X108567Y132433D01*
X109256Y133331D01*
X109500Y133920D01*
X110000Y133821D01*
Y127702D01*
X109500Y127602D01*
X109431Y127769D01*
X108709Y128709D01*
X107769Y129431D01*
X106675Y129884D01*
X106000Y129973D01*
Y125500D01*
Y121027D01*
X106675Y121116D01*
X107769Y121569D01*
X108709Y122291D01*
X109431Y123231D01*
X109500Y123398D01*
X110000Y123298D01*
Y71500D01*
X500D01*
Y125172D01*
X1000Y125205D01*
X1116Y124325D01*
X1569Y123231D01*
X2291Y122291D01*
X3231Y121569D01*
X3737Y121359D01*
X3786Y120862D01*
X3698Y120802D01*
X3145Y119975D01*
X2951Y119000D01*
X3145Y118025D01*
X3698Y117198D01*
X4524Y116645D01*
X5500Y116451D01*
X6475Y116645D01*
X7302Y117198D01*
X7855Y118025D01*
X8049Y119000D01*
X8011Y119190D01*
X8328Y119577D01*
X17447D01*
X17915Y119670D01*
X18312Y119935D01*
X19530Y121153D01*
X36811D01*
X37198Y120574D01*
X38025Y120021D01*
X39000Y119827D01*
X39976Y120021D01*
X40802Y120574D01*
X41355Y121401D01*
X41549Y122376D01*
X41355Y123352D01*
X41027Y123842D01*
X41181Y124300D01*
X41261Y124393D01*
X41862Y124642D01*
X42426Y125074D01*
X42858Y125638D01*
X43130Y126295D01*
X43158Y126500D01*
X37843D01*
X37870Y126295D01*
X38142Y125638D01*
X38391Y125314D01*
X38188Y124764D01*
X38025Y124731D01*
X37198Y124179D01*
X36811Y123600D01*
X20034D01*
X19756Y124015D01*
X19884Y124325D01*
X19973Y125000D01*
X15500D01*
Y125500D01*
X15000D01*
Y129973D01*
X14325Y129884D01*
X13231Y129431D01*
X12291Y128709D01*
X11569Y127769D01*
X11178Y126825D01*
X9822D01*
X9431Y127769D01*
X8709Y128709D01*
X7769Y129431D01*
X6675Y129884D01*
X6000Y129973D01*
Y125500D01*
X5000D01*
Y129973D01*
X4325Y129884D01*
X3231Y129431D01*
X2291Y128709D01*
X1569Y127769D01*
X1116Y126675D01*
X1000Y125795D01*
X500Y125828D01*
Y179500D01*
X1200D01*
Y171200D01*
D02*
G37*
G36*
X91744Y153331D02*
X92433Y152433D01*
X93331Y151744D01*
X94377Y151311D01*
X95500Y151163D01*
X96623Y151311D01*
X97669Y151744D01*
X98567Y152433D01*
X99256Y153331D01*
X99589Y154136D01*
X101411D01*
X101744Y153331D01*
X102433Y152433D01*
X103331Y151744D01*
X104377Y151311D01*
X105500Y151163D01*
X106623Y151311D01*
X107669Y151744D01*
X108567Y152433D01*
X109256Y153331D01*
X109500Y153920D01*
X110000Y153821D01*
Y147179D01*
X109500Y147080D01*
X109256Y147669D01*
X108567Y148567D01*
X107669Y149256D01*
X106623Y149689D01*
X105500Y149837D01*
X104377Y149689D01*
X103331Y149256D01*
X102433Y148567D01*
X101744Y147669D01*
X101379Y146786D01*
X99621D01*
X99256Y147669D01*
X98567Y148567D01*
X97669Y149256D01*
X96623Y149689D01*
X95500Y149837D01*
X94377Y149689D01*
X93432Y149298D01*
X88916Y153815D01*
X89107Y154277D01*
X91352D01*
X91744Y153331D01*
D02*
G37*
G36*
X91702Y147568D02*
X91311Y146623D01*
X91163Y145500D01*
X91311Y144378D01*
X91744Y143331D01*
X92433Y142433D01*
X93331Y141744D01*
X94377Y141311D01*
X95500Y141163D01*
X96623Y141311D01*
X97669Y141744D01*
X98567Y142433D01*
X99256Y143331D01*
X99589Y144135D01*
X101411D01*
X101744Y143331D01*
X102433Y142433D01*
X103331Y141744D01*
X104377Y141311D01*
X105500Y141163D01*
X106623Y141311D01*
X107669Y141744D01*
X108567Y142433D01*
X109256Y143331D01*
X109500Y143920D01*
X110000Y143821D01*
Y137179D01*
X109500Y137080D01*
X109256Y137669D01*
X108567Y138567D01*
X107669Y139256D01*
X106623Y139689D01*
X105500Y139837D01*
X104377Y139689D01*
X103331Y139256D01*
X102433Y138567D01*
X101744Y137669D01*
X101379Y136786D01*
X99621D01*
X99256Y137669D01*
X98567Y138567D01*
X97669Y139256D01*
X96623Y139689D01*
X95500Y139837D01*
X94377Y139689D01*
X93331Y139256D01*
X92433Y138567D01*
X91744Y137669D01*
X91311Y136623D01*
X91281Y136400D01*
X64859D01*
X64707Y136900D01*
X65002Y137098D01*
X65555Y137925D01*
X65749Y138900D01*
X65555Y139875D01*
X65002Y140702D01*
X64442Y141077D01*
X64594Y141577D01*
X82172D01*
X82489Y141190D01*
X82451Y141000D01*
X82645Y140024D01*
X83198Y139198D01*
X84025Y138645D01*
X85000Y138451D01*
X85975Y138645D01*
X86802Y139198D01*
X87355Y140024D01*
X87549Y141000D01*
X87355Y141975D01*
X86802Y142802D01*
X85975Y143355D01*
X85000Y143549D01*
X84317Y143413D01*
X84065Y143665D01*
X83668Y143930D01*
X83200Y144024D01*
X70693D01*
X70542Y144524D01*
X70802Y144698D01*
X71355Y145525D01*
X71549Y146500D01*
X71355Y147476D01*
X70802Y148302D01*
X69976Y148855D01*
X69000Y149049D01*
X68024Y148855D01*
X67198Y148302D01*
X67145Y148223D01*
X56350D01*
X56114Y148664D01*
X56355Y149024D01*
X56549Y150000D01*
X56355Y150976D01*
X55820Y151777D01*
X55876Y152044D01*
X55946Y152277D01*
X86993D01*
X91702Y147568D01*
D02*
G37*
%LPC*%
G36*
X15500Y169837D02*
X14378Y169689D01*
X13331Y169256D01*
X12433Y168567D01*
X11744Y167669D01*
X11395Y166825D01*
X9605D01*
X9256Y167669D01*
X8567Y168567D01*
X7669Y169256D01*
X6622Y169689D01*
X5500Y169837D01*
X4377Y169689D01*
X3331Y169256D01*
X2433Y168567D01*
X1744Y167669D01*
X1311Y166622D01*
X1163Y165500D01*
X1311Y164377D01*
X1744Y163331D01*
X2433Y162433D01*
X3331Y161744D01*
X4377Y161311D01*
X5500Y161163D01*
X6622Y161311D01*
X7669Y161744D01*
X8567Y162433D01*
X9256Y163331D01*
X9605Y164174D01*
X11395D01*
X11744Y163331D01*
X12433Y162433D01*
X13331Y161744D01*
X14378Y161311D01*
X15500Y161163D01*
X16623Y161311D01*
X17669Y161744D01*
X18567Y162433D01*
X19256Y163331D01*
X19689Y164377D01*
X19837Y165500D01*
X19689Y166622D01*
X19256Y167669D01*
X18567Y168567D01*
X17669Y169256D01*
X16623Y169689D01*
X15500Y169837D01*
D02*
G37*
G36*
X41000Y129657D02*
Y127500D01*
X43158D01*
X43130Y127705D01*
X42858Y128362D01*
X42426Y128926D01*
X41862Y129358D01*
X41205Y129630D01*
X41000Y129657D01*
D02*
G37*
G36*
X40000D02*
X39795Y129630D01*
X39138Y129358D01*
X38574Y128926D01*
X38142Y128362D01*
X37870Y127705D01*
X37843Y127500D01*
X40000D01*
Y129657D01*
D02*
G37*
G36*
X105000Y129973D02*
X104325Y129884D01*
X103231Y129431D01*
X102291Y128709D01*
X101569Y127769D01*
X101162Y126786D01*
X99838D01*
X99431Y127769D01*
X98709Y128709D01*
X97769Y129431D01*
X96675Y129884D01*
X96000Y129973D01*
Y125500D01*
Y121027D01*
X96675Y121116D01*
X97769Y121569D01*
X98709Y122291D01*
X99431Y123231D01*
X99806Y124135D01*
X101194D01*
X101569Y123231D01*
X102291Y122291D01*
X103231Y121569D01*
X104325Y121116D01*
X105000Y121027D01*
Y125500D01*
Y129973D01*
D02*
G37*
G36*
X95000D02*
X94325Y129884D01*
X93231Y129431D01*
X92291Y128709D01*
X91569Y127769D01*
X91116Y126675D01*
X91027Y126000D01*
X95000D01*
Y129973D01*
D02*
G37*
G36*
X16000D02*
Y126000D01*
X19973D01*
X19884Y126675D01*
X19431Y127769D01*
X18709Y128709D01*
X17769Y129431D01*
X16675Y129884D01*
X16000Y129973D01*
D02*
G37*
G36*
X95000Y125000D02*
X91027D01*
X91116Y124325D01*
X91569Y123231D01*
X92291Y122291D01*
X93231Y121569D01*
X94325Y121116D01*
X95000Y121027D01*
Y125000D01*
D02*
G37*
G36*
X84000Y129837D02*
X82877Y129689D01*
X81831Y129256D01*
X80933Y128567D01*
X80244Y127669D01*
X79811Y126622D01*
X79663Y125500D01*
X79811Y124378D01*
X80160Y123534D01*
X77451Y120826D01*
X75206D01*
X75122Y121311D01*
X76169Y121744D01*
X77067Y122433D01*
X77756Y123331D01*
X78189Y124378D01*
X78337Y125500D01*
X78189Y126622D01*
X77756Y127669D01*
X77067Y128567D01*
X76169Y129256D01*
X75122Y129689D01*
X74000Y129837D01*
X72878Y129689D01*
X71831Y129256D01*
X70933Y128567D01*
X70244Y127669D01*
X69811Y126622D01*
X69663Y125500D01*
X69811Y124378D01*
X70244Y123331D01*
X70933Y122433D01*
X71831Y121744D01*
X72878Y121311D01*
X72794Y120826D01*
X65206D01*
X65122Y121311D01*
X66169Y121744D01*
X67067Y122433D01*
X67756Y123331D01*
X68189Y124378D01*
X68337Y125500D01*
X68189Y126622D01*
X67756Y127669D01*
X67067Y128567D01*
X66169Y129256D01*
X65122Y129689D01*
X64000Y129837D01*
X62878Y129689D01*
X61831Y129256D01*
X60933Y128567D01*
X60244Y127669D01*
X59895Y126825D01*
X55409D01*
X54902Y126725D01*
X54472Y126437D01*
X45896Y117861D01*
X45428Y118055D01*
X44500Y118177D01*
X43572Y118055D01*
X42707Y117697D01*
X41964Y117127D01*
X41394Y116384D01*
X41036Y115519D01*
X40913Y114591D01*
X41036Y113662D01*
X41394Y112797D01*
X41964Y112054D01*
X42707Y111485D01*
X43507Y111153D01*
X43515Y111143D01*
X43603Y110915D01*
X43647Y110612D01*
X41181Y108147D01*
X35944D01*
Y101224D01*
X25689D01*
X25302Y101802D01*
X24475Y102355D01*
X23500Y102549D01*
X22524Y102355D01*
X21698Y101802D01*
X21145Y100976D01*
X20951Y100000D01*
X21145Y99024D01*
X21698Y98198D01*
X22524Y97645D01*
X23500Y97451D01*
X24475Y97645D01*
X25302Y98198D01*
X25689Y98777D01*
X49827D01*
X52369Y96235D01*
X52248Y95649D01*
X52201Y95630D01*
X51733Y95723D01*
X16509D01*
Y96465D01*
X14778D01*
Y104732D01*
X15827D01*
Y110268D01*
X11078D01*
Y104732D01*
X12127D01*
Y96465D01*
X10578D01*
Y91906D01*
X10116Y91715D01*
X9422Y92409D01*
Y96465D01*
X3491D01*
Y90535D01*
X7547D01*
X9185Y88897D01*
X9615Y88610D01*
X10122Y88509D01*
X10629Y88610D01*
X10631Y88611D01*
X16335D01*
X16803Y88704D01*
X17200Y88969D01*
X19007Y90776D01*
X28576D01*
X28707Y90276D01*
X27998Y89802D01*
X27445Y88976D01*
X27251Y88000D01*
X27445Y87024D01*
X27785Y86515D01*
X25493Y84224D01*
X10689D01*
X10302Y84802D01*
X9475Y85355D01*
X8500Y85549D01*
X7525Y85355D01*
X6698Y84802D01*
X6145Y83975D01*
X5951Y83000D01*
X6145Y82025D01*
X6698Y81198D01*
X7525Y80645D01*
X8500Y80451D01*
X9475Y80645D01*
X10302Y81198D01*
X10487Y81473D01*
X10640Y81458D01*
X10960Y80923D01*
X10870Y80705D01*
X10842Y80500D01*
X16158D01*
X16130Y80705D01*
X15894Y81277D01*
X16097Y81776D01*
X26000D01*
X26468Y81870D01*
X26865Y82135D01*
X28157Y83427D01*
X28563Y83126D01*
X28092Y82245D01*
X27698Y80944D01*
X27564Y79590D01*
X27698Y78237D01*
X28092Y76936D01*
X28733Y75737D01*
X29596Y74686D01*
X30647Y73824D01*
X31846Y73183D01*
X33147Y72788D01*
X34500Y72655D01*
X35853Y72788D01*
X37154Y73183D01*
X38353Y73824D01*
X39404Y74686D01*
X40267Y75737D01*
X40908Y76936D01*
X41302Y78237D01*
X41436Y79590D01*
X41302Y80944D01*
X40908Y82245D01*
X40267Y83444D01*
X39404Y84495D01*
X38353Y85357D01*
X37154Y85998D01*
X35853Y86393D01*
X34500Y86526D01*
X33147Y86393D01*
X32128Y86084D01*
X31811Y86510D01*
X32155Y87024D01*
X32349Y88000D01*
X32155Y88976D01*
X31602Y89802D01*
X30893Y90276D01*
X31024Y90776D01*
X48039D01*
X48393Y90372D01*
X48286Y89835D01*
X48480Y88859D01*
X49032Y88032D01*
X49859Y87480D01*
X50835Y87286D01*
X51810Y87480D01*
X52637Y88032D01*
X53190Y88859D01*
X53384Y89835D01*
X53240Y90555D01*
X53701Y90801D01*
X56367Y88135D01*
X56764Y87870D01*
X57233Y87776D01*
X61811D01*
X62198Y87198D01*
X63024Y86645D01*
X64000Y86451D01*
X64976Y86645D01*
X65802Y87198D01*
X66355Y88024D01*
X66549Y89000D01*
X66355Y89976D01*
X65802Y90802D01*
X65714Y90861D01*
X65859Y91340D01*
X92877D01*
Y88035D01*
X98386D01*
Y87835D01*
X100854D01*
Y91000D01*
Y94165D01*
X98386D01*
Y93965D01*
X94305D01*
X94177Y93991D01*
X62460D01*
X52913Y103538D01*
X52964Y103662D01*
X53087Y104591D01*
X52964Y105519D01*
X52771Y105987D01*
X54305Y107521D01*
X56723D01*
X56883Y107021D01*
X56394Y106384D01*
X56036Y105519D01*
X55913Y104591D01*
X56036Y103662D01*
X56394Y102797D01*
X56964Y102054D01*
X57707Y101485D01*
X58572Y101126D01*
X59500Y101004D01*
X60428Y101126D01*
X61293Y101485D01*
X62036Y102054D01*
X62606Y102797D01*
X62964Y103662D01*
X63087Y104591D01*
X62964Y105519D01*
X62606Y106384D01*
X62117Y107021D01*
X62277Y107521D01*
X66723D01*
X66883Y107021D01*
X66394Y106384D01*
X66036Y105519D01*
X65913Y104591D01*
X66036Y103662D01*
X66394Y102797D01*
X66964Y102054D01*
X67707Y101485D01*
X68572Y101126D01*
X69500Y101004D01*
X70428Y101126D01*
X71293Y101485D01*
X72036Y102054D01*
X72606Y102797D01*
X72964Y103662D01*
X73087Y104591D01*
X72964Y105519D01*
X72606Y106384D01*
X72117Y107021D01*
X72277Y107521D01*
X74583D01*
X76542Y105563D01*
X76972Y105275D01*
X77479Y105175D01*
X93574D01*
Y103633D01*
X97733D01*
Y109367D01*
X95304D01*
X92986Y111685D01*
X93049Y112000D01*
X92855Y112976D01*
X92302Y113802D01*
X91475Y114355D01*
X90500Y114549D01*
X89525Y114355D01*
X88698Y113802D01*
X88145Y112976D01*
X87951Y112000D01*
X88145Y111024D01*
X88698Y110198D01*
X89525Y109645D01*
X90500Y109451D01*
X91475Y109645D01*
X91530Y109681D01*
X92923Y108287D01*
X92732Y107826D01*
X78028D01*
X76070Y109784D01*
X75640Y110071D01*
X75132Y110172D01*
X53756D01*
X53249Y110071D01*
X52819Y109784D01*
X50896Y107861D01*
X50428Y108055D01*
X49500Y108177D01*
X48572Y108055D01*
X47707Y107697D01*
X46964Y107127D01*
X46394Y106384D01*
X46036Y105519D01*
X45913Y104591D01*
X46036Y103662D01*
X46394Y102797D01*
X46964Y102054D01*
X47395Y101724D01*
X47225Y101224D01*
X43056D01*
Y106272D01*
X45296Y108512D01*
X45765D01*
X46273Y108613D01*
X46703Y108900D01*
X49937Y112135D01*
X50225Y112565D01*
X50326Y113072D01*
Y114208D01*
X50450Y114284D01*
X50988Y114026D01*
X51036Y113662D01*
X51394Y112797D01*
X51964Y112054D01*
X52707Y111485D01*
X53572Y111126D01*
X54500Y111004D01*
X55428Y111126D01*
X56293Y111485D01*
X57036Y112054D01*
X57606Y112797D01*
X57964Y113662D01*
X58087Y114591D01*
X57964Y115519D01*
X57606Y116384D01*
X57036Y117127D01*
X56322Y117675D01*
X56319Y117727D01*
X56560Y118175D01*
X62180D01*
X62349Y117675D01*
X61821Y117269D01*
X61219Y116485D01*
X60841Y115571D01*
X60777Y115091D01*
X68222D01*
X68159Y115571D01*
X67781Y116485D01*
X67179Y117269D01*
X66651Y117675D01*
X66820Y118175D01*
X72440D01*
X72681Y117727D01*
X72678Y117675D01*
X71964Y117127D01*
X71394Y116384D01*
X71036Y115519D01*
X70913Y114591D01*
X71036Y113662D01*
X71394Y112797D01*
X71964Y112054D01*
X72707Y111485D01*
X73572Y111126D01*
X74500Y111004D01*
X75428Y111126D01*
X76293Y111485D01*
X77036Y112054D01*
X77606Y112797D01*
X77964Y113662D01*
X78087Y114591D01*
X77964Y115519D01*
X77606Y116384D01*
X77036Y117127D01*
X76322Y117675D01*
X76319Y117727D01*
X76560Y118175D01*
X78000D01*
X78507Y118275D01*
X78937Y118563D01*
X82034Y121660D01*
X82877Y121311D01*
X84000Y121163D01*
X85123Y121311D01*
X86169Y121744D01*
X87067Y122433D01*
X87756Y123331D01*
X88189Y124378D01*
X88337Y125500D01*
X88189Y126622D01*
X87756Y127669D01*
X87067Y128567D01*
X86169Y129256D01*
X85123Y129689D01*
X84000Y129837D01*
D02*
G37*
G36*
X68222Y114091D02*
X65000D01*
Y110868D01*
X65481Y110931D01*
X66394Y111310D01*
X67179Y111912D01*
X67781Y112696D01*
X68159Y113610D01*
X68222Y114091D01*
D02*
G37*
G36*
X64000D02*
X60777D01*
X60841Y113610D01*
X61219Y112696D01*
X61821Y111912D01*
X62606Y111310D01*
X63520Y110931D01*
X64000Y110868D01*
Y114091D01*
D02*
G37*
G36*
X10122Y110468D02*
X8047D01*
Y108000D01*
X10122D01*
Y110468D01*
D02*
G37*
G36*
X7047D02*
X4972D01*
Y108000D01*
X7047D01*
Y110468D01*
D02*
G37*
G36*
X104626Y109567D02*
X102847D01*
Y107000D01*
X104626D01*
Y109567D01*
D02*
G37*
G36*
X101847D02*
X100067D01*
Y107000D01*
X101847D01*
Y109567D01*
D02*
G37*
G36*
X10122Y107000D02*
X8047D01*
Y104532D01*
X10122D01*
Y107000D01*
D02*
G37*
G36*
X7047D02*
X4972D01*
Y104532D01*
X7047D01*
Y107000D01*
D02*
G37*
G36*
X104626Y106000D02*
X102847D01*
Y103433D01*
X104626D01*
Y106000D01*
D02*
G37*
G36*
X101847D02*
X100067D01*
Y103433D01*
X101847D01*
Y106000D01*
D02*
G37*
G36*
X104323Y94165D02*
X101854D01*
Y91500D01*
X104323D01*
Y94165D01*
D02*
G37*
G36*
Y90500D02*
X101854D01*
Y87835D01*
X104323D01*
Y90500D01*
D02*
G37*
G36*
X57449Y84107D02*
Y81949D01*
X59607D01*
X59580Y82154D01*
X59308Y82811D01*
X58875Y83375D01*
X58311Y83808D01*
X57654Y84080D01*
X57449Y84107D01*
D02*
G37*
G36*
X56449D02*
X56244Y84080D01*
X55588Y83808D01*
X55024Y83375D01*
X54591Y82811D01*
X54319Y82154D01*
X54292Y81949D01*
X56449D01*
Y84107D01*
D02*
G37*
G36*
X101000Y81657D02*
Y79500D01*
X103157D01*
X103130Y79705D01*
X102858Y80362D01*
X102426Y80926D01*
X101862Y81358D01*
X101205Y81630D01*
X101000Y81657D01*
D02*
G37*
G36*
X100000D02*
X99795Y81630D01*
X99138Y81358D01*
X98574Y80926D01*
X98141Y80362D01*
X97869Y79705D01*
X97843Y79500D01*
X100000D01*
Y81657D01*
D02*
G37*
G36*
X59607Y80949D02*
X57449D01*
Y78792D01*
X57654Y78819D01*
X58311Y79091D01*
X58875Y79524D01*
X59308Y80088D01*
X59580Y80744D01*
X59607Y80949D01*
D02*
G37*
G36*
X56449D02*
X54292D01*
X54319Y80744D01*
X54591Y80088D01*
X55024Y79524D01*
X55588Y79091D01*
X56244Y78819D01*
X56449Y78792D01*
Y80949D01*
D02*
G37*
G36*
X16158Y79500D02*
X14000D01*
Y77342D01*
X14205Y77369D01*
X14862Y77641D01*
X15426Y78074D01*
X15858Y78638D01*
X16130Y79295D01*
X16158Y79500D01*
D02*
G37*
G36*
X13000D02*
X10842D01*
X10870Y79295D01*
X11141Y78638D01*
X11574Y78074D01*
X12138Y77641D01*
X12795Y77369D01*
X13000Y77342D01*
Y79500D01*
D02*
G37*
G36*
X103157Y78500D02*
X101000D01*
Y76342D01*
X101205Y76370D01*
X101862Y76641D01*
X102426Y77074D01*
X102858Y77638D01*
X103130Y78295D01*
X103157Y78500D01*
D02*
G37*
G36*
X100000D02*
X97843D01*
X97869Y78295D01*
X98141Y77638D01*
X98574Y77074D01*
X99138Y76641D01*
X99795Y76370D01*
X100000Y76342D01*
Y78500D01*
D02*
G37*
G36*
X79500Y86526D02*
X78147Y86393D01*
X76846Y85998D01*
X75647Y85357D01*
X74596Y84495D01*
X73733Y83444D01*
X73092Y82245D01*
X72698Y80944D01*
X72564Y79590D01*
X72698Y78237D01*
X73092Y76936D01*
X73733Y75737D01*
X74596Y74686D01*
X75647Y73824D01*
X76846Y73183D01*
X78147Y72788D01*
X79500Y72655D01*
X80853Y72788D01*
X82154Y73183D01*
X83353Y73824D01*
X84404Y74686D01*
X85267Y75737D01*
X85908Y76936D01*
X86303Y78237D01*
X86436Y79590D01*
X86303Y80944D01*
X85908Y82245D01*
X85267Y83444D01*
X84404Y84495D01*
X83353Y85357D01*
X82154Y85998D01*
X80853Y86393D01*
X79500Y86526D01*
D02*
G37*
%LPD*%
D10*
X44500Y114591D02*
X55409Y125500D01*
X64000D01*
X49500Y104591D02*
X49986D01*
X61911Y92665D01*
X94177D01*
X95500Y175461D02*
X105482D01*
X95500Y165461D02*
X105482D01*
X95500Y135461D02*
X105482D01*
X95500Y145461D02*
X105482D01*
X95500Y155461D02*
X105482D01*
X78000Y119500D02*
X84000Y125500D01*
X49000Y115109D02*
X53391Y119500D01*
X78000D01*
X6457Y93500D02*
X10122Y89835D01*
X13453Y93591D02*
Y107500D01*
X39500Y104591D02*
X44747Y109837D01*
X45765D01*
X49000Y113072D01*
Y115109D01*
X95646Y91000D02*
Y91197D01*
X94177Y92665D02*
X95646Y91197D01*
X53756Y108846D02*
X75132D01*
X49500Y104591D02*
X53756Y108846D01*
X77479Y106500D02*
X95653D01*
X75132Y108846D02*
X77479Y106500D01*
X95500Y125461D02*
X105482D01*
X5500Y125500D02*
X15500D01*
X5500Y135500D02*
X15500D01*
X5500Y145500D02*
X15500D01*
X5500Y155500D02*
X15500D01*
X5500Y165500D02*
X15500D01*
X5500Y175500D02*
X15500D01*
D27*
X29429Y150390D02*
D03*
Y148421D02*
D03*
Y146453D02*
D03*
Y144484D02*
D03*
Y142516D02*
D03*
Y140547D02*
D03*
Y138579D02*
D03*
Y136610D02*
D03*
X45571Y150390D02*
D03*
Y148421D02*
D03*
Y146453D02*
D03*
Y144484D02*
D03*
Y142516D02*
D03*
Y140547D02*
D03*
Y138579D02*
D03*
Y136610D02*
D03*
D28*
X76153Y174000D02*
D03*
X82846D02*
D03*
D29*
X95653Y106500D02*
D03*
X102347D02*
D03*
D30*
X95646Y91000D02*
D03*
X101354D02*
D03*
X40146Y158500D02*
D03*
X45854D02*
D03*
D31*
X13543Y93500D02*
D03*
X6457D02*
D03*
D32*
X7547Y107500D02*
D03*
X13453D02*
D03*
D33*
X23547Y149353D02*
X24654D01*
X22300Y150600D02*
X23547Y149353D01*
X17901Y150800D02*
X20901Y153800D01*
X24300D02*
X27130Y150970D01*
X20901Y153800D02*
X24300D01*
X27215Y150390D02*
X29429D01*
X27130Y150475D02*
X27215Y150390D01*
X27130Y150475D02*
Y150970D01*
X24654Y149353D02*
X25585Y148421D01*
X29429D01*
X23272Y146272D02*
X23453Y146453D01*
X48669Y92000D02*
X50835Y89835D01*
X18500Y92000D02*
X48669D01*
X16335Y89835D02*
X18500Y92000D01*
X10122Y89835D02*
X16335D01*
X60100Y142800D02*
X83200D01*
X57847Y140547D02*
X60100Y142800D01*
X83200D02*
X85000Y141000D01*
X63000Y138500D02*
X63200D01*
X45571Y140547D02*
X57847D01*
X62921Y138579D02*
X63000Y138500D01*
X26000Y83000D02*
X29457Y86457D01*
Y86560D01*
X8500Y83000D02*
X26000D01*
X41000Y164000D02*
X46185D01*
X38100Y162799D02*
X38577Y162322D01*
Y160069D02*
Y162322D01*
Y160069D02*
X40146Y158500D01*
X38100Y162799D02*
Y165201D01*
X46185Y164000D02*
X54685Y155500D01*
X7300Y120800D02*
X17447D01*
X19023Y122376D02*
X39000D01*
X17447Y120800D02*
X19023Y122376D01*
X5500Y119000D02*
X7300Y120800D01*
X13453Y93591D02*
X14362Y94500D01*
X51733D01*
X57233Y89000D02*
X64000D01*
X51733Y94500D02*
X57233Y89000D01*
X23500Y100000D02*
X50334D01*
X55167Y95167D01*
X68500Y147000D02*
X69000Y146500D01*
X52899Y147000D02*
X68500D01*
X51477Y148421D02*
X52899Y147000D01*
X54116Y144484D02*
X54500Y144100D01*
X45571Y144484D02*
X54116D01*
X45571Y148421D02*
X51477D01*
X53645Y150355D02*
X54000Y150000D01*
X90500Y112000D02*
X90941D01*
X95653Y106500D02*
Y107287D01*
X90941Y112000D02*
X95653Y107287D01*
X39899Y167000D02*
X47500D01*
X38100Y165201D02*
X39899Y167000D01*
X26500Y164500D02*
X35200D01*
X47500Y167000D02*
X54500Y160000D01*
X90000D01*
X95500Y165500D01*
X95177Y135177D02*
X95500Y135500D01*
X61239Y135177D02*
X95177D01*
X60916Y134853D02*
X61239Y135177D01*
X51000Y153500D02*
X87500D01*
X95500Y145500D01*
X54685Y155500D02*
X95500D01*
X45606Y150355D02*
X53645D01*
X40000Y154000D02*
X40146Y154146D01*
Y158500D01*
X23500Y133176D02*
X23854Y132823D01*
X23500Y133176D02*
Y136080D01*
X21818Y138500D02*
X25834Y142516D01*
X29429D01*
X23500Y136080D02*
X25998Y138579D01*
X29429D01*
X23453Y146453D02*
X29429D01*
X15500Y175500D02*
X26500Y164500D01*
X35984Y144484D02*
X36000Y144500D01*
X29429Y144484D02*
X35984D01*
X10700Y150800D02*
X17901D01*
X10500Y151000D02*
X10700Y150800D01*
X29429Y136610D02*
X29457Y136583D01*
Y132457D02*
Y136583D01*
X45571Y138579D02*
X62921D01*
X82846Y166654D02*
Y174000D01*
Y166654D02*
X84000Y165500D01*
X72500Y174000D02*
X76153D01*
X64000Y165500D02*
X72500Y174000D01*
X45536Y136645D02*
X45571Y136610D01*
X42355Y136645D02*
X45536D01*
X38500Y140500D02*
X42355Y136645D01*
X40586Y142516D02*
X45571D01*
X38570Y140500D02*
X40586Y142516D01*
X38500Y140500D02*
X38570D01*
X29429Y140547D02*
X29453Y140524D01*
X38476D01*
X38500Y140500D01*
X45571Y150390D02*
X45606Y150355D01*
D34*
X95500Y125500D02*
D03*
Y135500D02*
D03*
Y145500D02*
D03*
Y155500D02*
D03*
Y165500D02*
D03*
Y175500D02*
D03*
X5500Y125500D02*
D03*
Y135500D02*
D03*
Y145500D02*
D03*
Y155500D02*
D03*
Y165500D02*
D03*
X105500Y125500D02*
D03*
Y135500D02*
D03*
Y145500D02*
D03*
Y155500D02*
D03*
Y165500D02*
D03*
Y175500D02*
D03*
X15500Y125500D02*
D03*
Y135500D02*
D03*
Y145500D02*
D03*
Y155500D02*
D03*
Y165500D02*
D03*
X74000D02*
D03*
X64000D02*
D03*
X84000Y125500D02*
D03*
X74000D02*
D03*
X64000D02*
D03*
D35*
X5500Y175500D02*
D03*
X15500D02*
D03*
D36*
X39500Y104591D02*
D03*
D37*
X74500Y114591D02*
D03*
X44500D02*
D03*
X69500Y104591D02*
D03*
X49500D02*
D03*
X64500Y114591D02*
D03*
X54500D02*
D03*
X59500Y104591D02*
D03*
D38*
X79500Y79590D02*
D03*
X34500D02*
D03*
D39*
X84000Y165500D02*
D03*
D40*
X22300Y150600D02*
D03*
X23272Y146272D02*
D03*
X29800Y88000D02*
D03*
X63200Y138900D02*
D03*
X13500Y80000D02*
D03*
X8500Y83000D02*
D03*
X41000Y164000D02*
D03*
X39000Y122376D02*
D03*
X5500Y119000D02*
D03*
X56949Y81449D02*
D03*
X40500Y127000D02*
D03*
X100500Y79000D02*
D03*
X50835Y89835D02*
D03*
X55167Y95167D02*
D03*
X64000Y89000D02*
D03*
X69000Y146500D02*
D03*
X54500Y144100D02*
D03*
X54000Y150000D02*
D03*
X90500Y112000D02*
D03*
X35200Y164500D02*
D03*
X60916Y134853D02*
D03*
X51000Y153500D02*
D03*
X40000Y154200D02*
D03*
X23854Y132823D02*
D03*
X21818Y138500D02*
D03*
X36000Y144500D02*
D03*
X10500Y151000D02*
D03*
X29457Y132457D02*
D03*
X23500Y100000D02*
D03*
X85000Y141000D02*
D03*
X38500Y140500D02*
D03*
M02*
