G04*
G04 #@! TF.GenerationSoftware,Altium Limited,Altium Designer,20.1.12 (249)*
G04*
G04 Layer_Color=32896*
%FSLAX25Y25*%
%MOIN*%
G70*
G04*
G04 #@! TF.SameCoordinates,D8CEFF92-047C-410D-934D-B173C227594B*
G04*
G04*
G04 #@! TF.FilePolarity,Positive*
G04*
G01*
G75*
%ADD10C,0.01000*%
%ADD45C,0.00500*%
G36*
X12500Y72500D02*
D01*
D02*
G37*
G36*
Y84500D02*
D01*
D02*
G37*
G36*
Y96000D02*
D01*
D02*
G37*
G36*
Y108000D02*
D01*
D02*
G37*
G36*
X22500Y172500D02*
D01*
D02*
G37*
G36*
X29500D02*
D01*
D02*
G37*
G36*
X36500D02*
D01*
D02*
G37*
G36*
X43500D02*
D01*
D02*
G37*
G36*
X50500D02*
D01*
D02*
G37*
D10*
X22600Y148825D02*
Y152824D01*
X23933Y151491D01*
X25266Y152824D01*
Y148825D01*
X27265Y151491D02*
X28598D01*
X29265Y150824D01*
Y148825D01*
X27265D01*
X26599Y149492D01*
X27265Y150158D01*
X29265D01*
X31930Y147492D02*
X32597D01*
X33263Y148159D01*
Y151491D01*
X31264D01*
X30597Y150824D01*
Y149492D01*
X31264Y148825D01*
X33263D01*
X34596D02*
Y151491D01*
X36595D01*
X37262Y150824D01*
Y148825D01*
X40594D02*
X39261D01*
X38595Y149492D01*
Y150824D01*
X39261Y151491D01*
X40594D01*
X41261Y150824D01*
Y150158D01*
X38595D01*
X43260Y152157D02*
Y151491D01*
X42594D01*
X43926D01*
X43260D01*
Y149492D01*
X43926Y148825D01*
X45926D02*
X47259D01*
X46592D01*
Y151491D01*
X45926D01*
X51924D02*
X49924D01*
X49258Y150824D01*
Y149492D01*
X49924Y148825D01*
X51924D01*
X25266Y143626D02*
X24599Y144292D01*
X23267D01*
X22600Y143626D01*
Y140960D01*
X23267Y140294D01*
X24599D01*
X25266Y140960D01*
X27265Y140294D02*
X28598D01*
X29265Y140960D01*
Y142293D01*
X28598Y142960D01*
X27265D01*
X26599Y142293D01*
Y140960D01*
X27265Y140294D01*
X30597D02*
Y142960D01*
X32597D01*
X33263Y142293D01*
Y140294D01*
X35263Y143626D02*
Y142960D01*
X34596D01*
X35929D01*
X35263D01*
Y140960D01*
X35929Y140294D01*
X37928Y142960D02*
Y140294D01*
Y141627D01*
X38595Y142293D01*
X39261Y142960D01*
X39928D01*
X42594Y140294D02*
X43926D01*
X44593Y140960D01*
Y142293D01*
X43926Y142960D01*
X42594D01*
X41927Y142293D01*
Y140960D01*
X42594Y140294D01*
X45926D02*
X47259D01*
X46592D01*
Y144292D01*
X45926D01*
X49258Y140294D02*
X50591D01*
X49924D01*
Y144292D01*
X49258D01*
X54590Y140294D02*
X53257D01*
X52590Y140960D01*
Y142293D01*
X53257Y142960D01*
X54590D01*
X55256Y142293D01*
Y141627D01*
X52590D01*
X56589Y142960D02*
Y140294D01*
Y141627D01*
X57256Y142293D01*
X57922Y142960D01*
X58588D01*
X60588Y142293D02*
X63253D01*
X64587Y140294D02*
X66586D01*
X67252Y140960D01*
X66586Y141627D01*
X65253D01*
X64587Y142293D01*
X65253Y142960D01*
X67252D01*
X70584Y140294D02*
X69252D01*
X68585Y140960D01*
Y142293D01*
X69252Y142960D01*
X70584D01*
X71251Y142293D01*
Y141627D01*
X68585D01*
X72584Y140294D02*
Y142960D01*
X74583D01*
X75250Y142293D01*
Y140294D01*
X76583D02*
X78582D01*
X79248Y140960D01*
X78582Y141627D01*
X77249D01*
X76583Y142293D01*
X77249Y142960D01*
X79248D01*
X81248Y140294D02*
X82581D01*
X83247Y140960D01*
Y142293D01*
X82581Y142960D01*
X81248D01*
X80581Y142293D01*
Y140960D01*
X81248Y140294D01*
X84580Y142960D02*
Y140294D01*
Y141627D01*
X85246Y142293D01*
X85913Y142960D01*
X86579D01*
X22600Y133095D02*
Y137094D01*
X25266Y133095D01*
Y137094D01*
X26599Y133095D02*
X27932D01*
X27265D01*
Y135761D01*
X26599D01*
X32597D02*
X30597D01*
X29931Y135095D01*
Y133762D01*
X30597Y133095D01*
X32597D01*
X33930Y137094D02*
Y133095D01*
Y135095D01*
X34596Y135761D01*
X35929D01*
X36595Y135095D01*
Y133095D01*
X38595D02*
X39928D01*
X40594Y133762D01*
Y135095D01*
X39928Y135761D01*
X38595D01*
X37928Y135095D01*
Y133762D01*
X38595Y133095D01*
X41927D02*
X43260D01*
X42594D01*
Y137094D01*
X41927D01*
X45926Y135761D02*
X47259D01*
X47925Y135095D01*
Y133095D01*
X45926D01*
X45259Y133762D01*
X45926Y134428D01*
X47925D01*
X49258Y133095D02*
X51257D01*
X51924Y133762D01*
X51257Y134428D01*
X49924D01*
X49258Y135095D01*
X49924Y135761D01*
X51924D01*
X57256Y137094D02*
Y133095D01*
X59255D01*
X59921Y133762D01*
Y134428D01*
X59255Y135095D01*
X57256D01*
X59255D01*
X59921Y135761D01*
Y136428D01*
X59255Y137094D01*
X57256D01*
X63253Y133095D02*
X61921D01*
X61254Y133762D01*
Y135095D01*
X61921Y135761D01*
X63253D01*
X63920Y135095D01*
Y134428D01*
X61254D01*
X65253Y133095D02*
X66586D01*
X65919D01*
Y137094D01*
X65253D01*
X68585Y133095D02*
X70584D01*
X71251Y133762D01*
X70584Y134428D01*
X69252D01*
X68585Y135095D01*
X69252Y135761D01*
X71251D01*
X73250Y136428D02*
Y135761D01*
X72584D01*
X73917D01*
X73250D01*
Y133762D01*
X73917Y133095D01*
X77916D02*
X76583D01*
X75916Y133762D01*
Y135095D01*
X76583Y135761D01*
X77916D01*
X78582Y135095D01*
Y134428D01*
X75916D01*
X79915Y133095D02*
Y135761D01*
X81914D01*
X82581Y135095D01*
Y133095D01*
X22600Y125897D02*
X23933D01*
X23267D01*
Y129896D01*
X22600Y129229D01*
X25932D02*
X26599Y129896D01*
X27932D01*
X28598Y129229D01*
Y126563D01*
X27932Y125897D01*
X26599D01*
X25932Y126563D01*
Y129229D01*
X29931Y125897D02*
X32597Y128563D01*
X33930Y129229D02*
X34596Y129896D01*
X35929D01*
X36595Y129229D01*
Y128563D01*
X35929Y127896D01*
X36595Y127230D01*
Y126563D01*
X35929Y125897D01*
X34596D01*
X33930Y126563D01*
Y127230D01*
X34596Y127896D01*
X33930Y128563D01*
Y129229D01*
X34596Y127896D02*
X35929D01*
X37928Y125897D02*
X40594Y128563D01*
X44593Y125897D02*
X41927D01*
X44593Y128563D01*
Y129229D01*
X43926Y129896D01*
X42594D01*
X41927Y129229D01*
X45926D02*
X46592Y129896D01*
X47925D01*
X48592Y129229D01*
Y126563D01*
X47925Y125897D01*
X46592D01*
X45926Y126563D01*
Y129229D01*
X52590Y125897D02*
X49924D01*
X52590Y128563D01*
Y129229D01*
X51924Y129896D01*
X50591D01*
X49924Y129229D01*
X53923D02*
X54590Y129896D01*
X55923D01*
X56589Y129229D01*
Y126563D01*
X55923Y125897D01*
X54590D01*
X53923Y126563D01*
Y129229D01*
X22600Y118699D02*
Y122697D01*
X23933Y121364D01*
X25266Y122697D01*
Y118699D01*
X26599Y122697D02*
X27932D01*
X27265D01*
Y118699D01*
X26599D01*
X27932D01*
X29931Y122697D02*
X32597D01*
X31264D01*
Y118699D01*
X40594Y122031D02*
X39928Y122697D01*
X38595D01*
X37928Y122031D01*
Y121364D01*
X38595Y120698D01*
X39928D01*
X40594Y120031D01*
Y119365D01*
X39928Y118699D01*
X38595D01*
X37928Y119365D01*
X41927Y122697D02*
X44593D01*
X43260D01*
Y118699D01*
X45926D02*
Y121364D01*
X47259Y122697D01*
X48592Y121364D01*
Y118699D01*
Y120698D01*
X45926D01*
X49924Y118699D02*
Y122697D01*
X51924D01*
X52590Y122031D01*
Y120698D01*
X51924Y120031D01*
X49924D01*
X51257D02*
X52590Y118699D01*
X53923Y122697D02*
Y118699D01*
X56589D01*
X58588Y121364D02*
X59921D01*
X60588Y120698D01*
Y118699D01*
X58588D01*
X57922Y119365D01*
X58588Y120031D01*
X60588D01*
X61921Y122697D02*
Y118699D01*
X63920D01*
X64587Y119365D01*
Y120031D01*
Y120698D01*
X63920Y121364D01*
X61921D01*
X22600Y111500D02*
Y115499D01*
X24599D01*
X25266Y114832D01*
Y113499D01*
X24599Y112833D01*
X22600D01*
X23933D02*
X25266Y111500D01*
X29265Y115499D02*
X26599D01*
Y111500D01*
X29265D01*
X26599Y113499D02*
X27932D01*
X30597Y115499D02*
Y112833D01*
X31930Y111500D01*
X33263Y112833D01*
Y115499D01*
X34596Y111500D02*
Y112167D01*
X35263D01*
Y111500D01*
X34596D01*
X37928D02*
Y114166D01*
X39261Y115499D01*
X40594Y114166D01*
Y111500D01*
Y113499D01*
X37928D01*
X52501Y165500D02*
Y169499D01*
X54500Y167499D01*
X51834D01*
X47500Y168832D02*
X46834Y169499D01*
X45501D01*
X44834Y168832D01*
Y168166D01*
X45501Y167499D01*
X46167D01*
X45501D01*
X44834Y166833D01*
Y166166D01*
X45501Y165500D01*
X46834D01*
X47500Y166166D01*
X37834Y165500D02*
X40500D01*
X37834Y168166D01*
Y168832D01*
X38501Y169499D01*
X39834D01*
X40500Y168832D01*
X33000Y165500D02*
X31667D01*
X32334D01*
Y169499D01*
X33000Y168832D01*
X26500D02*
X25834Y169499D01*
X24501D01*
X23834Y168832D01*
Y166166D01*
X24501Y165500D01*
X25834D01*
X26500Y166166D01*
Y168832D01*
X61056Y173366D02*
X61722Y172699D01*
Y171367D01*
X61056Y170700D01*
X58390D01*
X57723Y171367D01*
Y172699D01*
X58390Y173366D01*
X61056Y177365D02*
X61722Y176698D01*
Y175365D01*
X61056Y174699D01*
X60389D01*
X59723Y175365D01*
Y176698D01*
X59056Y177365D01*
X58390D01*
X57723Y176698D01*
Y175365D01*
X58390Y174699D01*
X17000Y72500D02*
X20999D01*
Y74499D01*
X20332Y75166D01*
X18999D01*
X18333Y74499D01*
Y72500D01*
X20999Y78498D02*
Y77165D01*
X20332Y76499D01*
X17666D01*
X17000Y77165D01*
Y78498D01*
X17666Y79164D01*
X20332D01*
X20999Y78498D01*
Y80497D02*
X17000D01*
Y83163D01*
Y85500D02*
X20999D01*
Y87499D01*
X20332Y88166D01*
X18999D01*
X18333Y87499D01*
Y85500D01*
X20999Y89499D02*
X17000D01*
X18999D01*
Y92164D01*
X20999D01*
X17000D01*
X20332Y97166D02*
X20999Y96499D01*
Y95166D01*
X20332Y94500D01*
X19666D01*
X18999Y95166D01*
Y96499D01*
X18333Y97166D01*
X17666D01*
X17000Y96499D01*
Y95166D01*
X17666Y94500D01*
X20999Y98499D02*
X17000D01*
Y101164D01*
X20999Y102497D02*
X17000D01*
X18333Y103830D01*
X17000Y105163D01*
X20999D01*
Y110666D02*
Y108000D01*
X17000D01*
Y110666D01*
X18999Y108000D02*
Y109333D01*
X17000Y111999D02*
X20999D01*
X17000Y114664D01*
X20999D01*
D45*
X55800Y171700D02*
Y178300D01*
X51200Y171700D02*
X55800D01*
X51200D02*
Y178300D01*
X55800D01*
X53500Y170800D02*
Y170900D01*
X48800Y171700D02*
Y178300D01*
X44200Y171700D02*
X48800D01*
X44200D02*
Y178300D01*
X48800D01*
X46500Y170800D02*
Y170900D01*
X41800Y171700D02*
Y178300D01*
X37200Y171700D02*
X41800D01*
X37200D02*
Y178300D01*
X41800D01*
X39500Y170800D02*
Y170900D01*
X34800Y171700D02*
Y178300D01*
X30200Y171700D02*
X34800D01*
X30200D02*
Y178300D01*
X34800D01*
X32500Y170800D02*
Y170900D01*
X27800Y171700D02*
Y178300D01*
X23200Y171700D02*
X27800D01*
X23200D02*
Y178300D01*
X27800D01*
X25500Y170800D02*
Y170900D01*
X3700Y77800D02*
X13300D01*
Y73200D02*
Y77800D01*
X3700Y73200D02*
X13300D01*
X3700D02*
Y77800D01*
X14100Y75500D02*
X14200D01*
X3700Y89800D02*
X13300D01*
Y85200D02*
Y89800D01*
X3700Y85200D02*
X13300D01*
X3700D02*
Y89800D01*
X14100Y87500D02*
X14200D01*
X3700Y101300D02*
X13300D01*
Y96700D02*
Y101300D01*
X3700Y96700D02*
X13300D01*
X3700D02*
Y101300D01*
X14100Y99000D02*
X14200D01*
X3700Y113300D02*
X13300D01*
Y108700D02*
Y113300D01*
X3700Y108700D02*
X13300D01*
X3700D02*
Y113300D01*
X14100Y111000D02*
X14200D01*
M02*
