G04*
G04 #@! TF.GenerationSoftware,Altium Limited,Altium Designer,19.1.8 (144)*
G04*
G04 Layer_Physical_Order=2*
G04 Layer_Color=16711680*
%FSLAX24Y24*%
%MOIN*%
G70*
G01*
G75*
%ADD11C,0.0100*%
%ADD50C,0.0300*%
%ADD52C,0.1220*%
%ADD53C,0.0551*%
%ADD54R,0.0551X0.0551*%
%ADD55R,0.0700X0.0700*%
%ADD56C,0.0700*%
%ADD57C,0.1800*%
%ADD58R,0.0700X0.0700*%
%ADD59C,0.0300*%
%ADD60C,0.0400*%
D11*
X21950Y15050D02*
Y20721D01*
X21100Y21571D02*
X21950Y20721D01*
X21100Y21571D02*
Y27350D01*
X21600Y27850D01*
X17300Y25550D02*
X17350Y25500D01*
X17300Y25550D02*
Y27150D01*
X17350Y25200D02*
Y25500D01*
X10750Y19526D02*
Y20050D01*
X10350Y19126D02*
X10750Y19526D01*
X10350Y16350D02*
Y19126D01*
X11450Y15000D02*
Y17850D01*
X11500Y17900D01*
X11100Y14650D02*
X11450Y15000D01*
X13375Y20225D02*
Y24325D01*
X10500Y20446D02*
Y20800D01*
Y20446D02*
X10550Y20396D01*
X10450Y19650D02*
Y20296D01*
X10550Y20396D01*
X13650Y18800D02*
Y18950D01*
X13800Y19100D01*
X16275Y22125D02*
Y23325D01*
X16250Y22100D02*
X16275Y22125D01*
X16250Y22000D02*
Y22100D01*
Y22000D02*
X16650Y21600D01*
X12300Y18870D02*
Y19126D01*
X11800Y19626D02*
X12300Y19126D01*
X23600Y18300D02*
X23650Y18350D01*
X13800Y19100D02*
Y25800D01*
X23300Y14850D02*
Y14950D01*
X23000Y14550D02*
X23300Y14850D01*
X23000Y13250D02*
Y14550D01*
X23600Y11850D02*
Y18300D01*
X22500Y13375D02*
Y15900D01*
X22250Y13125D02*
X22500Y13375D01*
X22250Y10600D02*
Y13125D01*
X13950Y11900D02*
Y14750D01*
X12950Y15750D02*
X13950Y14750D01*
X11750Y16850D02*
Y17200D01*
X17312Y25162D02*
X17350Y25200D01*
X17312Y24912D02*
Y25162D01*
X16250Y23850D02*
X17312Y24912D01*
X11750Y17200D02*
X11800Y17250D01*
Y17550D01*
X21200Y18950D02*
Y20600D01*
X20950Y20850D02*
X21200Y20600D01*
X11350Y20350D02*
X11450Y20250D01*
Y18800D02*
Y20250D01*
X11350Y20350D02*
Y20650D01*
X14000Y22300D02*
X14850Y23150D01*
X14000Y18450D02*
Y22300D01*
X16200Y21546D02*
Y21600D01*
Y21546D02*
X16300Y21446D01*
Y16650D02*
Y21446D01*
X16650Y16900D02*
Y21600D01*
X14150Y16450D02*
Y17250D01*
X12534Y15216D02*
X13100Y14650D01*
X12534Y15216D02*
Y15734D01*
X14000Y15700D02*
Y16300D01*
X14150Y16450D01*
X21600Y25850D02*
Y26850D01*
X16275Y23325D02*
X16300Y23350D01*
X11800Y19626D02*
Y24950D01*
X12100Y19750D02*
X12800Y19050D01*
X12100Y19750D02*
Y27057D01*
X12900Y19400D02*
X13150Y19150D01*
Y18750D02*
Y19150D01*
X12900Y19400D02*
Y21443D01*
X13100Y21643D01*
X12600Y26850D02*
X13500Y25950D01*
X13100Y24791D02*
X13500Y25191D01*
Y25950D01*
X13375Y24325D02*
X13450Y24400D01*
X13100Y21643D02*
Y24791D01*
X12600Y25850D02*
X12625Y25825D01*
X12100Y27057D02*
X12300Y27257D01*
Y27550D01*
X12600Y27850D01*
X13300Y20150D02*
X13375Y20225D01*
X14850Y23150D02*
X15450Y23750D01*
Y25200D01*
X14450Y17650D02*
X14475Y17675D01*
Y19575D01*
X14500Y19600D01*
X19550Y22050D02*
X19625Y21975D01*
Y19925D02*
Y21975D01*
Y19925D02*
X19700Y19850D01*
Y18550D02*
X20200Y18050D01*
Y16600D02*
Y18050D01*
X19450Y16600D02*
Y17900D01*
X19700Y18550D02*
Y19850D01*
X10000Y10000D02*
Y29050D01*
X24050D01*
X24050Y10000D01*
X10000D02*
X24050D01*
D50*
X15400Y14264D02*
Y15300D01*
X14950Y13814D02*
X15400Y14264D01*
X14450Y17650D02*
X15750Y16350D01*
Y15750D02*
Y16350D01*
X14950Y12650D02*
Y13814D01*
X18250Y19496D02*
Y19550D01*
X18100Y19346D02*
X18250Y19496D01*
X18100Y14559D02*
Y19346D01*
D52*
X15100Y11059D02*
D03*
X19600D02*
D03*
D53*
X17600Y13559D02*
D03*
X17100Y14559D02*
D03*
X18100D02*
D03*
X16600Y13559D02*
D03*
X18600D02*
D03*
X16100Y14559D02*
D03*
X19100D02*
D03*
D54*
X15600Y13559D02*
D03*
D55*
X12600Y27850D02*
D03*
D56*
Y26850D02*
D03*
Y25850D02*
D03*
Y24850D02*
D03*
Y23850D02*
D03*
Y22850D02*
D03*
Y21850D02*
D03*
X21600Y27850D02*
D03*
Y26850D02*
D03*
Y25850D02*
D03*
Y24850D02*
D03*
Y23850D02*
D03*
Y22850D02*
D03*
Y21850D02*
D03*
X12100Y14650D02*
D03*
X11100D02*
D03*
X13100Y10650D02*
D03*
X12100D02*
D03*
X11100D02*
D03*
D57*
X11000Y27500D02*
D03*
X23100D02*
D03*
D58*
X13100Y14650D02*
D03*
D59*
X17300Y27150D02*
D03*
X10350Y16350D02*
D03*
X11500Y17900D02*
D03*
X10450Y19650D02*
D03*
X13650Y18800D02*
D03*
X16250Y22100D02*
D03*
X12300Y18870D02*
D03*
X23650Y18350D02*
D03*
X23300Y14950D02*
D03*
X12950Y15750D02*
D03*
X11750Y16850D02*
D03*
X17350Y25200D02*
D03*
X16250Y23850D02*
D03*
X11800Y17550D02*
D03*
X23000Y13250D02*
D03*
X21200Y18950D02*
D03*
X20950Y20850D02*
D03*
X10500Y20800D02*
D03*
X11350Y20650D02*
D03*
X11450Y18800D02*
D03*
X14000Y18450D02*
D03*
X14150Y17250D02*
D03*
X10750Y20050D02*
D03*
X23600Y11850D02*
D03*
X13950Y11900D02*
D03*
X16200Y21600D02*
D03*
X16300Y16650D02*
D03*
X16650Y16900D02*
D03*
X13150Y18750D02*
D03*
X12800Y19050D02*
D03*
X12534Y15734D02*
D03*
X14000Y15700D02*
D03*
X16300Y23350D02*
D03*
X13350Y21250D02*
D03*
X11800Y24950D02*
D03*
X13800Y25800D02*
D03*
X13450Y24400D02*
D03*
X13300Y20150D02*
D03*
X14850Y23150D02*
D03*
X15450Y25200D02*
D03*
X14500Y19600D02*
D03*
X19550Y22050D02*
D03*
X20200Y16600D02*
D03*
X22500Y15900D02*
D03*
X22250Y10600D02*
D03*
X21950Y15050D02*
D03*
X19450Y17900D02*
D03*
Y16600D02*
D03*
X19700Y18550D02*
D03*
Y19850D02*
D03*
D60*
X15750Y15750D02*
D03*
X15400Y15300D02*
D03*
X14950Y12650D02*
D03*
X18250Y19550D02*
D03*
X14450Y17650D02*
D03*
M02*
