G04*
G04 #@! TF.GenerationSoftware,Altium Limited,Altium Designer,19.1.8 (144)*
G04*
G04 Layer_Color=8388736*
%FSLAX24Y24*%
%MOIN*%
G70*
G01*
G75*
%ADD11C,0.0100*%
%ADD14R,0.0533X0.0493*%
%ADD15R,0.0336X0.0493*%
%ADD16O,0.0198X0.0730*%
%ADD17R,0.0395X0.0454*%
%ADD18R,0.0356X0.0415*%
%ADD19R,0.0356X0.0434*%
%ADD20R,0.0434X0.0474*%
%ADD21R,0.0493X0.0533*%
G04:AMPARAMS|DCode=22|XSize=136mil|YSize=88.7mil|CornerRadius=6mil|HoleSize=0mil|Usage=FLASHONLY|Rotation=90.000|XOffset=0mil|YOffset=0mil|HoleType=Round|Shape=RoundedRectangle|*
%AMROUNDEDRECTD22*
21,1,0.1360,0.0767,0,0,90.0*
21,1,0.1239,0.0887,0,0,90.0*
1,1,0.0120,0.0383,0.0620*
1,1,0.0120,0.0383,-0.0620*
1,1,0.0120,-0.0383,-0.0620*
1,1,0.0120,-0.0383,0.0620*
%
%ADD22ROUNDEDRECTD22*%
G04:AMPARAMS|DCode=23|XSize=47.4mil|YSize=88.7mil|CornerRadius=6mil|HoleSize=0mil|Usage=FLASHONLY|Rotation=90.000|XOffset=0mil|YOffset=0mil|HoleType=Round|Shape=RoundedRectangle|*
%AMROUNDEDRECTD23*
21,1,0.0474,0.0768,0,0,90.0*
21,1,0.0354,0.0887,0,0,90.0*
1,1,0.0119,0.0384,0.0177*
1,1,0.0119,0.0384,-0.0177*
1,1,0.0119,-0.0384,-0.0177*
1,1,0.0119,-0.0384,0.0177*
%
%ADD23ROUNDEDRECTD23*%
%ADD24R,0.0671X0.0671*%
%ADD25R,0.0474X0.0395*%
%ADD26R,0.0374X0.0276*%
%ADD27R,0.0395X0.0474*%
%ADD28C,0.1300*%
%ADD29C,0.0631*%
%ADD30R,0.0631X0.0631*%
%ADD31R,0.0780X0.0780*%
%ADD32C,0.0780*%
%ADD33C,0.1880*%
%ADD34R,0.0780X0.0780*%
%ADD35C,0.0380*%
%ADD36C,0.0480*%
D11*
X10000Y10000D02*
Y29050D01*
X24050D01*
X24050Y10000D01*
X10000D02*
X24050D01*
D14*
X15775Y27150D02*
D03*
X16425D02*
D03*
X14975Y23800D02*
D03*
X15625D02*
D03*
D15*
X11400Y15800D02*
D03*
X10731D02*
D03*
X13985Y19400D02*
D03*
X13315D02*
D03*
X20119Y15800D02*
D03*
X19450D02*
D03*
X23285Y14400D02*
D03*
X22615D02*
D03*
D16*
X12211Y16383D02*
D03*
X12408D02*
D03*
X12605D02*
D03*
X12802D02*
D03*
X12998D02*
D03*
X13195D02*
D03*
X13392D02*
D03*
X13589D02*
D03*
X12211Y18017D02*
D03*
X12408D02*
D03*
X12605D02*
D03*
X12802D02*
D03*
X12998D02*
D03*
X13195D02*
D03*
X13392D02*
D03*
X13589D02*
D03*
D17*
X21084Y11050D02*
D03*
X21616D02*
D03*
D18*
X16554Y15700D02*
D03*
X17046D02*
D03*
D19*
X15124Y22000D02*
D03*
X15676D02*
D03*
D20*
X17466Y25800D02*
D03*
X16934D02*
D03*
X11266Y16850D02*
D03*
X10734D02*
D03*
X21566Y13200D02*
D03*
X21034D02*
D03*
D21*
X14850Y15765D02*
D03*
Y16435D02*
D03*
D22*
X17850Y18450D02*
D03*
D23*
X15350Y17544D02*
D03*
Y18450D02*
D03*
Y19356D02*
D03*
D24*
X23050Y12489D02*
D03*
Y11111D02*
D03*
D25*
X23100Y19205D02*
D03*
Y19795D02*
D03*
Y17855D02*
D03*
Y18445D02*
D03*
X21795Y19255D02*
D03*
Y19845D02*
D03*
X20450Y19305D02*
D03*
Y19895D02*
D03*
X21800Y17855D02*
D03*
Y18445D02*
D03*
X20450Y17955D02*
D03*
Y18545D02*
D03*
D26*
X18675Y15700D02*
D03*
X18025D02*
D03*
D27*
X17105Y23800D02*
D03*
X17695D02*
D03*
X14855Y25800D02*
D03*
X15445D02*
D03*
D28*
X15100Y11059D02*
D03*
X19600D02*
D03*
D29*
X17600Y13559D02*
D03*
X17100Y14559D02*
D03*
X18100D02*
D03*
X16600Y13559D02*
D03*
X18600D02*
D03*
X16100Y14559D02*
D03*
X19100D02*
D03*
D30*
X15600Y13559D02*
D03*
D31*
X12600Y27850D02*
D03*
D32*
Y26850D02*
D03*
Y25850D02*
D03*
Y24850D02*
D03*
Y23850D02*
D03*
Y22850D02*
D03*
Y21850D02*
D03*
X21600Y27850D02*
D03*
Y26850D02*
D03*
Y25850D02*
D03*
Y24850D02*
D03*
Y23850D02*
D03*
Y22850D02*
D03*
Y21850D02*
D03*
X12100Y14650D02*
D03*
X11100D02*
D03*
X13100Y10650D02*
D03*
X12100D02*
D03*
X11100D02*
D03*
D33*
X11000Y27500D02*
D03*
X23100D02*
D03*
D34*
X13100Y14650D02*
D03*
D35*
X17300Y27150D02*
D03*
X10350Y16350D02*
D03*
X11500Y17900D02*
D03*
X10450Y19650D02*
D03*
X13650Y18800D02*
D03*
X16250Y22100D02*
D03*
X12300Y18870D02*
D03*
X23650Y18350D02*
D03*
X23300Y14950D02*
D03*
X12950Y15750D02*
D03*
X11750Y16850D02*
D03*
X17350Y25200D02*
D03*
X16250Y23850D02*
D03*
X11800Y17550D02*
D03*
X23000Y13250D02*
D03*
X21200Y18950D02*
D03*
X20950Y20850D02*
D03*
X10500Y20800D02*
D03*
X11350Y20650D02*
D03*
X11450Y18800D02*
D03*
X14000Y18450D02*
D03*
X14150Y17250D02*
D03*
X10750Y20050D02*
D03*
X23600Y11850D02*
D03*
X13950Y11900D02*
D03*
X16200Y21600D02*
D03*
X16300Y16650D02*
D03*
X16650Y16900D02*
D03*
X13150Y18750D02*
D03*
X12800Y19050D02*
D03*
X12534Y15734D02*
D03*
X14000Y15700D02*
D03*
X16300Y23350D02*
D03*
X13350Y21250D02*
D03*
X11800Y24950D02*
D03*
X13800Y25800D02*
D03*
X13450Y24400D02*
D03*
X13300Y20150D02*
D03*
X14850Y23150D02*
D03*
X15450Y25200D02*
D03*
X14500Y19600D02*
D03*
X19550Y22050D02*
D03*
X20200Y16600D02*
D03*
X22500Y15900D02*
D03*
X22250Y10600D02*
D03*
X21950Y15050D02*
D03*
X19450Y17900D02*
D03*
Y16600D02*
D03*
X19700Y18550D02*
D03*
Y19850D02*
D03*
D36*
X15750Y15750D02*
D03*
X15400Y15300D02*
D03*
X14950Y12650D02*
D03*
X18250Y19550D02*
D03*
X14450Y17650D02*
D03*
M02*
