M48
;Layer_Color=9474304
;FILE_FORMAT=2:4
INCH
;TYPE=PLATED
T1F00S00C0.0120
T2F00S00C0.0200
T3F00S00C0.0350
T4F00S00C0.0354
T5F00S00C0.0900
%
T01
X013950Y011900
X022250Y010600
X023600Y011850
X023000Y013250
X023300Y014950
X021950Y015050
X022500Y015900
X020200Y016600
X019450
Y017900
X019700Y018550
Y019850
X020950Y020850
X021200Y018950
X023650Y018350
X019550Y022050
X016250Y022100
X016200Y021600
X016300Y023350
X016250Y023850
X017350Y025200
X017300Y027150
X016650Y016900
X016300Y016650
X014150Y017250
X014000Y018450
X013650Y018800
X013150Y018750
X012800Y019050
X012300Y018870
X011450Y018800
X011500Y017900
X011800Y017550
X011750Y016850
X010350Y016350
X012534Y015734
X012950Y015750
X014000Y015700
X014500Y019600
X013300Y020150
X013350Y021250
X011350Y020650
X010500Y020800
X010750Y020050
X010450Y019650
X011800Y024950
X013450Y024400
X013800Y025800
X015450Y025200
X014850Y023150
T02
X014950Y012650
X015400Y015300
X015750Y015750
X018250Y019550
X014450Y017650
T03
X011100Y010650
X012100
X013100
Y014650
X012100
X011100
X021600Y021850
Y022850
Y023850
Y024850
Y025850
Y026850
Y027850
X012600
Y026850
Y025850
Y024850
Y023850
Y022850
Y021850
T04
X015600Y013559
X016600
X017600
X018600
X018100Y014559
X017100
X016100
X019100
T05
X023100Y027500
X011000
M30
